G04 #@! TF.FileFunction,Soldermask,Top*
%FSLAX46Y46*%
G04 Gerber Fmt 4.6, Leading zero omitted, Abs format (unit mm)*
G04 Created by KiCad (PCBNEW (2015-06-12 BZR 5734)-product) date Saturday, June 20, 2015 'PMt' 05:40:19 PM*
%MOMM*%
G01*
G04 APERTURE LIST*
%ADD10C,0.100000*%
%ADD11C,0.300000*%
%ADD12C,3.000000*%
%ADD13C,0.500000*%
%ADD14C,1.524000*%
%ADD15R,1.250000X1.500000*%
%ADD16R,0.850000X1.500000*%
%ADD17O,0.850000X1.500000*%
%ADD18C,2.300000*%
%ADD19C,2.000000*%
%ADD20R,2.286000X1.574800*%
%ADD21O,2.286000X1.574800*%
%ADD22R,3.200000X3.200000*%
%ADD23R,1.500000X1.250000*%
%ADD24R,0.600000X0.700000*%
%ADD25R,1.000000X0.370000*%
%ADD26R,0.370000X1.000000*%
%ADD27R,1.062500X1.062500*%
%ADD28R,1.500000X1.300000*%
%ADD29R,1.300000X1.500000*%
%ADD30R,0.700000X0.600000*%
%ADD31R,2.540000X2.006600*%
%ADD32R,2.540000X2.209800*%
%ADD33R,3.048000X2.692400*%
%ADD34R,2.692400X3.048000*%
%ADD35C,1.778000*%
%ADD36R,2.006600X2.540000*%
%ADD37R,2.209800X2.540000*%
%ADD38R,0.800000X0.200000*%
%ADD39R,0.200000X0.800000*%
%ADD40R,1.112500X1.112500*%
%ADD41R,1.400000X1.200000*%
%ADD42C,1.676400*%
%ADD43R,1.676400X1.676400*%
G04 APERTURE END LIST*
D10*
D11*
X92739001Y-70508571D02*
X93739001Y-70508571D01*
X92739001Y-72008571D01*
X93739001Y-72008571D01*
X94310429Y-71222857D02*
X94810429Y-71222857D01*
X95024715Y-72008571D02*
X94310429Y-72008571D01*
X94310429Y-70508571D01*
X95024715Y-70508571D01*
X95453286Y-70508571D02*
X96310429Y-70508571D01*
X95881858Y-72008571D02*
X95881858Y-70508571D01*
X96739000Y-71580000D02*
X97453286Y-71580000D01*
X96596143Y-72008571D02*
X97096143Y-70508571D01*
X97596143Y-72008571D01*
X98381857Y-70508571D02*
X98667571Y-70508571D01*
X98810429Y-70580000D01*
X98953286Y-70722857D01*
X99024714Y-71008571D01*
X99024714Y-71508571D01*
X98953286Y-71794286D01*
X98810429Y-71937143D01*
X98667571Y-72008571D01*
X98381857Y-72008571D01*
X98239000Y-71937143D01*
X98096143Y-71794286D01*
X98024714Y-71508571D01*
X98024714Y-71008571D01*
X98096143Y-70722857D01*
X98239000Y-70580000D01*
X98381857Y-70508571D01*
X99667572Y-72008571D02*
X99667572Y-70508571D01*
X99667572Y-71222857D02*
X100524715Y-71222857D01*
X100524715Y-72008571D02*
X100524715Y-70508571D01*
X101239001Y-72008571D02*
X101239001Y-70508571D01*
X101739001Y-71580000D01*
X102239001Y-70508571D01*
X102239001Y-72008571D01*
X104024715Y-71580000D02*
X104739001Y-71580000D01*
X103881858Y-72008571D02*
X104381858Y-70508571D01*
X104881858Y-72008571D01*
X105881858Y-71222857D02*
X105381858Y-71222857D01*
X105381858Y-72008571D02*
X105381858Y-70508571D01*
X106096144Y-70508571D01*
X106524715Y-70508571D02*
X107524715Y-72008571D01*
X107524715Y-70508571D02*
X106524715Y-72008571D01*
X108096143Y-71437143D02*
X109239000Y-71437143D01*
X110239000Y-70508571D02*
X110381857Y-70508571D01*
X110524714Y-70580000D01*
X110596143Y-70651429D01*
X110667572Y-70794286D01*
X110739000Y-71080000D01*
X110739000Y-71437143D01*
X110667572Y-71722857D01*
X110596143Y-71865714D01*
X110524714Y-71937143D01*
X110381857Y-72008571D01*
X110239000Y-72008571D01*
X110096143Y-71937143D01*
X110024714Y-71865714D01*
X109953286Y-71722857D01*
X109881857Y-71437143D01*
X109881857Y-71080000D01*
X109953286Y-70794286D01*
X110024714Y-70651429D01*
X110096143Y-70580000D01*
X110239000Y-70508571D01*
X112167571Y-72008571D02*
X111310428Y-72008571D01*
X111739000Y-72008571D02*
X111739000Y-70508571D01*
X111596143Y-70722857D01*
X111453285Y-70865714D01*
X111310428Y-70937143D01*
X94524715Y-74408571D02*
X94524715Y-72908571D01*
X95096143Y-72908571D01*
X95239001Y-72980000D01*
X95310429Y-73051429D01*
X95381858Y-73194286D01*
X95381858Y-73408571D01*
X95310429Y-73551429D01*
X95239001Y-73622857D01*
X95096143Y-73694286D01*
X94524715Y-73694286D01*
X96881858Y-74408571D02*
X96381858Y-73694286D01*
X96024715Y-74408571D02*
X96024715Y-72908571D01*
X96596143Y-72908571D01*
X96739001Y-72980000D01*
X96810429Y-73051429D01*
X96881858Y-73194286D01*
X96881858Y-73408571D01*
X96810429Y-73551429D01*
X96739001Y-73622857D01*
X96596143Y-73694286D01*
X96024715Y-73694286D01*
X97810429Y-72908571D02*
X98096143Y-72908571D01*
X98239001Y-72980000D01*
X98381858Y-73122857D01*
X98453286Y-73408571D01*
X98453286Y-73908571D01*
X98381858Y-74194286D01*
X98239001Y-74337143D01*
X98096143Y-74408571D01*
X97810429Y-74408571D01*
X97667572Y-74337143D01*
X97524715Y-74194286D01*
X97453286Y-73908571D01*
X97453286Y-73408571D01*
X97524715Y-73122857D01*
X97667572Y-72980000D01*
X97810429Y-72908571D01*
X98881858Y-72908571D02*
X99739001Y-72908571D01*
X99310430Y-74408571D02*
X99310430Y-72908571D01*
X100524715Y-72908571D02*
X100810429Y-72908571D01*
X100953287Y-72980000D01*
X101096144Y-73122857D01*
X101167572Y-73408571D01*
X101167572Y-73908571D01*
X101096144Y-74194286D01*
X100953287Y-74337143D01*
X100810429Y-74408571D01*
X100524715Y-74408571D01*
X100381858Y-74337143D01*
X100239001Y-74194286D01*
X100167572Y-73908571D01*
X100167572Y-73408571D01*
X100239001Y-73122857D01*
X100381858Y-72980000D01*
X100524715Y-72908571D01*
X101596144Y-72908571D02*
X102453287Y-72908571D01*
X102024716Y-74408571D02*
X102024716Y-72908571D01*
X103239001Y-73694286D02*
X103239001Y-74408571D01*
X102739001Y-72908571D02*
X103239001Y-73694286D01*
X103739001Y-72908571D01*
X104239001Y-74408571D02*
X104239001Y-72908571D01*
X104810429Y-72908571D01*
X104953287Y-72980000D01*
X105024715Y-73051429D01*
X105096144Y-73194286D01*
X105096144Y-73408571D01*
X105024715Y-73551429D01*
X104953287Y-73622857D01*
X104810429Y-73694286D01*
X104239001Y-73694286D01*
X105739001Y-73622857D02*
X106239001Y-73622857D01*
X106453287Y-74408571D02*
X105739001Y-74408571D01*
X105739001Y-72908571D01*
X106453287Y-72908571D01*
X108167572Y-73408571D02*
X109239001Y-73408571D01*
X108596144Y-72765714D02*
X108167572Y-74694286D01*
X109096144Y-74051429D02*
X108024715Y-74051429D01*
X108667572Y-74694286D02*
X109096144Y-72765714D01*
X110453287Y-72908571D02*
X109739001Y-72908571D01*
X109667572Y-73622857D01*
X109739001Y-73551429D01*
X109881858Y-73480000D01*
X110239001Y-73480000D01*
X110381858Y-73551429D01*
X110453287Y-73622857D01*
X110524715Y-73765714D01*
X110524715Y-74122857D01*
X110453287Y-74265714D01*
X110381858Y-74337143D01*
X110239001Y-74408571D01*
X109881858Y-74408571D01*
X109739001Y-74337143D01*
X109667572Y-74265714D01*
X94489000Y-75308571D02*
X95346143Y-75308571D01*
X94917572Y-76808571D02*
X94917572Y-75308571D01*
X95846143Y-76022857D02*
X96346143Y-76022857D01*
X96560429Y-76808571D02*
X95846143Y-76808571D01*
X95846143Y-75308571D01*
X96560429Y-75308571D01*
X97203286Y-76808571D02*
X97203286Y-75308571D01*
X98060429Y-76808571D01*
X98060429Y-75308571D01*
X98774715Y-76808571D02*
X98774715Y-75308571D01*
X99631858Y-76808571D02*
X98989001Y-75951429D01*
X99631858Y-75308571D02*
X98774715Y-76165714D01*
X100203286Y-76380000D02*
X100917572Y-76380000D01*
X100060429Y-76808571D02*
X100560429Y-75308571D01*
X101060429Y-76808571D01*
X101560429Y-76808571D02*
X101560429Y-75308571D01*
X103417572Y-76808571D02*
X103417572Y-75308571D01*
X104274715Y-76808571D02*
X103631858Y-75951429D01*
X104274715Y-75308571D02*
X103417572Y-76165714D01*
X104846143Y-76380000D02*
X105560429Y-76380000D01*
X104703286Y-76808571D02*
X105203286Y-75308571D01*
X105703286Y-76808571D01*
X107060429Y-76808571D02*
X106560429Y-76094286D01*
X106203286Y-76808571D02*
X106203286Y-75308571D01*
X106774714Y-75308571D01*
X106917572Y-75380000D01*
X106989000Y-75451429D01*
X107060429Y-75594286D01*
X107060429Y-75808571D01*
X106989000Y-75951429D01*
X106917572Y-76022857D01*
X106774714Y-76094286D01*
X106203286Y-76094286D01*
X107703286Y-76808571D02*
X107703286Y-75308571D01*
X108703286Y-76094286D02*
X108703286Y-76808571D01*
X108203286Y-75308571D02*
X108703286Y-76094286D01*
X109203286Y-75308571D01*
X109631857Y-76380000D02*
X110346143Y-76380000D01*
X109489000Y-76808571D02*
X109989000Y-75308571D01*
X110489000Y-76808571D01*
X97024715Y-77708571D02*
X97024715Y-78780000D01*
X96953287Y-78994286D01*
X96810430Y-79137143D01*
X96596144Y-79208571D01*
X96453287Y-79208571D01*
X97739001Y-77708571D02*
X97739001Y-78922857D01*
X97810429Y-79065714D01*
X97881858Y-79137143D01*
X98024715Y-79208571D01*
X98310429Y-79208571D01*
X98453287Y-79137143D01*
X98524715Y-79065714D01*
X98596144Y-78922857D01*
X98596144Y-77708571D01*
X99310430Y-79208571D02*
X99310430Y-77708571D01*
X100167573Y-79208571D01*
X100167573Y-77708571D01*
X100881859Y-78422857D02*
X101381859Y-78422857D01*
X101596145Y-79208571D02*
X100881859Y-79208571D01*
X100881859Y-77708571D01*
X101596145Y-77708571D01*
X103310430Y-77851429D02*
X103381859Y-77780000D01*
X103524716Y-77708571D01*
X103881859Y-77708571D01*
X104024716Y-77780000D01*
X104096145Y-77851429D01*
X104167573Y-77994286D01*
X104167573Y-78137143D01*
X104096145Y-78351429D01*
X103239002Y-79208571D01*
X104167573Y-79208571D01*
X105096144Y-77708571D02*
X105239001Y-77708571D01*
X105381858Y-77780000D01*
X105453287Y-77851429D01*
X105524716Y-77994286D01*
X105596144Y-78280000D01*
X105596144Y-78637143D01*
X105524716Y-78922857D01*
X105453287Y-79065714D01*
X105381858Y-79137143D01*
X105239001Y-79208571D01*
X105096144Y-79208571D01*
X104953287Y-79137143D01*
X104881858Y-79065714D01*
X104810430Y-78922857D01*
X104739001Y-78637143D01*
X104739001Y-78280000D01*
X104810430Y-77994286D01*
X104881858Y-77851429D01*
X104953287Y-77780000D01*
X105096144Y-77708571D01*
X107024715Y-79208571D02*
X106167572Y-79208571D01*
X106596144Y-79208571D02*
X106596144Y-77708571D01*
X106453287Y-77922857D01*
X106310429Y-78065714D01*
X106167572Y-78137143D01*
X108381858Y-77708571D02*
X107667572Y-77708571D01*
X107596143Y-78422857D01*
X107667572Y-78351429D01*
X107810429Y-78280000D01*
X108167572Y-78280000D01*
X108310429Y-78351429D01*
X108381858Y-78422857D01*
X108453286Y-78565714D01*
X108453286Y-78922857D01*
X108381858Y-79065714D01*
X108310429Y-79137143D01*
X108167572Y-79208571D01*
X107810429Y-79208571D01*
X107667572Y-79137143D01*
X107596143Y-79065714D01*
D12*
X179705000Y-138430000D03*
X94615000Y-138430000D03*
X94615000Y-27940000D03*
X179705000Y-27940000D03*
D13*
X102616000Y-93472000D03*
X172961300Y-132918200D03*
D14*
X139065000Y-31750000D03*
X136525000Y-31750000D03*
X133985000Y-31750000D03*
X131445000Y-31750000D03*
X128905000Y-31750000D03*
X141605000Y-31750000D03*
X144145000Y-31750000D03*
D15*
X166370000Y-67036000D03*
X166370000Y-64536000D03*
X174498000Y-67036000D03*
X174498000Y-64536000D03*
D14*
X162825000Y-135139000D03*
X156221000Y-135139000D03*
X156221000Y-139711000D03*
X162825000Y-139711000D03*
X148809000Y-135139000D03*
X142205000Y-135139000D03*
X142205000Y-139711000D03*
X148809000Y-139711000D03*
X134793000Y-135139000D03*
X128189000Y-135139000D03*
X128189000Y-139711000D03*
X134793000Y-139711000D03*
X120777000Y-135139000D03*
X114173000Y-135139000D03*
X114173000Y-139711000D03*
X120777000Y-139711000D03*
X162825000Y-120869000D03*
X156221000Y-120869000D03*
X156221000Y-125441000D03*
X162825000Y-125441000D03*
X148809000Y-120869000D03*
X142205000Y-120869000D03*
X142205000Y-125441000D03*
X148809000Y-125441000D03*
X134793000Y-120869000D03*
X128189000Y-120869000D03*
X128189000Y-125441000D03*
X134793000Y-125441000D03*
X120777000Y-120869000D03*
X114173000Y-120869000D03*
X114173000Y-125441000D03*
X120777000Y-125441000D03*
X162825000Y-106599000D03*
X156221000Y-106599000D03*
X156221000Y-111171000D03*
X162825000Y-111171000D03*
X148809000Y-106599000D03*
X142205000Y-106599000D03*
X142205000Y-111171000D03*
X148809000Y-111171000D03*
X134793000Y-106599000D03*
X128189000Y-106599000D03*
X128189000Y-111171000D03*
X134793000Y-111171000D03*
X120777000Y-106599000D03*
X114173000Y-106599000D03*
X114173000Y-111171000D03*
X120777000Y-111171000D03*
X162825000Y-92329000D03*
X156221000Y-92329000D03*
X156221000Y-96901000D03*
X162825000Y-96901000D03*
X148809000Y-92329000D03*
X142205000Y-92329000D03*
X142205000Y-96901000D03*
X148809000Y-96901000D03*
X134793000Y-92329000D03*
X128189000Y-92329000D03*
X128189000Y-96901000D03*
X134793000Y-96901000D03*
D16*
X157618000Y-131075000D03*
X158888000Y-131075000D03*
D17*
X160158000Y-131075000D03*
X161428000Y-131075000D03*
D16*
X143602000Y-131075000D03*
X144872000Y-131075000D03*
D17*
X146142000Y-131075000D03*
X147412000Y-131075000D03*
D16*
X129586000Y-131075000D03*
X130856000Y-131075000D03*
D17*
X132126000Y-131075000D03*
X133396000Y-131075000D03*
D16*
X115570000Y-131075000D03*
X116840000Y-131075000D03*
D17*
X118110000Y-131075000D03*
X119380000Y-131075000D03*
D16*
X157618000Y-116805000D03*
X158888000Y-116805000D03*
D17*
X160158000Y-116805000D03*
X161428000Y-116805000D03*
D16*
X143602000Y-116805000D03*
X144872000Y-116805000D03*
D17*
X146142000Y-116805000D03*
X147412000Y-116805000D03*
D16*
X129586000Y-116805000D03*
X130856000Y-116805000D03*
D17*
X132126000Y-116805000D03*
X133396000Y-116805000D03*
D16*
X115570000Y-116805000D03*
X116840000Y-116805000D03*
D17*
X118110000Y-116805000D03*
X119380000Y-116805000D03*
D16*
X157618000Y-102535000D03*
X158888000Y-102535000D03*
D17*
X160158000Y-102535000D03*
X161428000Y-102535000D03*
D16*
X143602000Y-102535000D03*
X144872000Y-102535000D03*
D17*
X146142000Y-102535000D03*
X147412000Y-102535000D03*
D16*
X129586000Y-102535000D03*
X130856000Y-102535000D03*
D17*
X132126000Y-102535000D03*
X133396000Y-102535000D03*
D16*
X115570000Y-102535000D03*
X116840000Y-102535000D03*
D17*
X118110000Y-102535000D03*
X119380000Y-102535000D03*
D16*
X157618000Y-88265000D03*
X158888000Y-88265000D03*
D17*
X160158000Y-88265000D03*
X161428000Y-88265000D03*
D16*
X143602000Y-88265000D03*
X144872000Y-88265000D03*
D17*
X146142000Y-88265000D03*
X147412000Y-88265000D03*
D16*
X129586000Y-88265000D03*
X130856000Y-88265000D03*
D17*
X132126000Y-88265000D03*
X133396000Y-88265000D03*
D18*
X167680000Y-46950000D03*
D19*
X180180000Y-54450000D03*
D18*
X170180000Y-44450000D03*
X170180000Y-51950000D03*
X170180000Y-59450000D03*
X167680000Y-56950000D03*
D19*
X180180000Y-49450000D03*
D14*
X177292000Y-114554000D03*
X170688000Y-114554000D03*
X170688000Y-119126000D03*
X177292000Y-119126000D03*
X177292000Y-120904000D03*
X170688000Y-120904000D03*
X170688000Y-125476000D03*
X177292000Y-125476000D03*
X104394000Y-113538000D03*
X104394000Y-120142000D03*
X108966000Y-120142000D03*
X108966000Y-113538000D03*
X96139000Y-113538000D03*
X96139000Y-120142000D03*
X100711000Y-120142000D03*
X100711000Y-113538000D03*
X104394000Y-103378000D03*
X104394000Y-109982000D03*
X108966000Y-109982000D03*
X108966000Y-103378000D03*
X96139000Y-103378000D03*
X96139000Y-109982000D03*
X100711000Y-109982000D03*
X100711000Y-103378000D03*
X155702000Y-78994000D03*
X149098000Y-78994000D03*
X149098000Y-83566000D03*
X155702000Y-83566000D03*
X141732000Y-78994000D03*
X135128000Y-78994000D03*
X135128000Y-83566000D03*
X141732000Y-83566000D03*
D16*
X115570000Y-88265000D03*
X116840000Y-88265000D03*
D17*
X118110000Y-88265000D03*
X119380000Y-88265000D03*
D18*
X160782000Y-39370000D03*
D19*
X168282000Y-26870000D03*
D18*
X158282000Y-36870000D03*
X165782000Y-36870000D03*
X173282000Y-36870000D03*
X170782000Y-39370000D03*
D19*
X163282000Y-26870000D03*
D14*
X120777000Y-92329000D03*
X114173000Y-92329000D03*
X114173000Y-96901000D03*
X120777000Y-96901000D03*
X127762000Y-78994000D03*
X121158000Y-78994000D03*
X121158000Y-83566000D03*
X127762000Y-83566000D03*
D20*
X164592000Y-52324000D03*
D21*
X164592000Y-49784000D03*
X164592000Y-47244000D03*
X164592000Y-44704000D03*
X156972000Y-44704000D03*
X156972000Y-47244000D03*
X156972000Y-49784000D03*
X156972000Y-52324000D03*
D14*
X171530000Y-102130000D03*
X174030000Y-102130000D03*
X176530000Y-102130000D03*
X176530000Y-87630000D03*
X171530000Y-87630000D03*
D22*
X168330000Y-94630000D03*
X179730000Y-94630000D03*
D14*
X99060000Y-49022000D03*
X101600000Y-49022000D03*
X104140000Y-49022000D03*
X106680000Y-49022000D03*
X109220000Y-49022000D03*
X111760000Y-49022000D03*
X114300000Y-49022000D03*
X116840000Y-49022000D03*
X119380000Y-49022000D03*
X121920000Y-49022000D03*
X124460000Y-49022000D03*
X127000000Y-49022000D03*
X127000000Y-64262000D03*
X124460000Y-64262000D03*
X121920000Y-64262000D03*
X119380000Y-64262000D03*
X116840000Y-64262000D03*
X114300000Y-64262000D03*
X111760000Y-64262000D03*
X109220000Y-64262000D03*
X106680000Y-64262000D03*
X104140000Y-64262000D03*
X101600000Y-64262000D03*
X114300000Y-51562000D03*
X116840000Y-51562000D03*
X119380000Y-51562000D03*
X121920000Y-51562000D03*
X124460000Y-51562000D03*
X124460000Y-61722000D03*
X121920000Y-61722000D03*
X119380000Y-61722000D03*
X116840000Y-61722000D03*
X114300000Y-61722000D03*
X111760000Y-61722000D03*
X109220000Y-61722000D03*
X109220000Y-51562000D03*
X106680000Y-61722000D03*
X104140000Y-61722000D03*
X101600000Y-61722000D03*
X96520000Y-61722000D03*
X127000000Y-61722000D03*
X127000000Y-59182000D03*
X93980000Y-49022000D03*
X127000000Y-54102000D03*
X127000000Y-51562000D03*
X93980000Y-64262000D03*
X96520000Y-64262000D03*
X99060000Y-64262000D03*
X127000000Y-56642000D03*
X96520000Y-49022000D03*
X111760000Y-51562000D03*
D15*
X124714000Y-95738000D03*
X124714000Y-93238000D03*
D23*
X123678000Y-37338000D03*
X121178000Y-37338000D03*
D15*
X173990000Y-82530000D03*
X173990000Y-80030000D03*
X170942000Y-80030000D03*
X170942000Y-82530000D03*
D23*
X160000000Y-66294000D03*
X157500000Y-66294000D03*
D24*
X179262000Y-72898000D03*
X177862000Y-72898000D03*
D25*
X170124000Y-130963000D03*
X170124000Y-131613000D03*
X170124000Y-132263000D03*
X170124000Y-132913000D03*
X170124000Y-133563000D03*
X170124000Y-134213000D03*
X170124000Y-134863000D03*
D26*
X171024000Y-135763000D03*
X171674000Y-135763000D03*
X172324000Y-135763000D03*
X172974000Y-135763000D03*
X173624000Y-135763000D03*
X174274000Y-135763000D03*
X174924000Y-135763000D03*
D25*
X175824000Y-134863000D03*
X175824000Y-134213000D03*
X175824000Y-133563000D03*
X175824000Y-132913000D03*
X175824000Y-132263000D03*
X175824000Y-131613000D03*
X175824000Y-130963000D03*
D26*
X174924000Y-130063000D03*
X174274000Y-130063000D03*
X173624000Y-130063000D03*
X172974000Y-130063000D03*
X172324000Y-130063000D03*
X171674000Y-130063000D03*
X171024000Y-130063000D03*
D27*
X174567750Y-134506750D03*
X174567750Y-133444250D03*
X174567750Y-132381750D03*
X174567750Y-131319250D03*
X173505250Y-134506750D03*
X173505250Y-133444250D03*
X173505250Y-132381750D03*
X173505250Y-131319250D03*
X172442750Y-134506750D03*
X172442750Y-133444250D03*
X172442750Y-132381750D03*
X172442750Y-131319250D03*
X171380250Y-134506750D03*
X171380250Y-133444250D03*
X171380250Y-132381750D03*
X171380250Y-131319250D03*
D25*
X99766000Y-91522000D03*
X99766000Y-92172000D03*
X99766000Y-92822000D03*
X99766000Y-93472000D03*
X99766000Y-94122000D03*
X99766000Y-94772000D03*
X99766000Y-95422000D03*
D26*
X100666000Y-96322000D03*
X101316000Y-96322000D03*
X101966000Y-96322000D03*
X102616000Y-96322000D03*
X103266000Y-96322000D03*
X103916000Y-96322000D03*
X104566000Y-96322000D03*
D25*
X105466000Y-95422000D03*
X105466000Y-94772000D03*
X105466000Y-94122000D03*
X105466000Y-93472000D03*
X105466000Y-92822000D03*
X105466000Y-92172000D03*
X105466000Y-91522000D03*
D26*
X104566000Y-90622000D03*
X103916000Y-90622000D03*
X103266000Y-90622000D03*
X102616000Y-90622000D03*
X101966000Y-90622000D03*
X101316000Y-90622000D03*
X100666000Y-90622000D03*
D27*
X104209750Y-95065750D03*
X104209750Y-94003250D03*
X104209750Y-92940750D03*
X104209750Y-91878250D03*
X103147250Y-95065750D03*
X103147250Y-94003250D03*
X103147250Y-92940750D03*
X103147250Y-91878250D03*
X102084750Y-95065750D03*
X102084750Y-94003250D03*
X102084750Y-92940750D03*
X102084750Y-91878250D03*
X101022250Y-95065750D03*
X101022250Y-94003250D03*
X101022250Y-92940750D03*
X101022250Y-91878250D03*
D28*
X111586000Y-88138000D03*
X108886000Y-88138000D03*
D29*
X170434000Y-32846000D03*
X170434000Y-30146000D03*
D28*
X177212000Y-75438000D03*
X179912000Y-75438000D03*
D29*
X108204000Y-28114000D03*
X108204000Y-30814000D03*
X164084000Y-30146000D03*
X164084000Y-32846000D03*
X167132000Y-30146000D03*
X167132000Y-32846000D03*
D28*
X176356000Y-56642000D03*
X173656000Y-56642000D03*
D29*
X170180000Y-105965000D03*
X170180000Y-108665000D03*
X172720000Y-105965000D03*
X172720000Y-108665000D03*
D15*
X124460000Y-110216000D03*
X124460000Y-107716000D03*
X124460000Y-124440000D03*
X124460000Y-121940000D03*
X124460000Y-136886000D03*
X124460000Y-134386000D03*
D23*
X177058000Y-70358000D03*
X179558000Y-70358000D03*
X157500000Y-63754000D03*
X160000000Y-63754000D03*
X157480000Y-68834000D03*
X159980000Y-68834000D03*
X157480000Y-71374000D03*
X159980000Y-71374000D03*
X157500000Y-76454000D03*
X160000000Y-76454000D03*
X157480000Y-73914000D03*
X159980000Y-73914000D03*
X108478000Y-34036000D03*
X110978000Y-34036000D03*
D15*
X168148000Y-82530000D03*
X168148000Y-80030000D03*
X165100000Y-80030000D03*
X165100000Y-82530000D03*
D23*
X105390000Y-34290000D03*
X102890000Y-34290000D03*
X105390000Y-31242000D03*
X102890000Y-31242000D03*
X176256000Y-53086000D03*
X173756000Y-53086000D03*
D15*
X167640000Y-108565000D03*
X167640000Y-106065000D03*
X180340000Y-108565000D03*
X180340000Y-106065000D03*
D30*
X172974000Y-47560000D03*
X172974000Y-48960000D03*
D31*
X120269000Y-27635200D03*
X120269000Y-30327600D03*
D32*
X112141000Y-28422600D03*
D33*
X112141000Y-37744400D03*
D34*
X116941600Y-41275000D03*
D35*
X116205000Y-29540200D03*
X116205000Y-36550600D03*
D36*
X94310200Y-35941000D03*
X97002600Y-35941000D03*
D37*
X95097600Y-44069000D03*
D34*
X104419400Y-44069000D03*
D33*
X107950000Y-39268400D03*
D35*
X96215200Y-40005000D03*
X103225600Y-40005000D03*
D23*
X159786000Y-80010000D03*
X162286000Y-80010000D03*
D28*
X123778000Y-34290000D03*
X121078000Y-34290000D03*
X162386000Y-82550000D03*
X159686000Y-82550000D03*
X102790000Y-27940000D03*
X105490000Y-27940000D03*
X175768000Y-46736000D03*
X178468000Y-46736000D03*
D29*
X175260000Y-105965000D03*
X175260000Y-108665000D03*
X177800000Y-105965000D03*
X177800000Y-108665000D03*
D38*
X167132000Y-70866000D03*
X167132000Y-71266000D03*
X167132000Y-71666000D03*
X167132000Y-72066000D03*
X167132000Y-72466000D03*
X167132000Y-72866000D03*
X167132000Y-73266000D03*
X167132000Y-73666000D03*
X167132000Y-74066000D03*
X167132000Y-74466000D03*
X167132000Y-74866000D03*
X167132000Y-75266000D03*
D39*
X167932000Y-76066000D03*
X168332000Y-76066000D03*
X168732000Y-76066000D03*
X169132000Y-76066000D03*
X169532000Y-76066000D03*
X169932000Y-76066000D03*
X170332000Y-76066000D03*
X170732000Y-76066000D03*
X171132000Y-76066000D03*
X171532000Y-76066000D03*
X171932000Y-76066000D03*
X172332000Y-76066000D03*
D38*
X173132000Y-75266000D03*
X173132000Y-74866000D03*
X173132000Y-74466000D03*
X173132000Y-74066000D03*
X173132000Y-73666000D03*
X173132000Y-73266000D03*
X173132000Y-72866000D03*
X173132000Y-72466000D03*
X173132000Y-72066000D03*
X173132000Y-71666000D03*
X173132000Y-71266000D03*
X173132000Y-70866000D03*
D39*
X172332000Y-70066000D03*
X171932000Y-70066000D03*
X171532000Y-70066000D03*
X171132000Y-70066000D03*
X170732000Y-70066000D03*
X170332000Y-70066000D03*
X169932000Y-70066000D03*
X169532000Y-70066000D03*
X169132000Y-70066000D03*
X168732000Y-70066000D03*
X168332000Y-70066000D03*
X167932000Y-70066000D03*
D40*
X171800750Y-74734750D03*
X171800750Y-73622250D03*
X171800750Y-72509750D03*
X171800750Y-71397250D03*
X170688250Y-74734750D03*
X170688250Y-73622250D03*
X170688250Y-72509750D03*
X170688250Y-71397250D03*
X169575750Y-74734750D03*
X169575750Y-73622250D03*
X169575750Y-72509750D03*
X169575750Y-71397250D03*
X168463250Y-74734750D03*
X168463250Y-73622250D03*
X168463250Y-72509750D03*
X168463250Y-71397250D03*
D41*
X171621852Y-65064346D03*
X169421852Y-65064346D03*
X171621852Y-66664346D03*
X169421852Y-66664346D03*
D23*
X179304000Y-80010000D03*
X176804000Y-80010000D03*
X176804000Y-82550000D03*
X179304000Y-82550000D03*
D28*
X115650000Y-79375000D03*
X112950000Y-79375000D03*
X115570000Y-83185000D03*
X112870000Y-83185000D03*
D42*
X147955000Y-62865000D03*
X145415000Y-62865000D03*
X145415000Y-65405000D03*
X147955000Y-65405000D03*
X147955000Y-67945000D03*
X145415000Y-67945000D03*
X145415000Y-70485000D03*
X147955000Y-70485000D03*
X147955000Y-73025000D03*
D43*
X145415000Y-73025000D03*
D29*
X123190000Y-73105000D03*
X123190000Y-70405000D03*
X116840000Y-73105000D03*
X116840000Y-70405000D03*
D14*
X145415000Y-43180000D03*
X145415000Y-45720000D03*
X145415000Y-48260000D03*
X145415000Y-50800000D03*
X145415000Y-53340000D03*
X135255000Y-53340000D03*
X135255000Y-43180000D03*
X135255000Y-45720000D03*
X135255000Y-48260000D03*
X135255000Y-50800000D03*
D42*
X137795000Y-62865000D03*
X135255000Y-62865000D03*
X135255000Y-65405000D03*
X137795000Y-65405000D03*
X137795000Y-67945000D03*
X135255000Y-67945000D03*
X135255000Y-70485000D03*
X137795000Y-70485000D03*
X137795000Y-73025000D03*
D43*
X135255000Y-73025000D03*
X128270000Y-27940000D03*
D42*
X130810000Y-27940000D03*
X133350000Y-27940000D03*
X135890000Y-27940000D03*
X138430000Y-27940000D03*
X140970000Y-27940000D03*
X143510000Y-27940000D03*
X146050000Y-27940000D03*
D13*
X170129200Y-73075800D03*
M02*
