G04 #@! TF.FileFunction,Legend,Top*
%FSLAX46Y46*%
G04 Gerber Fmt 4.6, Leading zero omitted, Abs format (unit mm)*
G04 Created by KiCad (PCBNEW (2015-06-12 BZR 5734)-product) date Saturday, June 20, 2015 'PMt' 05:40:19 PM*
%MOMM*%
G01*
G04 APERTURE LIST*
%ADD10C,0.100000*%
%ADD11C,0.150000*%
%ADD12C,0.127000*%
%ADD13C,0.070000*%
%ADD14C,0.300000*%
%ADD15C,3.000000*%
%ADD16C,0.500000*%
%ADD17C,1.524000*%
%ADD18R,1.250000X1.500000*%
%ADD19R,0.850000X1.500000*%
%ADD20O,0.850000X1.500000*%
%ADD21C,2.300000*%
%ADD22C,2.000000*%
%ADD23R,2.286000X1.574800*%
%ADD24O,2.286000X1.574800*%
%ADD25R,3.200000X3.200000*%
%ADD26R,1.500000X1.250000*%
%ADD27R,0.600000X0.700000*%
%ADD28R,1.000000X0.370000*%
%ADD29R,0.370000X1.000000*%
%ADD30R,1.062500X1.062500*%
%ADD31R,1.500000X1.300000*%
%ADD32R,1.300000X1.500000*%
%ADD33R,0.700000X0.600000*%
%ADD34R,2.540000X2.006600*%
%ADD35R,2.540000X2.209800*%
%ADD36R,3.048000X2.692400*%
%ADD37R,2.692400X3.048000*%
%ADD38C,1.778000*%
%ADD39R,2.006600X2.540000*%
%ADD40R,2.209800X2.540000*%
%ADD41R,0.800000X0.200000*%
%ADD42R,0.200000X0.800000*%
%ADD43R,1.112500X1.112500*%
%ADD44R,1.400000X1.200000*%
%ADD45C,1.676400*%
%ADD46R,1.676400X1.676400*%
G04 APERTURE END LIST*
D10*
X106680000Y-29210000D02*
X167640000Y-29210000D01*
X167640000Y-29210000D02*
X167640000Y-59690000D01*
X167640000Y-59690000D02*
X106680000Y-59690000D01*
X106680000Y-59690000D02*
X106680000Y-29210000D01*
X152400000Y-67310000D02*
X151130000Y-68580000D01*
X151130000Y-68580000D02*
X123190000Y-68580000D01*
X123190000Y-68580000D02*
X121920000Y-67310000D01*
X121920000Y-67310000D02*
X105410000Y-67310000D01*
X168910000Y-67310000D02*
X152400000Y-67310000D01*
X105410000Y-27940000D02*
X168910000Y-27940000D01*
X105410000Y-67310000D02*
X105410000Y-27940000D01*
X168910000Y-27940000D02*
X168910000Y-67310000D01*
D11*
X165520000Y-65286000D02*
X165520000Y-66286000D01*
X167220000Y-66286000D02*
X167220000Y-65286000D01*
X173648000Y-65286000D02*
X173648000Y-66286000D01*
X175348000Y-66286000D02*
X175348000Y-65286000D01*
X162063000Y-131075000D02*
G75*
G03X162063000Y-131075000I-2540000J0D01*
G01*
X148047000Y-131075000D02*
G75*
G03X148047000Y-131075000I-2540000J0D01*
G01*
X134031000Y-131075000D02*
G75*
G03X134031000Y-131075000I-2540000J0D01*
G01*
X120015000Y-131075000D02*
G75*
G03X120015000Y-131075000I-2540000J0D01*
G01*
X162063000Y-116805000D02*
G75*
G03X162063000Y-116805000I-2540000J0D01*
G01*
X148047000Y-116805000D02*
G75*
G03X148047000Y-116805000I-2540000J0D01*
G01*
X134031000Y-116805000D02*
G75*
G03X134031000Y-116805000I-2540000J0D01*
G01*
X120015000Y-116805000D02*
G75*
G03X120015000Y-116805000I-2540000J0D01*
G01*
X162063000Y-102535000D02*
G75*
G03X162063000Y-102535000I-2540000J0D01*
G01*
X148047000Y-102535000D02*
G75*
G03X148047000Y-102535000I-2540000J0D01*
G01*
X134031000Y-102535000D02*
G75*
G03X134031000Y-102535000I-2540000J0D01*
G01*
X120015000Y-102535000D02*
G75*
G03X120015000Y-102535000I-2540000J0D01*
G01*
X162063000Y-88265000D02*
G75*
G03X162063000Y-88265000I-2540000J0D01*
G01*
X148047000Y-88265000D02*
G75*
G03X148047000Y-88265000I-2540000J0D01*
G01*
X134031000Y-88265000D02*
G75*
G03X134031000Y-88265000I-2540000J0D01*
G01*
X120015000Y-88265000D02*
G75*
G03X120015000Y-88265000I-2540000J0D01*
G01*
X159512000Y-53594000D02*
X159512000Y-52324000D01*
X159512000Y-52324000D02*
X162052000Y-52324000D01*
X162052000Y-52324000D02*
X162052000Y-53594000D01*
X158242000Y-53594000D02*
X158242000Y-43434000D01*
X158242000Y-43434000D02*
X163322000Y-43434000D01*
X163322000Y-43434000D02*
X163322000Y-53594000D01*
X163322000Y-53594000D02*
X158242000Y-53594000D01*
D12*
X170046283Y-96930000D02*
G75*
G03X174030000Y-99230000I3983717J2300000D01*
G01*
X178013717Y-96930000D02*
G75*
G02X174030000Y-99230000I-3983717J2300000D01*
G01*
X178013717Y-92330000D02*
G75*
G03X174030000Y-90030000I-3983717J-2300000D01*
G01*
X170046283Y-92330000D02*
G75*
G02X174030000Y-90030000I3983717J-2300000D01*
G01*
X178530000Y-99630000D02*
G75*
G03X178530000Y-99630000I-500000J0D01*
G01*
X170530000Y-99630000D02*
G75*
G03X170530000Y-99630000I-500000J0D01*
G01*
X178530000Y-89630000D02*
G75*
G03X178530000Y-89630000I-500000J0D01*
G01*
X170530000Y-89630000D02*
G75*
G03X170530000Y-89630000I-500000J0D01*
G01*
X179780000Y-92380000D02*
X178030000Y-92380000D01*
X168280000Y-92380000D02*
X170030000Y-92380000D01*
X179780000Y-96880000D02*
X178030000Y-96880000D01*
X168280000Y-96880000D02*
X170030000Y-96880000D01*
X178180000Y-101230000D02*
G75*
G03X179280000Y-100130000I0J1100000D01*
G01*
X168780000Y-100130000D02*
G75*
G03X169880000Y-101230000I1100000J0D01*
G01*
X169880000Y-88030000D02*
G75*
G03X168780000Y-89130000I0J-1100000D01*
G01*
X179280000Y-89130000D02*
G75*
G03X178180000Y-88030000I-1100000J0D01*
G01*
X179780000Y-89130000D02*
X179280000Y-89130000D01*
X168280000Y-89130000D02*
X168780000Y-89130000D01*
X168280000Y-100130000D02*
X168780000Y-100130000D01*
X179780000Y-100130000D02*
X179280000Y-100130000D01*
X169880000Y-101230000D02*
X178180000Y-101230000D01*
X169880000Y-88030000D02*
X178180000Y-88030000D01*
X179780000Y-89130000D02*
X179780000Y-100130000D01*
X168280000Y-89130000D02*
X168280000Y-100130000D01*
X171730000Y-95630000D02*
X176330000Y-95630000D01*
X177030000Y-94630000D02*
G75*
G03X177030000Y-94630000I-3000000J0D01*
G01*
X176530000Y-94630000D02*
G75*
G03X176530000Y-94630000I-2500000J0D01*
G01*
X173996025Y-92571154D02*
G75*
G02X175830000Y-95630000I33975J-2058846D01*
G01*
X174063975Y-92571154D02*
G75*
G03X172230000Y-95630000I-33975J-2058846D01*
G01*
D11*
X123864000Y-93988000D02*
X123864000Y-94988000D01*
X125564000Y-94988000D02*
X125564000Y-93988000D01*
X121928000Y-38188000D02*
X122928000Y-38188000D01*
X122928000Y-36488000D02*
X121928000Y-36488000D01*
X173140000Y-80780000D02*
X173140000Y-81780000D01*
X174840000Y-81780000D02*
X174840000Y-80780000D01*
X171792000Y-81780000D02*
X171792000Y-80780000D01*
X170092000Y-80780000D02*
X170092000Y-81780000D01*
X158250000Y-67144000D02*
X159250000Y-67144000D01*
X159250000Y-65444000D02*
X158250000Y-65444000D01*
X178962000Y-72298000D02*
X177412000Y-72298000D01*
X178962000Y-73498000D02*
X177412000Y-73498000D01*
X176124000Y-129763000D02*
X176124000Y-130553000D01*
X169824000Y-136063000D02*
X169824000Y-135273000D01*
X176124000Y-136063000D02*
X176124000Y-135273000D01*
X169824000Y-129763000D02*
X170614000Y-129763000D01*
X169824000Y-136063000D02*
X170614000Y-136063000D01*
X176124000Y-136063000D02*
X175334000Y-136063000D01*
X176124000Y-129763000D02*
X175334000Y-129763000D01*
X105766000Y-90322000D02*
X105766000Y-91112000D01*
X99466000Y-96622000D02*
X99466000Y-95832000D01*
X105766000Y-96622000D02*
X105766000Y-95832000D01*
X99466000Y-90322000D02*
X100256000Y-90322000D01*
X99466000Y-96622000D02*
X100256000Y-96622000D01*
X105766000Y-96622000D02*
X104976000Y-96622000D01*
X105766000Y-90322000D02*
X104976000Y-90322000D01*
X109636000Y-87263000D02*
X110836000Y-87263000D01*
X110836000Y-89013000D02*
X109636000Y-89013000D01*
X171309000Y-30896000D02*
X171309000Y-32096000D01*
X169559000Y-32096000D02*
X169559000Y-30896000D01*
X179162000Y-76313000D02*
X177962000Y-76313000D01*
X177962000Y-74563000D02*
X179162000Y-74563000D01*
X107329000Y-30064000D02*
X107329000Y-28864000D01*
X109079000Y-28864000D02*
X109079000Y-30064000D01*
X163209000Y-32096000D02*
X163209000Y-30896000D01*
X164959000Y-30896000D02*
X164959000Y-32096000D01*
X166257000Y-32096000D02*
X166257000Y-30896000D01*
X168007000Y-30896000D02*
X168007000Y-32096000D01*
X174406000Y-55767000D02*
X175606000Y-55767000D01*
X175606000Y-57517000D02*
X174406000Y-57517000D01*
X169305000Y-107915000D02*
X169305000Y-106715000D01*
X171055000Y-106715000D02*
X171055000Y-107915000D01*
X171845000Y-107915000D02*
X171845000Y-106715000D01*
X173595000Y-106715000D02*
X173595000Y-107915000D01*
X123610000Y-108466000D02*
X123610000Y-109466000D01*
X125310000Y-109466000D02*
X125310000Y-108466000D01*
X123610000Y-122690000D02*
X123610000Y-123690000D01*
X125310000Y-123690000D02*
X125310000Y-122690000D01*
X123610000Y-135136000D02*
X123610000Y-136136000D01*
X125310000Y-136136000D02*
X125310000Y-135136000D01*
X178808000Y-69508000D02*
X177808000Y-69508000D01*
X177808000Y-71208000D02*
X178808000Y-71208000D01*
X159250000Y-62904000D02*
X158250000Y-62904000D01*
X158250000Y-64604000D02*
X159250000Y-64604000D01*
X159230000Y-67984000D02*
X158230000Y-67984000D01*
X158230000Y-69684000D02*
X159230000Y-69684000D01*
X159230000Y-70524000D02*
X158230000Y-70524000D01*
X158230000Y-72224000D02*
X159230000Y-72224000D01*
X159250000Y-75604000D02*
X158250000Y-75604000D01*
X158250000Y-77304000D02*
X159250000Y-77304000D01*
X159230000Y-73064000D02*
X158230000Y-73064000D01*
X158230000Y-74764000D02*
X159230000Y-74764000D01*
X110228000Y-33186000D02*
X109228000Y-33186000D01*
X109228000Y-34886000D02*
X110228000Y-34886000D01*
X167298000Y-80780000D02*
X167298000Y-81780000D01*
X168998000Y-81780000D02*
X168998000Y-80780000D01*
X165950000Y-81780000D02*
X165950000Y-80780000D01*
X164250000Y-80780000D02*
X164250000Y-81780000D01*
X103640000Y-35140000D02*
X104640000Y-35140000D01*
X104640000Y-33440000D02*
X103640000Y-33440000D01*
X103640000Y-32092000D02*
X104640000Y-32092000D01*
X104640000Y-30392000D02*
X103640000Y-30392000D01*
X174506000Y-53936000D02*
X175506000Y-53936000D01*
X175506000Y-52236000D02*
X174506000Y-52236000D01*
X166790000Y-106815000D02*
X166790000Y-107815000D01*
X168490000Y-107815000D02*
X168490000Y-106815000D01*
X179490000Y-106815000D02*
X179490000Y-107815000D01*
X181190000Y-107815000D02*
X181190000Y-106815000D01*
X172374000Y-47860000D02*
X172374000Y-49410000D01*
X173574000Y-47860000D02*
X173574000Y-49410000D01*
X113157000Y-26035000D02*
X113157000Y-40259000D01*
X119253000Y-40259000D02*
X119253000Y-26035000D01*
X119253000Y-40259000D02*
X113157000Y-40259000D01*
X113665000Y-24003000D02*
X113665000Y-26035000D01*
X113665000Y-26035000D02*
X113157000Y-26035000D01*
X118745000Y-24003000D02*
X113665000Y-24003000D01*
X119253000Y-26035000D02*
X118745000Y-26035000D01*
X118745000Y-26035000D02*
X118745000Y-24003000D01*
X92710000Y-43053000D02*
X106934000Y-43053000D01*
X106934000Y-36957000D02*
X92710000Y-36957000D01*
X106934000Y-36957000D02*
X106934000Y-43053000D01*
X90678000Y-42545000D02*
X92710000Y-42545000D01*
X92710000Y-42545000D02*
X92710000Y-43053000D01*
X90678000Y-37465000D02*
X90678000Y-42545000D01*
X92710000Y-36957000D02*
X92710000Y-37465000D01*
X92710000Y-37465000D02*
X90678000Y-37465000D01*
X161536000Y-79160000D02*
X160536000Y-79160000D01*
X160536000Y-80860000D02*
X161536000Y-80860000D01*
X121828000Y-33415000D02*
X123028000Y-33415000D01*
X123028000Y-35165000D02*
X121828000Y-35165000D01*
X160436000Y-81675000D02*
X161636000Y-81675000D01*
X161636000Y-83425000D02*
X160436000Y-83425000D01*
X104740000Y-28815000D02*
X103540000Y-28815000D01*
X103540000Y-27065000D02*
X104740000Y-27065000D01*
X177718000Y-47611000D02*
X176518000Y-47611000D01*
X176518000Y-45861000D02*
X177718000Y-45861000D01*
X174385000Y-107915000D02*
X174385000Y-106715000D01*
X176135000Y-106715000D02*
X176135000Y-107915000D01*
X176925000Y-107915000D02*
X176925000Y-106715000D01*
X178675000Y-106715000D02*
X178675000Y-107915000D01*
X173257000Y-69941000D02*
X173257000Y-70541000D01*
X167007000Y-76191000D02*
X167007000Y-75591000D01*
X173257000Y-76191000D02*
X173257000Y-75591000D01*
X167007000Y-69941000D02*
X167607000Y-69941000D01*
X167007000Y-76191000D02*
X167607000Y-76191000D01*
X173257000Y-76191000D02*
X172657000Y-76191000D01*
X173257000Y-69941000D02*
X172657000Y-69941000D01*
X177554000Y-80860000D02*
X178554000Y-80860000D01*
X178554000Y-79160000D02*
X177554000Y-79160000D01*
X178554000Y-81700000D02*
X177554000Y-81700000D01*
X177554000Y-83400000D02*
X178554000Y-83400000D01*
X113700000Y-78500000D02*
X114900000Y-78500000D01*
X114900000Y-80250000D02*
X113700000Y-80250000D01*
X113620000Y-82310000D02*
X114820000Y-82310000D01*
X114820000Y-84060000D02*
X113620000Y-84060000D01*
X124065000Y-71155000D02*
X124065000Y-72355000D01*
X122315000Y-72355000D02*
X122315000Y-71155000D01*
X117715000Y-71155000D02*
X117715000Y-72355000D01*
X115965000Y-72355000D02*
X115965000Y-71155000D01*
D12*
X144780000Y-27305000D02*
X145415000Y-26670000D01*
X145415000Y-26670000D02*
X146685000Y-26670000D01*
X146685000Y-26670000D02*
X147320000Y-27305000D01*
X147320000Y-27305000D02*
X147320000Y-28575000D01*
X147320000Y-28575000D02*
X146685000Y-29210000D01*
X146685000Y-29210000D02*
X145415000Y-29210000D01*
X145415000Y-29210000D02*
X144780000Y-28575000D01*
X142240000Y-27305000D02*
X142875000Y-26670000D01*
X142875000Y-26670000D02*
X144145000Y-26670000D01*
X144145000Y-26670000D02*
X144780000Y-27305000D01*
X144780000Y-28575000D02*
X144145000Y-29210000D01*
X144145000Y-29210000D02*
X142875000Y-29210000D01*
X142875000Y-29210000D02*
X142240000Y-28575000D01*
X139700000Y-27305000D02*
X140335000Y-26670000D01*
X140335000Y-26670000D02*
X141605000Y-26670000D01*
X141605000Y-26670000D02*
X142240000Y-27305000D01*
X142240000Y-28575000D02*
X141605000Y-29210000D01*
X141605000Y-29210000D02*
X140335000Y-29210000D01*
X140335000Y-29210000D02*
X139700000Y-28575000D01*
X137160000Y-27305000D02*
X137795000Y-26670000D01*
X137795000Y-26670000D02*
X139065000Y-26670000D01*
X139065000Y-26670000D02*
X139700000Y-27305000D01*
X139700000Y-28575000D02*
X139065000Y-29210000D01*
X139065000Y-29210000D02*
X137795000Y-29210000D01*
X137795000Y-29210000D02*
X137160000Y-28575000D01*
X134620000Y-27305000D02*
X135255000Y-26670000D01*
X135255000Y-26670000D02*
X136525000Y-26670000D01*
X136525000Y-26670000D02*
X137160000Y-27305000D01*
X137160000Y-28575000D02*
X136525000Y-29210000D01*
X136525000Y-29210000D02*
X135255000Y-29210000D01*
X135255000Y-29210000D02*
X134620000Y-28575000D01*
X129540000Y-27305000D02*
X130175000Y-26670000D01*
X130175000Y-26670000D02*
X131445000Y-26670000D01*
X131445000Y-26670000D02*
X132080000Y-27305000D01*
X132080000Y-27305000D02*
X132715000Y-26670000D01*
X132715000Y-26670000D02*
X133985000Y-26670000D01*
X133985000Y-26670000D02*
X134620000Y-27305000D01*
X134620000Y-28575000D02*
X133985000Y-29210000D01*
X133985000Y-29210000D02*
X132715000Y-29210000D01*
X132715000Y-29210000D02*
X132080000Y-28575000D01*
X132080000Y-28575000D02*
X131445000Y-29210000D01*
X131445000Y-29210000D02*
X130175000Y-29210000D01*
X130175000Y-29210000D02*
X129540000Y-28575000D01*
X127000000Y-27305000D02*
X127635000Y-26670000D01*
X127635000Y-26670000D02*
X128905000Y-26670000D01*
X128905000Y-26670000D02*
X129540000Y-27305000D01*
X129540000Y-28575000D02*
X128905000Y-29210000D01*
X128905000Y-29210000D02*
X127635000Y-29210000D01*
X127635000Y-29210000D02*
X127000000Y-28575000D01*
X127000000Y-28575000D02*
X127000000Y-27305000D01*
D10*
G36*
X111552099Y-133697075D02*
X111550829Y-134114120D01*
X111538515Y-134507469D01*
X111515156Y-134838586D01*
X111480753Y-135068938D01*
X111446734Y-135153400D01*
X111346127Y-135192027D01*
X111123838Y-135220825D01*
X110767856Y-135240468D01*
X110266176Y-135251633D01*
X109639522Y-135255000D01*
X109055321Y-135253771D01*
X108616983Y-135248771D01*
X108301048Y-135238032D01*
X108084056Y-135219587D01*
X107942547Y-135191467D01*
X107853061Y-135151704D01*
X107793789Y-135100167D01*
X107735628Y-135008673D01*
X107695606Y-134865854D01*
X107670655Y-134642945D01*
X107657707Y-134311183D01*
X107653695Y-133841802D01*
X107653667Y-133786531D01*
X107653667Y-132627728D01*
X107943980Y-132184531D01*
X108203005Y-131714717D01*
X108360307Y-131229282D01*
X108431034Y-130671863D01*
X108438658Y-130344334D01*
X108394890Y-129761358D01*
X108263140Y-129308688D01*
X108037811Y-128968690D01*
X107985699Y-128916991D01*
X107712240Y-128762565D01*
X107409564Y-128750284D01*
X107112340Y-128865471D01*
X106855236Y-129093453D01*
X106672921Y-129419553D01*
X106652571Y-129481308D01*
X106581007Y-129869805D01*
X106556979Y-130349114D01*
X106579506Y-130847811D01*
X106647606Y-131294477D01*
X106679166Y-131415778D01*
X106811187Y-131752335D01*
X106992055Y-132090318D01*
X107060166Y-132192412D01*
X107315000Y-132544201D01*
X107315000Y-133804567D01*
X107310749Y-134335570D01*
X107296887Y-134717513D01*
X107271751Y-134970482D01*
X107233675Y-135114562D01*
X107202886Y-135157980D01*
X107094326Y-135179296D01*
X106835296Y-135198090D01*
X106444140Y-135214371D01*
X105939205Y-135228145D01*
X105338836Y-135239423D01*
X104661380Y-135248213D01*
X103925183Y-135254524D01*
X103148590Y-135258363D01*
X102349947Y-135259741D01*
X101547601Y-135258665D01*
X100759896Y-135255145D01*
X100005180Y-135249188D01*
X99301798Y-135240803D01*
X98668096Y-135230000D01*
X98122420Y-135216787D01*
X97683116Y-135201172D01*
X97368529Y-135183164D01*
X97197007Y-135162772D01*
X97171783Y-135153250D01*
X97126488Y-135032097D01*
X97094900Y-134767664D01*
X97076391Y-134351412D01*
X97070334Y-133774806D01*
X97070334Y-133772575D01*
X97070334Y-132493350D01*
X98476095Y-130635675D01*
X99881856Y-128778000D01*
X98670577Y-128754404D01*
X98130709Y-128743787D01*
X97736896Y-128721806D01*
X97466163Y-128666997D01*
X97295531Y-128557897D01*
X97202025Y-128373043D01*
X97162669Y-128090973D01*
X97154484Y-127690223D01*
X97155000Y-127338667D01*
X97157669Y-126874133D01*
X97168145Y-126548840D01*
X97190127Y-126332744D01*
X97227317Y-126195802D01*
X97283416Y-126107971D01*
X97309834Y-126081789D01*
X97366410Y-126043962D01*
X97455282Y-126013530D01*
X97593681Y-125989710D01*
X97798842Y-125971715D01*
X98087996Y-125958762D01*
X98478378Y-125950065D01*
X98987220Y-125944841D01*
X99631755Y-125942303D01*
X100387045Y-125941667D01*
X101170769Y-125942168D01*
X101802544Y-125944256D01*
X102299752Y-125948812D01*
X102679775Y-125956712D01*
X102959995Y-125968837D01*
X103157795Y-125986064D01*
X103290558Y-126009274D01*
X103375665Y-126039344D01*
X103430499Y-126077153D01*
X103449545Y-126096500D01*
X103506959Y-126186531D01*
X103546716Y-126326946D01*
X103571768Y-126546085D01*
X103585066Y-126872290D01*
X103589564Y-127333899D01*
X103589667Y-127441693D01*
X103589667Y-128632052D01*
X102148191Y-130546526D01*
X100706715Y-132461000D01*
X102571524Y-132461000D01*
X103112957Y-132459613D01*
X103592607Y-132455729D01*
X103986323Y-132449763D01*
X104269951Y-132442131D01*
X104419339Y-132433248D01*
X104436334Y-132428925D01*
X104395932Y-132345897D01*
X104289869Y-132158519D01*
X104140857Y-131906884D01*
X104136562Y-131899758D01*
X103879337Y-131422292D01*
X103712337Y-130970396D01*
X103623381Y-130490596D01*
X103600292Y-129929418D01*
X103610219Y-129588834D01*
X103711710Y-128732591D01*
X103933523Y-127995103D01*
X104277838Y-127373966D01*
X104746833Y-126866777D01*
X105342686Y-126471133D01*
X106067577Y-126184633D01*
X106849855Y-126015449D01*
X107626683Y-125969153D01*
X108399573Y-126052110D01*
X109132991Y-126254882D01*
X109791404Y-126568029D01*
X110279615Y-126926564D01*
X110748124Y-127459770D01*
X111096369Y-128087898D01*
X111322547Y-128784874D01*
X111424856Y-129524621D01*
X111401494Y-130281065D01*
X111250659Y-131028130D01*
X110970550Y-131739742D01*
X110648924Y-132270500D01*
X110574660Y-132383868D01*
X110585832Y-132439986D01*
X110711980Y-132458988D01*
X110928407Y-132461000D01*
X111192905Y-132480538D01*
X111392343Y-132530144D01*
X111446734Y-132562600D01*
X111489642Y-132689095D01*
X111521505Y-132946028D01*
X111542324Y-133294866D01*
X111552099Y-133697075D01*
X111552099Y-133697075D01*
X111552099Y-133697075D01*
G37*
X111552099Y-133697075D02*
X111550829Y-134114120D01*
X111538515Y-134507469D01*
X111515156Y-134838586D01*
X111480753Y-135068938D01*
X111446734Y-135153400D01*
X111346127Y-135192027D01*
X111123838Y-135220825D01*
X110767856Y-135240468D01*
X110266176Y-135251633D01*
X109639522Y-135255000D01*
X109055321Y-135253771D01*
X108616983Y-135248771D01*
X108301048Y-135238032D01*
X108084056Y-135219587D01*
X107942547Y-135191467D01*
X107853061Y-135151704D01*
X107793789Y-135100167D01*
X107735628Y-135008673D01*
X107695606Y-134865854D01*
X107670655Y-134642945D01*
X107657707Y-134311183D01*
X107653695Y-133841802D01*
X107653667Y-133786531D01*
X107653667Y-132627728D01*
X107943980Y-132184531D01*
X108203005Y-131714717D01*
X108360307Y-131229282D01*
X108431034Y-130671863D01*
X108438658Y-130344334D01*
X108394890Y-129761358D01*
X108263140Y-129308688D01*
X108037811Y-128968690D01*
X107985699Y-128916991D01*
X107712240Y-128762565D01*
X107409564Y-128750284D01*
X107112340Y-128865471D01*
X106855236Y-129093453D01*
X106672921Y-129419553D01*
X106652571Y-129481308D01*
X106581007Y-129869805D01*
X106556979Y-130349114D01*
X106579506Y-130847811D01*
X106647606Y-131294477D01*
X106679166Y-131415778D01*
X106811187Y-131752335D01*
X106992055Y-132090318D01*
X107060166Y-132192412D01*
X107315000Y-132544201D01*
X107315000Y-133804567D01*
X107310749Y-134335570D01*
X107296887Y-134717513D01*
X107271751Y-134970482D01*
X107233675Y-135114562D01*
X107202886Y-135157980D01*
X107094326Y-135179296D01*
X106835296Y-135198090D01*
X106444140Y-135214371D01*
X105939205Y-135228145D01*
X105338836Y-135239423D01*
X104661380Y-135248213D01*
X103925183Y-135254524D01*
X103148590Y-135258363D01*
X102349947Y-135259741D01*
X101547601Y-135258665D01*
X100759896Y-135255145D01*
X100005180Y-135249188D01*
X99301798Y-135240803D01*
X98668096Y-135230000D01*
X98122420Y-135216787D01*
X97683116Y-135201172D01*
X97368529Y-135183164D01*
X97197007Y-135162772D01*
X97171783Y-135153250D01*
X97126488Y-135032097D01*
X97094900Y-134767664D01*
X97076391Y-134351412D01*
X97070334Y-133774806D01*
X97070334Y-133772575D01*
X97070334Y-132493350D01*
X98476095Y-130635675D01*
X99881856Y-128778000D01*
X98670577Y-128754404D01*
X98130709Y-128743787D01*
X97736896Y-128721806D01*
X97466163Y-128666997D01*
X97295531Y-128557897D01*
X97202025Y-128373043D01*
X97162669Y-128090973D01*
X97154484Y-127690223D01*
X97155000Y-127338667D01*
X97157669Y-126874133D01*
X97168145Y-126548840D01*
X97190127Y-126332744D01*
X97227317Y-126195802D01*
X97283416Y-126107971D01*
X97309834Y-126081789D01*
X97366410Y-126043962D01*
X97455282Y-126013530D01*
X97593681Y-125989710D01*
X97798842Y-125971715D01*
X98087996Y-125958762D01*
X98478378Y-125950065D01*
X98987220Y-125944841D01*
X99631755Y-125942303D01*
X100387045Y-125941667D01*
X101170769Y-125942168D01*
X101802544Y-125944256D01*
X102299752Y-125948812D01*
X102679775Y-125956712D01*
X102959995Y-125968837D01*
X103157795Y-125986064D01*
X103290558Y-126009274D01*
X103375665Y-126039344D01*
X103430499Y-126077153D01*
X103449545Y-126096500D01*
X103506959Y-126186531D01*
X103546716Y-126326946D01*
X103571768Y-126546085D01*
X103585066Y-126872290D01*
X103589564Y-127333899D01*
X103589667Y-127441693D01*
X103589667Y-128632052D01*
X102148191Y-130546526D01*
X100706715Y-132461000D01*
X102571524Y-132461000D01*
X103112957Y-132459613D01*
X103592607Y-132455729D01*
X103986323Y-132449763D01*
X104269951Y-132442131D01*
X104419339Y-132433248D01*
X104436334Y-132428925D01*
X104395932Y-132345897D01*
X104289869Y-132158519D01*
X104140857Y-131906884D01*
X104136562Y-131899758D01*
X103879337Y-131422292D01*
X103712337Y-130970396D01*
X103623381Y-130490596D01*
X103600292Y-129929418D01*
X103610219Y-129588834D01*
X103711710Y-128732591D01*
X103933523Y-127995103D01*
X104277838Y-127373966D01*
X104746833Y-126866777D01*
X105342686Y-126471133D01*
X106067577Y-126184633D01*
X106849855Y-126015449D01*
X107626683Y-125969153D01*
X108399573Y-126052110D01*
X109132991Y-126254882D01*
X109791404Y-126568029D01*
X110279615Y-126926564D01*
X110748124Y-127459770D01*
X111096369Y-128087898D01*
X111322547Y-128784874D01*
X111424856Y-129524621D01*
X111401494Y-130281065D01*
X111250659Y-131028130D01*
X110970550Y-131739742D01*
X110648924Y-132270500D01*
X110574660Y-132383868D01*
X110585832Y-132439986D01*
X110711980Y-132458988D01*
X110928407Y-132461000D01*
X111192905Y-132480538D01*
X111392343Y-132530144D01*
X111446734Y-132562600D01*
X111489642Y-132689095D01*
X111521505Y-132946028D01*
X111542324Y-133294866D01*
X111552099Y-133697075D01*
X111552099Y-133697075D01*
D13*
X108839048Y-30206190D02*
X108839048Y-30610952D01*
X108862857Y-30658571D01*
X108886667Y-30682381D01*
X108934286Y-30706190D01*
X109029524Y-30706190D01*
X109077143Y-30682381D01*
X109100952Y-30658571D01*
X109124762Y-30610952D01*
X109124762Y-30206190D01*
X109600953Y-30206190D02*
X109362858Y-30206190D01*
X109339048Y-30444286D01*
X109362858Y-30420476D01*
X109410477Y-30396667D01*
X109529524Y-30396667D01*
X109577143Y-30420476D01*
X109600953Y-30444286D01*
X109624762Y-30491905D01*
X109624762Y-30610952D01*
X109600953Y-30658571D01*
X109577143Y-30682381D01*
X109529524Y-30706190D01*
X109410477Y-30706190D01*
X109362858Y-30682381D01*
X109339048Y-30658571D01*
X164283272Y-64935871D02*
X164259462Y-64959681D01*
X164188034Y-64983490D01*
X164140415Y-64983490D01*
X164068986Y-64959681D01*
X164021367Y-64912062D01*
X163997558Y-64864443D01*
X163973748Y-64769205D01*
X163973748Y-64697776D01*
X163997558Y-64602538D01*
X164021367Y-64554919D01*
X164068986Y-64507300D01*
X164140415Y-64483490D01*
X164188034Y-64483490D01*
X164259462Y-64507300D01*
X164283272Y-64531110D01*
X164759462Y-64983490D02*
X164473748Y-64983490D01*
X164616605Y-64983490D02*
X164616605Y-64483490D01*
X164568986Y-64554919D01*
X164521367Y-64602538D01*
X164473748Y-64626348D01*
X165188033Y-64650157D02*
X165188033Y-64983490D01*
X165068986Y-64459681D02*
X164949938Y-64816824D01*
X165259462Y-64816824D01*
X175979972Y-65342271D02*
X175956162Y-65366081D01*
X175884734Y-65389890D01*
X175837115Y-65389890D01*
X175765686Y-65366081D01*
X175718067Y-65318462D01*
X175694258Y-65270843D01*
X175670448Y-65175605D01*
X175670448Y-65104176D01*
X175694258Y-65008938D01*
X175718067Y-64961319D01*
X175765686Y-64913700D01*
X175837115Y-64889890D01*
X175884734Y-64889890D01*
X175956162Y-64913700D01*
X175979972Y-64937510D01*
X176456162Y-65389890D02*
X176170448Y-65389890D01*
X176313305Y-65389890D02*
X176313305Y-64889890D01*
X176265686Y-64961319D01*
X176218067Y-65008938D01*
X176170448Y-65032748D01*
X176622829Y-64889890D02*
X176932352Y-64889890D01*
X176765686Y-65080367D01*
X176837114Y-65080367D01*
X176884733Y-65104176D01*
X176908543Y-65127986D01*
X176932352Y-65175605D01*
X176932352Y-65294652D01*
X176908543Y-65342271D01*
X176884733Y-65366081D01*
X176837114Y-65389890D01*
X176694257Y-65389890D01*
X176646638Y-65366081D01*
X176622829Y-65342271D01*
X158903953Y-134452381D02*
X158975382Y-134476190D01*
X159094429Y-134476190D01*
X159142048Y-134452381D01*
X159165858Y-134428571D01*
X159189667Y-134380952D01*
X159189667Y-134333333D01*
X159165858Y-134285714D01*
X159142048Y-134261905D01*
X159094429Y-134238095D01*
X158999191Y-134214286D01*
X158951572Y-134190476D01*
X158927763Y-134166667D01*
X158903953Y-134119048D01*
X158903953Y-134071429D01*
X158927763Y-134023810D01*
X158951572Y-134000000D01*
X158999191Y-133976190D01*
X159118239Y-133976190D01*
X159189667Y-134000000D01*
X159665857Y-134476190D02*
X159380143Y-134476190D01*
X159523000Y-134476190D02*
X159523000Y-133976190D01*
X159475381Y-134047619D01*
X159427762Y-134095238D01*
X159380143Y-134119048D01*
X160094428Y-133976190D02*
X159999190Y-133976190D01*
X159951571Y-134000000D01*
X159927762Y-134023810D01*
X159880143Y-134095238D01*
X159856333Y-134190476D01*
X159856333Y-134380952D01*
X159880143Y-134428571D01*
X159903952Y-134452381D01*
X159951571Y-134476190D01*
X160046809Y-134476190D01*
X160094428Y-134452381D01*
X160118238Y-134428571D01*
X160142047Y-134380952D01*
X160142047Y-134261905D01*
X160118238Y-134214286D01*
X160094428Y-134190476D01*
X160046809Y-134166667D01*
X159951571Y-134166667D01*
X159903952Y-134190476D01*
X159880143Y-134214286D01*
X159856333Y-134261905D01*
X144887953Y-134452381D02*
X144959382Y-134476190D01*
X145078429Y-134476190D01*
X145126048Y-134452381D01*
X145149858Y-134428571D01*
X145173667Y-134380952D01*
X145173667Y-134333333D01*
X145149858Y-134285714D01*
X145126048Y-134261905D01*
X145078429Y-134238095D01*
X144983191Y-134214286D01*
X144935572Y-134190476D01*
X144911763Y-134166667D01*
X144887953Y-134119048D01*
X144887953Y-134071429D01*
X144911763Y-134023810D01*
X144935572Y-134000000D01*
X144983191Y-133976190D01*
X145102239Y-133976190D01*
X145173667Y-134000000D01*
X145649857Y-134476190D02*
X145364143Y-134476190D01*
X145507000Y-134476190D02*
X145507000Y-133976190D01*
X145459381Y-134047619D01*
X145411762Y-134095238D01*
X145364143Y-134119048D01*
X146102238Y-133976190D02*
X145864143Y-133976190D01*
X145840333Y-134214286D01*
X145864143Y-134190476D01*
X145911762Y-134166667D01*
X146030809Y-134166667D01*
X146078428Y-134190476D01*
X146102238Y-134214286D01*
X146126047Y-134261905D01*
X146126047Y-134380952D01*
X146102238Y-134428571D01*
X146078428Y-134452381D01*
X146030809Y-134476190D01*
X145911762Y-134476190D01*
X145864143Y-134452381D01*
X145840333Y-134428571D01*
X130871953Y-134452381D02*
X130943382Y-134476190D01*
X131062429Y-134476190D01*
X131110048Y-134452381D01*
X131133858Y-134428571D01*
X131157667Y-134380952D01*
X131157667Y-134333333D01*
X131133858Y-134285714D01*
X131110048Y-134261905D01*
X131062429Y-134238095D01*
X130967191Y-134214286D01*
X130919572Y-134190476D01*
X130895763Y-134166667D01*
X130871953Y-134119048D01*
X130871953Y-134071429D01*
X130895763Y-134023810D01*
X130919572Y-134000000D01*
X130967191Y-133976190D01*
X131086239Y-133976190D01*
X131157667Y-134000000D01*
X131633857Y-134476190D02*
X131348143Y-134476190D01*
X131491000Y-134476190D02*
X131491000Y-133976190D01*
X131443381Y-134047619D01*
X131395762Y-134095238D01*
X131348143Y-134119048D01*
X132062428Y-134142857D02*
X132062428Y-134476190D01*
X131943381Y-133952381D02*
X131824333Y-134309524D01*
X132133857Y-134309524D01*
X116855953Y-134452381D02*
X116927382Y-134476190D01*
X117046429Y-134476190D01*
X117094048Y-134452381D01*
X117117858Y-134428571D01*
X117141667Y-134380952D01*
X117141667Y-134333333D01*
X117117858Y-134285714D01*
X117094048Y-134261905D01*
X117046429Y-134238095D01*
X116951191Y-134214286D01*
X116903572Y-134190476D01*
X116879763Y-134166667D01*
X116855953Y-134119048D01*
X116855953Y-134071429D01*
X116879763Y-134023810D01*
X116903572Y-134000000D01*
X116951191Y-133976190D01*
X117070239Y-133976190D01*
X117141667Y-134000000D01*
X117617857Y-134476190D02*
X117332143Y-134476190D01*
X117475000Y-134476190D02*
X117475000Y-133976190D01*
X117427381Y-134047619D01*
X117379762Y-134095238D01*
X117332143Y-134119048D01*
X117784524Y-133976190D02*
X118094047Y-133976190D01*
X117927381Y-134166667D01*
X117998809Y-134166667D01*
X118046428Y-134190476D01*
X118070238Y-134214286D01*
X118094047Y-134261905D01*
X118094047Y-134380952D01*
X118070238Y-134428571D01*
X118046428Y-134452381D01*
X117998809Y-134476190D01*
X117855952Y-134476190D01*
X117808333Y-134452381D01*
X117784524Y-134428571D01*
X158903953Y-120182381D02*
X158975382Y-120206190D01*
X159094429Y-120206190D01*
X159142048Y-120182381D01*
X159165858Y-120158571D01*
X159189667Y-120110952D01*
X159189667Y-120063333D01*
X159165858Y-120015714D01*
X159142048Y-119991905D01*
X159094429Y-119968095D01*
X158999191Y-119944286D01*
X158951572Y-119920476D01*
X158927763Y-119896667D01*
X158903953Y-119849048D01*
X158903953Y-119801429D01*
X158927763Y-119753810D01*
X158951572Y-119730000D01*
X158999191Y-119706190D01*
X159118239Y-119706190D01*
X159189667Y-119730000D01*
X159665857Y-120206190D02*
X159380143Y-120206190D01*
X159523000Y-120206190D02*
X159523000Y-119706190D01*
X159475381Y-119777619D01*
X159427762Y-119825238D01*
X159380143Y-119849048D01*
X159856333Y-119753810D02*
X159880143Y-119730000D01*
X159927762Y-119706190D01*
X160046809Y-119706190D01*
X160094428Y-119730000D01*
X160118238Y-119753810D01*
X160142047Y-119801429D01*
X160142047Y-119849048D01*
X160118238Y-119920476D01*
X159832524Y-120206190D01*
X160142047Y-120206190D01*
X144887953Y-120182381D02*
X144959382Y-120206190D01*
X145078429Y-120206190D01*
X145126048Y-120182381D01*
X145149858Y-120158571D01*
X145173667Y-120110952D01*
X145173667Y-120063333D01*
X145149858Y-120015714D01*
X145126048Y-119991905D01*
X145078429Y-119968095D01*
X144983191Y-119944286D01*
X144935572Y-119920476D01*
X144911763Y-119896667D01*
X144887953Y-119849048D01*
X144887953Y-119801429D01*
X144911763Y-119753810D01*
X144935572Y-119730000D01*
X144983191Y-119706190D01*
X145102239Y-119706190D01*
X145173667Y-119730000D01*
X145649857Y-120206190D02*
X145364143Y-120206190D01*
X145507000Y-120206190D02*
X145507000Y-119706190D01*
X145459381Y-119777619D01*
X145411762Y-119825238D01*
X145364143Y-119849048D01*
X146126047Y-120206190D02*
X145840333Y-120206190D01*
X145983190Y-120206190D02*
X145983190Y-119706190D01*
X145935571Y-119777619D01*
X145887952Y-119825238D01*
X145840333Y-119849048D01*
X130871953Y-120182381D02*
X130943382Y-120206190D01*
X131062429Y-120206190D01*
X131110048Y-120182381D01*
X131133858Y-120158571D01*
X131157667Y-120110952D01*
X131157667Y-120063333D01*
X131133858Y-120015714D01*
X131110048Y-119991905D01*
X131062429Y-119968095D01*
X130967191Y-119944286D01*
X130919572Y-119920476D01*
X130895763Y-119896667D01*
X130871953Y-119849048D01*
X130871953Y-119801429D01*
X130895763Y-119753810D01*
X130919572Y-119730000D01*
X130967191Y-119706190D01*
X131086239Y-119706190D01*
X131157667Y-119730000D01*
X131633857Y-120206190D02*
X131348143Y-120206190D01*
X131491000Y-120206190D02*
X131491000Y-119706190D01*
X131443381Y-119777619D01*
X131395762Y-119825238D01*
X131348143Y-119849048D01*
X131943381Y-119706190D02*
X131991000Y-119706190D01*
X132038619Y-119730000D01*
X132062428Y-119753810D01*
X132086238Y-119801429D01*
X132110047Y-119896667D01*
X132110047Y-120015714D01*
X132086238Y-120110952D01*
X132062428Y-120158571D01*
X132038619Y-120182381D01*
X131991000Y-120206190D01*
X131943381Y-120206190D01*
X131895762Y-120182381D01*
X131871952Y-120158571D01*
X131848143Y-120110952D01*
X131824333Y-120015714D01*
X131824333Y-119896667D01*
X131848143Y-119801429D01*
X131871952Y-119753810D01*
X131895762Y-119730000D01*
X131943381Y-119706190D01*
X117094048Y-120182381D02*
X117165477Y-120206190D01*
X117284524Y-120206190D01*
X117332143Y-120182381D01*
X117355953Y-120158571D01*
X117379762Y-120110952D01*
X117379762Y-120063333D01*
X117355953Y-120015714D01*
X117332143Y-119991905D01*
X117284524Y-119968095D01*
X117189286Y-119944286D01*
X117141667Y-119920476D01*
X117117858Y-119896667D01*
X117094048Y-119849048D01*
X117094048Y-119801429D01*
X117117858Y-119753810D01*
X117141667Y-119730000D01*
X117189286Y-119706190D01*
X117308334Y-119706190D01*
X117379762Y-119730000D01*
X117617857Y-120206190D02*
X117713095Y-120206190D01*
X117760714Y-120182381D01*
X117784524Y-120158571D01*
X117832143Y-120087143D01*
X117855952Y-119991905D01*
X117855952Y-119801429D01*
X117832143Y-119753810D01*
X117808333Y-119730000D01*
X117760714Y-119706190D01*
X117665476Y-119706190D01*
X117617857Y-119730000D01*
X117594048Y-119753810D01*
X117570238Y-119801429D01*
X117570238Y-119920476D01*
X117594048Y-119968095D01*
X117617857Y-119991905D01*
X117665476Y-120015714D01*
X117760714Y-120015714D01*
X117808333Y-119991905D01*
X117832143Y-119968095D01*
X117855952Y-119920476D01*
X159142048Y-105912381D02*
X159213477Y-105936190D01*
X159332524Y-105936190D01*
X159380143Y-105912381D01*
X159403953Y-105888571D01*
X159427762Y-105840952D01*
X159427762Y-105793333D01*
X159403953Y-105745714D01*
X159380143Y-105721905D01*
X159332524Y-105698095D01*
X159237286Y-105674286D01*
X159189667Y-105650476D01*
X159165858Y-105626667D01*
X159142048Y-105579048D01*
X159142048Y-105531429D01*
X159165858Y-105483810D01*
X159189667Y-105460000D01*
X159237286Y-105436190D01*
X159356334Y-105436190D01*
X159427762Y-105460000D01*
X159713476Y-105650476D02*
X159665857Y-105626667D01*
X159642048Y-105602857D01*
X159618238Y-105555238D01*
X159618238Y-105531429D01*
X159642048Y-105483810D01*
X159665857Y-105460000D01*
X159713476Y-105436190D01*
X159808714Y-105436190D01*
X159856333Y-105460000D01*
X159880143Y-105483810D01*
X159903952Y-105531429D01*
X159903952Y-105555238D01*
X159880143Y-105602857D01*
X159856333Y-105626667D01*
X159808714Y-105650476D01*
X159713476Y-105650476D01*
X159665857Y-105674286D01*
X159642048Y-105698095D01*
X159618238Y-105745714D01*
X159618238Y-105840952D01*
X159642048Y-105888571D01*
X159665857Y-105912381D01*
X159713476Y-105936190D01*
X159808714Y-105936190D01*
X159856333Y-105912381D01*
X159880143Y-105888571D01*
X159903952Y-105840952D01*
X159903952Y-105745714D01*
X159880143Y-105698095D01*
X159856333Y-105674286D01*
X159808714Y-105650476D01*
X145126048Y-105912381D02*
X145197477Y-105936190D01*
X145316524Y-105936190D01*
X145364143Y-105912381D01*
X145387953Y-105888571D01*
X145411762Y-105840952D01*
X145411762Y-105793333D01*
X145387953Y-105745714D01*
X145364143Y-105721905D01*
X145316524Y-105698095D01*
X145221286Y-105674286D01*
X145173667Y-105650476D01*
X145149858Y-105626667D01*
X145126048Y-105579048D01*
X145126048Y-105531429D01*
X145149858Y-105483810D01*
X145173667Y-105460000D01*
X145221286Y-105436190D01*
X145340334Y-105436190D01*
X145411762Y-105460000D01*
X145578429Y-105436190D02*
X145911762Y-105436190D01*
X145697476Y-105936190D01*
X131110048Y-105912381D02*
X131181477Y-105936190D01*
X131300524Y-105936190D01*
X131348143Y-105912381D01*
X131371953Y-105888571D01*
X131395762Y-105840952D01*
X131395762Y-105793333D01*
X131371953Y-105745714D01*
X131348143Y-105721905D01*
X131300524Y-105698095D01*
X131205286Y-105674286D01*
X131157667Y-105650476D01*
X131133858Y-105626667D01*
X131110048Y-105579048D01*
X131110048Y-105531429D01*
X131133858Y-105483810D01*
X131157667Y-105460000D01*
X131205286Y-105436190D01*
X131324334Y-105436190D01*
X131395762Y-105460000D01*
X131824333Y-105436190D02*
X131729095Y-105436190D01*
X131681476Y-105460000D01*
X131657667Y-105483810D01*
X131610048Y-105555238D01*
X131586238Y-105650476D01*
X131586238Y-105840952D01*
X131610048Y-105888571D01*
X131633857Y-105912381D01*
X131681476Y-105936190D01*
X131776714Y-105936190D01*
X131824333Y-105912381D01*
X131848143Y-105888571D01*
X131871952Y-105840952D01*
X131871952Y-105721905D01*
X131848143Y-105674286D01*
X131824333Y-105650476D01*
X131776714Y-105626667D01*
X131681476Y-105626667D01*
X131633857Y-105650476D01*
X131610048Y-105674286D01*
X131586238Y-105721905D01*
X117094048Y-105912381D02*
X117165477Y-105936190D01*
X117284524Y-105936190D01*
X117332143Y-105912381D01*
X117355953Y-105888571D01*
X117379762Y-105840952D01*
X117379762Y-105793333D01*
X117355953Y-105745714D01*
X117332143Y-105721905D01*
X117284524Y-105698095D01*
X117189286Y-105674286D01*
X117141667Y-105650476D01*
X117117858Y-105626667D01*
X117094048Y-105579048D01*
X117094048Y-105531429D01*
X117117858Y-105483810D01*
X117141667Y-105460000D01*
X117189286Y-105436190D01*
X117308334Y-105436190D01*
X117379762Y-105460000D01*
X117832143Y-105436190D02*
X117594048Y-105436190D01*
X117570238Y-105674286D01*
X117594048Y-105650476D01*
X117641667Y-105626667D01*
X117760714Y-105626667D01*
X117808333Y-105650476D01*
X117832143Y-105674286D01*
X117855952Y-105721905D01*
X117855952Y-105840952D01*
X117832143Y-105888571D01*
X117808333Y-105912381D01*
X117760714Y-105936190D01*
X117641667Y-105936190D01*
X117594048Y-105912381D01*
X117570238Y-105888571D01*
X159142048Y-91642381D02*
X159213477Y-91666190D01*
X159332524Y-91666190D01*
X159380143Y-91642381D01*
X159403953Y-91618571D01*
X159427762Y-91570952D01*
X159427762Y-91523333D01*
X159403953Y-91475714D01*
X159380143Y-91451905D01*
X159332524Y-91428095D01*
X159237286Y-91404286D01*
X159189667Y-91380476D01*
X159165858Y-91356667D01*
X159142048Y-91309048D01*
X159142048Y-91261429D01*
X159165858Y-91213810D01*
X159189667Y-91190000D01*
X159237286Y-91166190D01*
X159356334Y-91166190D01*
X159427762Y-91190000D01*
X159856333Y-91332857D02*
X159856333Y-91666190D01*
X159737286Y-91142381D02*
X159618238Y-91499524D01*
X159927762Y-91499524D01*
X145126048Y-91642381D02*
X145197477Y-91666190D01*
X145316524Y-91666190D01*
X145364143Y-91642381D01*
X145387953Y-91618571D01*
X145411762Y-91570952D01*
X145411762Y-91523333D01*
X145387953Y-91475714D01*
X145364143Y-91451905D01*
X145316524Y-91428095D01*
X145221286Y-91404286D01*
X145173667Y-91380476D01*
X145149858Y-91356667D01*
X145126048Y-91309048D01*
X145126048Y-91261429D01*
X145149858Y-91213810D01*
X145173667Y-91190000D01*
X145221286Y-91166190D01*
X145340334Y-91166190D01*
X145411762Y-91190000D01*
X145578429Y-91166190D02*
X145887952Y-91166190D01*
X145721286Y-91356667D01*
X145792714Y-91356667D01*
X145840333Y-91380476D01*
X145864143Y-91404286D01*
X145887952Y-91451905D01*
X145887952Y-91570952D01*
X145864143Y-91618571D01*
X145840333Y-91642381D01*
X145792714Y-91666190D01*
X145649857Y-91666190D01*
X145602238Y-91642381D01*
X145578429Y-91618571D01*
X131110048Y-91642381D02*
X131181477Y-91666190D01*
X131300524Y-91666190D01*
X131348143Y-91642381D01*
X131371953Y-91618571D01*
X131395762Y-91570952D01*
X131395762Y-91523333D01*
X131371953Y-91475714D01*
X131348143Y-91451905D01*
X131300524Y-91428095D01*
X131205286Y-91404286D01*
X131157667Y-91380476D01*
X131133858Y-91356667D01*
X131110048Y-91309048D01*
X131110048Y-91261429D01*
X131133858Y-91213810D01*
X131157667Y-91190000D01*
X131205286Y-91166190D01*
X131324334Y-91166190D01*
X131395762Y-91190000D01*
X131586238Y-91213810D02*
X131610048Y-91190000D01*
X131657667Y-91166190D01*
X131776714Y-91166190D01*
X131824333Y-91190000D01*
X131848143Y-91213810D01*
X131871952Y-91261429D01*
X131871952Y-91309048D01*
X131848143Y-91380476D01*
X131562429Y-91666190D01*
X131871952Y-91666190D01*
X158725382Y-132571190D02*
X158487287Y-132571190D01*
X158487287Y-132071190D01*
X158892049Y-132309286D02*
X159058715Y-132309286D01*
X159130144Y-132571190D02*
X158892049Y-132571190D01*
X158892049Y-132071190D01*
X159130144Y-132071190D01*
X159344430Y-132571190D02*
X159344430Y-132071190D01*
X159463477Y-132071190D01*
X159534906Y-132095000D01*
X159582525Y-132142619D01*
X159606334Y-132190238D01*
X159630144Y-132285476D01*
X159630144Y-132356905D01*
X159606334Y-132452143D01*
X159582525Y-132499762D01*
X159534906Y-132547381D01*
X159463477Y-132571190D01*
X159344430Y-132571190D01*
X160106334Y-132571190D02*
X159820620Y-132571190D01*
X159963477Y-132571190D02*
X159963477Y-132071190D01*
X159915858Y-132142619D01*
X159868239Y-132190238D01*
X159820620Y-132214048D01*
X160534905Y-132071190D02*
X160439667Y-132071190D01*
X160392048Y-132095000D01*
X160368239Y-132118810D01*
X160320620Y-132190238D01*
X160296810Y-132285476D01*
X160296810Y-132475952D01*
X160320620Y-132523571D01*
X160344429Y-132547381D01*
X160392048Y-132571190D01*
X160487286Y-132571190D01*
X160534905Y-132547381D01*
X160558715Y-132523571D01*
X160582524Y-132475952D01*
X160582524Y-132356905D01*
X160558715Y-132309286D01*
X160534905Y-132285476D01*
X160487286Y-132261667D01*
X160392048Y-132261667D01*
X160344429Y-132285476D01*
X160320620Y-132309286D01*
X160296810Y-132356905D01*
X144709382Y-132571190D02*
X144471287Y-132571190D01*
X144471287Y-132071190D01*
X144876049Y-132309286D02*
X145042715Y-132309286D01*
X145114144Y-132571190D02*
X144876049Y-132571190D01*
X144876049Y-132071190D01*
X145114144Y-132071190D01*
X145328430Y-132571190D02*
X145328430Y-132071190D01*
X145447477Y-132071190D01*
X145518906Y-132095000D01*
X145566525Y-132142619D01*
X145590334Y-132190238D01*
X145614144Y-132285476D01*
X145614144Y-132356905D01*
X145590334Y-132452143D01*
X145566525Y-132499762D01*
X145518906Y-132547381D01*
X145447477Y-132571190D01*
X145328430Y-132571190D01*
X146090334Y-132571190D02*
X145804620Y-132571190D01*
X145947477Y-132571190D02*
X145947477Y-132071190D01*
X145899858Y-132142619D01*
X145852239Y-132190238D01*
X145804620Y-132214048D01*
X146542715Y-132071190D02*
X146304620Y-132071190D01*
X146280810Y-132309286D01*
X146304620Y-132285476D01*
X146352239Y-132261667D01*
X146471286Y-132261667D01*
X146518905Y-132285476D01*
X146542715Y-132309286D01*
X146566524Y-132356905D01*
X146566524Y-132475952D01*
X146542715Y-132523571D01*
X146518905Y-132547381D01*
X146471286Y-132571190D01*
X146352239Y-132571190D01*
X146304620Y-132547381D01*
X146280810Y-132523571D01*
X130693382Y-132571190D02*
X130455287Y-132571190D01*
X130455287Y-132071190D01*
X130860049Y-132309286D02*
X131026715Y-132309286D01*
X131098144Y-132571190D02*
X130860049Y-132571190D01*
X130860049Y-132071190D01*
X131098144Y-132071190D01*
X131312430Y-132571190D02*
X131312430Y-132071190D01*
X131431477Y-132071190D01*
X131502906Y-132095000D01*
X131550525Y-132142619D01*
X131574334Y-132190238D01*
X131598144Y-132285476D01*
X131598144Y-132356905D01*
X131574334Y-132452143D01*
X131550525Y-132499762D01*
X131502906Y-132547381D01*
X131431477Y-132571190D01*
X131312430Y-132571190D01*
X132074334Y-132571190D02*
X131788620Y-132571190D01*
X131931477Y-132571190D02*
X131931477Y-132071190D01*
X131883858Y-132142619D01*
X131836239Y-132190238D01*
X131788620Y-132214048D01*
X132502905Y-132237857D02*
X132502905Y-132571190D01*
X132383858Y-132047381D02*
X132264810Y-132404524D01*
X132574334Y-132404524D01*
X116677382Y-132571190D02*
X116439287Y-132571190D01*
X116439287Y-132071190D01*
X116844049Y-132309286D02*
X117010715Y-132309286D01*
X117082144Y-132571190D02*
X116844049Y-132571190D01*
X116844049Y-132071190D01*
X117082144Y-132071190D01*
X117296430Y-132571190D02*
X117296430Y-132071190D01*
X117415477Y-132071190D01*
X117486906Y-132095000D01*
X117534525Y-132142619D01*
X117558334Y-132190238D01*
X117582144Y-132285476D01*
X117582144Y-132356905D01*
X117558334Y-132452143D01*
X117534525Y-132499762D01*
X117486906Y-132547381D01*
X117415477Y-132571190D01*
X117296430Y-132571190D01*
X118058334Y-132571190D02*
X117772620Y-132571190D01*
X117915477Y-132571190D02*
X117915477Y-132071190D01*
X117867858Y-132142619D01*
X117820239Y-132190238D01*
X117772620Y-132214048D01*
X118225001Y-132071190D02*
X118534524Y-132071190D01*
X118367858Y-132261667D01*
X118439286Y-132261667D01*
X118486905Y-132285476D01*
X118510715Y-132309286D01*
X118534524Y-132356905D01*
X118534524Y-132475952D01*
X118510715Y-132523571D01*
X118486905Y-132547381D01*
X118439286Y-132571190D01*
X118296429Y-132571190D01*
X118248810Y-132547381D01*
X118225001Y-132523571D01*
X158725382Y-118301190D02*
X158487287Y-118301190D01*
X158487287Y-117801190D01*
X158892049Y-118039286D02*
X159058715Y-118039286D01*
X159130144Y-118301190D02*
X158892049Y-118301190D01*
X158892049Y-117801190D01*
X159130144Y-117801190D01*
X159344430Y-118301190D02*
X159344430Y-117801190D01*
X159463477Y-117801190D01*
X159534906Y-117825000D01*
X159582525Y-117872619D01*
X159606334Y-117920238D01*
X159630144Y-118015476D01*
X159630144Y-118086905D01*
X159606334Y-118182143D01*
X159582525Y-118229762D01*
X159534906Y-118277381D01*
X159463477Y-118301190D01*
X159344430Y-118301190D01*
X160106334Y-118301190D02*
X159820620Y-118301190D01*
X159963477Y-118301190D02*
X159963477Y-117801190D01*
X159915858Y-117872619D01*
X159868239Y-117920238D01*
X159820620Y-117944048D01*
X160296810Y-117848810D02*
X160320620Y-117825000D01*
X160368239Y-117801190D01*
X160487286Y-117801190D01*
X160534905Y-117825000D01*
X160558715Y-117848810D01*
X160582524Y-117896429D01*
X160582524Y-117944048D01*
X160558715Y-118015476D01*
X160273001Y-118301190D01*
X160582524Y-118301190D01*
X144709382Y-118301190D02*
X144471287Y-118301190D01*
X144471287Y-117801190D01*
X144876049Y-118039286D02*
X145042715Y-118039286D01*
X145114144Y-118301190D02*
X144876049Y-118301190D01*
X144876049Y-117801190D01*
X145114144Y-117801190D01*
X145328430Y-118301190D02*
X145328430Y-117801190D01*
X145447477Y-117801190D01*
X145518906Y-117825000D01*
X145566525Y-117872619D01*
X145590334Y-117920238D01*
X145614144Y-118015476D01*
X145614144Y-118086905D01*
X145590334Y-118182143D01*
X145566525Y-118229762D01*
X145518906Y-118277381D01*
X145447477Y-118301190D01*
X145328430Y-118301190D01*
X146090334Y-118301190D02*
X145804620Y-118301190D01*
X145947477Y-118301190D02*
X145947477Y-117801190D01*
X145899858Y-117872619D01*
X145852239Y-117920238D01*
X145804620Y-117944048D01*
X146566524Y-118301190D02*
X146280810Y-118301190D01*
X146423667Y-118301190D02*
X146423667Y-117801190D01*
X146376048Y-117872619D01*
X146328429Y-117920238D01*
X146280810Y-117944048D01*
X130693382Y-118301190D02*
X130455287Y-118301190D01*
X130455287Y-117801190D01*
X130860049Y-118039286D02*
X131026715Y-118039286D01*
X131098144Y-118301190D02*
X130860049Y-118301190D01*
X130860049Y-117801190D01*
X131098144Y-117801190D01*
X131312430Y-118301190D02*
X131312430Y-117801190D01*
X131431477Y-117801190D01*
X131502906Y-117825000D01*
X131550525Y-117872619D01*
X131574334Y-117920238D01*
X131598144Y-118015476D01*
X131598144Y-118086905D01*
X131574334Y-118182143D01*
X131550525Y-118229762D01*
X131502906Y-118277381D01*
X131431477Y-118301190D01*
X131312430Y-118301190D01*
X132074334Y-118301190D02*
X131788620Y-118301190D01*
X131931477Y-118301190D02*
X131931477Y-117801190D01*
X131883858Y-117872619D01*
X131836239Y-117920238D01*
X131788620Y-117944048D01*
X132383858Y-117801190D02*
X132431477Y-117801190D01*
X132479096Y-117825000D01*
X132502905Y-117848810D01*
X132526715Y-117896429D01*
X132550524Y-117991667D01*
X132550524Y-118110714D01*
X132526715Y-118205952D01*
X132502905Y-118253571D01*
X132479096Y-118277381D01*
X132431477Y-118301190D01*
X132383858Y-118301190D01*
X132336239Y-118277381D01*
X132312429Y-118253571D01*
X132288620Y-118205952D01*
X132264810Y-118110714D01*
X132264810Y-117991667D01*
X132288620Y-117896429D01*
X132312429Y-117848810D01*
X132336239Y-117825000D01*
X132383858Y-117801190D01*
X116915477Y-118301190D02*
X116677382Y-118301190D01*
X116677382Y-117801190D01*
X117082144Y-118039286D02*
X117248810Y-118039286D01*
X117320239Y-118301190D02*
X117082144Y-118301190D01*
X117082144Y-117801190D01*
X117320239Y-117801190D01*
X117534525Y-118301190D02*
X117534525Y-117801190D01*
X117653572Y-117801190D01*
X117725001Y-117825000D01*
X117772620Y-117872619D01*
X117796429Y-117920238D01*
X117820239Y-118015476D01*
X117820239Y-118086905D01*
X117796429Y-118182143D01*
X117772620Y-118229762D01*
X117725001Y-118277381D01*
X117653572Y-118301190D01*
X117534525Y-118301190D01*
X118058334Y-118301190D02*
X118153572Y-118301190D01*
X118201191Y-118277381D01*
X118225001Y-118253571D01*
X118272620Y-118182143D01*
X118296429Y-118086905D01*
X118296429Y-117896429D01*
X118272620Y-117848810D01*
X118248810Y-117825000D01*
X118201191Y-117801190D01*
X118105953Y-117801190D01*
X118058334Y-117825000D01*
X118034525Y-117848810D01*
X118010715Y-117896429D01*
X118010715Y-118015476D01*
X118034525Y-118063095D01*
X118058334Y-118086905D01*
X118105953Y-118110714D01*
X118201191Y-118110714D01*
X118248810Y-118086905D01*
X118272620Y-118063095D01*
X118296429Y-118015476D01*
X158963477Y-104031190D02*
X158725382Y-104031190D01*
X158725382Y-103531190D01*
X159130144Y-103769286D02*
X159296810Y-103769286D01*
X159368239Y-104031190D02*
X159130144Y-104031190D01*
X159130144Y-103531190D01*
X159368239Y-103531190D01*
X159582525Y-104031190D02*
X159582525Y-103531190D01*
X159701572Y-103531190D01*
X159773001Y-103555000D01*
X159820620Y-103602619D01*
X159844429Y-103650238D01*
X159868239Y-103745476D01*
X159868239Y-103816905D01*
X159844429Y-103912143D01*
X159820620Y-103959762D01*
X159773001Y-104007381D01*
X159701572Y-104031190D01*
X159582525Y-104031190D01*
X160153953Y-103745476D02*
X160106334Y-103721667D01*
X160082525Y-103697857D01*
X160058715Y-103650238D01*
X160058715Y-103626429D01*
X160082525Y-103578810D01*
X160106334Y-103555000D01*
X160153953Y-103531190D01*
X160249191Y-103531190D01*
X160296810Y-103555000D01*
X160320620Y-103578810D01*
X160344429Y-103626429D01*
X160344429Y-103650238D01*
X160320620Y-103697857D01*
X160296810Y-103721667D01*
X160249191Y-103745476D01*
X160153953Y-103745476D01*
X160106334Y-103769286D01*
X160082525Y-103793095D01*
X160058715Y-103840714D01*
X160058715Y-103935952D01*
X160082525Y-103983571D01*
X160106334Y-104007381D01*
X160153953Y-104031190D01*
X160249191Y-104031190D01*
X160296810Y-104007381D01*
X160320620Y-103983571D01*
X160344429Y-103935952D01*
X160344429Y-103840714D01*
X160320620Y-103793095D01*
X160296810Y-103769286D01*
X160249191Y-103745476D01*
X144947477Y-104031190D02*
X144709382Y-104031190D01*
X144709382Y-103531190D01*
X145114144Y-103769286D02*
X145280810Y-103769286D01*
X145352239Y-104031190D02*
X145114144Y-104031190D01*
X145114144Y-103531190D01*
X145352239Y-103531190D01*
X145566525Y-104031190D02*
X145566525Y-103531190D01*
X145685572Y-103531190D01*
X145757001Y-103555000D01*
X145804620Y-103602619D01*
X145828429Y-103650238D01*
X145852239Y-103745476D01*
X145852239Y-103816905D01*
X145828429Y-103912143D01*
X145804620Y-103959762D01*
X145757001Y-104007381D01*
X145685572Y-104031190D01*
X145566525Y-104031190D01*
X146018906Y-103531190D02*
X146352239Y-103531190D01*
X146137953Y-104031190D01*
X130931477Y-104031190D02*
X130693382Y-104031190D01*
X130693382Y-103531190D01*
X131098144Y-103769286D02*
X131264810Y-103769286D01*
X131336239Y-104031190D02*
X131098144Y-104031190D01*
X131098144Y-103531190D01*
X131336239Y-103531190D01*
X131550525Y-104031190D02*
X131550525Y-103531190D01*
X131669572Y-103531190D01*
X131741001Y-103555000D01*
X131788620Y-103602619D01*
X131812429Y-103650238D01*
X131836239Y-103745476D01*
X131836239Y-103816905D01*
X131812429Y-103912143D01*
X131788620Y-103959762D01*
X131741001Y-104007381D01*
X131669572Y-104031190D01*
X131550525Y-104031190D01*
X132264810Y-103531190D02*
X132169572Y-103531190D01*
X132121953Y-103555000D01*
X132098144Y-103578810D01*
X132050525Y-103650238D01*
X132026715Y-103745476D01*
X132026715Y-103935952D01*
X132050525Y-103983571D01*
X132074334Y-104007381D01*
X132121953Y-104031190D01*
X132217191Y-104031190D01*
X132264810Y-104007381D01*
X132288620Y-103983571D01*
X132312429Y-103935952D01*
X132312429Y-103816905D01*
X132288620Y-103769286D01*
X132264810Y-103745476D01*
X132217191Y-103721667D01*
X132121953Y-103721667D01*
X132074334Y-103745476D01*
X132050525Y-103769286D01*
X132026715Y-103816905D01*
X116915477Y-104031190D02*
X116677382Y-104031190D01*
X116677382Y-103531190D01*
X117082144Y-103769286D02*
X117248810Y-103769286D01*
X117320239Y-104031190D02*
X117082144Y-104031190D01*
X117082144Y-103531190D01*
X117320239Y-103531190D01*
X117534525Y-104031190D02*
X117534525Y-103531190D01*
X117653572Y-103531190D01*
X117725001Y-103555000D01*
X117772620Y-103602619D01*
X117796429Y-103650238D01*
X117820239Y-103745476D01*
X117820239Y-103816905D01*
X117796429Y-103912143D01*
X117772620Y-103959762D01*
X117725001Y-104007381D01*
X117653572Y-104031190D01*
X117534525Y-104031190D01*
X118272620Y-103531190D02*
X118034525Y-103531190D01*
X118010715Y-103769286D01*
X118034525Y-103745476D01*
X118082144Y-103721667D01*
X118201191Y-103721667D01*
X118248810Y-103745476D01*
X118272620Y-103769286D01*
X118296429Y-103816905D01*
X118296429Y-103935952D01*
X118272620Y-103983571D01*
X118248810Y-104007381D01*
X118201191Y-104031190D01*
X118082144Y-104031190D01*
X118034525Y-104007381D01*
X118010715Y-103983571D01*
X158963477Y-89761190D02*
X158725382Y-89761190D01*
X158725382Y-89261190D01*
X159130144Y-89499286D02*
X159296810Y-89499286D01*
X159368239Y-89761190D02*
X159130144Y-89761190D01*
X159130144Y-89261190D01*
X159368239Y-89261190D01*
X159582525Y-89761190D02*
X159582525Y-89261190D01*
X159701572Y-89261190D01*
X159773001Y-89285000D01*
X159820620Y-89332619D01*
X159844429Y-89380238D01*
X159868239Y-89475476D01*
X159868239Y-89546905D01*
X159844429Y-89642143D01*
X159820620Y-89689762D01*
X159773001Y-89737381D01*
X159701572Y-89761190D01*
X159582525Y-89761190D01*
X160296810Y-89427857D02*
X160296810Y-89761190D01*
X160177763Y-89237381D02*
X160058715Y-89594524D01*
X160368239Y-89594524D01*
X144855477Y-90396190D02*
X144617382Y-90396190D01*
X144617382Y-89896190D01*
X145022144Y-90134286D02*
X145188810Y-90134286D01*
X145260239Y-90396190D02*
X145022144Y-90396190D01*
X145022144Y-89896190D01*
X145260239Y-89896190D01*
X145474525Y-90396190D02*
X145474525Y-89896190D01*
X145593572Y-89896190D01*
X145665001Y-89920000D01*
X145712620Y-89967619D01*
X145736429Y-90015238D01*
X145760239Y-90110476D01*
X145760239Y-90181905D01*
X145736429Y-90277143D01*
X145712620Y-90324762D01*
X145665001Y-90372381D01*
X145593572Y-90396190D01*
X145474525Y-90396190D01*
X145926906Y-89896190D02*
X146236429Y-89896190D01*
X146069763Y-90086667D01*
X146141191Y-90086667D01*
X146188810Y-90110476D01*
X146212620Y-90134286D01*
X146236429Y-90181905D01*
X146236429Y-90300952D01*
X146212620Y-90348571D01*
X146188810Y-90372381D01*
X146141191Y-90396190D01*
X145998334Y-90396190D01*
X145950715Y-90372381D01*
X145926906Y-90348571D01*
X130885477Y-90396190D02*
X130647382Y-90396190D01*
X130647382Y-89896190D01*
X131052144Y-90134286D02*
X131218810Y-90134286D01*
X131290239Y-90396190D02*
X131052144Y-90396190D01*
X131052144Y-89896190D01*
X131290239Y-89896190D01*
X131504525Y-90396190D02*
X131504525Y-89896190D01*
X131623572Y-89896190D01*
X131695001Y-89920000D01*
X131742620Y-89967619D01*
X131766429Y-90015238D01*
X131790239Y-90110476D01*
X131790239Y-90181905D01*
X131766429Y-90277143D01*
X131742620Y-90324762D01*
X131695001Y-90372381D01*
X131623572Y-90396190D01*
X131504525Y-90396190D01*
X131980715Y-89943810D02*
X132004525Y-89920000D01*
X132052144Y-89896190D01*
X132171191Y-89896190D01*
X132218810Y-89920000D01*
X132242620Y-89943810D01*
X132266429Y-89991429D01*
X132266429Y-90039048D01*
X132242620Y-90110476D01*
X131956906Y-90396190D01*
X132266429Y-90396190D01*
X177815953Y-117042381D02*
X177887382Y-117066190D01*
X178006429Y-117066190D01*
X178054048Y-117042381D01*
X178077858Y-117018571D01*
X178101667Y-116970952D01*
X178101667Y-116923333D01*
X178077858Y-116875714D01*
X178054048Y-116851905D01*
X178006429Y-116828095D01*
X177911191Y-116804286D01*
X177863572Y-116780476D01*
X177839763Y-116756667D01*
X177815953Y-116709048D01*
X177815953Y-116661429D01*
X177839763Y-116613810D01*
X177863572Y-116590000D01*
X177911191Y-116566190D01*
X178030239Y-116566190D01*
X178101667Y-116590000D01*
X178292143Y-117042381D02*
X178363572Y-117066190D01*
X178482619Y-117066190D01*
X178530238Y-117042381D01*
X178554048Y-117018571D01*
X178577857Y-116970952D01*
X178577857Y-116923333D01*
X178554048Y-116875714D01*
X178530238Y-116851905D01*
X178482619Y-116828095D01*
X178387381Y-116804286D01*
X178339762Y-116780476D01*
X178315953Y-116756667D01*
X178292143Y-116709048D01*
X178292143Y-116661429D01*
X178315953Y-116613810D01*
X178339762Y-116590000D01*
X178387381Y-116566190D01*
X178506429Y-116566190D01*
X178577857Y-116590000D01*
X178815952Y-117066190D02*
X178911190Y-117066190D01*
X178958809Y-117042381D01*
X178982619Y-117018571D01*
X179030238Y-116947143D01*
X179054047Y-116851905D01*
X179054047Y-116661429D01*
X179030238Y-116613810D01*
X179006428Y-116590000D01*
X178958809Y-116566190D01*
X178863571Y-116566190D01*
X178815952Y-116590000D01*
X178792143Y-116613810D01*
X178768333Y-116661429D01*
X178768333Y-116780476D01*
X178792143Y-116828095D01*
X178815952Y-116851905D01*
X178863571Y-116875714D01*
X178958809Y-116875714D01*
X179006428Y-116851905D01*
X179030238Y-116828095D01*
X179054047Y-116780476D01*
X177815953Y-123392381D02*
X177887382Y-123416190D01*
X178006429Y-123416190D01*
X178054048Y-123392381D01*
X178077858Y-123368571D01*
X178101667Y-123320952D01*
X178101667Y-123273333D01*
X178077858Y-123225714D01*
X178054048Y-123201905D01*
X178006429Y-123178095D01*
X177911191Y-123154286D01*
X177863572Y-123130476D01*
X177839763Y-123106667D01*
X177815953Y-123059048D01*
X177815953Y-123011429D01*
X177839763Y-122963810D01*
X177863572Y-122940000D01*
X177911191Y-122916190D01*
X178030239Y-122916190D01*
X178101667Y-122940000D01*
X178292143Y-123392381D02*
X178363572Y-123416190D01*
X178482619Y-123416190D01*
X178530238Y-123392381D01*
X178554048Y-123368571D01*
X178577857Y-123320952D01*
X178577857Y-123273333D01*
X178554048Y-123225714D01*
X178530238Y-123201905D01*
X178482619Y-123178095D01*
X178387381Y-123154286D01*
X178339762Y-123130476D01*
X178315953Y-123106667D01*
X178292143Y-123059048D01*
X178292143Y-123011429D01*
X178315953Y-122963810D01*
X178339762Y-122940000D01*
X178387381Y-122916190D01*
X178506429Y-122916190D01*
X178577857Y-122940000D01*
X178863571Y-123130476D02*
X178815952Y-123106667D01*
X178792143Y-123082857D01*
X178768333Y-123035238D01*
X178768333Y-123011429D01*
X178792143Y-122963810D01*
X178815952Y-122940000D01*
X178863571Y-122916190D01*
X178958809Y-122916190D01*
X179006428Y-122940000D01*
X179030238Y-122963810D01*
X179054047Y-123011429D01*
X179054047Y-123035238D01*
X179030238Y-123082857D01*
X179006428Y-123106667D01*
X178958809Y-123130476D01*
X178863571Y-123130476D01*
X178815952Y-123154286D01*
X178792143Y-123178095D01*
X178768333Y-123225714D01*
X178768333Y-123320952D01*
X178792143Y-123368571D01*
X178815952Y-123392381D01*
X178863571Y-123416190D01*
X178958809Y-123416190D01*
X179006428Y-123392381D01*
X179030238Y-123368571D01*
X179054047Y-123320952D01*
X179054047Y-123225714D01*
X179030238Y-123178095D01*
X179006428Y-123154286D01*
X178958809Y-123130476D01*
X106048253Y-118312381D02*
X106119682Y-118336190D01*
X106238729Y-118336190D01*
X106286348Y-118312381D01*
X106310158Y-118288571D01*
X106333967Y-118240952D01*
X106333967Y-118193333D01*
X106310158Y-118145714D01*
X106286348Y-118121905D01*
X106238729Y-118098095D01*
X106143491Y-118074286D01*
X106095872Y-118050476D01*
X106072063Y-118026667D01*
X106048253Y-117979048D01*
X106048253Y-117931429D01*
X106072063Y-117883810D01*
X106095872Y-117860000D01*
X106143491Y-117836190D01*
X106262539Y-117836190D01*
X106333967Y-117860000D01*
X106524443Y-118312381D02*
X106595872Y-118336190D01*
X106714919Y-118336190D01*
X106762538Y-118312381D01*
X106786348Y-118288571D01*
X106810157Y-118240952D01*
X106810157Y-118193333D01*
X106786348Y-118145714D01*
X106762538Y-118121905D01*
X106714919Y-118098095D01*
X106619681Y-118074286D01*
X106572062Y-118050476D01*
X106548253Y-118026667D01*
X106524443Y-117979048D01*
X106524443Y-117931429D01*
X106548253Y-117883810D01*
X106572062Y-117860000D01*
X106619681Y-117836190D01*
X106738729Y-117836190D01*
X106810157Y-117860000D01*
X106976824Y-117836190D02*
X107310157Y-117836190D01*
X107095871Y-118336190D01*
X97818653Y-118248881D02*
X97890082Y-118272690D01*
X98009129Y-118272690D01*
X98056748Y-118248881D01*
X98080558Y-118225071D01*
X98104367Y-118177452D01*
X98104367Y-118129833D01*
X98080558Y-118082214D01*
X98056748Y-118058405D01*
X98009129Y-118034595D01*
X97913891Y-118010786D01*
X97866272Y-117986976D01*
X97842463Y-117963167D01*
X97818653Y-117915548D01*
X97818653Y-117867929D01*
X97842463Y-117820310D01*
X97866272Y-117796500D01*
X97913891Y-117772690D01*
X98032939Y-117772690D01*
X98104367Y-117796500D01*
X98294843Y-118248881D02*
X98366272Y-118272690D01*
X98485319Y-118272690D01*
X98532938Y-118248881D01*
X98556748Y-118225071D01*
X98580557Y-118177452D01*
X98580557Y-118129833D01*
X98556748Y-118082214D01*
X98532938Y-118058405D01*
X98485319Y-118034595D01*
X98390081Y-118010786D01*
X98342462Y-117986976D01*
X98318653Y-117963167D01*
X98294843Y-117915548D01*
X98294843Y-117867929D01*
X98318653Y-117820310D01*
X98342462Y-117796500D01*
X98390081Y-117772690D01*
X98509129Y-117772690D01*
X98580557Y-117796500D01*
X99009128Y-117772690D02*
X98913890Y-117772690D01*
X98866271Y-117796500D01*
X98842462Y-117820310D01*
X98794843Y-117891738D01*
X98771033Y-117986976D01*
X98771033Y-118177452D01*
X98794843Y-118225071D01*
X98818652Y-118248881D01*
X98866271Y-118272690D01*
X98961509Y-118272690D01*
X99009128Y-118248881D01*
X99032938Y-118225071D01*
X99056747Y-118177452D01*
X99056747Y-118058405D01*
X99032938Y-118010786D01*
X99009128Y-117986976D01*
X98961509Y-117963167D01*
X98866271Y-117963167D01*
X98818652Y-117986976D01*
X98794843Y-118010786D01*
X98771033Y-118058405D01*
X106099053Y-108253981D02*
X106170482Y-108277790D01*
X106289529Y-108277790D01*
X106337148Y-108253981D01*
X106360958Y-108230171D01*
X106384767Y-108182552D01*
X106384767Y-108134933D01*
X106360958Y-108087314D01*
X106337148Y-108063505D01*
X106289529Y-108039695D01*
X106194291Y-108015886D01*
X106146672Y-107992076D01*
X106122863Y-107968267D01*
X106099053Y-107920648D01*
X106099053Y-107873029D01*
X106122863Y-107825410D01*
X106146672Y-107801600D01*
X106194291Y-107777790D01*
X106313339Y-107777790D01*
X106384767Y-107801600D01*
X106575243Y-108253981D02*
X106646672Y-108277790D01*
X106765719Y-108277790D01*
X106813338Y-108253981D01*
X106837148Y-108230171D01*
X106860957Y-108182552D01*
X106860957Y-108134933D01*
X106837148Y-108087314D01*
X106813338Y-108063505D01*
X106765719Y-108039695D01*
X106670481Y-108015886D01*
X106622862Y-107992076D01*
X106599053Y-107968267D01*
X106575243Y-107920648D01*
X106575243Y-107873029D01*
X106599053Y-107825410D01*
X106622862Y-107801600D01*
X106670481Y-107777790D01*
X106789529Y-107777790D01*
X106860957Y-107801600D01*
X107313338Y-107777790D02*
X107075243Y-107777790D01*
X107051433Y-108015886D01*
X107075243Y-107992076D01*
X107122862Y-107968267D01*
X107241909Y-107968267D01*
X107289528Y-107992076D01*
X107313338Y-108015886D01*
X107337147Y-108063505D01*
X107337147Y-108182552D01*
X107313338Y-108230171D01*
X107289528Y-108253981D01*
X107241909Y-108277790D01*
X107122862Y-108277790D01*
X107075243Y-108253981D01*
X107051433Y-108230171D01*
X97704353Y-107961881D02*
X97775782Y-107985690D01*
X97894829Y-107985690D01*
X97942448Y-107961881D01*
X97966258Y-107938071D01*
X97990067Y-107890452D01*
X97990067Y-107842833D01*
X97966258Y-107795214D01*
X97942448Y-107771405D01*
X97894829Y-107747595D01*
X97799591Y-107723786D01*
X97751972Y-107699976D01*
X97728163Y-107676167D01*
X97704353Y-107628548D01*
X97704353Y-107580929D01*
X97728163Y-107533310D01*
X97751972Y-107509500D01*
X97799591Y-107485690D01*
X97918639Y-107485690D01*
X97990067Y-107509500D01*
X98180543Y-107961881D02*
X98251972Y-107985690D01*
X98371019Y-107985690D01*
X98418638Y-107961881D01*
X98442448Y-107938071D01*
X98466257Y-107890452D01*
X98466257Y-107842833D01*
X98442448Y-107795214D01*
X98418638Y-107771405D01*
X98371019Y-107747595D01*
X98275781Y-107723786D01*
X98228162Y-107699976D01*
X98204353Y-107676167D01*
X98180543Y-107628548D01*
X98180543Y-107580929D01*
X98204353Y-107533310D01*
X98228162Y-107509500D01*
X98275781Y-107485690D01*
X98394829Y-107485690D01*
X98466257Y-107509500D01*
X98894828Y-107652357D02*
X98894828Y-107985690D01*
X98775781Y-107461881D02*
X98656733Y-107819024D01*
X98966257Y-107819024D01*
X151780953Y-77926381D02*
X151852382Y-77950190D01*
X151971429Y-77950190D01*
X152019048Y-77926381D01*
X152042858Y-77902571D01*
X152066667Y-77854952D01*
X152066667Y-77807333D01*
X152042858Y-77759714D01*
X152019048Y-77735905D01*
X151971429Y-77712095D01*
X151876191Y-77688286D01*
X151828572Y-77664476D01*
X151804763Y-77640667D01*
X151780953Y-77593048D01*
X151780953Y-77545429D01*
X151804763Y-77497810D01*
X151828572Y-77474000D01*
X151876191Y-77450190D01*
X151995239Y-77450190D01*
X152066667Y-77474000D01*
X152257143Y-77926381D02*
X152328572Y-77950190D01*
X152447619Y-77950190D01*
X152495238Y-77926381D01*
X152519048Y-77902571D01*
X152542857Y-77854952D01*
X152542857Y-77807333D01*
X152519048Y-77759714D01*
X152495238Y-77735905D01*
X152447619Y-77712095D01*
X152352381Y-77688286D01*
X152304762Y-77664476D01*
X152280953Y-77640667D01*
X152257143Y-77593048D01*
X152257143Y-77545429D01*
X152280953Y-77497810D01*
X152304762Y-77474000D01*
X152352381Y-77450190D01*
X152471429Y-77450190D01*
X152542857Y-77474000D01*
X152709524Y-77450190D02*
X153019047Y-77450190D01*
X152852381Y-77640667D01*
X152923809Y-77640667D01*
X152971428Y-77664476D01*
X152995238Y-77688286D01*
X153019047Y-77735905D01*
X153019047Y-77854952D01*
X152995238Y-77902571D01*
X152971428Y-77926381D01*
X152923809Y-77950190D01*
X152780952Y-77950190D01*
X152733333Y-77926381D01*
X152709524Y-77902571D01*
X137810953Y-77926381D02*
X137882382Y-77950190D01*
X138001429Y-77950190D01*
X138049048Y-77926381D01*
X138072858Y-77902571D01*
X138096667Y-77854952D01*
X138096667Y-77807333D01*
X138072858Y-77759714D01*
X138049048Y-77735905D01*
X138001429Y-77712095D01*
X137906191Y-77688286D01*
X137858572Y-77664476D01*
X137834763Y-77640667D01*
X137810953Y-77593048D01*
X137810953Y-77545429D01*
X137834763Y-77497810D01*
X137858572Y-77474000D01*
X137906191Y-77450190D01*
X138025239Y-77450190D01*
X138096667Y-77474000D01*
X138287143Y-77926381D02*
X138358572Y-77950190D01*
X138477619Y-77950190D01*
X138525238Y-77926381D01*
X138549048Y-77902571D01*
X138572857Y-77854952D01*
X138572857Y-77807333D01*
X138549048Y-77759714D01*
X138525238Y-77735905D01*
X138477619Y-77712095D01*
X138382381Y-77688286D01*
X138334762Y-77664476D01*
X138310953Y-77640667D01*
X138287143Y-77593048D01*
X138287143Y-77545429D01*
X138310953Y-77497810D01*
X138334762Y-77474000D01*
X138382381Y-77450190D01*
X138501429Y-77450190D01*
X138572857Y-77474000D01*
X138763333Y-77497810D02*
X138787143Y-77474000D01*
X138834762Y-77450190D01*
X138953809Y-77450190D01*
X139001428Y-77474000D01*
X139025238Y-77497810D01*
X139049047Y-77545429D01*
X139049047Y-77593048D01*
X139025238Y-77664476D01*
X138739524Y-77950190D01*
X139049047Y-77950190D01*
X117042477Y-90142190D02*
X116804382Y-90142190D01*
X116804382Y-89642190D01*
X117209144Y-89880286D02*
X117375810Y-89880286D01*
X117447239Y-90142190D02*
X117209144Y-90142190D01*
X117209144Y-89642190D01*
X117447239Y-89642190D01*
X117661525Y-90142190D02*
X117661525Y-89642190D01*
X117780572Y-89642190D01*
X117852001Y-89666000D01*
X117899620Y-89713619D01*
X117923429Y-89761238D01*
X117947239Y-89856476D01*
X117947239Y-89927905D01*
X117923429Y-90023143D01*
X117899620Y-90070762D01*
X117852001Y-90118381D01*
X117780572Y-90142190D01*
X117661525Y-90142190D01*
X118423429Y-90142190D02*
X118137715Y-90142190D01*
X118280572Y-90142190D02*
X118280572Y-89642190D01*
X118232953Y-89713619D01*
X118185334Y-89761238D01*
X118137715Y-89785048D01*
X117094048Y-91642381D02*
X117165477Y-91666190D01*
X117284524Y-91666190D01*
X117332143Y-91642381D01*
X117355953Y-91618571D01*
X117379762Y-91570952D01*
X117379762Y-91523333D01*
X117355953Y-91475714D01*
X117332143Y-91451905D01*
X117284524Y-91428095D01*
X117189286Y-91404286D01*
X117141667Y-91380476D01*
X117117858Y-91356667D01*
X117094048Y-91309048D01*
X117094048Y-91261429D01*
X117117858Y-91213810D01*
X117141667Y-91190000D01*
X117189286Y-91166190D01*
X117308334Y-91166190D01*
X117379762Y-91190000D01*
X117855952Y-91666190D02*
X117570238Y-91666190D01*
X117713095Y-91666190D02*
X117713095Y-91166190D01*
X117665476Y-91237619D01*
X117617857Y-91285238D01*
X117570238Y-91309048D01*
X123840953Y-77926381D02*
X123912382Y-77950190D01*
X124031429Y-77950190D01*
X124079048Y-77926381D01*
X124102858Y-77902571D01*
X124126667Y-77854952D01*
X124126667Y-77807333D01*
X124102858Y-77759714D01*
X124079048Y-77735905D01*
X124031429Y-77712095D01*
X123936191Y-77688286D01*
X123888572Y-77664476D01*
X123864763Y-77640667D01*
X123840953Y-77593048D01*
X123840953Y-77545429D01*
X123864763Y-77497810D01*
X123888572Y-77474000D01*
X123936191Y-77450190D01*
X124055239Y-77450190D01*
X124126667Y-77474000D01*
X124317143Y-77926381D02*
X124388572Y-77950190D01*
X124507619Y-77950190D01*
X124555238Y-77926381D01*
X124579048Y-77902571D01*
X124602857Y-77854952D01*
X124602857Y-77807333D01*
X124579048Y-77759714D01*
X124555238Y-77735905D01*
X124507619Y-77712095D01*
X124412381Y-77688286D01*
X124364762Y-77664476D01*
X124340953Y-77640667D01*
X124317143Y-77593048D01*
X124317143Y-77545429D01*
X124340953Y-77497810D01*
X124364762Y-77474000D01*
X124412381Y-77450190D01*
X124531429Y-77450190D01*
X124602857Y-77474000D01*
X125079047Y-77950190D02*
X124793333Y-77950190D01*
X124936190Y-77950190D02*
X124936190Y-77450190D01*
X124888571Y-77521619D01*
X124840952Y-77569238D01*
X124793333Y-77593048D01*
X156996287Y-55090190D02*
X156996287Y-54590190D01*
X157162953Y-54947333D01*
X157329620Y-54590190D01*
X157329620Y-55090190D01*
X157567716Y-55090190D02*
X157567716Y-54590190D01*
X157805811Y-55090190D02*
X157805811Y-54590190D01*
X157924858Y-54590190D01*
X157996287Y-54614000D01*
X158043906Y-54661619D01*
X158067715Y-54709238D01*
X158091525Y-54804476D01*
X158091525Y-54875905D01*
X158067715Y-54971143D01*
X158043906Y-55018762D01*
X157996287Y-55066381D01*
X157924858Y-55090190D01*
X157805811Y-55090190D01*
X158305811Y-55090190D02*
X158305811Y-54590190D01*
X158424858Y-55137810D02*
X158805810Y-55137810D01*
X159020096Y-54590190D02*
X159115334Y-54590190D01*
X159162953Y-54614000D01*
X159210572Y-54661619D01*
X159234381Y-54756857D01*
X159234381Y-54923524D01*
X159210572Y-55018762D01*
X159162953Y-55066381D01*
X159115334Y-55090190D01*
X159020096Y-55090190D01*
X158972477Y-55066381D01*
X158924858Y-55018762D01*
X158901048Y-54923524D01*
X158901048Y-54756857D01*
X158924858Y-54661619D01*
X158972477Y-54614000D01*
X159020096Y-54590190D01*
X159448668Y-55090190D02*
X159448668Y-54590190D01*
X159639144Y-54590190D01*
X159686763Y-54614000D01*
X159710572Y-54637810D01*
X159734382Y-54685429D01*
X159734382Y-54756857D01*
X159710572Y-54804476D01*
X159686763Y-54828286D01*
X159639144Y-54852095D01*
X159448668Y-54852095D01*
X159877239Y-54590190D02*
X160162953Y-54590190D01*
X160020096Y-55090190D02*
X160020096Y-54590190D01*
X160424858Y-54590190D02*
X160520096Y-54590190D01*
X160567715Y-54614000D01*
X160615334Y-54661619D01*
X160639143Y-54756857D01*
X160639143Y-54923524D01*
X160615334Y-55018762D01*
X160567715Y-55066381D01*
X160520096Y-55090190D01*
X160424858Y-55090190D01*
X160377239Y-55066381D01*
X160329620Y-55018762D01*
X160305810Y-54923524D01*
X160305810Y-54756857D01*
X160329620Y-54661619D01*
X160377239Y-54614000D01*
X160424858Y-54590190D01*
X160853430Y-55090190D02*
X160853430Y-54590190D01*
X161067715Y-55066381D02*
X161139144Y-55090190D01*
X161258191Y-55090190D01*
X161305810Y-55066381D01*
X161329620Y-55042571D01*
X161353429Y-54994952D01*
X161353429Y-54947333D01*
X161329620Y-54899714D01*
X161305810Y-54875905D01*
X161258191Y-54852095D01*
X161162953Y-54828286D01*
X161115334Y-54804476D01*
X161091525Y-54780667D01*
X161067715Y-54733048D01*
X161067715Y-54685429D01*
X161091525Y-54637810D01*
X161115334Y-54614000D01*
X161162953Y-54590190D01*
X161282001Y-54590190D01*
X161353429Y-54614000D01*
X161662953Y-54590190D02*
X161758191Y-54590190D01*
X161805810Y-54614000D01*
X161853429Y-54661619D01*
X161877238Y-54756857D01*
X161877238Y-54923524D01*
X161853429Y-55018762D01*
X161805810Y-55066381D01*
X161758191Y-55090190D01*
X161662953Y-55090190D01*
X161615334Y-55066381D01*
X161567715Y-55018762D01*
X161543905Y-54923524D01*
X161543905Y-54756857D01*
X161567715Y-54661619D01*
X161615334Y-54614000D01*
X161662953Y-54590190D01*
X162329620Y-55090190D02*
X162091525Y-55090190D01*
X162091525Y-54590190D01*
X162472477Y-54947333D02*
X162710572Y-54947333D01*
X162424858Y-55090190D02*
X162591525Y-54590190D01*
X162758191Y-55090190D01*
X162853429Y-54590190D02*
X163139143Y-54590190D01*
X162996286Y-55090190D02*
X162996286Y-54590190D01*
X163401048Y-54590190D02*
X163496286Y-54590190D01*
X163543905Y-54614000D01*
X163591524Y-54661619D01*
X163615333Y-54756857D01*
X163615333Y-54923524D01*
X163591524Y-55018762D01*
X163543905Y-55066381D01*
X163496286Y-55090190D01*
X163401048Y-55090190D01*
X163353429Y-55066381D01*
X163305810Y-55018762D01*
X163282000Y-54923524D01*
X163282000Y-54756857D01*
X163305810Y-54661619D01*
X163353429Y-54614000D01*
X163401048Y-54590190D01*
X164115334Y-55090190D02*
X163948667Y-54852095D01*
X163829620Y-55090190D02*
X163829620Y-54590190D01*
X164020096Y-54590190D01*
X164067715Y-54614000D01*
X164091524Y-54637810D01*
X164115334Y-54685429D01*
X164115334Y-54756857D01*
X164091524Y-54804476D01*
X164067715Y-54828286D01*
X164020096Y-54852095D01*
X163829620Y-54852095D01*
X164591524Y-55090190D02*
X164305810Y-55090190D01*
X164448667Y-55090190D02*
X164448667Y-54590190D01*
X164401048Y-54661619D01*
X164353429Y-54709238D01*
X164305810Y-54733048D01*
X171303811Y-94594286D02*
X171470477Y-94594286D01*
X171541906Y-94856190D02*
X171303811Y-94856190D01*
X171303811Y-94356190D01*
X171541906Y-94356190D01*
X171756192Y-94522857D02*
X171756192Y-94856190D01*
X171756192Y-94570476D02*
X171780001Y-94546667D01*
X171827620Y-94522857D01*
X171899049Y-94522857D01*
X171946668Y-94546667D01*
X171970477Y-94594286D01*
X171970477Y-94856190D01*
X172422858Y-94832381D02*
X172375239Y-94856190D01*
X172280001Y-94856190D01*
X172232382Y-94832381D01*
X172208573Y-94808571D01*
X172184763Y-94760952D01*
X172184763Y-94618095D01*
X172208573Y-94570476D01*
X172232382Y-94546667D01*
X172280001Y-94522857D01*
X172375239Y-94522857D01*
X172422858Y-94546667D01*
X172708572Y-94856190D02*
X172660953Y-94832381D01*
X172637144Y-94808571D01*
X172613334Y-94760952D01*
X172613334Y-94618095D01*
X172637144Y-94570476D01*
X172660953Y-94546667D01*
X172708572Y-94522857D01*
X172780001Y-94522857D01*
X172827620Y-94546667D01*
X172851429Y-94570476D01*
X172875239Y-94618095D01*
X172875239Y-94760952D01*
X172851429Y-94808571D01*
X172827620Y-94832381D01*
X172780001Y-94856190D01*
X172708572Y-94856190D01*
X173303810Y-94856190D02*
X173303810Y-94356190D01*
X173303810Y-94832381D02*
X173256191Y-94856190D01*
X173160953Y-94856190D01*
X173113334Y-94832381D01*
X173089525Y-94808571D01*
X173065715Y-94760952D01*
X173065715Y-94618095D01*
X173089525Y-94570476D01*
X173113334Y-94546667D01*
X173160953Y-94522857D01*
X173256191Y-94522857D01*
X173303810Y-94546667D01*
X173732382Y-94832381D02*
X173684763Y-94856190D01*
X173589525Y-94856190D01*
X173541906Y-94832381D01*
X173518096Y-94784762D01*
X173518096Y-94594286D01*
X173541906Y-94546667D01*
X173589525Y-94522857D01*
X173684763Y-94522857D01*
X173732382Y-94546667D01*
X173756191Y-94594286D01*
X173756191Y-94641905D01*
X173518096Y-94689524D01*
X173970477Y-94856190D02*
X173970477Y-94522857D01*
X173970477Y-94618095D02*
X173994286Y-94570476D01*
X174018096Y-94546667D01*
X174065715Y-94522857D01*
X174113334Y-94522857D01*
X174160953Y-94903810D02*
X174541905Y-94903810D01*
X174637143Y-94832381D02*
X174684762Y-94856190D01*
X174780000Y-94856190D01*
X174827619Y-94832381D01*
X174851429Y-94784762D01*
X174851429Y-94760952D01*
X174827619Y-94713333D01*
X174780000Y-94689524D01*
X174708572Y-94689524D01*
X174660953Y-94665714D01*
X174637143Y-94618095D01*
X174637143Y-94594286D01*
X174660953Y-94546667D01*
X174708572Y-94522857D01*
X174780000Y-94522857D01*
X174827619Y-94546667D01*
X175018096Y-94522857D02*
X175113334Y-94856190D01*
X175208572Y-94618095D01*
X175303810Y-94856190D01*
X175399048Y-94522857D01*
X175589525Y-94856190D02*
X175589525Y-94522857D01*
X175589525Y-94356190D02*
X175565715Y-94380000D01*
X175589525Y-94403810D01*
X175613334Y-94380000D01*
X175589525Y-94356190D01*
X175589525Y-94403810D01*
X175756191Y-94522857D02*
X175946667Y-94522857D01*
X175827620Y-94356190D02*
X175827620Y-94784762D01*
X175851429Y-94832381D01*
X175899048Y-94856190D01*
X175946667Y-94856190D01*
X176327619Y-94832381D02*
X176280000Y-94856190D01*
X176184762Y-94856190D01*
X176137143Y-94832381D01*
X176113334Y-94808571D01*
X176089524Y-94760952D01*
X176089524Y-94618095D01*
X176113334Y-94570476D01*
X176137143Y-94546667D01*
X176184762Y-94522857D01*
X176280000Y-94522857D01*
X176327619Y-94546667D01*
X176541905Y-94856190D02*
X176541905Y-94356190D01*
X176756190Y-94856190D02*
X176756190Y-94594286D01*
X176732381Y-94546667D01*
X176684762Y-94522857D01*
X176613333Y-94522857D01*
X176565714Y-94546667D01*
X176541905Y-94570476D01*
X123284467Y-97371671D02*
X123260657Y-97395481D01*
X123189229Y-97419290D01*
X123141610Y-97419290D01*
X123070181Y-97395481D01*
X123022562Y-97347862D01*
X122998753Y-97300243D01*
X122974943Y-97205005D01*
X122974943Y-97133576D01*
X122998753Y-97038338D01*
X123022562Y-96990719D01*
X123070181Y-96943100D01*
X123141610Y-96919290D01*
X123189229Y-96919290D01*
X123260657Y-96943100D01*
X123284467Y-96966910D01*
X123760657Y-97419290D02*
X123474943Y-97419290D01*
X123617800Y-97419290D02*
X123617800Y-96919290D01*
X123570181Y-96990719D01*
X123522562Y-97038338D01*
X123474943Y-97062148D01*
X125281572Y-37135571D02*
X125257762Y-37159381D01*
X125186334Y-37183190D01*
X125138715Y-37183190D01*
X125067286Y-37159381D01*
X125019667Y-37111762D01*
X124995858Y-37064143D01*
X124972048Y-36968905D01*
X124972048Y-36897476D01*
X124995858Y-36802238D01*
X125019667Y-36754619D01*
X125067286Y-36707000D01*
X125138715Y-36683190D01*
X125186334Y-36683190D01*
X125257762Y-36707000D01*
X125281572Y-36730810D01*
X125757762Y-37183190D02*
X125472048Y-37183190D01*
X125614905Y-37183190D02*
X125614905Y-36683190D01*
X125567286Y-36754619D01*
X125519667Y-36802238D01*
X125472048Y-36826048D01*
X125948238Y-36730810D02*
X125972048Y-36707000D01*
X126019667Y-36683190D01*
X126138714Y-36683190D01*
X126186333Y-36707000D01*
X126210143Y-36730810D01*
X126233952Y-36778429D01*
X126233952Y-36826048D01*
X126210143Y-36897476D01*
X125924429Y-37183190D01*
X126233952Y-37183190D01*
X173922572Y-84252571D02*
X173898762Y-84276381D01*
X173827334Y-84300190D01*
X173779715Y-84300190D01*
X173708286Y-84276381D01*
X173660667Y-84228762D01*
X173636858Y-84181143D01*
X173613048Y-84085905D01*
X173613048Y-84014476D01*
X173636858Y-83919238D01*
X173660667Y-83871619D01*
X173708286Y-83824000D01*
X173779715Y-83800190D01*
X173827334Y-83800190D01*
X173898762Y-83824000D01*
X173922572Y-83847810D01*
X174398762Y-84300190D02*
X174113048Y-84300190D01*
X174255905Y-84300190D02*
X174255905Y-83800190D01*
X174208286Y-83871619D01*
X174160667Y-83919238D01*
X174113048Y-83943048D01*
X174851143Y-83800190D02*
X174613048Y-83800190D01*
X174589238Y-84038286D01*
X174613048Y-84014476D01*
X174660667Y-83990667D01*
X174779714Y-83990667D01*
X174827333Y-84014476D01*
X174851143Y-84038286D01*
X174874952Y-84085905D01*
X174874952Y-84204952D01*
X174851143Y-84252571D01*
X174827333Y-84276381D01*
X174779714Y-84300190D01*
X174660667Y-84300190D01*
X174613048Y-84276381D01*
X174589238Y-84252571D01*
X170874572Y-84252571D02*
X170850762Y-84276381D01*
X170779334Y-84300190D01*
X170731715Y-84300190D01*
X170660286Y-84276381D01*
X170612667Y-84228762D01*
X170588858Y-84181143D01*
X170565048Y-84085905D01*
X170565048Y-84014476D01*
X170588858Y-83919238D01*
X170612667Y-83871619D01*
X170660286Y-83824000D01*
X170731715Y-83800190D01*
X170779334Y-83800190D01*
X170850762Y-83824000D01*
X170874572Y-83847810D01*
X171350762Y-84300190D02*
X171065048Y-84300190D01*
X171207905Y-84300190D02*
X171207905Y-83800190D01*
X171160286Y-83871619D01*
X171112667Y-83919238D01*
X171065048Y-83943048D01*
X171779333Y-83800190D02*
X171684095Y-83800190D01*
X171636476Y-83824000D01*
X171612667Y-83847810D01*
X171565048Y-83919238D01*
X171541238Y-84014476D01*
X171541238Y-84204952D01*
X171565048Y-84252571D01*
X171588857Y-84276381D01*
X171636476Y-84300190D01*
X171731714Y-84300190D01*
X171779333Y-84276381D01*
X171803143Y-84252571D01*
X171826952Y-84204952D01*
X171826952Y-84085905D01*
X171803143Y-84038286D01*
X171779333Y-84014476D01*
X171731714Y-83990667D01*
X171636476Y-83990667D01*
X171588857Y-84014476D01*
X171565048Y-84038286D01*
X171541238Y-84085905D01*
X155380572Y-66472571D02*
X155356762Y-66496381D01*
X155285334Y-66520190D01*
X155237715Y-66520190D01*
X155166286Y-66496381D01*
X155118667Y-66448762D01*
X155094858Y-66401143D01*
X155071048Y-66305905D01*
X155071048Y-66234476D01*
X155094858Y-66139238D01*
X155118667Y-66091619D01*
X155166286Y-66044000D01*
X155237715Y-66020190D01*
X155285334Y-66020190D01*
X155356762Y-66044000D01*
X155380572Y-66067810D01*
X155856762Y-66520190D02*
X155571048Y-66520190D01*
X155713905Y-66520190D02*
X155713905Y-66020190D01*
X155666286Y-66091619D01*
X155618667Y-66139238D01*
X155571048Y-66163048D01*
X156023429Y-66020190D02*
X156356762Y-66020190D01*
X156142476Y-66520190D01*
X180732953Y-72870190D02*
X180732953Y-72370190D01*
X180852000Y-72370190D01*
X180923429Y-72394000D01*
X180971048Y-72441619D01*
X180994857Y-72489238D01*
X181018667Y-72584476D01*
X181018667Y-72655905D01*
X180994857Y-72751143D01*
X180971048Y-72798762D01*
X180923429Y-72846381D01*
X180852000Y-72870190D01*
X180732953Y-72870190D01*
X181494857Y-72870190D02*
X181209143Y-72870190D01*
X181352000Y-72870190D02*
X181352000Y-72370190D01*
X181304381Y-72441619D01*
X181256762Y-72489238D01*
X181209143Y-72513048D01*
X172069239Y-128789190D02*
X172069239Y-128289190D01*
X172235905Y-128646333D01*
X172402572Y-128289190D01*
X172402572Y-128789190D01*
X172926382Y-128741571D02*
X172902572Y-128765381D01*
X172831144Y-128789190D01*
X172783525Y-128789190D01*
X172712096Y-128765381D01*
X172664477Y-128717762D01*
X172640668Y-128670143D01*
X172616858Y-128574905D01*
X172616858Y-128503476D01*
X172640668Y-128408238D01*
X172664477Y-128360619D01*
X172712096Y-128313000D01*
X172783525Y-128289190D01*
X172831144Y-128289190D01*
X172902572Y-128313000D01*
X172926382Y-128336810D01*
X173140668Y-128789190D02*
X173140668Y-128289190D01*
X173331144Y-128289190D01*
X173378763Y-128313000D01*
X173402572Y-128336810D01*
X173426382Y-128384429D01*
X173426382Y-128455857D01*
X173402572Y-128503476D01*
X173378763Y-128527286D01*
X173331144Y-128551095D01*
X173140668Y-128551095D01*
X173902572Y-128789190D02*
X173616858Y-128789190D01*
X173759715Y-128789190D02*
X173759715Y-128289190D01*
X173712096Y-128360619D01*
X173664477Y-128408238D01*
X173616858Y-128432048D01*
X99120439Y-89608790D02*
X99120439Y-89108790D01*
X99287105Y-89465933D01*
X99453772Y-89108790D01*
X99453772Y-89608790D01*
X99977582Y-89561171D02*
X99953772Y-89584981D01*
X99882344Y-89608790D01*
X99834725Y-89608790D01*
X99763296Y-89584981D01*
X99715677Y-89537362D01*
X99691868Y-89489743D01*
X99668058Y-89394505D01*
X99668058Y-89323076D01*
X99691868Y-89227838D01*
X99715677Y-89180219D01*
X99763296Y-89132600D01*
X99834725Y-89108790D01*
X99882344Y-89108790D01*
X99953772Y-89132600D01*
X99977582Y-89156410D01*
X100191868Y-89608790D02*
X100191868Y-89108790D01*
X100382344Y-89108790D01*
X100429963Y-89132600D01*
X100453772Y-89156410D01*
X100477582Y-89204029D01*
X100477582Y-89275457D01*
X100453772Y-89323076D01*
X100429963Y-89346886D01*
X100382344Y-89370695D01*
X100191868Y-89370695D01*
X100668058Y-89156410D02*
X100691868Y-89132600D01*
X100739487Y-89108790D01*
X100858534Y-89108790D01*
X100906153Y-89132600D01*
X100929963Y-89156410D01*
X100953772Y-89204029D01*
X100953772Y-89251648D01*
X100929963Y-89323076D01*
X100644249Y-89608790D01*
X100953772Y-89608790D01*
X107053867Y-87881590D02*
X106887200Y-87643495D01*
X106768153Y-87881590D02*
X106768153Y-87381590D01*
X106958629Y-87381590D01*
X107006248Y-87405400D01*
X107030057Y-87429210D01*
X107053867Y-87476829D01*
X107053867Y-87548257D01*
X107030057Y-87595876D01*
X107006248Y-87619686D01*
X106958629Y-87643495D01*
X106768153Y-87643495D01*
X107530057Y-87881590D02*
X107244343Y-87881590D01*
X107387200Y-87881590D02*
X107387200Y-87381590D01*
X107339581Y-87453019D01*
X107291962Y-87500638D01*
X107244343Y-87524448D01*
X170325267Y-34503490D02*
X170158600Y-34265395D01*
X170039553Y-34503490D02*
X170039553Y-34003490D01*
X170230029Y-34003490D01*
X170277648Y-34027300D01*
X170301457Y-34051110D01*
X170325267Y-34098729D01*
X170325267Y-34170157D01*
X170301457Y-34217776D01*
X170277648Y-34241586D01*
X170230029Y-34265395D01*
X170039553Y-34265395D01*
X170515743Y-34051110D02*
X170539553Y-34027300D01*
X170587172Y-34003490D01*
X170706219Y-34003490D01*
X170753838Y-34027300D01*
X170777648Y-34051110D01*
X170801457Y-34098729D01*
X170801457Y-34146348D01*
X170777648Y-34217776D01*
X170491934Y-34503490D01*
X170801457Y-34503490D01*
X181526667Y-75156190D02*
X181360000Y-74918095D01*
X181240953Y-75156190D02*
X181240953Y-74656190D01*
X181431429Y-74656190D01*
X181479048Y-74680000D01*
X181502857Y-74703810D01*
X181526667Y-74751429D01*
X181526667Y-74822857D01*
X181502857Y-74870476D01*
X181479048Y-74894286D01*
X181431429Y-74918095D01*
X181240953Y-74918095D01*
X181693334Y-74656190D02*
X182002857Y-74656190D01*
X181836191Y-74846667D01*
X181907619Y-74846667D01*
X181955238Y-74870476D01*
X181979048Y-74894286D01*
X182002857Y-74941905D01*
X182002857Y-75060952D01*
X181979048Y-75108571D01*
X181955238Y-75132381D01*
X181907619Y-75156190D01*
X181764762Y-75156190D01*
X181717143Y-75132381D01*
X181693334Y-75108571D01*
X108501667Y-26261190D02*
X108335000Y-26023095D01*
X108215953Y-26261190D02*
X108215953Y-25761190D01*
X108406429Y-25761190D01*
X108454048Y-25785000D01*
X108477857Y-25808810D01*
X108501667Y-25856429D01*
X108501667Y-25927857D01*
X108477857Y-25975476D01*
X108454048Y-25999286D01*
X108406429Y-26023095D01*
X108215953Y-26023095D01*
X108930238Y-25927857D02*
X108930238Y-26261190D01*
X108811191Y-25737381D02*
X108692143Y-26094524D01*
X109001667Y-26094524D01*
X163492667Y-34770190D02*
X163326000Y-34532095D01*
X163206953Y-34770190D02*
X163206953Y-34270190D01*
X163397429Y-34270190D01*
X163445048Y-34294000D01*
X163468857Y-34317810D01*
X163492667Y-34365429D01*
X163492667Y-34436857D01*
X163468857Y-34484476D01*
X163445048Y-34508286D01*
X163397429Y-34532095D01*
X163206953Y-34532095D01*
X163730762Y-34770190D02*
X163826000Y-34770190D01*
X163873619Y-34746381D01*
X163897429Y-34722571D01*
X163945048Y-34651143D01*
X163968857Y-34555905D01*
X163968857Y-34365429D01*
X163945048Y-34317810D01*
X163921238Y-34294000D01*
X163873619Y-34270190D01*
X163778381Y-34270190D01*
X163730762Y-34294000D01*
X163706953Y-34317810D01*
X163683143Y-34365429D01*
X163683143Y-34484476D01*
X163706953Y-34532095D01*
X163730762Y-34555905D01*
X163778381Y-34579714D01*
X163873619Y-34579714D01*
X163921238Y-34555905D01*
X163945048Y-34532095D01*
X163968857Y-34484476D01*
X166810572Y-34690190D02*
X166643905Y-34452095D01*
X166524858Y-34690190D02*
X166524858Y-34190190D01*
X166715334Y-34190190D01*
X166762953Y-34214000D01*
X166786762Y-34237810D01*
X166810572Y-34285429D01*
X166810572Y-34356857D01*
X166786762Y-34404476D01*
X166762953Y-34428286D01*
X166715334Y-34452095D01*
X166524858Y-34452095D01*
X167286762Y-34690190D02*
X167001048Y-34690190D01*
X167143905Y-34690190D02*
X167143905Y-34190190D01*
X167096286Y-34261619D01*
X167048667Y-34309238D01*
X167001048Y-34333048D01*
X167596286Y-34190190D02*
X167643905Y-34190190D01*
X167691524Y-34214000D01*
X167715333Y-34237810D01*
X167739143Y-34285429D01*
X167762952Y-34380667D01*
X167762952Y-34499714D01*
X167739143Y-34594952D01*
X167715333Y-34642571D01*
X167691524Y-34666381D01*
X167643905Y-34690190D01*
X167596286Y-34690190D01*
X167548667Y-34666381D01*
X167524857Y-34642571D01*
X167501048Y-34594952D01*
X167477238Y-34499714D01*
X167477238Y-34380667D01*
X167501048Y-34285429D01*
X167524857Y-34237810D01*
X167548667Y-34214000D01*
X167596286Y-34190190D01*
X173160572Y-55344190D02*
X172993905Y-55106095D01*
X172874858Y-55344190D02*
X172874858Y-54844190D01*
X173065334Y-54844190D01*
X173112953Y-54868000D01*
X173136762Y-54891810D01*
X173160572Y-54939429D01*
X173160572Y-55010857D01*
X173136762Y-55058476D01*
X173112953Y-55082286D01*
X173065334Y-55106095D01*
X172874858Y-55106095D01*
X173636762Y-55344190D02*
X173351048Y-55344190D01*
X173493905Y-55344190D02*
X173493905Y-54844190D01*
X173446286Y-54915619D01*
X173398667Y-54963238D01*
X173351048Y-54987048D01*
X174112952Y-55344190D02*
X173827238Y-55344190D01*
X173970095Y-55344190D02*
X173970095Y-54844190D01*
X173922476Y-54915619D01*
X173874857Y-54963238D01*
X173827238Y-54987048D01*
X169922072Y-110373290D02*
X169755405Y-110135195D01*
X169636358Y-110373290D02*
X169636358Y-109873290D01*
X169826834Y-109873290D01*
X169874453Y-109897100D01*
X169898262Y-109920910D01*
X169922072Y-109968529D01*
X169922072Y-110039957D01*
X169898262Y-110087576D01*
X169874453Y-110111386D01*
X169826834Y-110135195D01*
X169636358Y-110135195D01*
X170398262Y-110373290D02*
X170112548Y-110373290D01*
X170255405Y-110373290D02*
X170255405Y-109873290D01*
X170207786Y-109944719D01*
X170160167Y-109992338D01*
X170112548Y-110016148D01*
X170588738Y-109920910D02*
X170612548Y-109897100D01*
X170660167Y-109873290D01*
X170779214Y-109873290D01*
X170826833Y-109897100D01*
X170850643Y-109920910D01*
X170874452Y-109968529D01*
X170874452Y-110016148D01*
X170850643Y-110087576D01*
X170564929Y-110373290D01*
X170874452Y-110373290D01*
X172525572Y-110449490D02*
X172358905Y-110211395D01*
X172239858Y-110449490D02*
X172239858Y-109949490D01*
X172430334Y-109949490D01*
X172477953Y-109973300D01*
X172501762Y-109997110D01*
X172525572Y-110044729D01*
X172525572Y-110116157D01*
X172501762Y-110163776D01*
X172477953Y-110187586D01*
X172430334Y-110211395D01*
X172239858Y-110211395D01*
X173001762Y-110449490D02*
X172716048Y-110449490D01*
X172858905Y-110449490D02*
X172858905Y-109949490D01*
X172811286Y-110020919D01*
X172763667Y-110068538D01*
X172716048Y-110092348D01*
X173168429Y-109949490D02*
X173477952Y-109949490D01*
X173311286Y-110139967D01*
X173382714Y-110139967D01*
X173430333Y-110163776D01*
X173454143Y-110187586D01*
X173477952Y-110235205D01*
X173477952Y-110354252D01*
X173454143Y-110401871D01*
X173430333Y-110425681D01*
X173382714Y-110449490D01*
X173239857Y-110449490D01*
X173192238Y-110425681D01*
X173168429Y-110401871D01*
X123106667Y-111938571D02*
X123082857Y-111962381D01*
X123011429Y-111986190D01*
X122963810Y-111986190D01*
X122892381Y-111962381D01*
X122844762Y-111914762D01*
X122820953Y-111867143D01*
X122797143Y-111771905D01*
X122797143Y-111700476D01*
X122820953Y-111605238D01*
X122844762Y-111557619D01*
X122892381Y-111510000D01*
X122963810Y-111486190D01*
X123011429Y-111486190D01*
X123082857Y-111510000D01*
X123106667Y-111533810D01*
X123297143Y-111533810D02*
X123320953Y-111510000D01*
X123368572Y-111486190D01*
X123487619Y-111486190D01*
X123535238Y-111510000D01*
X123559048Y-111533810D01*
X123582857Y-111581429D01*
X123582857Y-111629048D01*
X123559048Y-111700476D01*
X123273334Y-111986190D01*
X123582857Y-111986190D01*
X122763767Y-126149871D02*
X122739957Y-126173681D01*
X122668529Y-126197490D01*
X122620910Y-126197490D01*
X122549481Y-126173681D01*
X122501862Y-126126062D01*
X122478053Y-126078443D01*
X122454243Y-125983205D01*
X122454243Y-125911776D01*
X122478053Y-125816538D01*
X122501862Y-125768919D01*
X122549481Y-125721300D01*
X122620910Y-125697490D01*
X122668529Y-125697490D01*
X122739957Y-125721300D01*
X122763767Y-125745110D01*
X122930434Y-125697490D02*
X123239957Y-125697490D01*
X123073291Y-125887967D01*
X123144719Y-125887967D01*
X123192338Y-125911776D01*
X123216148Y-125935586D01*
X123239957Y-125983205D01*
X123239957Y-126102252D01*
X123216148Y-126149871D01*
X123192338Y-126173681D01*
X123144719Y-126197490D01*
X123001862Y-126197490D01*
X122954243Y-126173681D01*
X122930434Y-126149871D01*
X122839967Y-138951471D02*
X122816157Y-138975281D01*
X122744729Y-138999090D01*
X122697110Y-138999090D01*
X122625681Y-138975281D01*
X122578062Y-138927662D01*
X122554253Y-138880043D01*
X122530443Y-138784805D01*
X122530443Y-138713376D01*
X122554253Y-138618138D01*
X122578062Y-138570519D01*
X122625681Y-138522900D01*
X122697110Y-138499090D01*
X122744729Y-138499090D01*
X122816157Y-138522900D01*
X122839967Y-138546710D01*
X123268538Y-138665757D02*
X123268538Y-138999090D01*
X123149491Y-138475281D02*
X123030443Y-138832424D01*
X123339967Y-138832424D01*
X181272667Y-70282571D02*
X181248857Y-70306381D01*
X181177429Y-70330190D01*
X181129810Y-70330190D01*
X181058381Y-70306381D01*
X181010762Y-70258762D01*
X180986953Y-70211143D01*
X180963143Y-70115905D01*
X180963143Y-70044476D01*
X180986953Y-69949238D01*
X181010762Y-69901619D01*
X181058381Y-69854000D01*
X181129810Y-69830190D01*
X181177429Y-69830190D01*
X181248857Y-69854000D01*
X181272667Y-69877810D01*
X181725048Y-69830190D02*
X181486953Y-69830190D01*
X181463143Y-70068286D01*
X181486953Y-70044476D01*
X181534572Y-70020667D01*
X181653619Y-70020667D01*
X181701238Y-70044476D01*
X181725048Y-70068286D01*
X181748857Y-70115905D01*
X181748857Y-70234952D01*
X181725048Y-70282571D01*
X181701238Y-70306381D01*
X181653619Y-70330190D01*
X181534572Y-70330190D01*
X181486953Y-70306381D01*
X181463143Y-70282571D01*
X155618667Y-63932571D02*
X155594857Y-63956381D01*
X155523429Y-63980190D01*
X155475810Y-63980190D01*
X155404381Y-63956381D01*
X155356762Y-63908762D01*
X155332953Y-63861143D01*
X155309143Y-63765905D01*
X155309143Y-63694476D01*
X155332953Y-63599238D01*
X155356762Y-63551619D01*
X155404381Y-63504000D01*
X155475810Y-63480190D01*
X155523429Y-63480190D01*
X155594857Y-63504000D01*
X155618667Y-63527810D01*
X156047238Y-63480190D02*
X155952000Y-63480190D01*
X155904381Y-63504000D01*
X155880572Y-63527810D01*
X155832953Y-63599238D01*
X155809143Y-63694476D01*
X155809143Y-63884952D01*
X155832953Y-63932571D01*
X155856762Y-63956381D01*
X155904381Y-63980190D01*
X155999619Y-63980190D01*
X156047238Y-63956381D01*
X156071048Y-63932571D01*
X156094857Y-63884952D01*
X156094857Y-63765905D01*
X156071048Y-63718286D01*
X156047238Y-63694476D01*
X155999619Y-63670667D01*
X155904381Y-63670667D01*
X155856762Y-63694476D01*
X155832953Y-63718286D01*
X155809143Y-63765905D01*
X155598667Y-69032571D02*
X155574857Y-69056381D01*
X155503429Y-69080190D01*
X155455810Y-69080190D01*
X155384381Y-69056381D01*
X155336762Y-69008762D01*
X155312953Y-68961143D01*
X155289143Y-68865905D01*
X155289143Y-68794476D01*
X155312953Y-68699238D01*
X155336762Y-68651619D01*
X155384381Y-68604000D01*
X155455810Y-68580190D01*
X155503429Y-68580190D01*
X155574857Y-68604000D01*
X155598667Y-68627810D01*
X155765334Y-68580190D02*
X156098667Y-68580190D01*
X155884381Y-69080190D01*
X155344667Y-71572571D02*
X155320857Y-71596381D01*
X155249429Y-71620190D01*
X155201810Y-71620190D01*
X155130381Y-71596381D01*
X155082762Y-71548762D01*
X155058953Y-71501143D01*
X155035143Y-71405905D01*
X155035143Y-71334476D01*
X155058953Y-71239238D01*
X155082762Y-71191619D01*
X155130381Y-71144000D01*
X155201810Y-71120190D01*
X155249429Y-71120190D01*
X155320857Y-71144000D01*
X155344667Y-71167810D01*
X155630381Y-71334476D02*
X155582762Y-71310667D01*
X155558953Y-71286857D01*
X155535143Y-71239238D01*
X155535143Y-71215429D01*
X155558953Y-71167810D01*
X155582762Y-71144000D01*
X155630381Y-71120190D01*
X155725619Y-71120190D01*
X155773238Y-71144000D01*
X155797048Y-71167810D01*
X155820857Y-71215429D01*
X155820857Y-71239238D01*
X155797048Y-71286857D01*
X155773238Y-71310667D01*
X155725619Y-71334476D01*
X155630381Y-71334476D01*
X155582762Y-71358286D01*
X155558953Y-71382095D01*
X155535143Y-71429714D01*
X155535143Y-71524952D01*
X155558953Y-71572571D01*
X155582762Y-71596381D01*
X155630381Y-71620190D01*
X155725619Y-71620190D01*
X155773238Y-71596381D01*
X155797048Y-71572571D01*
X155820857Y-71524952D01*
X155820857Y-71429714D01*
X155797048Y-71382095D01*
X155773238Y-71358286D01*
X155725619Y-71334476D01*
X155618667Y-76652571D02*
X155594857Y-76676381D01*
X155523429Y-76700190D01*
X155475810Y-76700190D01*
X155404381Y-76676381D01*
X155356762Y-76628762D01*
X155332953Y-76581143D01*
X155309143Y-76485905D01*
X155309143Y-76414476D01*
X155332953Y-76319238D01*
X155356762Y-76271619D01*
X155404381Y-76224000D01*
X155475810Y-76200190D01*
X155523429Y-76200190D01*
X155594857Y-76224000D01*
X155618667Y-76247810D01*
X155856762Y-76700190D02*
X155952000Y-76700190D01*
X155999619Y-76676381D01*
X156023429Y-76652571D01*
X156071048Y-76581143D01*
X156094857Y-76485905D01*
X156094857Y-76295429D01*
X156071048Y-76247810D01*
X156047238Y-76224000D01*
X155999619Y-76200190D01*
X155904381Y-76200190D01*
X155856762Y-76224000D01*
X155832953Y-76247810D01*
X155809143Y-76295429D01*
X155809143Y-76414476D01*
X155832953Y-76462095D01*
X155856762Y-76485905D01*
X155904381Y-76509714D01*
X155999619Y-76509714D01*
X156047238Y-76485905D01*
X156071048Y-76462095D01*
X156094857Y-76414476D01*
X154872572Y-74092571D02*
X154848762Y-74116381D01*
X154777334Y-74140190D01*
X154729715Y-74140190D01*
X154658286Y-74116381D01*
X154610667Y-74068762D01*
X154586858Y-74021143D01*
X154563048Y-73925905D01*
X154563048Y-73854476D01*
X154586858Y-73759238D01*
X154610667Y-73711619D01*
X154658286Y-73664000D01*
X154729715Y-73640190D01*
X154777334Y-73640190D01*
X154848762Y-73664000D01*
X154872572Y-73687810D01*
X155348762Y-74140190D02*
X155063048Y-74140190D01*
X155205905Y-74140190D02*
X155205905Y-73640190D01*
X155158286Y-73711619D01*
X155110667Y-73759238D01*
X155063048Y-73783048D01*
X155658286Y-73640190D02*
X155705905Y-73640190D01*
X155753524Y-73664000D01*
X155777333Y-73687810D01*
X155801143Y-73735429D01*
X155824952Y-73830667D01*
X155824952Y-73949714D01*
X155801143Y-74044952D01*
X155777333Y-74092571D01*
X155753524Y-74116381D01*
X155705905Y-74140190D01*
X155658286Y-74140190D01*
X155610667Y-74116381D01*
X155586857Y-74092571D01*
X155563048Y-74044952D01*
X155539238Y-73949714D01*
X155539238Y-73830667D01*
X155563048Y-73735429D01*
X155586857Y-73687810D01*
X155610667Y-73664000D01*
X155658286Y-73640190D01*
X108136572Y-32690571D02*
X108112762Y-32714381D01*
X108041334Y-32738190D01*
X107993715Y-32738190D01*
X107922286Y-32714381D01*
X107874667Y-32666762D01*
X107850858Y-32619143D01*
X107827048Y-32523905D01*
X107827048Y-32452476D01*
X107850858Y-32357238D01*
X107874667Y-32309619D01*
X107922286Y-32262000D01*
X107993715Y-32238190D01*
X108041334Y-32238190D01*
X108112762Y-32262000D01*
X108136572Y-32285810D01*
X108612762Y-32738190D02*
X108327048Y-32738190D01*
X108469905Y-32738190D02*
X108469905Y-32238190D01*
X108422286Y-32309619D01*
X108374667Y-32357238D01*
X108327048Y-32381048D01*
X109088952Y-32738190D02*
X108803238Y-32738190D01*
X108946095Y-32738190D02*
X108946095Y-32238190D01*
X108898476Y-32309619D01*
X108850857Y-32357238D01*
X108803238Y-32381048D01*
X168080572Y-84252571D02*
X168056762Y-84276381D01*
X167985334Y-84300190D01*
X167937715Y-84300190D01*
X167866286Y-84276381D01*
X167818667Y-84228762D01*
X167794858Y-84181143D01*
X167771048Y-84085905D01*
X167771048Y-84014476D01*
X167794858Y-83919238D01*
X167818667Y-83871619D01*
X167866286Y-83824000D01*
X167937715Y-83800190D01*
X167985334Y-83800190D01*
X168056762Y-83824000D01*
X168080572Y-83847810D01*
X168556762Y-84300190D02*
X168271048Y-84300190D01*
X168413905Y-84300190D02*
X168413905Y-83800190D01*
X168366286Y-83871619D01*
X168318667Y-83919238D01*
X168271048Y-83943048D01*
X168842476Y-84014476D02*
X168794857Y-83990667D01*
X168771048Y-83966857D01*
X168747238Y-83919238D01*
X168747238Y-83895429D01*
X168771048Y-83847810D01*
X168794857Y-83824000D01*
X168842476Y-83800190D01*
X168937714Y-83800190D01*
X168985333Y-83824000D01*
X169009143Y-83847810D01*
X169032952Y-83895429D01*
X169032952Y-83919238D01*
X169009143Y-83966857D01*
X168985333Y-83990667D01*
X168937714Y-84014476D01*
X168842476Y-84014476D01*
X168794857Y-84038286D01*
X168771048Y-84062095D01*
X168747238Y-84109714D01*
X168747238Y-84204952D01*
X168771048Y-84252571D01*
X168794857Y-84276381D01*
X168842476Y-84300190D01*
X168937714Y-84300190D01*
X168985333Y-84276381D01*
X169009143Y-84252571D01*
X169032952Y-84204952D01*
X169032952Y-84109714D01*
X169009143Y-84062095D01*
X168985333Y-84038286D01*
X168937714Y-84014476D01*
X165032572Y-84252571D02*
X165008762Y-84276381D01*
X164937334Y-84300190D01*
X164889715Y-84300190D01*
X164818286Y-84276381D01*
X164770667Y-84228762D01*
X164746858Y-84181143D01*
X164723048Y-84085905D01*
X164723048Y-84014476D01*
X164746858Y-83919238D01*
X164770667Y-83871619D01*
X164818286Y-83824000D01*
X164889715Y-83800190D01*
X164937334Y-83800190D01*
X165008762Y-83824000D01*
X165032572Y-83847810D01*
X165508762Y-84300190D02*
X165223048Y-84300190D01*
X165365905Y-84300190D02*
X165365905Y-83800190D01*
X165318286Y-83871619D01*
X165270667Y-83919238D01*
X165223048Y-83943048D01*
X165746857Y-84300190D02*
X165842095Y-84300190D01*
X165889714Y-84276381D01*
X165913524Y-84252571D01*
X165961143Y-84181143D01*
X165984952Y-84085905D01*
X165984952Y-83895429D01*
X165961143Y-83847810D01*
X165937333Y-83824000D01*
X165889714Y-83800190D01*
X165794476Y-83800190D01*
X165746857Y-83824000D01*
X165723048Y-83847810D01*
X165699238Y-83895429D01*
X165699238Y-84014476D01*
X165723048Y-84062095D01*
X165746857Y-84085905D01*
X165794476Y-84109714D01*
X165889714Y-84109714D01*
X165937333Y-84085905D01*
X165961143Y-84062095D01*
X165984952Y-84014476D01*
X100516572Y-33960571D02*
X100492762Y-33984381D01*
X100421334Y-34008190D01*
X100373715Y-34008190D01*
X100302286Y-33984381D01*
X100254667Y-33936762D01*
X100230858Y-33889143D01*
X100207048Y-33793905D01*
X100207048Y-33722476D01*
X100230858Y-33627238D01*
X100254667Y-33579619D01*
X100302286Y-33532000D01*
X100373715Y-33508190D01*
X100421334Y-33508190D01*
X100492762Y-33532000D01*
X100516572Y-33555810D01*
X100707048Y-33555810D02*
X100730858Y-33532000D01*
X100778477Y-33508190D01*
X100897524Y-33508190D01*
X100945143Y-33532000D01*
X100968953Y-33555810D01*
X100992762Y-33603429D01*
X100992762Y-33651048D01*
X100968953Y-33722476D01*
X100683239Y-34008190D01*
X100992762Y-34008190D01*
X101302286Y-33508190D02*
X101349905Y-33508190D01*
X101397524Y-33532000D01*
X101421333Y-33555810D01*
X101445143Y-33603429D01*
X101468952Y-33698667D01*
X101468952Y-33817714D01*
X101445143Y-33912952D01*
X101421333Y-33960571D01*
X101397524Y-33984381D01*
X101349905Y-34008190D01*
X101302286Y-34008190D01*
X101254667Y-33984381D01*
X101230857Y-33960571D01*
X101207048Y-33912952D01*
X101183238Y-33817714D01*
X101183238Y-33698667D01*
X101207048Y-33603429D01*
X101230857Y-33555810D01*
X101254667Y-33532000D01*
X101302286Y-33508190D01*
X100262572Y-30912571D02*
X100238762Y-30936381D01*
X100167334Y-30960190D01*
X100119715Y-30960190D01*
X100048286Y-30936381D01*
X100000667Y-30888762D01*
X99976858Y-30841143D01*
X99953048Y-30745905D01*
X99953048Y-30674476D01*
X99976858Y-30579238D01*
X100000667Y-30531619D01*
X100048286Y-30484000D01*
X100119715Y-30460190D01*
X100167334Y-30460190D01*
X100238762Y-30484000D01*
X100262572Y-30507810D01*
X100453048Y-30507810D02*
X100476858Y-30484000D01*
X100524477Y-30460190D01*
X100643524Y-30460190D01*
X100691143Y-30484000D01*
X100714953Y-30507810D01*
X100738762Y-30555429D01*
X100738762Y-30603048D01*
X100714953Y-30674476D01*
X100429239Y-30960190D01*
X100738762Y-30960190D01*
X101214952Y-30960190D02*
X100929238Y-30960190D01*
X101072095Y-30960190D02*
X101072095Y-30460190D01*
X101024476Y-30531619D01*
X100976857Y-30579238D01*
X100929238Y-30603048D01*
X172906572Y-51740571D02*
X172882762Y-51764381D01*
X172811334Y-51788190D01*
X172763715Y-51788190D01*
X172692286Y-51764381D01*
X172644667Y-51716762D01*
X172620858Y-51669143D01*
X172597048Y-51573905D01*
X172597048Y-51502476D01*
X172620858Y-51407238D01*
X172644667Y-51359619D01*
X172692286Y-51312000D01*
X172763715Y-51288190D01*
X172811334Y-51288190D01*
X172882762Y-51312000D01*
X172906572Y-51335810D01*
X173097048Y-51335810D02*
X173120858Y-51312000D01*
X173168477Y-51288190D01*
X173287524Y-51288190D01*
X173335143Y-51312000D01*
X173358953Y-51335810D01*
X173382762Y-51383429D01*
X173382762Y-51431048D01*
X173358953Y-51502476D01*
X173073239Y-51788190D01*
X173382762Y-51788190D01*
X173573238Y-51335810D02*
X173597048Y-51312000D01*
X173644667Y-51288190D01*
X173763714Y-51288190D01*
X173811333Y-51312000D01*
X173835143Y-51335810D01*
X173858952Y-51383429D01*
X173858952Y-51431048D01*
X173835143Y-51502476D01*
X173549429Y-51788190D01*
X173858952Y-51788190D01*
X167267772Y-110287571D02*
X167243962Y-110311381D01*
X167172534Y-110335190D01*
X167124915Y-110335190D01*
X167053486Y-110311381D01*
X167005867Y-110263762D01*
X166982058Y-110216143D01*
X166958248Y-110120905D01*
X166958248Y-110049476D01*
X166982058Y-109954238D01*
X167005867Y-109906619D01*
X167053486Y-109859000D01*
X167124915Y-109835190D01*
X167172534Y-109835190D01*
X167243962Y-109859000D01*
X167267772Y-109882810D01*
X167458248Y-109882810D02*
X167482058Y-109859000D01*
X167529677Y-109835190D01*
X167648724Y-109835190D01*
X167696343Y-109859000D01*
X167720153Y-109882810D01*
X167743962Y-109930429D01*
X167743962Y-109978048D01*
X167720153Y-110049476D01*
X167434439Y-110335190D01*
X167743962Y-110335190D01*
X167910629Y-109835190D02*
X168220152Y-109835190D01*
X168053486Y-110025667D01*
X168124914Y-110025667D01*
X168172533Y-110049476D01*
X168196343Y-110073286D01*
X168220152Y-110120905D01*
X168220152Y-110239952D01*
X168196343Y-110287571D01*
X168172533Y-110311381D01*
X168124914Y-110335190D01*
X167982057Y-110335190D01*
X167934438Y-110311381D01*
X167910629Y-110287571D01*
X180107472Y-110363771D02*
X180083662Y-110387581D01*
X180012234Y-110411390D01*
X179964615Y-110411390D01*
X179893186Y-110387581D01*
X179845567Y-110339962D01*
X179821758Y-110292343D01*
X179797948Y-110197105D01*
X179797948Y-110125676D01*
X179821758Y-110030438D01*
X179845567Y-109982819D01*
X179893186Y-109935200D01*
X179964615Y-109911390D01*
X180012234Y-109911390D01*
X180083662Y-109935200D01*
X180107472Y-109959010D01*
X180297948Y-109959010D02*
X180321758Y-109935200D01*
X180369377Y-109911390D01*
X180488424Y-109911390D01*
X180536043Y-109935200D01*
X180559853Y-109959010D01*
X180583662Y-110006629D01*
X180583662Y-110054248D01*
X180559853Y-110125676D01*
X180274139Y-110411390D01*
X180583662Y-110411390D01*
X181012233Y-110078057D02*
X181012233Y-110411390D01*
X180893186Y-109887581D02*
X180774138Y-110244724D01*
X181083662Y-110244724D01*
X171423853Y-48575090D02*
X171423853Y-48075090D01*
X171542900Y-48075090D01*
X171614329Y-48098900D01*
X171661948Y-48146519D01*
X171685757Y-48194138D01*
X171709567Y-48289376D01*
X171709567Y-48360805D01*
X171685757Y-48456043D01*
X171661948Y-48503662D01*
X171614329Y-48551281D01*
X171542900Y-48575090D01*
X171423853Y-48575090D01*
X171900043Y-48122710D02*
X171923853Y-48098900D01*
X171971472Y-48075090D01*
X172090519Y-48075090D01*
X172138138Y-48098900D01*
X172161948Y-48122710D01*
X172185757Y-48170329D01*
X172185757Y-48217948D01*
X172161948Y-48289376D01*
X171876234Y-48575090D01*
X172185757Y-48575090D01*
X119213334Y-41001190D02*
X119213334Y-41358333D01*
X119189524Y-41429762D01*
X119141905Y-41477381D01*
X119070477Y-41501190D01*
X119022858Y-41501190D01*
X119713333Y-41501190D02*
X119427619Y-41501190D01*
X119570476Y-41501190D02*
X119570476Y-41001190D01*
X119522857Y-41072619D01*
X119475238Y-41120238D01*
X119427619Y-41144048D01*
X98639334Y-43414190D02*
X98639334Y-43771333D01*
X98615524Y-43842762D01*
X98567905Y-43890381D01*
X98496477Y-43914190D01*
X98448858Y-43914190D01*
X98853619Y-43461810D02*
X98877429Y-43438000D01*
X98925048Y-43414190D01*
X99044095Y-43414190D01*
X99091714Y-43438000D01*
X99115524Y-43461810D01*
X99139333Y-43509429D01*
X99139333Y-43557048D01*
X99115524Y-43628476D01*
X98829810Y-43914190D01*
X99139333Y-43914190D01*
X158920667Y-78712190D02*
X158682572Y-78712190D01*
X158682572Y-78212190D01*
X159349238Y-78712190D02*
X159063524Y-78712190D01*
X159206381Y-78712190D02*
X159206381Y-78212190D01*
X159158762Y-78283619D01*
X159111143Y-78331238D01*
X159063524Y-78355048D01*
X125392667Y-34008190D02*
X125226000Y-33770095D01*
X125106953Y-34008190D02*
X125106953Y-33508190D01*
X125297429Y-33508190D01*
X125345048Y-33532000D01*
X125368857Y-33555810D01*
X125392667Y-33603429D01*
X125392667Y-33674857D01*
X125368857Y-33722476D01*
X125345048Y-33746286D01*
X125297429Y-33770095D01*
X125106953Y-33770095D01*
X125845048Y-33508190D02*
X125606953Y-33508190D01*
X125583143Y-33746286D01*
X125606953Y-33722476D01*
X125654572Y-33698667D01*
X125773619Y-33698667D01*
X125821238Y-33722476D01*
X125845048Y-33746286D01*
X125868857Y-33793905D01*
X125868857Y-33912952D01*
X125845048Y-33960571D01*
X125821238Y-33984381D01*
X125773619Y-34008190D01*
X125654572Y-34008190D01*
X125606953Y-33984381D01*
X125583143Y-33960571D01*
X159936667Y-84300190D02*
X159770000Y-84062095D01*
X159650953Y-84300190D02*
X159650953Y-83800190D01*
X159841429Y-83800190D01*
X159889048Y-83824000D01*
X159912857Y-83847810D01*
X159936667Y-83895429D01*
X159936667Y-83966857D01*
X159912857Y-84014476D01*
X159889048Y-84038286D01*
X159841429Y-84062095D01*
X159650953Y-84062095D01*
X160365238Y-83800190D02*
X160270000Y-83800190D01*
X160222381Y-83824000D01*
X160198572Y-83847810D01*
X160150953Y-83919238D01*
X160127143Y-84014476D01*
X160127143Y-84204952D01*
X160150953Y-84252571D01*
X160174762Y-84276381D01*
X160222381Y-84300190D01*
X160317619Y-84300190D01*
X160365238Y-84276381D01*
X160389048Y-84252571D01*
X160412857Y-84204952D01*
X160412857Y-84085905D01*
X160389048Y-84038286D01*
X160365238Y-84014476D01*
X160317619Y-83990667D01*
X160222381Y-83990667D01*
X160174762Y-84014476D01*
X160150953Y-84038286D01*
X160127143Y-84085905D01*
X100754667Y-27912190D02*
X100588000Y-27674095D01*
X100468953Y-27912190D02*
X100468953Y-27412190D01*
X100659429Y-27412190D01*
X100707048Y-27436000D01*
X100730857Y-27459810D01*
X100754667Y-27507429D01*
X100754667Y-27578857D01*
X100730857Y-27626476D01*
X100707048Y-27650286D01*
X100659429Y-27674095D01*
X100468953Y-27674095D01*
X100921334Y-27412190D02*
X101254667Y-27412190D01*
X101040381Y-27912190D01*
X180078867Y-46327190D02*
X179912200Y-46089095D01*
X179793153Y-46327190D02*
X179793153Y-45827190D01*
X179983629Y-45827190D01*
X180031248Y-45851000D01*
X180055057Y-45874810D01*
X180078867Y-45922429D01*
X180078867Y-45993857D01*
X180055057Y-46041476D01*
X180031248Y-46065286D01*
X179983629Y-46089095D01*
X179793153Y-46089095D01*
X180364581Y-46041476D02*
X180316962Y-46017667D01*
X180293153Y-45993857D01*
X180269343Y-45946238D01*
X180269343Y-45922429D01*
X180293153Y-45874810D01*
X180316962Y-45851000D01*
X180364581Y-45827190D01*
X180459819Y-45827190D01*
X180507438Y-45851000D01*
X180531248Y-45874810D01*
X180555057Y-45922429D01*
X180555057Y-45946238D01*
X180531248Y-45993857D01*
X180507438Y-46017667D01*
X180459819Y-46041476D01*
X180364581Y-46041476D01*
X180316962Y-46065286D01*
X180293153Y-46089095D01*
X180269343Y-46136714D01*
X180269343Y-46231952D01*
X180293153Y-46279571D01*
X180316962Y-46303381D01*
X180364581Y-46327190D01*
X180459819Y-46327190D01*
X180507438Y-46303381D01*
X180531248Y-46279571D01*
X180555057Y-46231952D01*
X180555057Y-46136714D01*
X180531248Y-46089095D01*
X180507438Y-46065286D01*
X180459819Y-46041476D01*
X175040172Y-110436790D02*
X174873505Y-110198695D01*
X174754458Y-110436790D02*
X174754458Y-109936790D01*
X174944934Y-109936790D01*
X174992553Y-109960600D01*
X175016362Y-109984410D01*
X175040172Y-110032029D01*
X175040172Y-110103457D01*
X175016362Y-110151076D01*
X174992553Y-110174886D01*
X174944934Y-110198695D01*
X174754458Y-110198695D01*
X175516362Y-110436790D02*
X175230648Y-110436790D01*
X175373505Y-110436790D02*
X175373505Y-109936790D01*
X175325886Y-110008219D01*
X175278267Y-110055838D01*
X175230648Y-110079648D01*
X175944933Y-110103457D02*
X175944933Y-110436790D01*
X175825886Y-109912981D02*
X175706838Y-110270124D01*
X176016362Y-110270124D01*
X177478572Y-110411390D02*
X177311905Y-110173295D01*
X177192858Y-110411390D02*
X177192858Y-109911390D01*
X177383334Y-109911390D01*
X177430953Y-109935200D01*
X177454762Y-109959010D01*
X177478572Y-110006629D01*
X177478572Y-110078057D01*
X177454762Y-110125676D01*
X177430953Y-110149486D01*
X177383334Y-110173295D01*
X177192858Y-110173295D01*
X177954762Y-110411390D02*
X177669048Y-110411390D01*
X177811905Y-110411390D02*
X177811905Y-109911390D01*
X177764286Y-109982819D01*
X177716667Y-110030438D01*
X177669048Y-110054248D01*
X178407143Y-109911390D02*
X178169048Y-109911390D01*
X178145238Y-110149486D01*
X178169048Y-110125676D01*
X178216667Y-110101867D01*
X178335714Y-110101867D01*
X178383333Y-110125676D01*
X178407143Y-110149486D01*
X178430952Y-110197105D01*
X178430952Y-110316152D01*
X178407143Y-110363771D01*
X178383333Y-110387581D01*
X178335714Y-110411390D01*
X178216667Y-110411390D01*
X178169048Y-110387581D01*
X178145238Y-110363771D01*
X166400798Y-68618940D02*
X166400798Y-69023702D01*
X166424607Y-69071321D01*
X166448417Y-69095131D01*
X166496036Y-69118940D01*
X166591274Y-69118940D01*
X166638893Y-69095131D01*
X166662702Y-69071321D01*
X166686512Y-69023702D01*
X166686512Y-68618940D01*
X166876989Y-68618940D02*
X167186512Y-68618940D01*
X167019846Y-68809417D01*
X167091274Y-68809417D01*
X167138893Y-68833226D01*
X167162703Y-68857036D01*
X167186512Y-68904655D01*
X167186512Y-69023702D01*
X167162703Y-69071321D01*
X167138893Y-69095131D01*
X167091274Y-69118940D01*
X166948417Y-69118940D01*
X166900798Y-69095131D01*
X166876989Y-69071321D01*
X168251239Y-67798190D02*
X168584572Y-68298190D01*
X168584572Y-67798190D02*
X168251239Y-68298190D01*
X169036952Y-68298190D02*
X168751238Y-68298190D01*
X168894095Y-68298190D02*
X168894095Y-67798190D01*
X168846476Y-67869619D01*
X168798857Y-67917238D01*
X168751238Y-67941048D01*
X181034572Y-79680571D02*
X181010762Y-79704381D01*
X180939334Y-79728190D01*
X180891715Y-79728190D01*
X180820286Y-79704381D01*
X180772667Y-79656762D01*
X180748858Y-79609143D01*
X180725048Y-79513905D01*
X180725048Y-79442476D01*
X180748858Y-79347238D01*
X180772667Y-79299619D01*
X180820286Y-79252000D01*
X180891715Y-79228190D01*
X180939334Y-79228190D01*
X181010762Y-79252000D01*
X181034572Y-79275810D01*
X181225048Y-79275810D02*
X181248858Y-79252000D01*
X181296477Y-79228190D01*
X181415524Y-79228190D01*
X181463143Y-79252000D01*
X181486953Y-79275810D01*
X181510762Y-79323429D01*
X181510762Y-79371048D01*
X181486953Y-79442476D01*
X181201239Y-79728190D01*
X181510762Y-79728190D01*
X181963143Y-79228190D02*
X181725048Y-79228190D01*
X181701238Y-79466286D01*
X181725048Y-79442476D01*
X181772667Y-79418667D01*
X181891714Y-79418667D01*
X181939333Y-79442476D01*
X181963143Y-79466286D01*
X181986952Y-79513905D01*
X181986952Y-79632952D01*
X181963143Y-79680571D01*
X181939333Y-79704381D01*
X181891714Y-79728190D01*
X181772667Y-79728190D01*
X181725048Y-79704381D01*
X181701238Y-79680571D01*
X181034572Y-82220571D02*
X181010762Y-82244381D01*
X180939334Y-82268190D01*
X180891715Y-82268190D01*
X180820286Y-82244381D01*
X180772667Y-82196762D01*
X180748858Y-82149143D01*
X180725048Y-82053905D01*
X180725048Y-81982476D01*
X180748858Y-81887238D01*
X180772667Y-81839619D01*
X180820286Y-81792000D01*
X180891715Y-81768190D01*
X180939334Y-81768190D01*
X181010762Y-81792000D01*
X181034572Y-81815810D01*
X181225048Y-81815810D02*
X181248858Y-81792000D01*
X181296477Y-81768190D01*
X181415524Y-81768190D01*
X181463143Y-81792000D01*
X181486953Y-81815810D01*
X181510762Y-81863429D01*
X181510762Y-81911048D01*
X181486953Y-81982476D01*
X181201239Y-82268190D01*
X181510762Y-82268190D01*
X181939333Y-81768190D02*
X181844095Y-81768190D01*
X181796476Y-81792000D01*
X181772667Y-81815810D01*
X181725048Y-81887238D01*
X181701238Y-81982476D01*
X181701238Y-82172952D01*
X181725048Y-82220571D01*
X181748857Y-82244381D01*
X181796476Y-82268190D01*
X181891714Y-82268190D01*
X181939333Y-82244381D01*
X181963143Y-82220571D01*
X181986952Y-82172952D01*
X181986952Y-82053905D01*
X181963143Y-82006286D01*
X181939333Y-81982476D01*
X181891714Y-81958667D01*
X181796476Y-81958667D01*
X181748857Y-81982476D01*
X181725048Y-82006286D01*
X181701238Y-82053905D01*
X110752772Y-79220190D02*
X110586105Y-78982095D01*
X110467058Y-79220190D02*
X110467058Y-78720190D01*
X110657534Y-78720190D01*
X110705153Y-78744000D01*
X110728962Y-78767810D01*
X110752772Y-78815429D01*
X110752772Y-78886857D01*
X110728962Y-78934476D01*
X110705153Y-78958286D01*
X110657534Y-78982095D01*
X110467058Y-78982095D01*
X111228962Y-79220190D02*
X110943248Y-79220190D01*
X111086105Y-79220190D02*
X111086105Y-78720190D01*
X111038486Y-78791619D01*
X110990867Y-78839238D01*
X110943248Y-78863048D01*
X111657533Y-78720190D02*
X111562295Y-78720190D01*
X111514676Y-78744000D01*
X111490867Y-78767810D01*
X111443248Y-78839238D01*
X111419438Y-78934476D01*
X111419438Y-79124952D01*
X111443248Y-79172571D01*
X111467057Y-79196381D01*
X111514676Y-79220190D01*
X111609914Y-79220190D01*
X111657533Y-79196381D01*
X111681343Y-79172571D01*
X111705152Y-79124952D01*
X111705152Y-79005905D01*
X111681343Y-78958286D01*
X111657533Y-78934476D01*
X111609914Y-78910667D01*
X111514676Y-78910667D01*
X111467057Y-78934476D01*
X111443248Y-78958286D01*
X111419438Y-79005905D01*
X110422572Y-83055590D02*
X110255905Y-82817495D01*
X110136858Y-83055590D02*
X110136858Y-82555590D01*
X110327334Y-82555590D01*
X110374953Y-82579400D01*
X110398762Y-82603210D01*
X110422572Y-82650829D01*
X110422572Y-82722257D01*
X110398762Y-82769876D01*
X110374953Y-82793686D01*
X110327334Y-82817495D01*
X110136858Y-82817495D01*
X110898762Y-83055590D02*
X110613048Y-83055590D01*
X110755905Y-83055590D02*
X110755905Y-82555590D01*
X110708286Y-82627019D01*
X110660667Y-82674638D01*
X110613048Y-82698448D01*
X111065429Y-82555590D02*
X111398762Y-82555590D01*
X111184476Y-83055590D01*
X121166772Y-71689090D02*
X121000105Y-71450995D01*
X120881058Y-71689090D02*
X120881058Y-71189090D01*
X121071534Y-71189090D01*
X121119153Y-71212900D01*
X121142962Y-71236710D01*
X121166772Y-71284329D01*
X121166772Y-71355757D01*
X121142962Y-71403376D01*
X121119153Y-71427186D01*
X121071534Y-71450995D01*
X120881058Y-71450995D01*
X121642962Y-71689090D02*
X121357248Y-71689090D01*
X121500105Y-71689090D02*
X121500105Y-71189090D01*
X121452486Y-71260519D01*
X121404867Y-71308138D01*
X121357248Y-71331948D01*
X121928676Y-71403376D02*
X121881057Y-71379567D01*
X121857248Y-71355757D01*
X121833438Y-71308138D01*
X121833438Y-71284329D01*
X121857248Y-71236710D01*
X121881057Y-71212900D01*
X121928676Y-71189090D01*
X122023914Y-71189090D01*
X122071533Y-71212900D01*
X122095343Y-71236710D01*
X122119152Y-71284329D01*
X122119152Y-71308138D01*
X122095343Y-71355757D01*
X122071533Y-71379567D01*
X122023914Y-71403376D01*
X121928676Y-71403376D01*
X121881057Y-71427186D01*
X121857248Y-71450995D01*
X121833438Y-71498614D01*
X121833438Y-71593852D01*
X121857248Y-71641471D01*
X121881057Y-71665281D01*
X121928676Y-71689090D01*
X122023914Y-71689090D01*
X122071533Y-71665281D01*
X122095343Y-71641471D01*
X122119152Y-71593852D01*
X122119152Y-71498614D01*
X122095343Y-71450995D01*
X122071533Y-71427186D01*
X122023914Y-71403376D01*
X114418572Y-71981190D02*
X114251905Y-71743095D01*
X114132858Y-71981190D02*
X114132858Y-71481190D01*
X114323334Y-71481190D01*
X114370953Y-71505000D01*
X114394762Y-71528810D01*
X114418572Y-71576429D01*
X114418572Y-71647857D01*
X114394762Y-71695476D01*
X114370953Y-71719286D01*
X114323334Y-71743095D01*
X114132858Y-71743095D01*
X114894762Y-71981190D02*
X114609048Y-71981190D01*
X114751905Y-71981190D02*
X114751905Y-71481190D01*
X114704286Y-71552619D01*
X114656667Y-71600238D01*
X114609048Y-71624048D01*
X115132857Y-71981190D02*
X115228095Y-71981190D01*
X115275714Y-71957381D01*
X115299524Y-71933571D01*
X115347143Y-71862143D01*
X115370952Y-71766905D01*
X115370952Y-71576429D01*
X115347143Y-71528810D01*
X115323333Y-71505000D01*
X115275714Y-71481190D01*
X115180476Y-71481190D01*
X115132857Y-71505000D01*
X115109048Y-71528810D01*
X115085238Y-71576429D01*
X115085238Y-71695476D01*
X115109048Y-71743095D01*
X115132857Y-71766905D01*
X115180476Y-71790714D01*
X115275714Y-71790714D01*
X115323333Y-71766905D01*
X115347143Y-71743095D01*
X115370952Y-71695476D01*
X136779048Y-30206190D02*
X136779048Y-30610952D01*
X136802857Y-30658571D01*
X136826667Y-30682381D01*
X136874286Y-30706190D01*
X136969524Y-30706190D01*
X137017143Y-30682381D01*
X137040952Y-30658571D01*
X137064762Y-30610952D01*
X137064762Y-30206190D01*
X137564762Y-30706190D02*
X137279048Y-30706190D01*
X137421905Y-30706190D02*
X137421905Y-30206190D01*
X137374286Y-30277619D01*
X137326667Y-30325238D01*
X137279048Y-30349048D01*
X133910003Y-25483333D02*
X134148098Y-25483333D01*
X133862384Y-25626190D02*
X134029051Y-25126190D01*
X134195717Y-25626190D01*
X134362384Y-25626190D02*
X134362384Y-25126190D01*
X134481431Y-25126190D01*
X134552860Y-25150000D01*
X134600479Y-25197619D01*
X134624288Y-25245238D01*
X134648098Y-25340476D01*
X134648098Y-25411905D01*
X134624288Y-25507143D01*
X134600479Y-25554762D01*
X134552860Y-25602381D01*
X134481431Y-25626190D01*
X134362384Y-25626190D01*
X134838574Y-25483333D02*
X135076669Y-25483333D01*
X134790955Y-25626190D02*
X134957622Y-25126190D01*
X135124288Y-25626190D01*
X135171907Y-25673810D02*
X135552859Y-25673810D01*
X135648097Y-25602381D02*
X135719526Y-25626190D01*
X135838573Y-25626190D01*
X135886192Y-25602381D01*
X135910002Y-25578571D01*
X135933811Y-25530952D01*
X135933811Y-25483333D01*
X135910002Y-25435714D01*
X135886192Y-25411905D01*
X135838573Y-25388095D01*
X135743335Y-25364286D01*
X135695716Y-25340476D01*
X135671907Y-25316667D01*
X135648097Y-25269048D01*
X135648097Y-25221429D01*
X135671907Y-25173810D01*
X135695716Y-25150000D01*
X135743335Y-25126190D01*
X135862383Y-25126190D01*
X135933811Y-25150000D01*
X136124287Y-25602381D02*
X136195716Y-25626190D01*
X136314763Y-25626190D01*
X136362382Y-25602381D01*
X136386192Y-25578571D01*
X136410001Y-25530952D01*
X136410001Y-25483333D01*
X136386192Y-25435714D01*
X136362382Y-25411905D01*
X136314763Y-25388095D01*
X136219525Y-25364286D01*
X136171906Y-25340476D01*
X136148097Y-25316667D01*
X136124287Y-25269048D01*
X136124287Y-25221429D01*
X136148097Y-25173810D01*
X136171906Y-25150000D01*
X136219525Y-25126190D01*
X136338573Y-25126190D01*
X136410001Y-25150000D01*
X136624287Y-25626190D02*
X136624287Y-25126190D01*
X136743334Y-25126190D01*
X136814763Y-25150000D01*
X136862382Y-25197619D01*
X136886191Y-25245238D01*
X136910001Y-25340476D01*
X136910001Y-25411905D01*
X136886191Y-25507143D01*
X136862382Y-25554762D01*
X136814763Y-25602381D01*
X136743334Y-25626190D01*
X136624287Y-25626190D01*
X137386191Y-25626190D02*
X137100477Y-25626190D01*
X137243334Y-25626190D02*
X137243334Y-25126190D01*
X137195715Y-25197619D01*
X137148096Y-25245238D01*
X137100477Y-25269048D01*
X137552858Y-25126190D02*
X137862381Y-25126190D01*
X137695715Y-25316667D01*
X137767143Y-25316667D01*
X137814762Y-25340476D01*
X137838572Y-25364286D01*
X137862381Y-25411905D01*
X137862381Y-25530952D01*
X137838572Y-25578571D01*
X137814762Y-25602381D01*
X137767143Y-25626190D01*
X137624286Y-25626190D01*
X137576667Y-25602381D01*
X137552858Y-25578571D01*
X138171905Y-25126190D02*
X138219524Y-25126190D01*
X138267143Y-25150000D01*
X138290952Y-25173810D01*
X138314762Y-25221429D01*
X138338571Y-25316667D01*
X138338571Y-25435714D01*
X138314762Y-25530952D01*
X138290952Y-25578571D01*
X138267143Y-25602381D01*
X138219524Y-25626190D01*
X138171905Y-25626190D01*
X138124286Y-25602381D01*
X138100476Y-25578571D01*
X138076667Y-25530952D01*
X138052857Y-25435714D01*
X138052857Y-25316667D01*
X138076667Y-25221429D01*
X138100476Y-25173810D01*
X138124286Y-25150000D01*
X138171905Y-25126190D01*
X138767142Y-25126190D02*
X138671904Y-25126190D01*
X138624285Y-25150000D01*
X138600476Y-25173810D01*
X138552857Y-25245238D01*
X138529047Y-25340476D01*
X138529047Y-25530952D01*
X138552857Y-25578571D01*
X138576666Y-25602381D01*
X138624285Y-25626190D01*
X138719523Y-25626190D01*
X138767142Y-25602381D01*
X138790952Y-25578571D01*
X138814761Y-25530952D01*
X138814761Y-25411905D01*
X138790952Y-25364286D01*
X138767142Y-25340476D01*
X138719523Y-25316667D01*
X138624285Y-25316667D01*
X138576666Y-25340476D01*
X138552857Y-25364286D01*
X138529047Y-25411905D01*
X138909999Y-25673810D02*
X139290951Y-25673810D01*
X139409999Y-25626190D02*
X139409999Y-25126190D01*
X139624284Y-25173810D02*
X139648094Y-25150000D01*
X139695713Y-25126190D01*
X139814760Y-25126190D01*
X139862379Y-25150000D01*
X139886189Y-25173810D01*
X139909998Y-25221429D01*
X139909998Y-25269048D01*
X139886189Y-25340476D01*
X139600475Y-25626190D01*
X139909998Y-25626190D01*
X140409998Y-25578571D02*
X140386188Y-25602381D01*
X140314760Y-25626190D01*
X140267141Y-25626190D01*
X140195712Y-25602381D01*
X140148093Y-25554762D01*
X140124284Y-25507143D01*
X140100474Y-25411905D01*
X140100474Y-25340476D01*
X140124284Y-25245238D01*
X140148093Y-25197619D01*
X140195712Y-25150000D01*
X140267141Y-25126190D01*
X140314760Y-25126190D01*
X140386188Y-25150000D01*
X140409998Y-25173810D01*
%LPC*%
D14*
X92739001Y-70508571D02*
X93739001Y-70508571D01*
X92739001Y-72008571D01*
X93739001Y-72008571D01*
X94310429Y-71222857D02*
X94810429Y-71222857D01*
X95024715Y-72008571D02*
X94310429Y-72008571D01*
X94310429Y-70508571D01*
X95024715Y-70508571D01*
X95453286Y-70508571D02*
X96310429Y-70508571D01*
X95881858Y-72008571D02*
X95881858Y-70508571D01*
X96739000Y-71580000D02*
X97453286Y-71580000D01*
X96596143Y-72008571D02*
X97096143Y-70508571D01*
X97596143Y-72008571D01*
X98381857Y-70508571D02*
X98667571Y-70508571D01*
X98810429Y-70580000D01*
X98953286Y-70722857D01*
X99024714Y-71008571D01*
X99024714Y-71508571D01*
X98953286Y-71794286D01*
X98810429Y-71937143D01*
X98667571Y-72008571D01*
X98381857Y-72008571D01*
X98239000Y-71937143D01*
X98096143Y-71794286D01*
X98024714Y-71508571D01*
X98024714Y-71008571D01*
X98096143Y-70722857D01*
X98239000Y-70580000D01*
X98381857Y-70508571D01*
X99667572Y-72008571D02*
X99667572Y-70508571D01*
X99667572Y-71222857D02*
X100524715Y-71222857D01*
X100524715Y-72008571D02*
X100524715Y-70508571D01*
X101239001Y-72008571D02*
X101239001Y-70508571D01*
X101739001Y-71580000D01*
X102239001Y-70508571D01*
X102239001Y-72008571D01*
X104024715Y-71580000D02*
X104739001Y-71580000D01*
X103881858Y-72008571D02*
X104381858Y-70508571D01*
X104881858Y-72008571D01*
X105881858Y-71222857D02*
X105381858Y-71222857D01*
X105381858Y-72008571D02*
X105381858Y-70508571D01*
X106096144Y-70508571D01*
X106524715Y-70508571D02*
X107524715Y-72008571D01*
X107524715Y-70508571D02*
X106524715Y-72008571D01*
X108096143Y-71437143D02*
X109239000Y-71437143D01*
X110239000Y-70508571D02*
X110381857Y-70508571D01*
X110524714Y-70580000D01*
X110596143Y-70651429D01*
X110667572Y-70794286D01*
X110739000Y-71080000D01*
X110739000Y-71437143D01*
X110667572Y-71722857D01*
X110596143Y-71865714D01*
X110524714Y-71937143D01*
X110381857Y-72008571D01*
X110239000Y-72008571D01*
X110096143Y-71937143D01*
X110024714Y-71865714D01*
X109953286Y-71722857D01*
X109881857Y-71437143D01*
X109881857Y-71080000D01*
X109953286Y-70794286D01*
X110024714Y-70651429D01*
X110096143Y-70580000D01*
X110239000Y-70508571D01*
X112167571Y-72008571D02*
X111310428Y-72008571D01*
X111739000Y-72008571D02*
X111739000Y-70508571D01*
X111596143Y-70722857D01*
X111453285Y-70865714D01*
X111310428Y-70937143D01*
X94524715Y-74408571D02*
X94524715Y-72908571D01*
X95096143Y-72908571D01*
X95239001Y-72980000D01*
X95310429Y-73051429D01*
X95381858Y-73194286D01*
X95381858Y-73408571D01*
X95310429Y-73551429D01*
X95239001Y-73622857D01*
X95096143Y-73694286D01*
X94524715Y-73694286D01*
X96881858Y-74408571D02*
X96381858Y-73694286D01*
X96024715Y-74408571D02*
X96024715Y-72908571D01*
X96596143Y-72908571D01*
X96739001Y-72980000D01*
X96810429Y-73051429D01*
X96881858Y-73194286D01*
X96881858Y-73408571D01*
X96810429Y-73551429D01*
X96739001Y-73622857D01*
X96596143Y-73694286D01*
X96024715Y-73694286D01*
X97810429Y-72908571D02*
X98096143Y-72908571D01*
X98239001Y-72980000D01*
X98381858Y-73122857D01*
X98453286Y-73408571D01*
X98453286Y-73908571D01*
X98381858Y-74194286D01*
X98239001Y-74337143D01*
X98096143Y-74408571D01*
X97810429Y-74408571D01*
X97667572Y-74337143D01*
X97524715Y-74194286D01*
X97453286Y-73908571D01*
X97453286Y-73408571D01*
X97524715Y-73122857D01*
X97667572Y-72980000D01*
X97810429Y-72908571D01*
X98881858Y-72908571D02*
X99739001Y-72908571D01*
X99310430Y-74408571D02*
X99310430Y-72908571D01*
X100524715Y-72908571D02*
X100810429Y-72908571D01*
X100953287Y-72980000D01*
X101096144Y-73122857D01*
X101167572Y-73408571D01*
X101167572Y-73908571D01*
X101096144Y-74194286D01*
X100953287Y-74337143D01*
X100810429Y-74408571D01*
X100524715Y-74408571D01*
X100381858Y-74337143D01*
X100239001Y-74194286D01*
X100167572Y-73908571D01*
X100167572Y-73408571D01*
X100239001Y-73122857D01*
X100381858Y-72980000D01*
X100524715Y-72908571D01*
X101596144Y-72908571D02*
X102453287Y-72908571D01*
X102024716Y-74408571D02*
X102024716Y-72908571D01*
X103239001Y-73694286D02*
X103239001Y-74408571D01*
X102739001Y-72908571D02*
X103239001Y-73694286D01*
X103739001Y-72908571D01*
X104239001Y-74408571D02*
X104239001Y-72908571D01*
X104810429Y-72908571D01*
X104953287Y-72980000D01*
X105024715Y-73051429D01*
X105096144Y-73194286D01*
X105096144Y-73408571D01*
X105024715Y-73551429D01*
X104953287Y-73622857D01*
X104810429Y-73694286D01*
X104239001Y-73694286D01*
X105739001Y-73622857D02*
X106239001Y-73622857D01*
X106453287Y-74408571D02*
X105739001Y-74408571D01*
X105739001Y-72908571D01*
X106453287Y-72908571D01*
X108167572Y-73408571D02*
X109239001Y-73408571D01*
X108596144Y-72765714D02*
X108167572Y-74694286D01*
X109096144Y-74051429D02*
X108024715Y-74051429D01*
X108667572Y-74694286D02*
X109096144Y-72765714D01*
X110453287Y-72908571D02*
X109739001Y-72908571D01*
X109667572Y-73622857D01*
X109739001Y-73551429D01*
X109881858Y-73480000D01*
X110239001Y-73480000D01*
X110381858Y-73551429D01*
X110453287Y-73622857D01*
X110524715Y-73765714D01*
X110524715Y-74122857D01*
X110453287Y-74265714D01*
X110381858Y-74337143D01*
X110239001Y-74408571D01*
X109881858Y-74408571D01*
X109739001Y-74337143D01*
X109667572Y-74265714D01*
X94489000Y-75308571D02*
X95346143Y-75308571D01*
X94917572Y-76808571D02*
X94917572Y-75308571D01*
X95846143Y-76022857D02*
X96346143Y-76022857D01*
X96560429Y-76808571D02*
X95846143Y-76808571D01*
X95846143Y-75308571D01*
X96560429Y-75308571D01*
X97203286Y-76808571D02*
X97203286Y-75308571D01*
X98060429Y-76808571D01*
X98060429Y-75308571D01*
X98774715Y-76808571D02*
X98774715Y-75308571D01*
X99631858Y-76808571D02*
X98989001Y-75951429D01*
X99631858Y-75308571D02*
X98774715Y-76165714D01*
X100203286Y-76380000D02*
X100917572Y-76380000D01*
X100060429Y-76808571D02*
X100560429Y-75308571D01*
X101060429Y-76808571D01*
X101560429Y-76808571D02*
X101560429Y-75308571D01*
X103417572Y-76808571D02*
X103417572Y-75308571D01*
X104274715Y-76808571D02*
X103631858Y-75951429D01*
X104274715Y-75308571D02*
X103417572Y-76165714D01*
X104846143Y-76380000D02*
X105560429Y-76380000D01*
X104703286Y-76808571D02*
X105203286Y-75308571D01*
X105703286Y-76808571D01*
X107060429Y-76808571D02*
X106560429Y-76094286D01*
X106203286Y-76808571D02*
X106203286Y-75308571D01*
X106774714Y-75308571D01*
X106917572Y-75380000D01*
X106989000Y-75451429D01*
X107060429Y-75594286D01*
X107060429Y-75808571D01*
X106989000Y-75951429D01*
X106917572Y-76022857D01*
X106774714Y-76094286D01*
X106203286Y-76094286D01*
X107703286Y-76808571D02*
X107703286Y-75308571D01*
X108703286Y-76094286D02*
X108703286Y-76808571D01*
X108203286Y-75308571D02*
X108703286Y-76094286D01*
X109203286Y-75308571D01*
X109631857Y-76380000D02*
X110346143Y-76380000D01*
X109489000Y-76808571D02*
X109989000Y-75308571D01*
X110489000Y-76808571D01*
X97024715Y-77708571D02*
X97024715Y-78780000D01*
X96953287Y-78994286D01*
X96810430Y-79137143D01*
X96596144Y-79208571D01*
X96453287Y-79208571D01*
X97739001Y-77708571D02*
X97739001Y-78922857D01*
X97810429Y-79065714D01*
X97881858Y-79137143D01*
X98024715Y-79208571D01*
X98310429Y-79208571D01*
X98453287Y-79137143D01*
X98524715Y-79065714D01*
X98596144Y-78922857D01*
X98596144Y-77708571D01*
X99310430Y-79208571D02*
X99310430Y-77708571D01*
X100167573Y-79208571D01*
X100167573Y-77708571D01*
X100881859Y-78422857D02*
X101381859Y-78422857D01*
X101596145Y-79208571D02*
X100881859Y-79208571D01*
X100881859Y-77708571D01*
X101596145Y-77708571D01*
X103310430Y-77851429D02*
X103381859Y-77780000D01*
X103524716Y-77708571D01*
X103881859Y-77708571D01*
X104024716Y-77780000D01*
X104096145Y-77851429D01*
X104167573Y-77994286D01*
X104167573Y-78137143D01*
X104096145Y-78351429D01*
X103239002Y-79208571D01*
X104167573Y-79208571D01*
X105096144Y-77708571D02*
X105239001Y-77708571D01*
X105381858Y-77780000D01*
X105453287Y-77851429D01*
X105524716Y-77994286D01*
X105596144Y-78280000D01*
X105596144Y-78637143D01*
X105524716Y-78922857D01*
X105453287Y-79065714D01*
X105381858Y-79137143D01*
X105239001Y-79208571D01*
X105096144Y-79208571D01*
X104953287Y-79137143D01*
X104881858Y-79065714D01*
X104810430Y-78922857D01*
X104739001Y-78637143D01*
X104739001Y-78280000D01*
X104810430Y-77994286D01*
X104881858Y-77851429D01*
X104953287Y-77780000D01*
X105096144Y-77708571D01*
X107024715Y-79208571D02*
X106167572Y-79208571D01*
X106596144Y-79208571D02*
X106596144Y-77708571D01*
X106453287Y-77922857D01*
X106310429Y-78065714D01*
X106167572Y-78137143D01*
X108381858Y-77708571D02*
X107667572Y-77708571D01*
X107596143Y-78422857D01*
X107667572Y-78351429D01*
X107810429Y-78280000D01*
X108167572Y-78280000D01*
X108310429Y-78351429D01*
X108381858Y-78422857D01*
X108453286Y-78565714D01*
X108453286Y-78922857D01*
X108381858Y-79065714D01*
X108310429Y-79137143D01*
X108167572Y-79208571D01*
X107810429Y-79208571D01*
X107667572Y-79137143D01*
X107596143Y-79065714D01*
D15*
X179705000Y-138430000D03*
X94615000Y-138430000D03*
X94615000Y-27940000D03*
X179705000Y-27940000D03*
D16*
X102616000Y-93472000D03*
X172961300Y-132918200D03*
D17*
X139065000Y-31750000D03*
X136525000Y-31750000D03*
X133985000Y-31750000D03*
X131445000Y-31750000D03*
X128905000Y-31750000D03*
X141605000Y-31750000D03*
X144145000Y-31750000D03*
D18*
X166370000Y-67036000D03*
X166370000Y-64536000D03*
X174498000Y-67036000D03*
X174498000Y-64536000D03*
D17*
X162825000Y-135139000D03*
X156221000Y-135139000D03*
X156221000Y-139711000D03*
X162825000Y-139711000D03*
X148809000Y-135139000D03*
X142205000Y-135139000D03*
X142205000Y-139711000D03*
X148809000Y-139711000D03*
X134793000Y-135139000D03*
X128189000Y-135139000D03*
X128189000Y-139711000D03*
X134793000Y-139711000D03*
X120777000Y-135139000D03*
X114173000Y-135139000D03*
X114173000Y-139711000D03*
X120777000Y-139711000D03*
X162825000Y-120869000D03*
X156221000Y-120869000D03*
X156221000Y-125441000D03*
X162825000Y-125441000D03*
X148809000Y-120869000D03*
X142205000Y-120869000D03*
X142205000Y-125441000D03*
X148809000Y-125441000D03*
X134793000Y-120869000D03*
X128189000Y-120869000D03*
X128189000Y-125441000D03*
X134793000Y-125441000D03*
X120777000Y-120869000D03*
X114173000Y-120869000D03*
X114173000Y-125441000D03*
X120777000Y-125441000D03*
X162825000Y-106599000D03*
X156221000Y-106599000D03*
X156221000Y-111171000D03*
X162825000Y-111171000D03*
X148809000Y-106599000D03*
X142205000Y-106599000D03*
X142205000Y-111171000D03*
X148809000Y-111171000D03*
X134793000Y-106599000D03*
X128189000Y-106599000D03*
X128189000Y-111171000D03*
X134793000Y-111171000D03*
X120777000Y-106599000D03*
X114173000Y-106599000D03*
X114173000Y-111171000D03*
X120777000Y-111171000D03*
X162825000Y-92329000D03*
X156221000Y-92329000D03*
X156221000Y-96901000D03*
X162825000Y-96901000D03*
X148809000Y-92329000D03*
X142205000Y-92329000D03*
X142205000Y-96901000D03*
X148809000Y-96901000D03*
X134793000Y-92329000D03*
X128189000Y-92329000D03*
X128189000Y-96901000D03*
X134793000Y-96901000D03*
D19*
X157618000Y-131075000D03*
X158888000Y-131075000D03*
D20*
X160158000Y-131075000D03*
X161428000Y-131075000D03*
D19*
X143602000Y-131075000D03*
X144872000Y-131075000D03*
D20*
X146142000Y-131075000D03*
X147412000Y-131075000D03*
D19*
X129586000Y-131075000D03*
X130856000Y-131075000D03*
D20*
X132126000Y-131075000D03*
X133396000Y-131075000D03*
D19*
X115570000Y-131075000D03*
X116840000Y-131075000D03*
D20*
X118110000Y-131075000D03*
X119380000Y-131075000D03*
D19*
X157618000Y-116805000D03*
X158888000Y-116805000D03*
D20*
X160158000Y-116805000D03*
X161428000Y-116805000D03*
D19*
X143602000Y-116805000D03*
X144872000Y-116805000D03*
D20*
X146142000Y-116805000D03*
X147412000Y-116805000D03*
D19*
X129586000Y-116805000D03*
X130856000Y-116805000D03*
D20*
X132126000Y-116805000D03*
X133396000Y-116805000D03*
D19*
X115570000Y-116805000D03*
X116840000Y-116805000D03*
D20*
X118110000Y-116805000D03*
X119380000Y-116805000D03*
D19*
X157618000Y-102535000D03*
X158888000Y-102535000D03*
D20*
X160158000Y-102535000D03*
X161428000Y-102535000D03*
D19*
X143602000Y-102535000D03*
X144872000Y-102535000D03*
D20*
X146142000Y-102535000D03*
X147412000Y-102535000D03*
D19*
X129586000Y-102535000D03*
X130856000Y-102535000D03*
D20*
X132126000Y-102535000D03*
X133396000Y-102535000D03*
D19*
X115570000Y-102535000D03*
X116840000Y-102535000D03*
D20*
X118110000Y-102535000D03*
X119380000Y-102535000D03*
D19*
X157618000Y-88265000D03*
X158888000Y-88265000D03*
D20*
X160158000Y-88265000D03*
X161428000Y-88265000D03*
D19*
X143602000Y-88265000D03*
X144872000Y-88265000D03*
D20*
X146142000Y-88265000D03*
X147412000Y-88265000D03*
D19*
X129586000Y-88265000D03*
X130856000Y-88265000D03*
D20*
X132126000Y-88265000D03*
X133396000Y-88265000D03*
D21*
X167680000Y-46950000D03*
D22*
X180180000Y-54450000D03*
D21*
X170180000Y-44450000D03*
X170180000Y-51950000D03*
X170180000Y-59450000D03*
X167680000Y-56950000D03*
D22*
X180180000Y-49450000D03*
D17*
X177292000Y-114554000D03*
X170688000Y-114554000D03*
X170688000Y-119126000D03*
X177292000Y-119126000D03*
X177292000Y-120904000D03*
X170688000Y-120904000D03*
X170688000Y-125476000D03*
X177292000Y-125476000D03*
X104394000Y-113538000D03*
X104394000Y-120142000D03*
X108966000Y-120142000D03*
X108966000Y-113538000D03*
X96139000Y-113538000D03*
X96139000Y-120142000D03*
X100711000Y-120142000D03*
X100711000Y-113538000D03*
X104394000Y-103378000D03*
X104394000Y-109982000D03*
X108966000Y-109982000D03*
X108966000Y-103378000D03*
X96139000Y-103378000D03*
X96139000Y-109982000D03*
X100711000Y-109982000D03*
X100711000Y-103378000D03*
X155702000Y-78994000D03*
X149098000Y-78994000D03*
X149098000Y-83566000D03*
X155702000Y-83566000D03*
X141732000Y-78994000D03*
X135128000Y-78994000D03*
X135128000Y-83566000D03*
X141732000Y-83566000D03*
D19*
X115570000Y-88265000D03*
X116840000Y-88265000D03*
D20*
X118110000Y-88265000D03*
X119380000Y-88265000D03*
D21*
X160782000Y-39370000D03*
D22*
X168282000Y-26870000D03*
D21*
X158282000Y-36870000D03*
X165782000Y-36870000D03*
X173282000Y-36870000D03*
X170782000Y-39370000D03*
D22*
X163282000Y-26870000D03*
D17*
X120777000Y-92329000D03*
X114173000Y-92329000D03*
X114173000Y-96901000D03*
X120777000Y-96901000D03*
X127762000Y-78994000D03*
X121158000Y-78994000D03*
X121158000Y-83566000D03*
X127762000Y-83566000D03*
D23*
X164592000Y-52324000D03*
D24*
X164592000Y-49784000D03*
X164592000Y-47244000D03*
X164592000Y-44704000D03*
X156972000Y-44704000D03*
X156972000Y-47244000D03*
X156972000Y-49784000D03*
X156972000Y-52324000D03*
D17*
X171530000Y-102130000D03*
X174030000Y-102130000D03*
X176530000Y-102130000D03*
X176530000Y-87630000D03*
X171530000Y-87630000D03*
D25*
X168330000Y-94630000D03*
X179730000Y-94630000D03*
D17*
X99060000Y-49022000D03*
X101600000Y-49022000D03*
X104140000Y-49022000D03*
X106680000Y-49022000D03*
X109220000Y-49022000D03*
X111760000Y-49022000D03*
X114300000Y-49022000D03*
X116840000Y-49022000D03*
X119380000Y-49022000D03*
X121920000Y-49022000D03*
X124460000Y-49022000D03*
X127000000Y-49022000D03*
X127000000Y-64262000D03*
X124460000Y-64262000D03*
X121920000Y-64262000D03*
X119380000Y-64262000D03*
X116840000Y-64262000D03*
X114300000Y-64262000D03*
X111760000Y-64262000D03*
X109220000Y-64262000D03*
X106680000Y-64262000D03*
X104140000Y-64262000D03*
X101600000Y-64262000D03*
X114300000Y-51562000D03*
X116840000Y-51562000D03*
X119380000Y-51562000D03*
X121920000Y-51562000D03*
X124460000Y-51562000D03*
X124460000Y-61722000D03*
X121920000Y-61722000D03*
X119380000Y-61722000D03*
X116840000Y-61722000D03*
X114300000Y-61722000D03*
X111760000Y-61722000D03*
X109220000Y-61722000D03*
X109220000Y-51562000D03*
X106680000Y-61722000D03*
X104140000Y-61722000D03*
X101600000Y-61722000D03*
X96520000Y-61722000D03*
X127000000Y-61722000D03*
X127000000Y-59182000D03*
X93980000Y-49022000D03*
X127000000Y-54102000D03*
X127000000Y-51562000D03*
X93980000Y-64262000D03*
X96520000Y-64262000D03*
X99060000Y-64262000D03*
X127000000Y-56642000D03*
X96520000Y-49022000D03*
X111760000Y-51562000D03*
D18*
X124714000Y-95738000D03*
X124714000Y-93238000D03*
D26*
X123678000Y-37338000D03*
X121178000Y-37338000D03*
D18*
X173990000Y-82530000D03*
X173990000Y-80030000D03*
X170942000Y-80030000D03*
X170942000Y-82530000D03*
D26*
X160000000Y-66294000D03*
X157500000Y-66294000D03*
D27*
X179262000Y-72898000D03*
X177862000Y-72898000D03*
D28*
X170124000Y-130963000D03*
X170124000Y-131613000D03*
X170124000Y-132263000D03*
X170124000Y-132913000D03*
X170124000Y-133563000D03*
X170124000Y-134213000D03*
X170124000Y-134863000D03*
D29*
X171024000Y-135763000D03*
X171674000Y-135763000D03*
X172324000Y-135763000D03*
X172974000Y-135763000D03*
X173624000Y-135763000D03*
X174274000Y-135763000D03*
X174924000Y-135763000D03*
D28*
X175824000Y-134863000D03*
X175824000Y-134213000D03*
X175824000Y-133563000D03*
X175824000Y-132913000D03*
X175824000Y-132263000D03*
X175824000Y-131613000D03*
X175824000Y-130963000D03*
D29*
X174924000Y-130063000D03*
X174274000Y-130063000D03*
X173624000Y-130063000D03*
X172974000Y-130063000D03*
X172324000Y-130063000D03*
X171674000Y-130063000D03*
X171024000Y-130063000D03*
D30*
X174567750Y-134506750D03*
X174567750Y-133444250D03*
X174567750Y-132381750D03*
X174567750Y-131319250D03*
X173505250Y-134506750D03*
X173505250Y-133444250D03*
X173505250Y-132381750D03*
X173505250Y-131319250D03*
X172442750Y-134506750D03*
X172442750Y-133444250D03*
X172442750Y-132381750D03*
X172442750Y-131319250D03*
X171380250Y-134506750D03*
X171380250Y-133444250D03*
X171380250Y-132381750D03*
X171380250Y-131319250D03*
D28*
X99766000Y-91522000D03*
X99766000Y-92172000D03*
X99766000Y-92822000D03*
X99766000Y-93472000D03*
X99766000Y-94122000D03*
X99766000Y-94772000D03*
X99766000Y-95422000D03*
D29*
X100666000Y-96322000D03*
X101316000Y-96322000D03*
X101966000Y-96322000D03*
X102616000Y-96322000D03*
X103266000Y-96322000D03*
X103916000Y-96322000D03*
X104566000Y-96322000D03*
D28*
X105466000Y-95422000D03*
X105466000Y-94772000D03*
X105466000Y-94122000D03*
X105466000Y-93472000D03*
X105466000Y-92822000D03*
X105466000Y-92172000D03*
X105466000Y-91522000D03*
D29*
X104566000Y-90622000D03*
X103916000Y-90622000D03*
X103266000Y-90622000D03*
X102616000Y-90622000D03*
X101966000Y-90622000D03*
X101316000Y-90622000D03*
X100666000Y-90622000D03*
D30*
X104209750Y-95065750D03*
X104209750Y-94003250D03*
X104209750Y-92940750D03*
X104209750Y-91878250D03*
X103147250Y-95065750D03*
X103147250Y-94003250D03*
X103147250Y-92940750D03*
X103147250Y-91878250D03*
X102084750Y-95065750D03*
X102084750Y-94003250D03*
X102084750Y-92940750D03*
X102084750Y-91878250D03*
X101022250Y-95065750D03*
X101022250Y-94003250D03*
X101022250Y-92940750D03*
X101022250Y-91878250D03*
D31*
X111586000Y-88138000D03*
X108886000Y-88138000D03*
D32*
X170434000Y-32846000D03*
X170434000Y-30146000D03*
D31*
X177212000Y-75438000D03*
X179912000Y-75438000D03*
D32*
X108204000Y-28114000D03*
X108204000Y-30814000D03*
X164084000Y-30146000D03*
X164084000Y-32846000D03*
X167132000Y-30146000D03*
X167132000Y-32846000D03*
D31*
X176356000Y-56642000D03*
X173656000Y-56642000D03*
D32*
X170180000Y-105965000D03*
X170180000Y-108665000D03*
X172720000Y-105965000D03*
X172720000Y-108665000D03*
D18*
X124460000Y-110216000D03*
X124460000Y-107716000D03*
X124460000Y-124440000D03*
X124460000Y-121940000D03*
X124460000Y-136886000D03*
X124460000Y-134386000D03*
D26*
X177058000Y-70358000D03*
X179558000Y-70358000D03*
X157500000Y-63754000D03*
X160000000Y-63754000D03*
X157480000Y-68834000D03*
X159980000Y-68834000D03*
X157480000Y-71374000D03*
X159980000Y-71374000D03*
X157500000Y-76454000D03*
X160000000Y-76454000D03*
X157480000Y-73914000D03*
X159980000Y-73914000D03*
X108478000Y-34036000D03*
X110978000Y-34036000D03*
D18*
X168148000Y-82530000D03*
X168148000Y-80030000D03*
X165100000Y-80030000D03*
X165100000Y-82530000D03*
D26*
X105390000Y-34290000D03*
X102890000Y-34290000D03*
X105390000Y-31242000D03*
X102890000Y-31242000D03*
X176256000Y-53086000D03*
X173756000Y-53086000D03*
D18*
X167640000Y-108565000D03*
X167640000Y-106065000D03*
X180340000Y-108565000D03*
X180340000Y-106065000D03*
D33*
X172974000Y-47560000D03*
X172974000Y-48960000D03*
D34*
X120269000Y-27635200D03*
X120269000Y-30327600D03*
D35*
X112141000Y-28422600D03*
D36*
X112141000Y-37744400D03*
D37*
X116941600Y-41275000D03*
D38*
X116205000Y-29540200D03*
X116205000Y-36550600D03*
D39*
X94310200Y-35941000D03*
X97002600Y-35941000D03*
D40*
X95097600Y-44069000D03*
D37*
X104419400Y-44069000D03*
D36*
X107950000Y-39268400D03*
D38*
X96215200Y-40005000D03*
X103225600Y-40005000D03*
D26*
X159786000Y-80010000D03*
X162286000Y-80010000D03*
D31*
X123778000Y-34290000D03*
X121078000Y-34290000D03*
X162386000Y-82550000D03*
X159686000Y-82550000D03*
X102790000Y-27940000D03*
X105490000Y-27940000D03*
X175768000Y-46736000D03*
X178468000Y-46736000D03*
D32*
X175260000Y-105965000D03*
X175260000Y-108665000D03*
X177800000Y-105965000D03*
X177800000Y-108665000D03*
D41*
X167132000Y-70866000D03*
X167132000Y-71266000D03*
X167132000Y-71666000D03*
X167132000Y-72066000D03*
X167132000Y-72466000D03*
X167132000Y-72866000D03*
X167132000Y-73266000D03*
X167132000Y-73666000D03*
X167132000Y-74066000D03*
X167132000Y-74466000D03*
X167132000Y-74866000D03*
X167132000Y-75266000D03*
D42*
X167932000Y-76066000D03*
X168332000Y-76066000D03*
X168732000Y-76066000D03*
X169132000Y-76066000D03*
X169532000Y-76066000D03*
X169932000Y-76066000D03*
X170332000Y-76066000D03*
X170732000Y-76066000D03*
X171132000Y-76066000D03*
X171532000Y-76066000D03*
X171932000Y-76066000D03*
X172332000Y-76066000D03*
D41*
X173132000Y-75266000D03*
X173132000Y-74866000D03*
X173132000Y-74466000D03*
X173132000Y-74066000D03*
X173132000Y-73666000D03*
X173132000Y-73266000D03*
X173132000Y-72866000D03*
X173132000Y-72466000D03*
X173132000Y-72066000D03*
X173132000Y-71666000D03*
X173132000Y-71266000D03*
X173132000Y-70866000D03*
D42*
X172332000Y-70066000D03*
X171932000Y-70066000D03*
X171532000Y-70066000D03*
X171132000Y-70066000D03*
X170732000Y-70066000D03*
X170332000Y-70066000D03*
X169932000Y-70066000D03*
X169532000Y-70066000D03*
X169132000Y-70066000D03*
X168732000Y-70066000D03*
X168332000Y-70066000D03*
X167932000Y-70066000D03*
D43*
X171800750Y-74734750D03*
X171800750Y-73622250D03*
X171800750Y-72509750D03*
X171800750Y-71397250D03*
X170688250Y-74734750D03*
X170688250Y-73622250D03*
X170688250Y-72509750D03*
X170688250Y-71397250D03*
X169575750Y-74734750D03*
X169575750Y-73622250D03*
X169575750Y-72509750D03*
X169575750Y-71397250D03*
X168463250Y-74734750D03*
X168463250Y-73622250D03*
X168463250Y-72509750D03*
X168463250Y-71397250D03*
D44*
X171621852Y-65064346D03*
X169421852Y-65064346D03*
X171621852Y-66664346D03*
X169421852Y-66664346D03*
D26*
X179304000Y-80010000D03*
X176804000Y-80010000D03*
X176804000Y-82550000D03*
X179304000Y-82550000D03*
D31*
X115650000Y-79375000D03*
X112950000Y-79375000D03*
X115570000Y-83185000D03*
X112870000Y-83185000D03*
D45*
X147955000Y-62865000D03*
X145415000Y-62865000D03*
X145415000Y-65405000D03*
X147955000Y-65405000D03*
X147955000Y-67945000D03*
X145415000Y-67945000D03*
X145415000Y-70485000D03*
X147955000Y-70485000D03*
X147955000Y-73025000D03*
D46*
X145415000Y-73025000D03*
D32*
X123190000Y-73105000D03*
X123190000Y-70405000D03*
X116840000Y-73105000D03*
X116840000Y-70405000D03*
D17*
X145415000Y-43180000D03*
X145415000Y-45720000D03*
X145415000Y-48260000D03*
X145415000Y-50800000D03*
X145415000Y-53340000D03*
X135255000Y-53340000D03*
X135255000Y-43180000D03*
X135255000Y-45720000D03*
X135255000Y-48260000D03*
X135255000Y-50800000D03*
D45*
X137795000Y-62865000D03*
X135255000Y-62865000D03*
X135255000Y-65405000D03*
X137795000Y-65405000D03*
X137795000Y-67945000D03*
X135255000Y-67945000D03*
X135255000Y-70485000D03*
X137795000Y-70485000D03*
X137795000Y-73025000D03*
D46*
X135255000Y-73025000D03*
X128270000Y-27940000D03*
D45*
X130810000Y-27940000D03*
X133350000Y-27940000D03*
X135890000Y-27940000D03*
X138430000Y-27940000D03*
X140970000Y-27940000D03*
X143510000Y-27940000D03*
X146050000Y-27940000D03*
D16*
X170129200Y-73075800D03*
M02*
