G04 #@! TF.FileFunction,Legend,Bot*
%FSLAX46Y46*%
G04 Gerber Fmt 4.6, Leading zero omitted, Abs format (unit mm)*
G04 Created by KiCad (PCBNEW (2015-06-12 BZR 5734)-product) date Saturday, June 20, 2015 'PMt' 05:40:19 PM*
%MOMM*%
G01*
G04 APERTURE LIST*
%ADD10C,0.100000*%
%ADD11C,0.150000*%
%ADD12C,0.200000*%
%ADD13C,0.127000*%
%ADD14C,0.070000*%
%ADD15C,3.000000*%
%ADD16C,0.500000*%
%ADD17C,1.524000*%
%ADD18R,0.850000X1.500000*%
%ADD19O,0.850000X1.500000*%
%ADD20C,2.300000*%
%ADD21C,2.000000*%
%ADD22R,2.286000X1.574800*%
%ADD23O,2.286000X1.574800*%
%ADD24R,3.200000X3.200000*%
%ADD25C,1.778000*%
%ADD26C,1.676400*%
%ADD27R,1.676400X1.676400*%
G04 APERTURE END LIST*
D10*
D11*
X166791000Y-57990000D02*
X166791000Y-61950000D01*
X166791000Y-48006000D02*
X166791000Y-55880000D01*
X166791000Y-61950000D02*
X182718000Y-61950000D01*
X182718000Y-41950000D02*
X182718000Y-61950000D01*
X166791000Y-41950000D02*
X182718000Y-41950000D01*
X166791000Y-41950000D02*
X166791000Y-45910500D01*
X171822000Y-40259000D02*
X175782000Y-40259000D01*
X161838000Y-40259000D02*
X169712000Y-40259000D01*
X175782000Y-40259000D02*
X175782000Y-24332000D01*
X155782000Y-24332000D02*
X175782000Y-24332000D01*
X155782000Y-40259000D02*
X155782000Y-24332000D01*
X155782000Y-40259000D02*
X159742500Y-40259000D01*
D12*
X91440000Y-52832000D02*
X97790000Y-52832000D01*
X97790000Y-52832000D02*
X97790000Y-60452000D01*
X97790000Y-60452000D02*
X91440000Y-60452000D01*
X91440000Y-60452000D02*
X91440000Y-52832000D01*
X123952000Y-58166000D02*
X123444000Y-58166000D01*
X123952000Y-55118000D02*
X123444000Y-55118000D01*
X123444000Y-58166000D02*
G75*
G02X123444000Y-55118000I1524000J1524000D01*
G01*
X123952000Y-55118000D02*
G75*
G02X123952000Y-58166000I-1524000J-1524000D01*
G01*
X124968000Y-54737000D02*
X122428000Y-54737000D01*
X122428000Y-54737000D02*
X122428000Y-58547000D01*
X122428000Y-58547000D02*
X124968000Y-58547000D01*
X124968000Y-54737000D02*
X124968000Y-58547000D01*
X128270000Y-47752000D02*
X92710000Y-47752000D01*
X92710000Y-47752000D02*
X92710000Y-65532000D01*
X92710000Y-65532000D02*
X128270000Y-65532000D01*
X128270000Y-65532000D02*
X128270000Y-47752000D01*
D13*
X144145000Y-63500000D02*
X144780000Y-64135000D01*
X148590000Y-64135000D02*
X149225000Y-63500000D01*
X149225000Y-63500000D02*
X149225000Y-62230000D01*
X149225000Y-62230000D02*
X148590000Y-61595000D01*
X148590000Y-61595000D02*
X144780000Y-61595000D01*
X144780000Y-61595000D02*
X144145000Y-62230000D01*
X144145000Y-62230000D02*
X144145000Y-63500000D01*
X144145000Y-64770000D02*
X144145000Y-66040000D01*
X144780000Y-64135000D02*
X144145000Y-64770000D01*
X148590000Y-64135000D02*
X144780000Y-64135000D01*
X149225000Y-64770000D02*
X148590000Y-64135000D01*
X149225000Y-66040000D02*
X149225000Y-64770000D01*
X148590000Y-66675000D02*
X149225000Y-66040000D01*
X144145000Y-66040000D02*
X144780000Y-66675000D01*
X144145000Y-68580000D02*
X144780000Y-69215000D01*
X148590000Y-69215000D02*
X149225000Y-68580000D01*
X149225000Y-68580000D02*
X149225000Y-67310000D01*
X149225000Y-67310000D02*
X148590000Y-66675000D01*
X148590000Y-66675000D02*
X144780000Y-66675000D01*
X144780000Y-66675000D02*
X144145000Y-67310000D01*
X144145000Y-67310000D02*
X144145000Y-68580000D01*
X144145000Y-69850000D02*
X144145000Y-71120000D01*
X144780000Y-69215000D02*
X144145000Y-69850000D01*
X148590000Y-69215000D02*
X144780000Y-69215000D01*
X149225000Y-69850000D02*
X148590000Y-69215000D01*
X149225000Y-71120000D02*
X149225000Y-69850000D01*
X148590000Y-71755000D02*
X149225000Y-71120000D01*
X144145000Y-71120000D02*
X144780000Y-71755000D01*
X144145000Y-73660000D02*
X144780000Y-74295000D01*
X144780000Y-74295000D02*
X148590000Y-74295000D01*
X148590000Y-74295000D02*
X149225000Y-73660000D01*
X149225000Y-73660000D02*
X149225000Y-72390000D01*
X149225000Y-72390000D02*
X148590000Y-71755000D01*
X148590000Y-71755000D02*
X144780000Y-71755000D01*
X144780000Y-71755000D02*
X144145000Y-72390000D01*
X144145000Y-72390000D02*
X144145000Y-73660000D01*
X143510000Y-73660000D02*
X143510000Y-72390000D01*
D10*
X146685000Y-41910000D02*
X133985000Y-41910000D01*
X133985000Y-41910000D02*
X133985000Y-54610000D01*
X133985000Y-54610000D02*
X146685000Y-54610000D01*
X146685000Y-54610000D02*
X146685000Y-41910000D01*
D13*
X133985000Y-63500000D02*
X134620000Y-64135000D01*
X138430000Y-64135000D02*
X139065000Y-63500000D01*
X139065000Y-63500000D02*
X139065000Y-62230000D01*
X139065000Y-62230000D02*
X138430000Y-61595000D01*
X138430000Y-61595000D02*
X134620000Y-61595000D01*
X134620000Y-61595000D02*
X133985000Y-62230000D01*
X133985000Y-62230000D02*
X133985000Y-63500000D01*
X133985000Y-64770000D02*
X133985000Y-66040000D01*
X134620000Y-64135000D02*
X133985000Y-64770000D01*
X138430000Y-64135000D02*
X134620000Y-64135000D01*
X139065000Y-64770000D02*
X138430000Y-64135000D01*
X139065000Y-66040000D02*
X139065000Y-64770000D01*
X138430000Y-66675000D02*
X139065000Y-66040000D01*
X133985000Y-66040000D02*
X134620000Y-66675000D01*
X133985000Y-68580000D02*
X134620000Y-69215000D01*
X138430000Y-69215000D02*
X139065000Y-68580000D01*
X139065000Y-68580000D02*
X139065000Y-67310000D01*
X139065000Y-67310000D02*
X138430000Y-66675000D01*
X138430000Y-66675000D02*
X134620000Y-66675000D01*
X134620000Y-66675000D02*
X133985000Y-67310000D01*
X133985000Y-67310000D02*
X133985000Y-68580000D01*
X133985000Y-69850000D02*
X133985000Y-71120000D01*
X134620000Y-69215000D02*
X133985000Y-69850000D01*
X138430000Y-69215000D02*
X134620000Y-69215000D01*
X139065000Y-69850000D02*
X138430000Y-69215000D01*
X139065000Y-71120000D02*
X139065000Y-69850000D01*
X138430000Y-71755000D02*
X139065000Y-71120000D01*
X133985000Y-71120000D02*
X134620000Y-71755000D01*
X133985000Y-73660000D02*
X134620000Y-74295000D01*
X134620000Y-74295000D02*
X138430000Y-74295000D01*
X138430000Y-74295000D02*
X139065000Y-73660000D01*
X139065000Y-73660000D02*
X139065000Y-72390000D01*
X139065000Y-72390000D02*
X138430000Y-71755000D01*
X138430000Y-71755000D02*
X134620000Y-71755000D01*
X134620000Y-71755000D02*
X133985000Y-72390000D01*
X133985000Y-72390000D02*
X133985000Y-73660000D01*
X133350000Y-73660000D02*
X133350000Y-72390000D01*
D10*
G36*
X125262359Y-131046105D02*
X125271817Y-131663242D01*
X125312620Y-132237992D01*
X125384872Y-132718137D01*
X125414310Y-132842000D01*
X125745257Y-133780787D01*
X126203356Y-134610493D01*
X126782427Y-135326422D01*
X127476288Y-135923875D01*
X128278757Y-136398157D01*
X129183655Y-136744569D01*
X129482882Y-136808484D01*
X129482882Y-130908985D01*
X129561152Y-130291027D01*
X129718209Y-129746142D01*
X129850632Y-129468722D01*
X130144904Y-129119888D01*
X130533837Y-128890323D01*
X130983243Y-128789427D01*
X131458929Y-128826599D01*
X131783667Y-128937235D01*
X132076316Y-129099014D01*
X132294027Y-129299667D01*
X132480031Y-129586795D01*
X132603084Y-129839427D01*
X132685968Y-130043899D01*
X132741368Y-130251459D01*
X132774696Y-130503410D01*
X132791363Y-130841056D01*
X132796783Y-131305702D01*
X132796818Y-131318000D01*
X132782690Y-131943202D01*
X132731424Y-132431044D01*
X132635380Y-132810910D01*
X132486918Y-133112186D01*
X132278396Y-133364256D01*
X132260165Y-133381956D01*
X131884588Y-133630529D01*
X131433101Y-133753242D01*
X130949095Y-133744410D01*
X130505291Y-133612006D01*
X130149498Y-133379451D01*
X129874337Y-133034718D01*
X129673318Y-132564585D01*
X129539950Y-131955831D01*
X129492299Y-131548365D01*
X129482882Y-130908985D01*
X129482882Y-136808484D01*
X130184799Y-136958415D01*
X130919977Y-137025832D01*
X131355253Y-137035332D01*
X131792366Y-137027071D01*
X132162078Y-137003009D01*
X132291667Y-136986986D01*
X133303040Y-136759939D01*
X134204504Y-136411227D01*
X134991583Y-135943848D01*
X135659799Y-135360799D01*
X136204675Y-134665077D01*
X136474523Y-134186737D01*
X136747788Y-133551152D01*
X136931436Y-132915291D01*
X137036363Y-132227624D01*
X137073468Y-131436621D01*
X137073864Y-131352710D01*
X137010222Y-130319698D01*
X136813424Y-129386161D01*
X136479764Y-128542410D01*
X136005534Y-127778755D01*
X135473675Y-127169952D01*
X134805600Y-126592981D01*
X134088134Y-126149307D01*
X133301472Y-125831606D01*
X132425807Y-125632551D01*
X131441333Y-125544817D01*
X131064000Y-125539059D01*
X130094225Y-125582757D01*
X129247288Y-125716932D01*
X128497245Y-125951212D01*
X127818151Y-126295221D01*
X127184061Y-126758586D01*
X126785789Y-127126299D01*
X126280082Y-127687039D01*
X125899213Y-128252232D01*
X125609292Y-128879892D01*
X125421020Y-129462551D01*
X125337065Y-129893542D01*
X125284143Y-130438799D01*
X125262359Y-131046105D01*
X125262359Y-131046105D01*
X125262359Y-131046105D01*
G37*
X125262359Y-131046105D02*
X125271817Y-131663242D01*
X125312620Y-132237992D01*
X125384872Y-132718137D01*
X125414310Y-132842000D01*
X125745257Y-133780787D01*
X126203356Y-134610493D01*
X126782427Y-135326422D01*
X127476288Y-135923875D01*
X128278757Y-136398157D01*
X129183655Y-136744569D01*
X129482882Y-136808484D01*
X129482882Y-130908985D01*
X129561152Y-130291027D01*
X129718209Y-129746142D01*
X129850632Y-129468722D01*
X130144904Y-129119888D01*
X130533837Y-128890323D01*
X130983243Y-128789427D01*
X131458929Y-128826599D01*
X131783667Y-128937235D01*
X132076316Y-129099014D01*
X132294027Y-129299667D01*
X132480031Y-129586795D01*
X132603084Y-129839427D01*
X132685968Y-130043899D01*
X132741368Y-130251459D01*
X132774696Y-130503410D01*
X132791363Y-130841056D01*
X132796783Y-131305702D01*
X132796818Y-131318000D01*
X132782690Y-131943202D01*
X132731424Y-132431044D01*
X132635380Y-132810910D01*
X132486918Y-133112186D01*
X132278396Y-133364256D01*
X132260165Y-133381956D01*
X131884588Y-133630529D01*
X131433101Y-133753242D01*
X130949095Y-133744410D01*
X130505291Y-133612006D01*
X130149498Y-133379451D01*
X129874337Y-133034718D01*
X129673318Y-132564585D01*
X129539950Y-131955831D01*
X129492299Y-131548365D01*
X129482882Y-130908985D01*
X129482882Y-136808484D01*
X130184799Y-136958415D01*
X130919977Y-137025832D01*
X131355253Y-137035332D01*
X131792366Y-137027071D01*
X132162078Y-137003009D01*
X132291667Y-136986986D01*
X133303040Y-136759939D01*
X134204504Y-136411227D01*
X134991583Y-135943848D01*
X135659799Y-135360799D01*
X136204675Y-134665077D01*
X136474523Y-134186737D01*
X136747788Y-133551152D01*
X136931436Y-132915291D01*
X137036363Y-132227624D01*
X137073468Y-131436621D01*
X137073864Y-131352710D01*
X137010222Y-130319698D01*
X136813424Y-129386161D01*
X136479764Y-128542410D01*
X136005534Y-127778755D01*
X135473675Y-127169952D01*
X134805600Y-126592981D01*
X134088134Y-126149307D01*
X133301472Y-125831606D01*
X132425807Y-125632551D01*
X131441333Y-125544817D01*
X131064000Y-125539059D01*
X130094225Y-125582757D01*
X129247288Y-125716932D01*
X128497245Y-125951212D01*
X127818151Y-126295221D01*
X127184061Y-126758586D01*
X126785789Y-127126299D01*
X126280082Y-127687039D01*
X125899213Y-128252232D01*
X125609292Y-128879892D01*
X125421020Y-129462551D01*
X125337065Y-129893542D01*
X125284143Y-130438799D01*
X125262359Y-131046105D01*
X125262359Y-131046105D01*
G36*
X169418000Y-136821333D02*
X174061545Y-136821333D01*
X175067970Y-136821087D01*
X175918626Y-136820058D01*
X176627077Y-136817805D01*
X177206886Y-136813890D01*
X177671619Y-136807873D01*
X178034837Y-136799317D01*
X178310107Y-136787781D01*
X178510991Y-136772827D01*
X178651053Y-136754016D01*
X178743857Y-136730908D01*
X178802968Y-136703065D01*
X178841949Y-136670048D01*
X178845212Y-136666500D01*
X178904630Y-136573326D01*
X178944414Y-136429217D01*
X178967741Y-136204265D01*
X178977790Y-135868565D01*
X178977917Y-135417666D01*
X178977415Y-134970472D01*
X178975747Y-134603828D01*
X178962623Y-134298509D01*
X178927752Y-134035292D01*
X178860845Y-133794955D01*
X178751611Y-133558272D01*
X178589761Y-133306021D01*
X178365005Y-133018978D01*
X178067051Y-132677919D01*
X177685611Y-132263621D01*
X177210395Y-131756860D01*
X176762834Y-131279498D01*
X176282980Y-130764933D01*
X175841786Y-130289508D01*
X175452157Y-129867306D01*
X175126995Y-129512409D01*
X174879203Y-129238899D01*
X174721685Y-129060858D01*
X174667334Y-128992502D01*
X174747999Y-128979465D01*
X174973991Y-128967902D01*
X175321309Y-128958388D01*
X175765947Y-128951496D01*
X176283904Y-128947802D01*
X176555401Y-128947333D01*
X177239076Y-128944177D01*
X177765822Y-128934291D01*
X178147931Y-128917046D01*
X178397696Y-128891815D01*
X178527412Y-128857970D01*
X178545067Y-128845733D01*
X178599765Y-128698944D01*
X178633127Y-128399053D01*
X178644856Y-127960981D01*
X178634649Y-127399648D01*
X178602207Y-126729974D01*
X178591126Y-126555500D01*
X178536461Y-125730000D01*
X174121164Y-125730000D01*
X173076182Y-125731006D01*
X172190432Y-125734174D01*
X171453823Y-125739733D01*
X170856264Y-125747908D01*
X170387664Y-125758927D01*
X170037934Y-125773017D01*
X169796981Y-125790404D01*
X169654716Y-125811316D01*
X169604267Y-125831600D01*
X169568536Y-125949663D01*
X169540016Y-126202257D01*
X169518980Y-126554719D01*
X169505703Y-126972389D01*
X169500457Y-127420607D01*
X169503519Y-127864710D01*
X169515160Y-128270037D01*
X169535656Y-128601928D01*
X169565280Y-128825722D01*
X169580183Y-128878321D01*
X169654380Y-128984006D01*
X169831053Y-129197659D01*
X170096600Y-129503964D01*
X170437420Y-129887600D01*
X170839911Y-130333250D01*
X171290473Y-130825595D01*
X171746341Y-131318000D01*
X173834984Y-133561667D01*
X171739181Y-133584344D01*
X170981035Y-133596437D01*
X170377034Y-133614534D01*
X169931013Y-133638435D01*
X169646809Y-133667936D01*
X169530689Y-133700544D01*
X169487741Y-133778076D01*
X169456383Y-133942001D01*
X169435249Y-134211806D01*
X169422972Y-134606977D01*
X169418186Y-135147002D01*
X169418000Y-135307700D01*
X169418000Y-136821333D01*
X169418000Y-136821333D01*
X169418000Y-136821333D01*
G37*
X169418000Y-136821333D02*
X174061545Y-136821333D01*
X175067970Y-136821087D01*
X175918626Y-136820058D01*
X176627077Y-136817805D01*
X177206886Y-136813890D01*
X177671619Y-136807873D01*
X178034837Y-136799317D01*
X178310107Y-136787781D01*
X178510991Y-136772827D01*
X178651053Y-136754016D01*
X178743857Y-136730908D01*
X178802968Y-136703065D01*
X178841949Y-136670048D01*
X178845212Y-136666500D01*
X178904630Y-136573326D01*
X178944414Y-136429217D01*
X178967741Y-136204265D01*
X178977790Y-135868565D01*
X178977917Y-135417666D01*
X178977415Y-134970472D01*
X178975747Y-134603828D01*
X178962623Y-134298509D01*
X178927752Y-134035292D01*
X178860845Y-133794955D01*
X178751611Y-133558272D01*
X178589761Y-133306021D01*
X178365005Y-133018978D01*
X178067051Y-132677919D01*
X177685611Y-132263621D01*
X177210395Y-131756860D01*
X176762834Y-131279498D01*
X176282980Y-130764933D01*
X175841786Y-130289508D01*
X175452157Y-129867306D01*
X175126995Y-129512409D01*
X174879203Y-129238899D01*
X174721685Y-129060858D01*
X174667334Y-128992502D01*
X174747999Y-128979465D01*
X174973991Y-128967902D01*
X175321309Y-128958388D01*
X175765947Y-128951496D01*
X176283904Y-128947802D01*
X176555401Y-128947333D01*
X177239076Y-128944177D01*
X177765822Y-128934291D01*
X178147931Y-128917046D01*
X178397696Y-128891815D01*
X178527412Y-128857970D01*
X178545067Y-128845733D01*
X178599765Y-128698944D01*
X178633127Y-128399053D01*
X178644856Y-127960981D01*
X178634649Y-127399648D01*
X178602207Y-126729974D01*
X178591126Y-126555500D01*
X178536461Y-125730000D01*
X174121164Y-125730000D01*
X173076182Y-125731006D01*
X172190432Y-125734174D01*
X171453823Y-125739733D01*
X170856264Y-125747908D01*
X170387664Y-125758927D01*
X170037934Y-125773017D01*
X169796981Y-125790404D01*
X169654716Y-125811316D01*
X169604267Y-125831600D01*
X169568536Y-125949663D01*
X169540016Y-126202257D01*
X169518980Y-126554719D01*
X169505703Y-126972389D01*
X169500457Y-127420607D01*
X169503519Y-127864710D01*
X169515160Y-128270037D01*
X169535656Y-128601928D01*
X169565280Y-128825722D01*
X169580183Y-128878321D01*
X169654380Y-128984006D01*
X169831053Y-129197659D01*
X170096600Y-129503964D01*
X170437420Y-129887600D01*
X170839911Y-130333250D01*
X171290473Y-130825595D01*
X171746341Y-131318000D01*
X173834984Y-133561667D01*
X171739181Y-133584344D01*
X170981035Y-133596437D01*
X170377034Y-133614534D01*
X169931013Y-133638435D01*
X169646809Y-133667936D01*
X169530689Y-133700544D01*
X169487741Y-133778076D01*
X169456383Y-133942001D01*
X169435249Y-134211806D01*
X169422972Y-134606977D01*
X169418186Y-135147002D01*
X169418000Y-135307700D01*
X169418000Y-136821333D01*
X169418000Y-136821333D01*
G36*
X159173334Y-128944696D02*
X161565167Y-128967181D01*
X163957000Y-128989667D01*
X163957000Y-129328333D01*
X163957000Y-129667000D01*
X161838651Y-129689579D01*
X161180108Y-129697550D01*
X160670879Y-129706714D01*
X160290945Y-129718613D01*
X160020286Y-129734786D01*
X159838885Y-129756773D01*
X159726721Y-129786114D01*
X159663777Y-129824349D01*
X159637318Y-129858913D01*
X159608978Y-129995959D01*
X159588917Y-130275672D01*
X159578086Y-130671541D01*
X159577435Y-131157059D01*
X159581198Y-131423833D01*
X159608063Y-132842000D01*
X161803698Y-132842000D01*
X163999334Y-132842000D01*
X163999334Y-133223000D01*
X163999334Y-133604000D01*
X161726456Y-133604000D01*
X161041503Y-133604842D01*
X160506145Y-133608183D01*
X160100649Y-133615239D01*
X159805279Y-133627231D01*
X159600303Y-133645377D01*
X159465987Y-133670897D01*
X159382597Y-133705008D01*
X159330400Y-133748930D01*
X159327606Y-133752167D01*
X159281070Y-133834152D01*
X159249357Y-133968521D01*
X159231124Y-134179828D01*
X159225026Y-134492627D01*
X159229721Y-134931473D01*
X159239587Y-135360833D01*
X159277540Y-136821333D01*
X163572648Y-136821333D01*
X164537091Y-136821083D01*
X165346365Y-136819994D01*
X166014634Y-136817562D01*
X166556061Y-136813282D01*
X166984811Y-136806647D01*
X167315048Y-136797151D01*
X167560935Y-136784291D01*
X167736636Y-136767560D01*
X167856315Y-136746452D01*
X167934137Y-136720462D01*
X167984264Y-136689085D01*
X168011109Y-136662929D01*
X168043571Y-136617484D01*
X168070099Y-136550006D01*
X168090879Y-136446136D01*
X168106095Y-136291515D01*
X168115933Y-136071782D01*
X168120577Y-135772579D01*
X168120213Y-135379545D01*
X168115025Y-134878322D01*
X168105198Y-134254549D01*
X168090917Y-133493868D01*
X168072366Y-132581918D01*
X168066982Y-132323763D01*
X168049184Y-131448335D01*
X168032583Y-130583853D01*
X168017554Y-129753267D01*
X168004471Y-128979527D01*
X167993710Y-128285584D01*
X167985643Y-127694387D01*
X167980647Y-127228888D01*
X167979084Y-126936500D01*
X167978667Y-125730000D01*
X163677600Y-125730000D01*
X162646590Y-125731038D01*
X161774705Y-125734311D01*
X161051752Y-125740053D01*
X160467533Y-125748500D01*
X160011855Y-125759887D01*
X159674521Y-125774449D01*
X159445336Y-125792421D01*
X159314106Y-125814040D01*
X159274934Y-125831600D01*
X159233619Y-125939835D01*
X159203601Y-126177599D01*
X159184173Y-126556076D01*
X159174628Y-127086450D01*
X159173334Y-127438948D01*
X159173334Y-128944696D01*
X159173334Y-128944696D01*
X159173334Y-128944696D01*
G37*
X159173334Y-128944696D02*
X161565167Y-128967181D01*
X163957000Y-128989667D01*
X163957000Y-129328333D01*
X163957000Y-129667000D01*
X161838651Y-129689579D01*
X161180108Y-129697550D01*
X160670879Y-129706714D01*
X160290945Y-129718613D01*
X160020286Y-129734786D01*
X159838885Y-129756773D01*
X159726721Y-129786114D01*
X159663777Y-129824349D01*
X159637318Y-129858913D01*
X159608978Y-129995959D01*
X159588917Y-130275672D01*
X159578086Y-130671541D01*
X159577435Y-131157059D01*
X159581198Y-131423833D01*
X159608063Y-132842000D01*
X161803698Y-132842000D01*
X163999334Y-132842000D01*
X163999334Y-133223000D01*
X163999334Y-133604000D01*
X161726456Y-133604000D01*
X161041503Y-133604842D01*
X160506145Y-133608183D01*
X160100649Y-133615239D01*
X159805279Y-133627231D01*
X159600303Y-133645377D01*
X159465987Y-133670897D01*
X159382597Y-133705008D01*
X159330400Y-133748930D01*
X159327606Y-133752167D01*
X159281070Y-133834152D01*
X159249357Y-133968521D01*
X159231124Y-134179828D01*
X159225026Y-134492627D01*
X159229721Y-134931473D01*
X159239587Y-135360833D01*
X159277540Y-136821333D01*
X163572648Y-136821333D01*
X164537091Y-136821083D01*
X165346365Y-136819994D01*
X166014634Y-136817562D01*
X166556061Y-136813282D01*
X166984811Y-136806647D01*
X167315048Y-136797151D01*
X167560935Y-136784291D01*
X167736636Y-136767560D01*
X167856315Y-136746452D01*
X167934137Y-136720462D01*
X167984264Y-136689085D01*
X168011109Y-136662929D01*
X168043571Y-136617484D01*
X168070099Y-136550006D01*
X168090879Y-136446136D01*
X168106095Y-136291515D01*
X168115933Y-136071782D01*
X168120577Y-135772579D01*
X168120213Y-135379545D01*
X168115025Y-134878322D01*
X168105198Y-134254549D01*
X168090917Y-133493868D01*
X168072366Y-132581918D01*
X168066982Y-132323763D01*
X168049184Y-131448335D01*
X168032583Y-130583853D01*
X168017554Y-129753267D01*
X168004471Y-128979527D01*
X167993710Y-128285584D01*
X167985643Y-127694387D01*
X167980647Y-127228888D01*
X167979084Y-126936500D01*
X167978667Y-125730000D01*
X163677600Y-125730000D01*
X162646590Y-125731038D01*
X161774705Y-125734311D01*
X161051752Y-125740053D01*
X160467533Y-125748500D01*
X160011855Y-125759887D01*
X159674521Y-125774449D01*
X159445336Y-125792421D01*
X159314106Y-125814040D01*
X159274934Y-125831600D01*
X159233619Y-125939835D01*
X159203601Y-126177599D01*
X159184173Y-126556076D01*
X159174628Y-127086450D01*
X159173334Y-127438948D01*
X159173334Y-128944696D01*
X159173334Y-128944696D01*
G36*
X147912667Y-129032000D02*
X149563667Y-129032000D01*
X151214667Y-129032000D01*
X151214667Y-130245859D01*
X151216551Y-130647769D01*
X151221874Y-131184669D01*
X151230144Y-131822260D01*
X151240866Y-132526245D01*
X151253547Y-133262325D01*
X151267695Y-133996202D01*
X151270675Y-134140526D01*
X151326682Y-136821333D01*
X153204886Y-136821333D01*
X153820032Y-136820338D01*
X154288125Y-136816197D01*
X154631437Y-136807173D01*
X154872243Y-136791532D01*
X155032815Y-136767538D01*
X155135429Y-136733454D01*
X155202356Y-136687546D01*
X155225582Y-136663880D01*
X155261699Y-136612294D01*
X155290647Y-136534744D01*
X155312877Y-136414940D01*
X155328838Y-136236590D01*
X155338980Y-135983402D01*
X155343753Y-135639086D01*
X155343608Y-135187350D01*
X155338994Y-134611902D01*
X155330361Y-133896452D01*
X155320883Y-133213714D01*
X155309259Y-132463638D01*
X155296546Y-131750381D01*
X155283252Y-131095535D01*
X155269884Y-130520691D01*
X155256949Y-130047444D01*
X155244954Y-129697384D01*
X155234406Y-129492104D01*
X155233106Y-129476500D01*
X155192521Y-129032000D01*
X156704139Y-129032000D01*
X157249283Y-129030631D01*
X157650478Y-129024871D01*
X157933098Y-129012242D01*
X158122517Y-128990266D01*
X158244109Y-128956466D01*
X158323247Y-128908362D01*
X158362313Y-128870056D01*
X158414921Y-128797177D01*
X158451168Y-128696678D01*
X158472393Y-128542781D01*
X158479934Y-128309703D01*
X158475130Y-127971667D01*
X158459318Y-127502891D01*
X158448015Y-127219056D01*
X158387158Y-125730000D01*
X153251513Y-125730000D01*
X152122022Y-125730838D01*
X151152370Y-125733474D01*
X150333068Y-125738092D01*
X149654629Y-125744877D01*
X149107565Y-125754012D01*
X148682389Y-125765682D01*
X148369613Y-125780071D01*
X148159749Y-125797362D01*
X148043310Y-125817740D01*
X148014267Y-125831600D01*
X147973593Y-125937964D01*
X147943856Y-126171925D01*
X147924351Y-126544913D01*
X147914376Y-127068360D01*
X147912667Y-127482600D01*
X147912667Y-129032000D01*
X147912667Y-129032000D01*
X147912667Y-129032000D01*
G37*
X147912667Y-129032000D02*
X149563667Y-129032000D01*
X151214667Y-129032000D01*
X151214667Y-130245859D01*
X151216551Y-130647769D01*
X151221874Y-131184669D01*
X151230144Y-131822260D01*
X151240866Y-132526245D01*
X151253547Y-133262325D01*
X151267695Y-133996202D01*
X151270675Y-134140526D01*
X151326682Y-136821333D01*
X153204886Y-136821333D01*
X153820032Y-136820338D01*
X154288125Y-136816197D01*
X154631437Y-136807173D01*
X154872243Y-136791532D01*
X155032815Y-136767538D01*
X155135429Y-136733454D01*
X155202356Y-136687546D01*
X155225582Y-136663880D01*
X155261699Y-136612294D01*
X155290647Y-136534744D01*
X155312877Y-136414940D01*
X155328838Y-136236590D01*
X155338980Y-135983402D01*
X155343753Y-135639086D01*
X155343608Y-135187350D01*
X155338994Y-134611902D01*
X155330361Y-133896452D01*
X155320883Y-133213714D01*
X155309259Y-132463638D01*
X155296546Y-131750381D01*
X155283252Y-131095535D01*
X155269884Y-130520691D01*
X155256949Y-130047444D01*
X155244954Y-129697384D01*
X155234406Y-129492104D01*
X155233106Y-129476500D01*
X155192521Y-129032000D01*
X156704139Y-129032000D01*
X157249283Y-129030631D01*
X157650478Y-129024871D01*
X157933098Y-129012242D01*
X158122517Y-128990266D01*
X158244109Y-128956466D01*
X158323247Y-128908362D01*
X158362313Y-128870056D01*
X158414921Y-128797177D01*
X158451168Y-128696678D01*
X158472393Y-128542781D01*
X158479934Y-128309703D01*
X158475130Y-127971667D01*
X158459318Y-127502891D01*
X158448015Y-127219056D01*
X158387158Y-125730000D01*
X153251513Y-125730000D01*
X152122022Y-125730838D01*
X151152370Y-125733474D01*
X150333068Y-125738092D01*
X149654629Y-125744877D01*
X149107565Y-125754012D01*
X148682389Y-125765682D01*
X148369613Y-125780071D01*
X148159749Y-125797362D01*
X148043310Y-125817740D01*
X148014267Y-125831600D01*
X147973593Y-125937964D01*
X147943856Y-126171925D01*
X147924351Y-126544913D01*
X147914376Y-127068360D01*
X147912667Y-127482600D01*
X147912667Y-129032000D01*
X147912667Y-129032000D01*
G36*
X137051724Y-136567964D02*
X137063702Y-136617949D01*
X137156370Y-136821333D01*
X139144589Y-136821333D01*
X141132807Y-136821333D01*
X141225316Y-136461500D01*
X141305425Y-136158073D01*
X141401547Y-135804871D01*
X141443151Y-135655309D01*
X141568477Y-135208951D01*
X142355555Y-135220418D01*
X142355555Y-132164667D01*
X142679150Y-130873500D01*
X142791348Y-130427137D01*
X142889659Y-130038493D01*
X142966501Y-129737349D01*
X143014292Y-129553484D01*
X143025701Y-129512349D01*
X143052969Y-129568176D01*
X143115156Y-129755237D01*
X143203045Y-130041286D01*
X143307422Y-130394075D01*
X143419070Y-130781357D01*
X143528774Y-131170886D01*
X143627319Y-131530414D01*
X143705489Y-131827696D01*
X143754069Y-132030484D01*
X143765541Y-132101167D01*
X143686700Y-132130150D01*
X143477967Y-132152195D01*
X143178747Y-132163754D01*
X143059778Y-132164667D01*
X142355555Y-132164667D01*
X142355555Y-135220418D01*
X143148822Y-135231976D01*
X144729166Y-135255000D01*
X144969463Y-136038167D01*
X145209761Y-136821333D01*
X147198029Y-136821333D01*
X149186297Y-136821333D01*
X149274648Y-136627425D01*
X149285024Y-136568461D01*
X149275544Y-136467985D01*
X149242486Y-136315096D01*
X149182131Y-136098893D01*
X149090756Y-135808476D01*
X148964642Y-135432943D01*
X148800068Y-134961393D01*
X148593313Y-134382926D01*
X148340656Y-133686641D01*
X148038377Y-132861637D01*
X147682754Y-131897013D01*
X147389000Y-131102925D01*
X145415000Y-125772333D01*
X142966723Y-125772333D01*
X140518445Y-125772333D01*
X138744740Y-131093449D01*
X138387444Y-132166965D01*
X138081136Y-133091428D01*
X137822380Y-133878133D01*
X137607738Y-134538376D01*
X137433772Y-135083453D01*
X137297047Y-135524658D01*
X137194125Y-135873289D01*
X137121569Y-136140639D01*
X137075941Y-136338004D01*
X137053806Y-136476681D01*
X137051724Y-136567964D01*
X137051724Y-136567964D01*
X137051724Y-136567964D01*
G37*
X137051724Y-136567964D02*
X137063702Y-136617949D01*
X137156370Y-136821333D01*
X139144589Y-136821333D01*
X141132807Y-136821333D01*
X141225316Y-136461500D01*
X141305425Y-136158073D01*
X141401547Y-135804871D01*
X141443151Y-135655309D01*
X141568477Y-135208951D01*
X142355555Y-135220418D01*
X142355555Y-132164667D01*
X142679150Y-130873500D01*
X142791348Y-130427137D01*
X142889659Y-130038493D01*
X142966501Y-129737349D01*
X143014292Y-129553484D01*
X143025701Y-129512349D01*
X143052969Y-129568176D01*
X143115156Y-129755237D01*
X143203045Y-130041286D01*
X143307422Y-130394075D01*
X143419070Y-130781357D01*
X143528774Y-131170886D01*
X143627319Y-131530414D01*
X143705489Y-131827696D01*
X143754069Y-132030484D01*
X143765541Y-132101167D01*
X143686700Y-132130150D01*
X143477967Y-132152195D01*
X143178747Y-132163754D01*
X143059778Y-132164667D01*
X142355555Y-132164667D01*
X142355555Y-135220418D01*
X143148822Y-135231976D01*
X144729166Y-135255000D01*
X144969463Y-136038167D01*
X145209761Y-136821333D01*
X147198029Y-136821333D01*
X149186297Y-136821333D01*
X149274648Y-136627425D01*
X149285024Y-136568461D01*
X149275544Y-136467985D01*
X149242486Y-136315096D01*
X149182131Y-136098893D01*
X149090756Y-135808476D01*
X148964642Y-135432943D01*
X148800068Y-134961393D01*
X148593313Y-134382926D01*
X148340656Y-133686641D01*
X148038377Y-132861637D01*
X147682754Y-131897013D01*
X147389000Y-131102925D01*
X145415000Y-125772333D01*
X142966723Y-125772333D01*
X140518445Y-125772333D01*
X138744740Y-131093449D01*
X138387444Y-132166965D01*
X138081136Y-133091428D01*
X137822380Y-133878133D01*
X137607738Y-134538376D01*
X137433772Y-135083453D01*
X137297047Y-135524658D01*
X137194125Y-135873289D01*
X137121569Y-136140639D01*
X137075941Y-136338004D01*
X137053806Y-136476681D01*
X137051724Y-136567964D01*
X137051724Y-136567964D01*
G36*
X113007652Y-126864918D02*
X113007795Y-127283984D01*
X113012100Y-127808666D01*
X113020514Y-128451293D01*
X113032986Y-129224192D01*
X113049462Y-130139688D01*
X113069891Y-131210111D01*
X113073642Y-131402667D01*
X113092097Y-132340234D01*
X113109838Y-133226517D01*
X113126560Y-134047220D01*
X113141958Y-134788048D01*
X113155725Y-135434705D01*
X113167557Y-135972896D01*
X113177149Y-136388324D01*
X113184193Y-136666695D01*
X113188387Y-136793713D01*
X113188964Y-136800167D01*
X113272721Y-136806280D01*
X113501631Y-136811701D01*
X113851514Y-136816160D01*
X114298191Y-136819388D01*
X114817482Y-136821116D01*
X115087400Y-136821333D01*
X115771076Y-136818177D01*
X116297822Y-136808291D01*
X116679931Y-136791046D01*
X116929696Y-136765815D01*
X117059412Y-136731970D01*
X117077067Y-136719733D01*
X117113687Y-136624464D01*
X117141500Y-136412924D01*
X117161134Y-136072822D01*
X117173217Y-135591863D01*
X117178376Y-134957755D01*
X117178667Y-134730067D01*
X117178667Y-132842000D01*
X118520910Y-132842000D01*
X119863153Y-132842000D01*
X119917910Y-133489774D01*
X119937493Y-133810645D01*
X119953978Y-134250794D01*
X119965989Y-134760173D01*
X119972147Y-135288734D01*
X119972667Y-135479441D01*
X119972667Y-136821333D01*
X121864545Y-136821333D01*
X122481920Y-136820367D01*
X122952171Y-136816316D01*
X123297500Y-136807452D01*
X123540112Y-136792046D01*
X123702210Y-136768372D01*
X123805997Y-136734701D01*
X123873676Y-136689304D01*
X123899776Y-136662929D01*
X123932237Y-136617484D01*
X123958766Y-136550006D01*
X123979545Y-136446136D01*
X123994762Y-136291515D01*
X124004600Y-136071782D01*
X124009244Y-135772579D01*
X124008880Y-135379545D01*
X124003692Y-134878322D01*
X123993864Y-134254549D01*
X123979583Y-133493868D01*
X123961033Y-132581918D01*
X123955649Y-132323763D01*
X123937850Y-131448335D01*
X123921249Y-130583853D01*
X123906220Y-129753267D01*
X123893138Y-128979527D01*
X123882376Y-128285584D01*
X123874310Y-127694387D01*
X123869314Y-127228888D01*
X123867751Y-126936500D01*
X123867334Y-125730000D01*
X121930367Y-125730000D01*
X121291616Y-125731583D01*
X120801895Y-125737173D01*
X120440925Y-125748034D01*
X120188425Y-125765428D01*
X120024117Y-125790617D01*
X119927720Y-125824865D01*
X119887852Y-125857179D01*
X119850861Y-125948160D01*
X119825357Y-126129182D01*
X119810706Y-126417602D01*
X119806273Y-126830781D01*
X119811423Y-127386076D01*
X119818188Y-127762179D01*
X119854073Y-129540000D01*
X118483462Y-129540000D01*
X117112851Y-129540000D01*
X117050737Y-127635000D01*
X116988624Y-125730000D01*
X115107101Y-125730000D01*
X114489028Y-125731148D01*
X114018358Y-125735672D01*
X113673171Y-125745185D01*
X113431544Y-125761306D01*
X113271558Y-125785648D01*
X113171291Y-125819829D01*
X113108822Y-125865464D01*
X113097134Y-125878167D01*
X113071204Y-125922399D01*
X113049750Y-125998285D01*
X113032720Y-126118153D01*
X113020062Y-126294330D01*
X113011724Y-126539143D01*
X113007652Y-126864918D01*
X113007652Y-126864918D01*
X113007652Y-126864918D01*
G37*
X113007652Y-126864918D02*
X113007795Y-127283984D01*
X113012100Y-127808666D01*
X113020514Y-128451293D01*
X113032986Y-129224192D01*
X113049462Y-130139688D01*
X113069891Y-131210111D01*
X113073642Y-131402667D01*
X113092097Y-132340234D01*
X113109838Y-133226517D01*
X113126560Y-134047220D01*
X113141958Y-134788048D01*
X113155725Y-135434705D01*
X113167557Y-135972896D01*
X113177149Y-136388324D01*
X113184193Y-136666695D01*
X113188387Y-136793713D01*
X113188964Y-136800167D01*
X113272721Y-136806280D01*
X113501631Y-136811701D01*
X113851514Y-136816160D01*
X114298191Y-136819388D01*
X114817482Y-136821116D01*
X115087400Y-136821333D01*
X115771076Y-136818177D01*
X116297822Y-136808291D01*
X116679931Y-136791046D01*
X116929696Y-136765815D01*
X117059412Y-136731970D01*
X117077067Y-136719733D01*
X117113687Y-136624464D01*
X117141500Y-136412924D01*
X117161134Y-136072822D01*
X117173217Y-135591863D01*
X117178376Y-134957755D01*
X117178667Y-134730067D01*
X117178667Y-132842000D01*
X118520910Y-132842000D01*
X119863153Y-132842000D01*
X119917910Y-133489774D01*
X119937493Y-133810645D01*
X119953978Y-134250794D01*
X119965989Y-134760173D01*
X119972147Y-135288734D01*
X119972667Y-135479441D01*
X119972667Y-136821333D01*
X121864545Y-136821333D01*
X122481920Y-136820367D01*
X122952171Y-136816316D01*
X123297500Y-136807452D01*
X123540112Y-136792046D01*
X123702210Y-136768372D01*
X123805997Y-136734701D01*
X123873676Y-136689304D01*
X123899776Y-136662929D01*
X123932237Y-136617484D01*
X123958766Y-136550006D01*
X123979545Y-136446136D01*
X123994762Y-136291515D01*
X124004600Y-136071782D01*
X124009244Y-135772579D01*
X124008880Y-135379545D01*
X124003692Y-134878322D01*
X123993864Y-134254549D01*
X123979583Y-133493868D01*
X123961033Y-132581918D01*
X123955649Y-132323763D01*
X123937850Y-131448335D01*
X123921249Y-130583853D01*
X123906220Y-129753267D01*
X123893138Y-128979527D01*
X123882376Y-128285584D01*
X123874310Y-127694387D01*
X123869314Y-127228888D01*
X123867751Y-126936500D01*
X123867334Y-125730000D01*
X121930367Y-125730000D01*
X121291616Y-125731583D01*
X120801895Y-125737173D01*
X120440925Y-125748034D01*
X120188425Y-125765428D01*
X120024117Y-125790617D01*
X119927720Y-125824865D01*
X119887852Y-125857179D01*
X119850861Y-125948160D01*
X119825357Y-126129182D01*
X119810706Y-126417602D01*
X119806273Y-126830781D01*
X119811423Y-127386076D01*
X119818188Y-127762179D01*
X119854073Y-129540000D01*
X118483462Y-129540000D01*
X117112851Y-129540000D01*
X117050737Y-127635000D01*
X116988624Y-125730000D01*
X115107101Y-125730000D01*
X114489028Y-125731148D01*
X114018358Y-125735672D01*
X113673171Y-125745185D01*
X113431544Y-125761306D01*
X113271558Y-125785648D01*
X113171291Y-125819829D01*
X113108822Y-125865464D01*
X113097134Y-125878167D01*
X113071204Y-125922399D01*
X113049750Y-125998285D01*
X113032720Y-126118153D01*
X113020062Y-126294330D01*
X113011724Y-126539143D01*
X113007652Y-126864918D01*
X113007652Y-126864918D01*
G36*
X95625777Y-126863680D02*
X95627660Y-127293879D01*
X95634520Y-127840052D01*
X95646142Y-128517117D01*
X95662312Y-129339996D01*
X95673543Y-129882915D01*
X95690855Y-130744312D01*
X95706984Y-131611940D01*
X95721516Y-132458695D01*
X95734037Y-133257479D01*
X95744130Y-133981188D01*
X95751383Y-134602722D01*
X95755381Y-135094980D01*
X95756021Y-135276167D01*
X95758000Y-136821333D01*
X97508167Y-136821333D01*
X98110849Y-136819632D01*
X98566768Y-136813455D01*
X98898471Y-136801188D01*
X99128504Y-136781218D01*
X99279414Y-136751933D01*
X99373746Y-136711719D01*
X99408555Y-136685385D01*
X99448365Y-136639732D01*
X99480029Y-136571119D01*
X99504159Y-136462367D01*
X99521366Y-136296297D01*
X99532263Y-136055733D01*
X99537462Y-135723494D01*
X99537574Y-135282403D01*
X99533211Y-134715282D01*
X99524986Y-134004952D01*
X99519393Y-133573885D01*
X99480009Y-130598333D01*
X100302990Y-133709833D01*
X101125971Y-136821333D01*
X103520373Y-136821333D01*
X105914774Y-136821333D01*
X105959311Y-136630833D01*
X106049669Y-136240456D01*
X106160250Y-135756526D01*
X106286063Y-135201473D01*
X106422114Y-134597731D01*
X106563408Y-133967733D01*
X106704953Y-133333910D01*
X106841756Y-132718696D01*
X106968823Y-132144522D01*
X107081161Y-131633821D01*
X107173777Y-131209027D01*
X107241677Y-130892570D01*
X107279867Y-130706884D01*
X107286363Y-130669076D01*
X107301327Y-130594940D01*
X107318289Y-130670570D01*
X107336470Y-130876426D01*
X107355090Y-131192963D01*
X107373372Y-131600639D01*
X107390537Y-132079910D01*
X107405806Y-132611234D01*
X107418401Y-133175068D01*
X107427543Y-133751868D01*
X107432454Y-134322092D01*
X107432524Y-134337908D01*
X107436978Y-134939260D01*
X107444629Y-135488865D01*
X107454856Y-135962744D01*
X107467037Y-136336917D01*
X107480551Y-136587404D01*
X107493392Y-136687408D01*
X107530049Y-136733357D01*
X107614226Y-136767634D01*
X107767476Y-136791876D01*
X108011350Y-136807718D01*
X108367401Y-136816795D01*
X108857180Y-136820743D01*
X109258270Y-136821333D01*
X109843033Y-136820182D01*
X110281969Y-136815392D01*
X110598575Y-136804958D01*
X110816350Y-136786876D01*
X110958791Y-136759142D01*
X111049397Y-136719751D01*
X111111665Y-136666698D01*
X111115109Y-136662929D01*
X111147571Y-136617484D01*
X111174099Y-136550006D01*
X111194879Y-136446136D01*
X111210095Y-136291515D01*
X111219933Y-136071782D01*
X111224577Y-135772579D01*
X111224213Y-135379545D01*
X111219025Y-134878322D01*
X111209198Y-134254549D01*
X111194917Y-133493868D01*
X111176366Y-132581918D01*
X111170982Y-132323763D01*
X111153184Y-131448335D01*
X111136583Y-130583853D01*
X111121554Y-129753267D01*
X111108471Y-128979527D01*
X111097710Y-128285584D01*
X111089643Y-127694387D01*
X111084647Y-127228888D01*
X111083084Y-126936500D01*
X111082667Y-125730000D01*
X108013500Y-125730215D01*
X104944334Y-125730429D01*
X104445624Y-127952715D01*
X104296365Y-128622322D01*
X104144886Y-129309965D01*
X103999710Y-129976364D01*
X103869361Y-130582240D01*
X103762363Y-131088315D01*
X103708468Y-131349600D01*
X103620510Y-131773502D01*
X103541985Y-132134540D01*
X103479866Y-132401933D01*
X103441124Y-132544898D01*
X103434317Y-132559906D01*
X103402676Y-132502137D01*
X103353015Y-132316540D01*
X103295681Y-132042227D01*
X103291572Y-132020306D01*
X103246062Y-131808678D01*
X103163843Y-131459294D01*
X103051530Y-130998094D01*
X102915738Y-130451020D01*
X102763082Y-129844013D01*
X102600176Y-129203014D01*
X102433635Y-128553964D01*
X102270075Y-127922803D01*
X102116109Y-127335474D01*
X101978354Y-126817917D01*
X101863422Y-126396073D01*
X101800924Y-126174500D01*
X101672652Y-125730000D01*
X98770782Y-125730000D01*
X97989475Y-125730534D01*
X97360087Y-125732717D01*
X96865206Y-125737422D01*
X96487417Y-125745523D01*
X96209308Y-125757893D01*
X96013467Y-125775405D01*
X95882480Y-125798931D01*
X95798935Y-125829345D01*
X95745419Y-125867520D01*
X95730978Y-125882415D01*
X95698504Y-125930090D01*
X95672292Y-126004220D01*
X95652127Y-126119724D01*
X95637796Y-126291522D01*
X95629084Y-126534534D01*
X95625777Y-126863680D01*
X95625777Y-126863680D01*
X95625777Y-126863680D01*
G37*
X95625777Y-126863680D02*
X95627660Y-127293879D01*
X95634520Y-127840052D01*
X95646142Y-128517117D01*
X95662312Y-129339996D01*
X95673543Y-129882915D01*
X95690855Y-130744312D01*
X95706984Y-131611940D01*
X95721516Y-132458695D01*
X95734037Y-133257479D01*
X95744130Y-133981188D01*
X95751383Y-134602722D01*
X95755381Y-135094980D01*
X95756021Y-135276167D01*
X95758000Y-136821333D01*
X97508167Y-136821333D01*
X98110849Y-136819632D01*
X98566768Y-136813455D01*
X98898471Y-136801188D01*
X99128504Y-136781218D01*
X99279414Y-136751933D01*
X99373746Y-136711719D01*
X99408555Y-136685385D01*
X99448365Y-136639732D01*
X99480029Y-136571119D01*
X99504159Y-136462367D01*
X99521366Y-136296297D01*
X99532263Y-136055733D01*
X99537462Y-135723494D01*
X99537574Y-135282403D01*
X99533211Y-134715282D01*
X99524986Y-134004952D01*
X99519393Y-133573885D01*
X99480009Y-130598333D01*
X100302990Y-133709833D01*
X101125971Y-136821333D01*
X103520373Y-136821333D01*
X105914774Y-136821333D01*
X105959311Y-136630833D01*
X106049669Y-136240456D01*
X106160250Y-135756526D01*
X106286063Y-135201473D01*
X106422114Y-134597731D01*
X106563408Y-133967733D01*
X106704953Y-133333910D01*
X106841756Y-132718696D01*
X106968823Y-132144522D01*
X107081161Y-131633821D01*
X107173777Y-131209027D01*
X107241677Y-130892570D01*
X107279867Y-130706884D01*
X107286363Y-130669076D01*
X107301327Y-130594940D01*
X107318289Y-130670570D01*
X107336470Y-130876426D01*
X107355090Y-131192963D01*
X107373372Y-131600639D01*
X107390537Y-132079910D01*
X107405806Y-132611234D01*
X107418401Y-133175068D01*
X107427543Y-133751868D01*
X107432454Y-134322092D01*
X107432524Y-134337908D01*
X107436978Y-134939260D01*
X107444629Y-135488865D01*
X107454856Y-135962744D01*
X107467037Y-136336917D01*
X107480551Y-136587404D01*
X107493392Y-136687408D01*
X107530049Y-136733357D01*
X107614226Y-136767634D01*
X107767476Y-136791876D01*
X108011350Y-136807718D01*
X108367401Y-136816795D01*
X108857180Y-136820743D01*
X109258270Y-136821333D01*
X109843033Y-136820182D01*
X110281969Y-136815392D01*
X110598575Y-136804958D01*
X110816350Y-136786876D01*
X110958791Y-136759142D01*
X111049397Y-136719751D01*
X111111665Y-136666698D01*
X111115109Y-136662929D01*
X111147571Y-136617484D01*
X111174099Y-136550006D01*
X111194879Y-136446136D01*
X111210095Y-136291515D01*
X111219933Y-136071782D01*
X111224577Y-135772579D01*
X111224213Y-135379545D01*
X111219025Y-134878322D01*
X111209198Y-134254549D01*
X111194917Y-133493868D01*
X111176366Y-132581918D01*
X111170982Y-132323763D01*
X111153184Y-131448335D01*
X111136583Y-130583853D01*
X111121554Y-129753267D01*
X111108471Y-128979527D01*
X111097710Y-128285584D01*
X111089643Y-127694387D01*
X111084647Y-127228888D01*
X111083084Y-126936500D01*
X111082667Y-125730000D01*
X108013500Y-125730215D01*
X104944334Y-125730429D01*
X104445624Y-127952715D01*
X104296365Y-128622322D01*
X104144886Y-129309965D01*
X103999710Y-129976364D01*
X103869361Y-130582240D01*
X103762363Y-131088315D01*
X103708468Y-131349600D01*
X103620510Y-131773502D01*
X103541985Y-132134540D01*
X103479866Y-132401933D01*
X103441124Y-132544898D01*
X103434317Y-132559906D01*
X103402676Y-132502137D01*
X103353015Y-132316540D01*
X103295681Y-132042227D01*
X103291572Y-132020306D01*
X103246062Y-131808678D01*
X103163843Y-131459294D01*
X103051530Y-130998094D01*
X102915738Y-130451020D01*
X102763082Y-129844013D01*
X102600176Y-129203014D01*
X102433635Y-128553964D01*
X102270075Y-127922803D01*
X102116109Y-127335474D01*
X101978354Y-126817917D01*
X101863422Y-126396073D01*
X101800924Y-126174500D01*
X101672652Y-125730000D01*
X98770782Y-125730000D01*
X97989475Y-125730534D01*
X97360087Y-125732717D01*
X96865206Y-125737422D01*
X96487417Y-125745523D01*
X96209308Y-125757893D01*
X96013467Y-125775405D01*
X95882480Y-125798931D01*
X95798935Y-125829345D01*
X95745419Y-125867520D01*
X95730978Y-125882415D01*
X95698504Y-125930090D01*
X95672292Y-126004220D01*
X95652127Y-126119724D01*
X95637796Y-126291522D01*
X95629084Y-126534534D01*
X95625777Y-126863680D01*
X95625777Y-126863680D01*
G36*
X95504001Y-116964245D02*
X95504131Y-118237414D01*
X95504672Y-119352022D01*
X95505852Y-120318839D01*
X95507897Y-121148637D01*
X95511034Y-121852187D01*
X95515489Y-122440260D01*
X95521489Y-122923628D01*
X95529262Y-123313062D01*
X95539032Y-123619334D01*
X95551029Y-123853215D01*
X95565477Y-124025475D01*
X95582604Y-124146887D01*
X95602637Y-124228222D01*
X95625802Y-124280251D01*
X95652326Y-124313746D01*
X95658834Y-124319878D01*
X95691958Y-124341070D01*
X95747934Y-124360027D01*
X95835761Y-124376873D01*
X95964436Y-124391730D01*
X96142958Y-124404722D01*
X96380326Y-124415972D01*
X96685536Y-124425603D01*
X97067588Y-124433738D01*
X97535479Y-124440502D01*
X98098208Y-124446016D01*
X98764773Y-124450404D01*
X99544172Y-124453789D01*
X100445404Y-124456295D01*
X101477466Y-124458045D01*
X102649357Y-124459162D01*
X103970076Y-124459770D01*
X105448619Y-124459990D01*
X105890378Y-124460000D01*
X107409102Y-124459917D01*
X108767559Y-124459579D01*
X109974817Y-124458846D01*
X111039943Y-124457582D01*
X111972004Y-124455649D01*
X112780067Y-124452911D01*
X113473199Y-124449229D01*
X114060467Y-124444465D01*
X114550938Y-124438484D01*
X114953680Y-124431147D01*
X115277758Y-124422317D01*
X115532241Y-124411856D01*
X115726196Y-124399628D01*
X115868688Y-124385494D01*
X115968787Y-124369317D01*
X116035557Y-124350960D01*
X116078068Y-124330286D01*
X116105384Y-124307156D01*
X116107212Y-124305166D01*
X116131691Y-124267651D01*
X116153165Y-124205647D01*
X116171828Y-124108629D01*
X116187875Y-123966070D01*
X116201500Y-123767442D01*
X116212898Y-123502219D01*
X116222263Y-123159875D01*
X116229789Y-122729882D01*
X116235671Y-122201713D01*
X116240103Y-121564841D01*
X116243280Y-120808740D01*
X116245397Y-119922883D01*
X116246647Y-118896743D01*
X116247224Y-117719793D01*
X116247334Y-116718521D01*
X116247334Y-109286708D01*
X115645032Y-108470187D01*
X114635147Y-106970627D01*
X113769631Y-105403243D01*
X113045745Y-103760495D01*
X112460754Y-102034844D01*
X112011919Y-100218753D01*
X111696504Y-98304682D01*
X111586437Y-97291693D01*
X111548678Y-96718889D01*
X111526676Y-96035864D01*
X111519624Y-95279862D01*
X111526720Y-94488126D01*
X111547156Y-93697901D01*
X111580128Y-92946431D01*
X111624831Y-92270960D01*
X111680460Y-91708732D01*
X111712023Y-91482333D01*
X111997462Y-90019380D01*
X112365089Y-88702346D01*
X112814606Y-87531663D01*
X113345715Y-86507761D01*
X113958119Y-85631072D01*
X114651518Y-84902026D01*
X115425615Y-84321053D01*
X116280112Y-83888586D01*
X117153047Y-83618608D01*
X118059832Y-83495537D01*
X118986573Y-83521214D01*
X119574954Y-83618608D01*
X120505575Y-83911760D01*
X121355457Y-84353673D01*
X122124505Y-84944209D01*
X122812624Y-85683232D01*
X123419720Y-86570606D01*
X123945699Y-87606194D01*
X124390467Y-88789860D01*
X124753928Y-90121467D01*
X125017264Y-91482333D01*
X125081837Y-92002266D01*
X125133516Y-92655731D01*
X125171835Y-93407381D01*
X125196331Y-94221872D01*
X125206541Y-95063858D01*
X125202002Y-95897995D01*
X125182249Y-96688937D01*
X125146820Y-97401339D01*
X125101934Y-97938730D01*
X124837954Y-99814275D01*
X124452200Y-101581880D01*
X123938934Y-103256935D01*
X123292419Y-104854827D01*
X122506917Y-106390945D01*
X121576690Y-107880675D01*
X121190203Y-108429360D01*
X120565334Y-109289721D01*
X120565334Y-116734738D01*
X120565463Y-118029455D01*
X120565995Y-119165432D01*
X120567143Y-120153259D01*
X120569123Y-121003530D01*
X120572148Y-121726836D01*
X120576435Y-122333770D01*
X120582196Y-122834923D01*
X120589647Y-123240889D01*
X120599003Y-123562259D01*
X120610479Y-123809626D01*
X120624288Y-123993581D01*
X120640645Y-124124717D01*
X120659766Y-124213626D01*
X120681864Y-124270900D01*
X120707155Y-124307132D01*
X120719020Y-124318839D01*
X120741616Y-124331556D01*
X120783920Y-124343479D01*
X120851210Y-124354635D01*
X120948760Y-124365047D01*
X121081847Y-124374743D01*
X121255747Y-124383748D01*
X121475735Y-124392086D01*
X121747088Y-124399785D01*
X122075081Y-124406869D01*
X122464990Y-124413364D01*
X122922091Y-124419295D01*
X123451660Y-124424689D01*
X124058973Y-124429570D01*
X124749306Y-124433964D01*
X125527934Y-124437897D01*
X126400135Y-124441394D01*
X127371182Y-124444481D01*
X128446353Y-124447184D01*
X129630924Y-124449528D01*
X130930169Y-124451538D01*
X132349366Y-124453241D01*
X133893790Y-124454661D01*
X135568716Y-124455824D01*
X137379422Y-124456756D01*
X139331182Y-124457483D01*
X141429272Y-124458030D01*
X143678970Y-124458422D01*
X146085549Y-124458685D01*
X148654287Y-124458845D01*
X149619636Y-124458882D01*
X152240066Y-124458948D01*
X154696485Y-124458945D01*
X156994215Y-124458845D01*
X159138576Y-124458620D01*
X161134892Y-124458242D01*
X162988484Y-124457682D01*
X164704674Y-124456912D01*
X166288783Y-124455904D01*
X167746135Y-124454628D01*
X169082050Y-124453058D01*
X170301850Y-124451164D01*
X171410858Y-124448918D01*
X172414395Y-124446293D01*
X173317783Y-124443259D01*
X174126344Y-124439788D01*
X174845399Y-124435852D01*
X175480272Y-124431423D01*
X176036283Y-124426471D01*
X176518755Y-124420970D01*
X176933009Y-124414890D01*
X177284367Y-124408204D01*
X177578151Y-124400882D01*
X177819683Y-124392897D01*
X178014286Y-124384221D01*
X178167279Y-124374824D01*
X178283987Y-124364679D01*
X178369730Y-124353757D01*
X178429830Y-124342029D01*
X178469610Y-124329469D01*
X178494391Y-124316046D01*
X178506616Y-124305087D01*
X178530868Y-124267867D01*
X178552165Y-124206253D01*
X178570694Y-124109820D01*
X178586643Y-123968141D01*
X178600198Y-123770792D01*
X178611547Y-123507345D01*
X178620878Y-123167375D01*
X178628376Y-122740457D01*
X178634230Y-122216164D01*
X178638627Y-121584070D01*
X178641754Y-120833750D01*
X178643798Y-119954777D01*
X178644946Y-118936725D01*
X178645386Y-117769169D01*
X178645330Y-116579333D01*
X178643993Y-109008333D01*
X169618131Y-96096667D01*
X168689111Y-94767438D01*
X167786035Y-93474841D01*
X166913696Y-92225760D01*
X166076889Y-91027077D01*
X165280407Y-89885675D01*
X164529045Y-88808436D01*
X163827597Y-87802243D01*
X163180855Y-86873979D01*
X162593616Y-86030526D01*
X162070672Y-85278767D01*
X161616817Y-84625585D01*
X161236845Y-84077863D01*
X160935551Y-83642483D01*
X160717729Y-83326327D01*
X160588172Y-83136279D01*
X160551076Y-83079167D01*
X160574649Y-83061333D01*
X160665536Y-83045492D01*
X160831968Y-83031539D01*
X161082172Y-83019374D01*
X161424378Y-83008893D01*
X161866815Y-82999993D01*
X162417712Y-82992574D01*
X163085296Y-82986531D01*
X163877799Y-82981764D01*
X164803448Y-82978168D01*
X165870472Y-82975643D01*
X167087100Y-82974084D01*
X168461562Y-82973391D01*
X169053342Y-82973333D01*
X170522384Y-82972868D01*
X171829669Y-82971413D01*
X172982772Y-82968879D01*
X173989268Y-82965178D01*
X174856730Y-82960219D01*
X175592735Y-82953915D01*
X176204855Y-82946176D01*
X176700666Y-82936912D01*
X177087742Y-82926036D01*
X177373658Y-82913459D01*
X177565987Y-82899090D01*
X177672306Y-82882841D01*
X177698401Y-82871733D01*
X177717357Y-82812766D01*
X177734025Y-82670686D01*
X177748519Y-82437309D01*
X177760952Y-82104452D01*
X177771439Y-81663929D01*
X177780092Y-81107558D01*
X177787026Y-80427154D01*
X177792354Y-79614534D01*
X177796190Y-78661514D01*
X177798648Y-77559909D01*
X177799842Y-76301536D01*
X177800000Y-75561189D01*
X177799870Y-74288634D01*
X177799328Y-73174636D01*
X177798146Y-72208418D01*
X177796099Y-71379204D01*
X177792958Y-70676218D01*
X177788497Y-70088682D01*
X177782488Y-69605822D01*
X177774706Y-69216860D01*
X177764922Y-68911019D01*
X177752909Y-68677525D01*
X177738442Y-68505599D01*
X177721291Y-68384466D01*
X177701231Y-68303348D01*
X177678035Y-68251471D01*
X177651475Y-68218057D01*
X177645167Y-68212122D01*
X177618349Y-68195780D01*
X177570957Y-68180752D01*
X177496173Y-68166983D01*
X177387178Y-68154419D01*
X177237153Y-68143004D01*
X177039280Y-68132686D01*
X176786740Y-68123408D01*
X176472716Y-68115116D01*
X176090387Y-68107756D01*
X175632937Y-68101274D01*
X175093546Y-68095614D01*
X174465396Y-68090722D01*
X173741669Y-68086544D01*
X172915545Y-68083025D01*
X171980207Y-68080110D01*
X170928836Y-68077745D01*
X169754613Y-68075876D01*
X168450720Y-68074447D01*
X167010339Y-68073404D01*
X165426650Y-68072692D01*
X163692836Y-68072258D01*
X161802078Y-68072046D01*
X160136100Y-68072000D01*
X158018736Y-68072215D01*
X156065291Y-68072880D01*
X154270350Y-68074027D01*
X152628501Y-68075688D01*
X151134330Y-68077893D01*
X149782423Y-68080676D01*
X148567365Y-68084066D01*
X147483744Y-68088096D01*
X146526145Y-68092797D01*
X145689155Y-68098200D01*
X144967360Y-68104338D01*
X144355345Y-68111241D01*
X143847698Y-68118941D01*
X143439004Y-68127470D01*
X143123850Y-68136859D01*
X142896821Y-68147139D01*
X142752505Y-68158343D01*
X142685486Y-68170501D01*
X142680267Y-68173600D01*
X142661841Y-68231710D01*
X142645574Y-68372274D01*
X142631362Y-68603259D01*
X142619100Y-68932635D01*
X142608684Y-69368372D01*
X142600009Y-69918438D01*
X142592971Y-70590803D01*
X142587465Y-71393436D01*
X142583386Y-72334307D01*
X142580631Y-73421383D01*
X142579094Y-74662636D01*
X142578667Y-75920578D01*
X142578667Y-83565956D01*
X151595667Y-96514447D01*
X152522368Y-97845451D01*
X153422805Y-99139227D01*
X154292227Y-100388930D01*
X155125887Y-101587716D01*
X155919035Y-102728740D01*
X156666922Y-103805157D01*
X157364800Y-104810123D01*
X158007918Y-105736791D01*
X158591529Y-106578319D01*
X159110884Y-107327860D01*
X159561233Y-107978571D01*
X159937827Y-108523606D01*
X160235917Y-108956120D01*
X160450755Y-109269270D01*
X160577592Y-109456209D01*
X160612667Y-109510802D01*
X160529494Y-109516104D01*
X160285949Y-109521241D01*
X159890993Y-109526182D01*
X159353588Y-109530895D01*
X158682695Y-109535349D01*
X157887275Y-109539511D01*
X156976289Y-109543350D01*
X155958700Y-109546835D01*
X154843467Y-109549933D01*
X153639553Y-109552614D01*
X152355918Y-109554845D01*
X151001525Y-109556594D01*
X149585333Y-109557831D01*
X148116306Y-109558523D01*
X147066000Y-109558667D01*
X145565448Y-109558362D01*
X144111487Y-109557472D01*
X142713077Y-109556027D01*
X141379182Y-109554062D01*
X140118761Y-109551609D01*
X138940776Y-109548700D01*
X137854189Y-109545369D01*
X136867960Y-109541647D01*
X135991051Y-109537569D01*
X135232424Y-109533166D01*
X134601039Y-109528472D01*
X134105858Y-109523519D01*
X133755842Y-109518340D01*
X133559953Y-109512968D01*
X133519334Y-109509127D01*
X133571671Y-109427684D01*
X133711641Y-109251854D01*
X133913680Y-109013191D01*
X134016633Y-108895294D01*
X135352981Y-107266004D01*
X136546908Y-105574915D01*
X137593218Y-103831546D01*
X138486714Y-102045420D01*
X139222198Y-100226057D01*
X139794475Y-98382977D01*
X139830830Y-98243439D01*
X140004546Y-97542600D01*
X140146331Y-96904405D01*
X140259242Y-96299582D01*
X140346337Y-95698857D01*
X140410672Y-95072958D01*
X140455305Y-94392614D01*
X140483293Y-93628551D01*
X140497693Y-92751498D01*
X140501568Y-91821000D01*
X140498102Y-90825327D01*
X140485525Y-89967501D01*
X140461287Y-89216159D01*
X140422833Y-88539941D01*
X140367611Y-87907487D01*
X140293069Y-87287436D01*
X140196654Y-86648427D01*
X140075812Y-85959099D01*
X139985675Y-85483235D01*
X139533841Y-83535280D01*
X138953867Y-81693405D01*
X138248026Y-79960127D01*
X137418591Y-78337963D01*
X136467838Y-76829431D01*
X135398038Y-75437047D01*
X134211466Y-74163330D01*
X132910396Y-73010795D01*
X131497100Y-71981960D01*
X129973854Y-71079342D01*
X128342930Y-70305458D01*
X126606601Y-69662826D01*
X125370536Y-69303053D01*
X124030527Y-68989227D01*
X122700943Y-68754031D01*
X121339360Y-68592419D01*
X119903358Y-68499346D01*
X118364000Y-68469764D01*
X116318296Y-68529909D01*
X114381035Y-68711964D01*
X112540669Y-69018360D01*
X110785647Y-69451531D01*
X109104421Y-70013906D01*
X107485439Y-70707917D01*
X107294920Y-70800099D01*
X105727987Y-71657852D01*
X104276595Y-72639053D01*
X102941296Y-73742841D01*
X101722645Y-74968360D01*
X100621195Y-76314750D01*
X99637501Y-77781153D01*
X98772114Y-79366710D01*
X98025590Y-81070562D01*
X97398482Y-82891852D01*
X96891344Y-84829721D01*
X96504728Y-86883309D01*
X96386829Y-87714667D01*
X96331553Y-88249967D01*
X96284594Y-88916794D01*
X96246619Y-89679427D01*
X96218297Y-90502147D01*
X96200292Y-91349233D01*
X96193273Y-92184965D01*
X96197905Y-92973623D01*
X96214856Y-93679488D01*
X96244793Y-94266839D01*
X96260835Y-94463607D01*
X96522897Y-96426042D01*
X96936764Y-98331068D01*
X97504779Y-100183937D01*
X98229288Y-101989900D01*
X99112633Y-103754211D01*
X100157157Y-105482121D01*
X101365205Y-107178882D01*
X102618784Y-108712000D01*
X103317716Y-109516333D01*
X99524305Y-109538381D01*
X98500089Y-109546053D01*
X97640044Y-109556293D01*
X96939025Y-109569253D01*
X96391885Y-109585086D01*
X95993481Y-109603945D01*
X95738666Y-109625983D01*
X95622295Y-109651354D01*
X95617447Y-109654581D01*
X95596912Y-109696816D01*
X95578899Y-109793738D01*
X95563255Y-109955065D01*
X95549832Y-110190513D01*
X95538477Y-110509801D01*
X95529040Y-110922645D01*
X95521370Y-111438762D01*
X95515317Y-112067871D01*
X95510729Y-112819687D01*
X95507455Y-113703930D01*
X95505346Y-114730315D01*
X95504249Y-115908559D01*
X95504001Y-116964245D01*
X95504001Y-116964245D01*
X95504001Y-116964245D01*
G37*
X95504001Y-116964245D02*
X95504131Y-118237414D01*
X95504672Y-119352022D01*
X95505852Y-120318839D01*
X95507897Y-121148637D01*
X95511034Y-121852187D01*
X95515489Y-122440260D01*
X95521489Y-122923628D01*
X95529262Y-123313062D01*
X95539032Y-123619334D01*
X95551029Y-123853215D01*
X95565477Y-124025475D01*
X95582604Y-124146887D01*
X95602637Y-124228222D01*
X95625802Y-124280251D01*
X95652326Y-124313746D01*
X95658834Y-124319878D01*
X95691958Y-124341070D01*
X95747934Y-124360027D01*
X95835761Y-124376873D01*
X95964436Y-124391730D01*
X96142958Y-124404722D01*
X96380326Y-124415972D01*
X96685536Y-124425603D01*
X97067588Y-124433738D01*
X97535479Y-124440502D01*
X98098208Y-124446016D01*
X98764773Y-124450404D01*
X99544172Y-124453789D01*
X100445404Y-124456295D01*
X101477466Y-124458045D01*
X102649357Y-124459162D01*
X103970076Y-124459770D01*
X105448619Y-124459990D01*
X105890378Y-124460000D01*
X107409102Y-124459917D01*
X108767559Y-124459579D01*
X109974817Y-124458846D01*
X111039943Y-124457582D01*
X111972004Y-124455649D01*
X112780067Y-124452911D01*
X113473199Y-124449229D01*
X114060467Y-124444465D01*
X114550938Y-124438484D01*
X114953680Y-124431147D01*
X115277758Y-124422317D01*
X115532241Y-124411856D01*
X115726196Y-124399628D01*
X115868688Y-124385494D01*
X115968787Y-124369317D01*
X116035557Y-124350960D01*
X116078068Y-124330286D01*
X116105384Y-124307156D01*
X116107212Y-124305166D01*
X116131691Y-124267651D01*
X116153165Y-124205647D01*
X116171828Y-124108629D01*
X116187875Y-123966070D01*
X116201500Y-123767442D01*
X116212898Y-123502219D01*
X116222263Y-123159875D01*
X116229789Y-122729882D01*
X116235671Y-122201713D01*
X116240103Y-121564841D01*
X116243280Y-120808740D01*
X116245397Y-119922883D01*
X116246647Y-118896743D01*
X116247224Y-117719793D01*
X116247334Y-116718521D01*
X116247334Y-109286708D01*
X115645032Y-108470187D01*
X114635147Y-106970627D01*
X113769631Y-105403243D01*
X113045745Y-103760495D01*
X112460754Y-102034844D01*
X112011919Y-100218753D01*
X111696504Y-98304682D01*
X111586437Y-97291693D01*
X111548678Y-96718889D01*
X111526676Y-96035864D01*
X111519624Y-95279862D01*
X111526720Y-94488126D01*
X111547156Y-93697901D01*
X111580128Y-92946431D01*
X111624831Y-92270960D01*
X111680460Y-91708732D01*
X111712023Y-91482333D01*
X111997462Y-90019380D01*
X112365089Y-88702346D01*
X112814606Y-87531663D01*
X113345715Y-86507761D01*
X113958119Y-85631072D01*
X114651518Y-84902026D01*
X115425615Y-84321053D01*
X116280112Y-83888586D01*
X117153047Y-83618608D01*
X118059832Y-83495537D01*
X118986573Y-83521214D01*
X119574954Y-83618608D01*
X120505575Y-83911760D01*
X121355457Y-84353673D01*
X122124505Y-84944209D01*
X122812624Y-85683232D01*
X123419720Y-86570606D01*
X123945699Y-87606194D01*
X124390467Y-88789860D01*
X124753928Y-90121467D01*
X125017264Y-91482333D01*
X125081837Y-92002266D01*
X125133516Y-92655731D01*
X125171835Y-93407381D01*
X125196331Y-94221872D01*
X125206541Y-95063858D01*
X125202002Y-95897995D01*
X125182249Y-96688937D01*
X125146820Y-97401339D01*
X125101934Y-97938730D01*
X124837954Y-99814275D01*
X124452200Y-101581880D01*
X123938934Y-103256935D01*
X123292419Y-104854827D01*
X122506917Y-106390945D01*
X121576690Y-107880675D01*
X121190203Y-108429360D01*
X120565334Y-109289721D01*
X120565334Y-116734738D01*
X120565463Y-118029455D01*
X120565995Y-119165432D01*
X120567143Y-120153259D01*
X120569123Y-121003530D01*
X120572148Y-121726836D01*
X120576435Y-122333770D01*
X120582196Y-122834923D01*
X120589647Y-123240889D01*
X120599003Y-123562259D01*
X120610479Y-123809626D01*
X120624288Y-123993581D01*
X120640645Y-124124717D01*
X120659766Y-124213626D01*
X120681864Y-124270900D01*
X120707155Y-124307132D01*
X120719020Y-124318839D01*
X120741616Y-124331556D01*
X120783920Y-124343479D01*
X120851210Y-124354635D01*
X120948760Y-124365047D01*
X121081847Y-124374743D01*
X121255747Y-124383748D01*
X121475735Y-124392086D01*
X121747088Y-124399785D01*
X122075081Y-124406869D01*
X122464990Y-124413364D01*
X122922091Y-124419295D01*
X123451660Y-124424689D01*
X124058973Y-124429570D01*
X124749306Y-124433964D01*
X125527934Y-124437897D01*
X126400135Y-124441394D01*
X127371182Y-124444481D01*
X128446353Y-124447184D01*
X129630924Y-124449528D01*
X130930169Y-124451538D01*
X132349366Y-124453241D01*
X133893790Y-124454661D01*
X135568716Y-124455824D01*
X137379422Y-124456756D01*
X139331182Y-124457483D01*
X141429272Y-124458030D01*
X143678970Y-124458422D01*
X146085549Y-124458685D01*
X148654287Y-124458845D01*
X149619636Y-124458882D01*
X152240066Y-124458948D01*
X154696485Y-124458945D01*
X156994215Y-124458845D01*
X159138576Y-124458620D01*
X161134892Y-124458242D01*
X162988484Y-124457682D01*
X164704674Y-124456912D01*
X166288783Y-124455904D01*
X167746135Y-124454628D01*
X169082050Y-124453058D01*
X170301850Y-124451164D01*
X171410858Y-124448918D01*
X172414395Y-124446293D01*
X173317783Y-124443259D01*
X174126344Y-124439788D01*
X174845399Y-124435852D01*
X175480272Y-124431423D01*
X176036283Y-124426471D01*
X176518755Y-124420970D01*
X176933009Y-124414890D01*
X177284367Y-124408204D01*
X177578151Y-124400882D01*
X177819683Y-124392897D01*
X178014286Y-124384221D01*
X178167279Y-124374824D01*
X178283987Y-124364679D01*
X178369730Y-124353757D01*
X178429830Y-124342029D01*
X178469610Y-124329469D01*
X178494391Y-124316046D01*
X178506616Y-124305087D01*
X178530868Y-124267867D01*
X178552165Y-124206253D01*
X178570694Y-124109820D01*
X178586643Y-123968141D01*
X178600198Y-123770792D01*
X178611547Y-123507345D01*
X178620878Y-123167375D01*
X178628376Y-122740457D01*
X178634230Y-122216164D01*
X178638627Y-121584070D01*
X178641754Y-120833750D01*
X178643798Y-119954777D01*
X178644946Y-118936725D01*
X178645386Y-117769169D01*
X178645330Y-116579333D01*
X178643993Y-109008333D01*
X169618131Y-96096667D01*
X168689111Y-94767438D01*
X167786035Y-93474841D01*
X166913696Y-92225760D01*
X166076889Y-91027077D01*
X165280407Y-89885675D01*
X164529045Y-88808436D01*
X163827597Y-87802243D01*
X163180855Y-86873979D01*
X162593616Y-86030526D01*
X162070672Y-85278767D01*
X161616817Y-84625585D01*
X161236845Y-84077863D01*
X160935551Y-83642483D01*
X160717729Y-83326327D01*
X160588172Y-83136279D01*
X160551076Y-83079167D01*
X160574649Y-83061333D01*
X160665536Y-83045492D01*
X160831968Y-83031539D01*
X161082172Y-83019374D01*
X161424378Y-83008893D01*
X161866815Y-82999993D01*
X162417712Y-82992574D01*
X163085296Y-82986531D01*
X163877799Y-82981764D01*
X164803448Y-82978168D01*
X165870472Y-82975643D01*
X167087100Y-82974084D01*
X168461562Y-82973391D01*
X169053342Y-82973333D01*
X170522384Y-82972868D01*
X171829669Y-82971413D01*
X172982772Y-82968879D01*
X173989268Y-82965178D01*
X174856730Y-82960219D01*
X175592735Y-82953915D01*
X176204855Y-82946176D01*
X176700666Y-82936912D01*
X177087742Y-82926036D01*
X177373658Y-82913459D01*
X177565987Y-82899090D01*
X177672306Y-82882841D01*
X177698401Y-82871733D01*
X177717357Y-82812766D01*
X177734025Y-82670686D01*
X177748519Y-82437309D01*
X177760952Y-82104452D01*
X177771439Y-81663929D01*
X177780092Y-81107558D01*
X177787026Y-80427154D01*
X177792354Y-79614534D01*
X177796190Y-78661514D01*
X177798648Y-77559909D01*
X177799842Y-76301536D01*
X177800000Y-75561189D01*
X177799870Y-74288634D01*
X177799328Y-73174636D01*
X177798146Y-72208418D01*
X177796099Y-71379204D01*
X177792958Y-70676218D01*
X177788497Y-70088682D01*
X177782488Y-69605822D01*
X177774706Y-69216860D01*
X177764922Y-68911019D01*
X177752909Y-68677525D01*
X177738442Y-68505599D01*
X177721291Y-68384466D01*
X177701231Y-68303348D01*
X177678035Y-68251471D01*
X177651475Y-68218057D01*
X177645167Y-68212122D01*
X177618349Y-68195780D01*
X177570957Y-68180752D01*
X177496173Y-68166983D01*
X177387178Y-68154419D01*
X177237153Y-68143004D01*
X177039280Y-68132686D01*
X176786740Y-68123408D01*
X176472716Y-68115116D01*
X176090387Y-68107756D01*
X175632937Y-68101274D01*
X175093546Y-68095614D01*
X174465396Y-68090722D01*
X173741669Y-68086544D01*
X172915545Y-68083025D01*
X171980207Y-68080110D01*
X170928836Y-68077745D01*
X169754613Y-68075876D01*
X168450720Y-68074447D01*
X167010339Y-68073404D01*
X165426650Y-68072692D01*
X163692836Y-68072258D01*
X161802078Y-68072046D01*
X160136100Y-68072000D01*
X158018736Y-68072215D01*
X156065291Y-68072880D01*
X154270350Y-68074027D01*
X152628501Y-68075688D01*
X151134330Y-68077893D01*
X149782423Y-68080676D01*
X148567365Y-68084066D01*
X147483744Y-68088096D01*
X146526145Y-68092797D01*
X145689155Y-68098200D01*
X144967360Y-68104338D01*
X144355345Y-68111241D01*
X143847698Y-68118941D01*
X143439004Y-68127470D01*
X143123850Y-68136859D01*
X142896821Y-68147139D01*
X142752505Y-68158343D01*
X142685486Y-68170501D01*
X142680267Y-68173600D01*
X142661841Y-68231710D01*
X142645574Y-68372274D01*
X142631362Y-68603259D01*
X142619100Y-68932635D01*
X142608684Y-69368372D01*
X142600009Y-69918438D01*
X142592971Y-70590803D01*
X142587465Y-71393436D01*
X142583386Y-72334307D01*
X142580631Y-73421383D01*
X142579094Y-74662636D01*
X142578667Y-75920578D01*
X142578667Y-83565956D01*
X151595667Y-96514447D01*
X152522368Y-97845451D01*
X153422805Y-99139227D01*
X154292227Y-100388930D01*
X155125887Y-101587716D01*
X155919035Y-102728740D01*
X156666922Y-103805157D01*
X157364800Y-104810123D01*
X158007918Y-105736791D01*
X158591529Y-106578319D01*
X159110884Y-107327860D01*
X159561233Y-107978571D01*
X159937827Y-108523606D01*
X160235917Y-108956120D01*
X160450755Y-109269270D01*
X160577592Y-109456209D01*
X160612667Y-109510802D01*
X160529494Y-109516104D01*
X160285949Y-109521241D01*
X159890993Y-109526182D01*
X159353588Y-109530895D01*
X158682695Y-109535349D01*
X157887275Y-109539511D01*
X156976289Y-109543350D01*
X155958700Y-109546835D01*
X154843467Y-109549933D01*
X153639553Y-109552614D01*
X152355918Y-109554845D01*
X151001525Y-109556594D01*
X149585333Y-109557831D01*
X148116306Y-109558523D01*
X147066000Y-109558667D01*
X145565448Y-109558362D01*
X144111487Y-109557472D01*
X142713077Y-109556027D01*
X141379182Y-109554062D01*
X140118761Y-109551609D01*
X138940776Y-109548700D01*
X137854189Y-109545369D01*
X136867960Y-109541647D01*
X135991051Y-109537569D01*
X135232424Y-109533166D01*
X134601039Y-109528472D01*
X134105858Y-109523519D01*
X133755842Y-109518340D01*
X133559953Y-109512968D01*
X133519334Y-109509127D01*
X133571671Y-109427684D01*
X133711641Y-109251854D01*
X133913680Y-109013191D01*
X134016633Y-108895294D01*
X135352981Y-107266004D01*
X136546908Y-105574915D01*
X137593218Y-103831546D01*
X138486714Y-102045420D01*
X139222198Y-100226057D01*
X139794475Y-98382977D01*
X139830830Y-98243439D01*
X140004546Y-97542600D01*
X140146331Y-96904405D01*
X140259242Y-96299582D01*
X140346337Y-95698857D01*
X140410672Y-95072958D01*
X140455305Y-94392614D01*
X140483293Y-93628551D01*
X140497693Y-92751498D01*
X140501568Y-91821000D01*
X140498102Y-90825327D01*
X140485525Y-89967501D01*
X140461287Y-89216159D01*
X140422833Y-88539941D01*
X140367611Y-87907487D01*
X140293069Y-87287436D01*
X140196654Y-86648427D01*
X140075812Y-85959099D01*
X139985675Y-85483235D01*
X139533841Y-83535280D01*
X138953867Y-81693405D01*
X138248026Y-79960127D01*
X137418591Y-78337963D01*
X136467838Y-76829431D01*
X135398038Y-75437047D01*
X134211466Y-74163330D01*
X132910396Y-73010795D01*
X131497100Y-71981960D01*
X129973854Y-71079342D01*
X128342930Y-70305458D01*
X126606601Y-69662826D01*
X125370536Y-69303053D01*
X124030527Y-68989227D01*
X122700943Y-68754031D01*
X121339360Y-68592419D01*
X119903358Y-68499346D01*
X118364000Y-68469764D01*
X116318296Y-68529909D01*
X114381035Y-68711964D01*
X112540669Y-69018360D01*
X110785647Y-69451531D01*
X109104421Y-70013906D01*
X107485439Y-70707917D01*
X107294920Y-70800099D01*
X105727987Y-71657852D01*
X104276595Y-72639053D01*
X102941296Y-73742841D01*
X101722645Y-74968360D01*
X100621195Y-76314750D01*
X99637501Y-77781153D01*
X98772114Y-79366710D01*
X98025590Y-81070562D01*
X97398482Y-82891852D01*
X96891344Y-84829721D01*
X96504728Y-86883309D01*
X96386829Y-87714667D01*
X96331553Y-88249967D01*
X96284594Y-88916794D01*
X96246619Y-89679427D01*
X96218297Y-90502147D01*
X96200292Y-91349233D01*
X96193273Y-92184965D01*
X96197905Y-92973623D01*
X96214856Y-93679488D01*
X96244793Y-94266839D01*
X96260835Y-94463607D01*
X96522897Y-96426042D01*
X96936764Y-98331068D01*
X97504779Y-100183937D01*
X98229288Y-101989900D01*
X99112633Y-103754211D01*
X100157157Y-105482121D01*
X101365205Y-107178882D01*
X102618784Y-108712000D01*
X103317716Y-109516333D01*
X99524305Y-109538381D01*
X98500089Y-109546053D01*
X97640044Y-109556293D01*
X96939025Y-109569253D01*
X96391885Y-109585086D01*
X95993481Y-109603945D01*
X95738666Y-109625983D01*
X95622295Y-109651354D01*
X95617447Y-109654581D01*
X95596912Y-109696816D01*
X95578899Y-109793738D01*
X95563255Y-109955065D01*
X95549832Y-110190513D01*
X95538477Y-110509801D01*
X95529040Y-110922645D01*
X95521370Y-111438762D01*
X95515317Y-112067871D01*
X95510729Y-112819687D01*
X95507455Y-113703930D01*
X95505346Y-114730315D01*
X95504249Y-115908559D01*
X95504001Y-116964245D01*
X95504001Y-116964245D01*
D14*
X182058285Y-62964190D02*
X182058285Y-62464190D01*
X181891619Y-62821333D01*
X181724952Y-62464190D01*
X181724952Y-62964190D01*
X181486856Y-62964190D02*
X181486856Y-62464190D01*
X181248761Y-62964190D02*
X181248761Y-62464190D01*
X181129714Y-62464190D01*
X181058285Y-62488000D01*
X181010666Y-62535619D01*
X180986857Y-62583238D01*
X180963047Y-62678476D01*
X180963047Y-62749905D01*
X180986857Y-62845143D01*
X181010666Y-62892762D01*
X181058285Y-62940381D01*
X181129714Y-62964190D01*
X181248761Y-62964190D01*
X180748761Y-62964190D02*
X180748761Y-62464190D01*
X180629714Y-63011810D02*
X180248762Y-63011810D01*
X180129714Y-62964190D02*
X180129714Y-62464190D01*
X179891619Y-62964190D02*
X179891619Y-62464190D01*
X179605905Y-62964190D01*
X179605905Y-62464190D01*
X179105905Y-62964190D02*
X179391619Y-62964190D01*
X179248762Y-62964190D02*
X179248762Y-62464190D01*
X179296381Y-62535619D01*
X179344000Y-62583238D01*
X179391619Y-62607048D01*
X176756190Y-24618382D02*
X176256190Y-24618382D01*
X176613333Y-24785048D01*
X176256190Y-24951715D01*
X176756190Y-24951715D01*
X176756190Y-25189811D02*
X176256190Y-25189811D01*
X176756190Y-25427906D02*
X176256190Y-25427906D01*
X176256190Y-25546953D01*
X176280000Y-25618382D01*
X176327619Y-25666001D01*
X176375238Y-25689810D01*
X176470476Y-25713620D01*
X176541905Y-25713620D01*
X176637143Y-25689810D01*
X176684762Y-25666001D01*
X176732381Y-25618382D01*
X176756190Y-25546953D01*
X176756190Y-25427906D01*
X176756190Y-25927906D02*
X176256190Y-25927906D01*
X176803810Y-26046953D02*
X176803810Y-26427905D01*
X176256190Y-26642191D02*
X176256190Y-26737429D01*
X176280000Y-26785048D01*
X176327619Y-26832667D01*
X176422857Y-26856476D01*
X176589524Y-26856476D01*
X176684762Y-26832667D01*
X176732381Y-26785048D01*
X176756190Y-26737429D01*
X176756190Y-26642191D01*
X176732381Y-26594572D01*
X176684762Y-26546953D01*
X176589524Y-26523143D01*
X176422857Y-26523143D01*
X176327619Y-26546953D01*
X176280000Y-26594572D01*
X176256190Y-26642191D01*
X176256190Y-27070763D02*
X176660952Y-27070763D01*
X176708571Y-27094572D01*
X176732381Y-27118382D01*
X176756190Y-27166001D01*
X176756190Y-27261239D01*
X176732381Y-27308858D01*
X176708571Y-27332667D01*
X176660952Y-27356477D01*
X176256190Y-27356477D01*
X176256190Y-27523144D02*
X176256190Y-27808858D01*
X176756190Y-27666001D02*
X176256190Y-27666001D01*
X176756190Y-28237429D02*
X176756190Y-27951715D01*
X176756190Y-28094572D02*
X176256190Y-28094572D01*
X176327619Y-28046953D01*
X176375238Y-27999334D01*
X176399048Y-27951715D01*
X105282952Y-56368190D02*
X105282952Y-56772952D01*
X105259143Y-56820571D01*
X105235333Y-56844381D01*
X105187714Y-56868190D01*
X105092476Y-56868190D01*
X105044857Y-56844381D01*
X105021048Y-56820571D01*
X104997238Y-56772952D01*
X104997238Y-56368190D01*
X104782952Y-56415810D02*
X104759142Y-56392000D01*
X104711523Y-56368190D01*
X104592476Y-56368190D01*
X104544857Y-56392000D01*
X104521047Y-56415810D01*
X104497238Y-56463429D01*
X104497238Y-56511048D01*
X104521047Y-56582476D01*
X104806761Y-56868190D01*
X104497238Y-56868190D01*
X143913990Y-67131453D02*
X143413990Y-67131453D01*
X143413990Y-67321929D01*
X143437800Y-67369548D01*
X143461610Y-67393357D01*
X143509229Y-67417167D01*
X143580657Y-67417167D01*
X143628276Y-67393357D01*
X143652086Y-67369548D01*
X143675895Y-67321929D01*
X143675895Y-67131453D01*
X143461610Y-67607643D02*
X143437800Y-67631453D01*
X143413990Y-67679072D01*
X143413990Y-67798119D01*
X143437800Y-67845738D01*
X143461610Y-67869548D01*
X143509229Y-67893357D01*
X143556848Y-67893357D01*
X143628276Y-67869548D01*
X143913990Y-67583834D01*
X143913990Y-67893357D01*
X150089371Y-65552096D02*
X150113181Y-65528286D01*
X150136990Y-65456858D01*
X150136990Y-65409239D01*
X150113181Y-65337810D01*
X150065562Y-65290191D01*
X150017943Y-65266382D01*
X149922705Y-65242572D01*
X149851276Y-65242572D01*
X149756038Y-65266382D01*
X149708419Y-65290191D01*
X149660800Y-65337810D01*
X149636990Y-65409239D01*
X149636990Y-65456858D01*
X149660800Y-65528286D01*
X149684610Y-65552096D01*
X149636990Y-65861620D02*
X149636990Y-65956858D01*
X149660800Y-66004477D01*
X149708419Y-66052096D01*
X149803657Y-66075905D01*
X149970324Y-66075905D01*
X150065562Y-66052096D01*
X150113181Y-66004477D01*
X150136990Y-65956858D01*
X150136990Y-65861620D01*
X150113181Y-65814001D01*
X150065562Y-65766382D01*
X149970324Y-65742572D01*
X149803657Y-65742572D01*
X149708419Y-65766382D01*
X149660800Y-65814001D01*
X149636990Y-65861620D01*
X150136990Y-66290192D02*
X149636990Y-66290192D01*
X150136990Y-66575906D01*
X149636990Y-66575906D01*
X150136990Y-66814002D02*
X149636990Y-66814002D01*
X150136990Y-67099716D01*
X149636990Y-67099716D01*
X150184610Y-67218764D02*
X150184610Y-67599716D01*
X149636990Y-67814002D02*
X149636990Y-67861621D01*
X149660800Y-67909240D01*
X149684610Y-67933049D01*
X149732229Y-67956859D01*
X149827467Y-67980668D01*
X149946514Y-67980668D01*
X150041752Y-67956859D01*
X150089371Y-67933049D01*
X150113181Y-67909240D01*
X150136990Y-67861621D01*
X150136990Y-67814002D01*
X150113181Y-67766383D01*
X150089371Y-67742573D01*
X150041752Y-67718764D01*
X149946514Y-67694954D01*
X149827467Y-67694954D01*
X149732229Y-67718764D01*
X149684610Y-67742573D01*
X149660800Y-67766383D01*
X149636990Y-67814002D01*
X149684610Y-68171144D02*
X149660800Y-68194954D01*
X149636990Y-68242573D01*
X149636990Y-68361620D01*
X149660800Y-68409239D01*
X149684610Y-68433049D01*
X149732229Y-68456858D01*
X149779848Y-68456858D01*
X149851276Y-68433049D01*
X150136990Y-68147335D01*
X150136990Y-68456858D01*
X149636990Y-68623525D02*
X150136990Y-68956858D01*
X149636990Y-68956858D02*
X150136990Y-68623525D01*
X149636990Y-69242572D02*
X149636990Y-69290191D01*
X149660800Y-69337810D01*
X149684610Y-69361619D01*
X149732229Y-69385429D01*
X149827467Y-69409238D01*
X149946514Y-69409238D01*
X150041752Y-69385429D01*
X150089371Y-69361619D01*
X150113181Y-69337810D01*
X150136990Y-69290191D01*
X150136990Y-69242572D01*
X150113181Y-69194953D01*
X150089371Y-69171143D01*
X150041752Y-69147334D01*
X149946514Y-69123524D01*
X149827467Y-69123524D01*
X149732229Y-69147334D01*
X149684610Y-69171143D01*
X149660800Y-69194953D01*
X149636990Y-69242572D01*
X149636990Y-69861619D02*
X149636990Y-69623524D01*
X149875086Y-69599714D01*
X149851276Y-69623524D01*
X149827467Y-69671143D01*
X149827467Y-69790190D01*
X149851276Y-69837809D01*
X149875086Y-69861619D01*
X149922705Y-69885428D01*
X150041752Y-69885428D01*
X150089371Y-69861619D01*
X150113181Y-69837809D01*
X150136990Y-69790190D01*
X150136990Y-69671143D01*
X150113181Y-69623524D01*
X150089371Y-69599714D01*
X140715952Y-53066190D02*
X140715952Y-53470952D01*
X140692143Y-53518571D01*
X140668333Y-53542381D01*
X140620714Y-53566190D01*
X140525476Y-53566190D01*
X140477857Y-53542381D01*
X140454048Y-53518571D01*
X140430238Y-53470952D01*
X140430238Y-53066190D01*
X139977857Y-53232857D02*
X139977857Y-53566190D01*
X140096904Y-53042381D02*
X140215952Y-53399524D01*
X139906428Y-53399524D01*
X133601590Y-67258453D02*
X133101590Y-67258453D01*
X133101590Y-67448929D01*
X133125400Y-67496548D01*
X133149210Y-67520357D01*
X133196829Y-67544167D01*
X133268257Y-67544167D01*
X133315876Y-67520357D01*
X133339686Y-67496548D01*
X133363495Y-67448929D01*
X133363495Y-67258453D01*
X133601590Y-68020357D02*
X133601590Y-67734643D01*
X133601590Y-67877500D02*
X133101590Y-67877500D01*
X133173019Y-67829881D01*
X133220638Y-67782262D01*
X133244448Y-67734643D01*
X139675371Y-65399696D02*
X139699181Y-65375886D01*
X139722990Y-65304458D01*
X139722990Y-65256839D01*
X139699181Y-65185410D01*
X139651562Y-65137791D01*
X139603943Y-65113982D01*
X139508705Y-65090172D01*
X139437276Y-65090172D01*
X139342038Y-65113982D01*
X139294419Y-65137791D01*
X139246800Y-65185410D01*
X139222990Y-65256839D01*
X139222990Y-65304458D01*
X139246800Y-65375886D01*
X139270610Y-65399696D01*
X139222990Y-65709220D02*
X139222990Y-65804458D01*
X139246800Y-65852077D01*
X139294419Y-65899696D01*
X139389657Y-65923505D01*
X139556324Y-65923505D01*
X139651562Y-65899696D01*
X139699181Y-65852077D01*
X139722990Y-65804458D01*
X139722990Y-65709220D01*
X139699181Y-65661601D01*
X139651562Y-65613982D01*
X139556324Y-65590172D01*
X139389657Y-65590172D01*
X139294419Y-65613982D01*
X139246800Y-65661601D01*
X139222990Y-65709220D01*
X139722990Y-66137792D02*
X139222990Y-66137792D01*
X139722990Y-66423506D01*
X139222990Y-66423506D01*
X139722990Y-66661602D02*
X139222990Y-66661602D01*
X139722990Y-66947316D01*
X139222990Y-66947316D01*
X139770610Y-67066364D02*
X139770610Y-67447316D01*
X139222990Y-67661602D02*
X139222990Y-67709221D01*
X139246800Y-67756840D01*
X139270610Y-67780649D01*
X139318229Y-67804459D01*
X139413467Y-67828268D01*
X139532514Y-67828268D01*
X139627752Y-67804459D01*
X139675371Y-67780649D01*
X139699181Y-67756840D01*
X139722990Y-67709221D01*
X139722990Y-67661602D01*
X139699181Y-67613983D01*
X139675371Y-67590173D01*
X139627752Y-67566364D01*
X139532514Y-67542554D01*
X139413467Y-67542554D01*
X139318229Y-67566364D01*
X139270610Y-67590173D01*
X139246800Y-67613983D01*
X139222990Y-67661602D01*
X139270610Y-68018744D02*
X139246800Y-68042554D01*
X139222990Y-68090173D01*
X139222990Y-68209220D01*
X139246800Y-68256839D01*
X139270610Y-68280649D01*
X139318229Y-68304458D01*
X139365848Y-68304458D01*
X139437276Y-68280649D01*
X139722990Y-67994935D01*
X139722990Y-68304458D01*
X139222990Y-68471125D02*
X139722990Y-68804458D01*
X139222990Y-68804458D02*
X139722990Y-68471125D01*
X139222990Y-69090172D02*
X139222990Y-69137791D01*
X139246800Y-69185410D01*
X139270610Y-69209219D01*
X139318229Y-69233029D01*
X139413467Y-69256838D01*
X139532514Y-69256838D01*
X139627752Y-69233029D01*
X139675371Y-69209219D01*
X139699181Y-69185410D01*
X139722990Y-69137791D01*
X139722990Y-69090172D01*
X139699181Y-69042553D01*
X139675371Y-69018743D01*
X139627752Y-68994934D01*
X139532514Y-68971124D01*
X139413467Y-68971124D01*
X139318229Y-68994934D01*
X139270610Y-69018743D01*
X139246800Y-69042553D01*
X139222990Y-69090172D01*
X139222990Y-69709219D02*
X139222990Y-69471124D01*
X139461086Y-69447314D01*
X139437276Y-69471124D01*
X139413467Y-69518743D01*
X139413467Y-69637790D01*
X139437276Y-69685409D01*
X139461086Y-69709219D01*
X139508705Y-69733028D01*
X139627752Y-69733028D01*
X139675371Y-69709219D01*
X139699181Y-69685409D01*
X139722990Y-69637790D01*
X139722990Y-69518743D01*
X139699181Y-69471124D01*
X139675371Y-69447314D01*
%LPC*%
D15*
X179705000Y-138430000D03*
X94615000Y-138430000D03*
X94615000Y-27940000D03*
X179705000Y-27940000D03*
D16*
X102616000Y-93472000D03*
X172961300Y-132918200D03*
D17*
X139065000Y-31750000D03*
X136525000Y-31750000D03*
X133985000Y-31750000D03*
X131445000Y-31750000D03*
X128905000Y-31750000D03*
X141605000Y-31750000D03*
X144145000Y-31750000D03*
X162825000Y-135139000D03*
X156221000Y-135139000D03*
X156221000Y-139711000D03*
X162825000Y-139711000D03*
X148809000Y-135139000D03*
X142205000Y-135139000D03*
X142205000Y-139711000D03*
X148809000Y-139711000D03*
X134793000Y-135139000D03*
X128189000Y-135139000D03*
X128189000Y-139711000D03*
X134793000Y-139711000D03*
X120777000Y-135139000D03*
X114173000Y-135139000D03*
X114173000Y-139711000D03*
X120777000Y-139711000D03*
X162825000Y-120869000D03*
X156221000Y-120869000D03*
X156221000Y-125441000D03*
X162825000Y-125441000D03*
X148809000Y-120869000D03*
X142205000Y-120869000D03*
X142205000Y-125441000D03*
X148809000Y-125441000D03*
X134793000Y-120869000D03*
X128189000Y-120869000D03*
X128189000Y-125441000D03*
X134793000Y-125441000D03*
X120777000Y-120869000D03*
X114173000Y-120869000D03*
X114173000Y-125441000D03*
X120777000Y-125441000D03*
X162825000Y-106599000D03*
X156221000Y-106599000D03*
X156221000Y-111171000D03*
X162825000Y-111171000D03*
X148809000Y-106599000D03*
X142205000Y-106599000D03*
X142205000Y-111171000D03*
X148809000Y-111171000D03*
X134793000Y-106599000D03*
X128189000Y-106599000D03*
X128189000Y-111171000D03*
X134793000Y-111171000D03*
X120777000Y-106599000D03*
X114173000Y-106599000D03*
X114173000Y-111171000D03*
X120777000Y-111171000D03*
X162825000Y-92329000D03*
X156221000Y-92329000D03*
X156221000Y-96901000D03*
X162825000Y-96901000D03*
X148809000Y-92329000D03*
X142205000Y-92329000D03*
X142205000Y-96901000D03*
X148809000Y-96901000D03*
X134793000Y-92329000D03*
X128189000Y-92329000D03*
X128189000Y-96901000D03*
X134793000Y-96901000D03*
D18*
X157618000Y-131075000D03*
X158888000Y-131075000D03*
D19*
X160158000Y-131075000D03*
X161428000Y-131075000D03*
D18*
X143602000Y-131075000D03*
X144872000Y-131075000D03*
D19*
X146142000Y-131075000D03*
X147412000Y-131075000D03*
D18*
X129586000Y-131075000D03*
X130856000Y-131075000D03*
D19*
X132126000Y-131075000D03*
X133396000Y-131075000D03*
D18*
X115570000Y-131075000D03*
X116840000Y-131075000D03*
D19*
X118110000Y-131075000D03*
X119380000Y-131075000D03*
D18*
X157618000Y-116805000D03*
X158888000Y-116805000D03*
D19*
X160158000Y-116805000D03*
X161428000Y-116805000D03*
D18*
X143602000Y-116805000D03*
X144872000Y-116805000D03*
D19*
X146142000Y-116805000D03*
X147412000Y-116805000D03*
D18*
X129586000Y-116805000D03*
X130856000Y-116805000D03*
D19*
X132126000Y-116805000D03*
X133396000Y-116805000D03*
D18*
X115570000Y-116805000D03*
X116840000Y-116805000D03*
D19*
X118110000Y-116805000D03*
X119380000Y-116805000D03*
D18*
X157618000Y-102535000D03*
X158888000Y-102535000D03*
D19*
X160158000Y-102535000D03*
X161428000Y-102535000D03*
D18*
X143602000Y-102535000D03*
X144872000Y-102535000D03*
D19*
X146142000Y-102535000D03*
X147412000Y-102535000D03*
D18*
X129586000Y-102535000D03*
X130856000Y-102535000D03*
D19*
X132126000Y-102535000D03*
X133396000Y-102535000D03*
D18*
X115570000Y-102535000D03*
X116840000Y-102535000D03*
D19*
X118110000Y-102535000D03*
X119380000Y-102535000D03*
D18*
X157618000Y-88265000D03*
X158888000Y-88265000D03*
D19*
X160158000Y-88265000D03*
X161428000Y-88265000D03*
D18*
X143602000Y-88265000D03*
X144872000Y-88265000D03*
D19*
X146142000Y-88265000D03*
X147412000Y-88265000D03*
D18*
X129586000Y-88265000D03*
X130856000Y-88265000D03*
D19*
X132126000Y-88265000D03*
X133396000Y-88265000D03*
D20*
X167680000Y-46950000D03*
D21*
X180180000Y-54450000D03*
D20*
X170180000Y-44450000D03*
X170180000Y-51950000D03*
X170180000Y-59450000D03*
X167680000Y-56950000D03*
D21*
X180180000Y-49450000D03*
D17*
X177292000Y-114554000D03*
X170688000Y-114554000D03*
X170688000Y-119126000D03*
X177292000Y-119126000D03*
X177292000Y-120904000D03*
X170688000Y-120904000D03*
X170688000Y-125476000D03*
X177292000Y-125476000D03*
X104394000Y-113538000D03*
X104394000Y-120142000D03*
X108966000Y-120142000D03*
X108966000Y-113538000D03*
X96139000Y-113538000D03*
X96139000Y-120142000D03*
X100711000Y-120142000D03*
X100711000Y-113538000D03*
X104394000Y-103378000D03*
X104394000Y-109982000D03*
X108966000Y-109982000D03*
X108966000Y-103378000D03*
X96139000Y-103378000D03*
X96139000Y-109982000D03*
X100711000Y-109982000D03*
X100711000Y-103378000D03*
X155702000Y-78994000D03*
X149098000Y-78994000D03*
X149098000Y-83566000D03*
X155702000Y-83566000D03*
X141732000Y-78994000D03*
X135128000Y-78994000D03*
X135128000Y-83566000D03*
X141732000Y-83566000D03*
D18*
X115570000Y-88265000D03*
X116840000Y-88265000D03*
D19*
X118110000Y-88265000D03*
X119380000Y-88265000D03*
D20*
X160782000Y-39370000D03*
D21*
X168282000Y-26870000D03*
D20*
X158282000Y-36870000D03*
X165782000Y-36870000D03*
X173282000Y-36870000D03*
X170782000Y-39370000D03*
D21*
X163282000Y-26870000D03*
D17*
X120777000Y-92329000D03*
X114173000Y-92329000D03*
X114173000Y-96901000D03*
X120777000Y-96901000D03*
X127762000Y-78994000D03*
X121158000Y-78994000D03*
X121158000Y-83566000D03*
X127762000Y-83566000D03*
D22*
X164592000Y-52324000D03*
D23*
X164592000Y-49784000D03*
X164592000Y-47244000D03*
X164592000Y-44704000D03*
X156972000Y-44704000D03*
X156972000Y-47244000D03*
X156972000Y-49784000D03*
X156972000Y-52324000D03*
D17*
X171530000Y-102130000D03*
X174030000Y-102130000D03*
X176530000Y-102130000D03*
X176530000Y-87630000D03*
X171530000Y-87630000D03*
D24*
X168330000Y-94630000D03*
X179730000Y-94630000D03*
D17*
X99060000Y-49022000D03*
X101600000Y-49022000D03*
X104140000Y-49022000D03*
X106680000Y-49022000D03*
X109220000Y-49022000D03*
X111760000Y-49022000D03*
X114300000Y-49022000D03*
X116840000Y-49022000D03*
X119380000Y-49022000D03*
X121920000Y-49022000D03*
X124460000Y-49022000D03*
X127000000Y-49022000D03*
X127000000Y-64262000D03*
X124460000Y-64262000D03*
X121920000Y-64262000D03*
X119380000Y-64262000D03*
X116840000Y-64262000D03*
X114300000Y-64262000D03*
X111760000Y-64262000D03*
X109220000Y-64262000D03*
X106680000Y-64262000D03*
X104140000Y-64262000D03*
X101600000Y-64262000D03*
X114300000Y-51562000D03*
X116840000Y-51562000D03*
X119380000Y-51562000D03*
X121920000Y-51562000D03*
X124460000Y-51562000D03*
X124460000Y-61722000D03*
X121920000Y-61722000D03*
X119380000Y-61722000D03*
X116840000Y-61722000D03*
X114300000Y-61722000D03*
X111760000Y-61722000D03*
X109220000Y-61722000D03*
X109220000Y-51562000D03*
X106680000Y-61722000D03*
X104140000Y-61722000D03*
X101600000Y-61722000D03*
X96520000Y-61722000D03*
X127000000Y-61722000D03*
X127000000Y-59182000D03*
X93980000Y-49022000D03*
X127000000Y-54102000D03*
X127000000Y-51562000D03*
X93980000Y-64262000D03*
X96520000Y-64262000D03*
X99060000Y-64262000D03*
X127000000Y-56642000D03*
X96520000Y-49022000D03*
X111760000Y-51562000D03*
D25*
X116205000Y-29540200D03*
X116205000Y-36550600D03*
X96215200Y-40005000D03*
X103225600Y-40005000D03*
D26*
X147955000Y-62865000D03*
X145415000Y-62865000D03*
X145415000Y-65405000D03*
X147955000Y-65405000D03*
X147955000Y-67945000D03*
X145415000Y-67945000D03*
X145415000Y-70485000D03*
X147955000Y-70485000D03*
X147955000Y-73025000D03*
D27*
X145415000Y-73025000D03*
D17*
X145415000Y-43180000D03*
X145415000Y-45720000D03*
X145415000Y-48260000D03*
X145415000Y-50800000D03*
X145415000Y-53340000D03*
X135255000Y-53340000D03*
X135255000Y-43180000D03*
X135255000Y-45720000D03*
X135255000Y-48260000D03*
X135255000Y-50800000D03*
D26*
X137795000Y-62865000D03*
X135255000Y-62865000D03*
X135255000Y-65405000D03*
X137795000Y-65405000D03*
X137795000Y-67945000D03*
X135255000Y-67945000D03*
X135255000Y-70485000D03*
X137795000Y-70485000D03*
X137795000Y-73025000D03*
D27*
X135255000Y-73025000D03*
X128270000Y-27940000D03*
D26*
X130810000Y-27940000D03*
X133350000Y-27940000D03*
X135890000Y-27940000D03*
X138430000Y-27940000D03*
X140970000Y-27940000D03*
X143510000Y-27940000D03*
X146050000Y-27940000D03*
D16*
X170129200Y-73075800D03*
M02*
