G04 #@! TF.FileFunction,Copper,L1,Top,Signal*
%FSLAX46Y46*%
G04 Gerber Fmt 4.6, Leading zero omitted, Abs format (unit mm)*
G04 Created by KiCad (PCBNEW (2015-06-12 BZR 5734)-product) date Saturday, June 20, 2015 'PMt' 05:40:19 PM*
%MOMM*%
G01*
G04 APERTURE LIST*
%ADD10C,0.100000*%
%ADD11C,0.300000*%
%ADD12C,3.000000*%
%ADD13C,0.500000*%
%ADD14C,1.524000*%
%ADD15R,1.250000X1.500000*%
%ADD16R,0.850000X1.500000*%
%ADD17O,0.850000X1.500000*%
%ADD18C,2.300000*%
%ADD19C,2.000000*%
%ADD20R,2.286000X1.574800*%
%ADD21O,2.286000X1.574800*%
%ADD22R,3.200000X3.200000*%
%ADD23R,1.500000X1.250000*%
%ADD24R,0.600000X0.700000*%
%ADD25R,1.000000X0.370000*%
%ADD26R,0.370000X1.000000*%
%ADD27R,1.062500X1.062500*%
%ADD28R,1.500000X1.300000*%
%ADD29R,1.300000X1.500000*%
%ADD30R,0.700000X0.600000*%
%ADD31R,2.540000X2.006600*%
%ADD32R,2.540000X2.209800*%
%ADD33R,3.048000X2.692400*%
%ADD34R,2.692400X3.048000*%
%ADD35C,1.778000*%
%ADD36R,2.006600X2.540000*%
%ADD37R,2.209800X2.540000*%
%ADD38R,0.800000X0.200000*%
%ADD39R,0.200000X0.800000*%
%ADD40R,1.112500X1.112500*%
%ADD41R,1.400000X1.200000*%
%ADD42C,1.676400*%
%ADD43R,1.676400X1.676400*%
%ADD44C,0.600000*%
%ADD45C,0.160000*%
%ADD46C,0.180000*%
%ADD47C,0.250000*%
%ADD48C,0.254000*%
G04 APERTURE END LIST*
D10*
D11*
X92739001Y-70508571D02*
X93739001Y-70508571D01*
X92739001Y-72008571D01*
X93739001Y-72008571D01*
X94310429Y-71222857D02*
X94810429Y-71222857D01*
X95024715Y-72008571D02*
X94310429Y-72008571D01*
X94310429Y-70508571D01*
X95024715Y-70508571D01*
X95453286Y-70508571D02*
X96310429Y-70508571D01*
X95881858Y-72008571D02*
X95881858Y-70508571D01*
X96739000Y-71580000D02*
X97453286Y-71580000D01*
X96596143Y-72008571D02*
X97096143Y-70508571D01*
X97596143Y-72008571D01*
X98381857Y-70508571D02*
X98667571Y-70508571D01*
X98810429Y-70580000D01*
X98953286Y-70722857D01*
X99024714Y-71008571D01*
X99024714Y-71508571D01*
X98953286Y-71794286D01*
X98810429Y-71937143D01*
X98667571Y-72008571D01*
X98381857Y-72008571D01*
X98239000Y-71937143D01*
X98096143Y-71794286D01*
X98024714Y-71508571D01*
X98024714Y-71008571D01*
X98096143Y-70722857D01*
X98239000Y-70580000D01*
X98381857Y-70508571D01*
X99667572Y-72008571D02*
X99667572Y-70508571D01*
X99667572Y-71222857D02*
X100524715Y-71222857D01*
X100524715Y-72008571D02*
X100524715Y-70508571D01*
X101239001Y-72008571D02*
X101239001Y-70508571D01*
X101739001Y-71580000D01*
X102239001Y-70508571D01*
X102239001Y-72008571D01*
X104024715Y-71580000D02*
X104739001Y-71580000D01*
X103881858Y-72008571D02*
X104381858Y-70508571D01*
X104881858Y-72008571D01*
X105881858Y-71222857D02*
X105381858Y-71222857D01*
X105381858Y-72008571D02*
X105381858Y-70508571D01*
X106096144Y-70508571D01*
X106524715Y-70508571D02*
X107524715Y-72008571D01*
X107524715Y-70508571D02*
X106524715Y-72008571D01*
X108096143Y-71437143D02*
X109239000Y-71437143D01*
X110239000Y-70508571D02*
X110381857Y-70508571D01*
X110524714Y-70580000D01*
X110596143Y-70651429D01*
X110667572Y-70794286D01*
X110739000Y-71080000D01*
X110739000Y-71437143D01*
X110667572Y-71722857D01*
X110596143Y-71865714D01*
X110524714Y-71937143D01*
X110381857Y-72008571D01*
X110239000Y-72008571D01*
X110096143Y-71937143D01*
X110024714Y-71865714D01*
X109953286Y-71722857D01*
X109881857Y-71437143D01*
X109881857Y-71080000D01*
X109953286Y-70794286D01*
X110024714Y-70651429D01*
X110096143Y-70580000D01*
X110239000Y-70508571D01*
X112167571Y-72008571D02*
X111310428Y-72008571D01*
X111739000Y-72008571D02*
X111739000Y-70508571D01*
X111596143Y-70722857D01*
X111453285Y-70865714D01*
X111310428Y-70937143D01*
X94524715Y-74408571D02*
X94524715Y-72908571D01*
X95096143Y-72908571D01*
X95239001Y-72980000D01*
X95310429Y-73051429D01*
X95381858Y-73194286D01*
X95381858Y-73408571D01*
X95310429Y-73551429D01*
X95239001Y-73622857D01*
X95096143Y-73694286D01*
X94524715Y-73694286D01*
X96881858Y-74408571D02*
X96381858Y-73694286D01*
X96024715Y-74408571D02*
X96024715Y-72908571D01*
X96596143Y-72908571D01*
X96739001Y-72980000D01*
X96810429Y-73051429D01*
X96881858Y-73194286D01*
X96881858Y-73408571D01*
X96810429Y-73551429D01*
X96739001Y-73622857D01*
X96596143Y-73694286D01*
X96024715Y-73694286D01*
X97810429Y-72908571D02*
X98096143Y-72908571D01*
X98239001Y-72980000D01*
X98381858Y-73122857D01*
X98453286Y-73408571D01*
X98453286Y-73908571D01*
X98381858Y-74194286D01*
X98239001Y-74337143D01*
X98096143Y-74408571D01*
X97810429Y-74408571D01*
X97667572Y-74337143D01*
X97524715Y-74194286D01*
X97453286Y-73908571D01*
X97453286Y-73408571D01*
X97524715Y-73122857D01*
X97667572Y-72980000D01*
X97810429Y-72908571D01*
X98881858Y-72908571D02*
X99739001Y-72908571D01*
X99310430Y-74408571D02*
X99310430Y-72908571D01*
X100524715Y-72908571D02*
X100810429Y-72908571D01*
X100953287Y-72980000D01*
X101096144Y-73122857D01*
X101167572Y-73408571D01*
X101167572Y-73908571D01*
X101096144Y-74194286D01*
X100953287Y-74337143D01*
X100810429Y-74408571D01*
X100524715Y-74408571D01*
X100381858Y-74337143D01*
X100239001Y-74194286D01*
X100167572Y-73908571D01*
X100167572Y-73408571D01*
X100239001Y-73122857D01*
X100381858Y-72980000D01*
X100524715Y-72908571D01*
X101596144Y-72908571D02*
X102453287Y-72908571D01*
X102024716Y-74408571D02*
X102024716Y-72908571D01*
X103239001Y-73694286D02*
X103239001Y-74408571D01*
X102739001Y-72908571D02*
X103239001Y-73694286D01*
X103739001Y-72908571D01*
X104239001Y-74408571D02*
X104239001Y-72908571D01*
X104810429Y-72908571D01*
X104953287Y-72980000D01*
X105024715Y-73051429D01*
X105096144Y-73194286D01*
X105096144Y-73408571D01*
X105024715Y-73551429D01*
X104953287Y-73622857D01*
X104810429Y-73694286D01*
X104239001Y-73694286D01*
X105739001Y-73622857D02*
X106239001Y-73622857D01*
X106453287Y-74408571D02*
X105739001Y-74408571D01*
X105739001Y-72908571D01*
X106453287Y-72908571D01*
X108167572Y-73408571D02*
X109239001Y-73408571D01*
X108596144Y-72765714D02*
X108167572Y-74694286D01*
X109096144Y-74051429D02*
X108024715Y-74051429D01*
X108667572Y-74694286D02*
X109096144Y-72765714D01*
X110453287Y-72908571D02*
X109739001Y-72908571D01*
X109667572Y-73622857D01*
X109739001Y-73551429D01*
X109881858Y-73480000D01*
X110239001Y-73480000D01*
X110381858Y-73551429D01*
X110453287Y-73622857D01*
X110524715Y-73765714D01*
X110524715Y-74122857D01*
X110453287Y-74265714D01*
X110381858Y-74337143D01*
X110239001Y-74408571D01*
X109881858Y-74408571D01*
X109739001Y-74337143D01*
X109667572Y-74265714D01*
X94489000Y-75308571D02*
X95346143Y-75308571D01*
X94917572Y-76808571D02*
X94917572Y-75308571D01*
X95846143Y-76022857D02*
X96346143Y-76022857D01*
X96560429Y-76808571D02*
X95846143Y-76808571D01*
X95846143Y-75308571D01*
X96560429Y-75308571D01*
X97203286Y-76808571D02*
X97203286Y-75308571D01*
X98060429Y-76808571D01*
X98060429Y-75308571D01*
X98774715Y-76808571D02*
X98774715Y-75308571D01*
X99631858Y-76808571D02*
X98989001Y-75951429D01*
X99631858Y-75308571D02*
X98774715Y-76165714D01*
X100203286Y-76380000D02*
X100917572Y-76380000D01*
X100060429Y-76808571D02*
X100560429Y-75308571D01*
X101060429Y-76808571D01*
X101560429Y-76808571D02*
X101560429Y-75308571D01*
X103417572Y-76808571D02*
X103417572Y-75308571D01*
X104274715Y-76808571D02*
X103631858Y-75951429D01*
X104274715Y-75308571D02*
X103417572Y-76165714D01*
X104846143Y-76380000D02*
X105560429Y-76380000D01*
X104703286Y-76808571D02*
X105203286Y-75308571D01*
X105703286Y-76808571D01*
X107060429Y-76808571D02*
X106560429Y-76094286D01*
X106203286Y-76808571D02*
X106203286Y-75308571D01*
X106774714Y-75308571D01*
X106917572Y-75380000D01*
X106989000Y-75451429D01*
X107060429Y-75594286D01*
X107060429Y-75808571D01*
X106989000Y-75951429D01*
X106917572Y-76022857D01*
X106774714Y-76094286D01*
X106203286Y-76094286D01*
X107703286Y-76808571D02*
X107703286Y-75308571D01*
X108703286Y-76094286D02*
X108703286Y-76808571D01*
X108203286Y-75308571D02*
X108703286Y-76094286D01*
X109203286Y-75308571D01*
X109631857Y-76380000D02*
X110346143Y-76380000D01*
X109489000Y-76808571D02*
X109989000Y-75308571D01*
X110489000Y-76808571D01*
X97024715Y-77708571D02*
X97024715Y-78780000D01*
X96953287Y-78994286D01*
X96810430Y-79137143D01*
X96596144Y-79208571D01*
X96453287Y-79208571D01*
X97739001Y-77708571D02*
X97739001Y-78922857D01*
X97810429Y-79065714D01*
X97881858Y-79137143D01*
X98024715Y-79208571D01*
X98310429Y-79208571D01*
X98453287Y-79137143D01*
X98524715Y-79065714D01*
X98596144Y-78922857D01*
X98596144Y-77708571D01*
X99310430Y-79208571D02*
X99310430Y-77708571D01*
X100167573Y-79208571D01*
X100167573Y-77708571D01*
X100881859Y-78422857D02*
X101381859Y-78422857D01*
X101596145Y-79208571D02*
X100881859Y-79208571D01*
X100881859Y-77708571D01*
X101596145Y-77708571D01*
X103310430Y-77851429D02*
X103381859Y-77780000D01*
X103524716Y-77708571D01*
X103881859Y-77708571D01*
X104024716Y-77780000D01*
X104096145Y-77851429D01*
X104167573Y-77994286D01*
X104167573Y-78137143D01*
X104096145Y-78351429D01*
X103239002Y-79208571D01*
X104167573Y-79208571D01*
X105096144Y-77708571D02*
X105239001Y-77708571D01*
X105381858Y-77780000D01*
X105453287Y-77851429D01*
X105524716Y-77994286D01*
X105596144Y-78280000D01*
X105596144Y-78637143D01*
X105524716Y-78922857D01*
X105453287Y-79065714D01*
X105381858Y-79137143D01*
X105239001Y-79208571D01*
X105096144Y-79208571D01*
X104953287Y-79137143D01*
X104881858Y-79065714D01*
X104810430Y-78922857D01*
X104739001Y-78637143D01*
X104739001Y-78280000D01*
X104810430Y-77994286D01*
X104881858Y-77851429D01*
X104953287Y-77780000D01*
X105096144Y-77708571D01*
X107024715Y-79208571D02*
X106167572Y-79208571D01*
X106596144Y-79208571D02*
X106596144Y-77708571D01*
X106453287Y-77922857D01*
X106310429Y-78065714D01*
X106167572Y-78137143D01*
X108381858Y-77708571D02*
X107667572Y-77708571D01*
X107596143Y-78422857D01*
X107667572Y-78351429D01*
X107810429Y-78280000D01*
X108167572Y-78280000D01*
X108310429Y-78351429D01*
X108381858Y-78422857D01*
X108453286Y-78565714D01*
X108453286Y-78922857D01*
X108381858Y-79065714D01*
X108310429Y-79137143D01*
X108167572Y-79208571D01*
X107810429Y-79208571D01*
X107667572Y-79137143D01*
X107596143Y-79065714D01*
D12*
X179705000Y-138430000D03*
X94615000Y-138430000D03*
X94615000Y-27940000D03*
X179705000Y-27940000D03*
D13*
X102616000Y-93472000D03*
X172961300Y-132918200D03*
D14*
X139065000Y-31750000D03*
X136525000Y-31750000D03*
X133985000Y-31750000D03*
X131445000Y-31750000D03*
X128905000Y-31750000D03*
X141605000Y-31750000D03*
X144145000Y-31750000D03*
D15*
X166370000Y-67036000D03*
X166370000Y-64536000D03*
X174498000Y-67036000D03*
X174498000Y-64536000D03*
D14*
X162825000Y-135139000D03*
X156221000Y-135139000D03*
X156221000Y-139711000D03*
X162825000Y-139711000D03*
X148809000Y-135139000D03*
X142205000Y-135139000D03*
X142205000Y-139711000D03*
X148809000Y-139711000D03*
X134793000Y-135139000D03*
X128189000Y-135139000D03*
X128189000Y-139711000D03*
X134793000Y-139711000D03*
X120777000Y-135139000D03*
X114173000Y-135139000D03*
X114173000Y-139711000D03*
X120777000Y-139711000D03*
X162825000Y-120869000D03*
X156221000Y-120869000D03*
X156221000Y-125441000D03*
X162825000Y-125441000D03*
X148809000Y-120869000D03*
X142205000Y-120869000D03*
X142205000Y-125441000D03*
X148809000Y-125441000D03*
X134793000Y-120869000D03*
X128189000Y-120869000D03*
X128189000Y-125441000D03*
X134793000Y-125441000D03*
X120777000Y-120869000D03*
X114173000Y-120869000D03*
X114173000Y-125441000D03*
X120777000Y-125441000D03*
X162825000Y-106599000D03*
X156221000Y-106599000D03*
X156221000Y-111171000D03*
X162825000Y-111171000D03*
X148809000Y-106599000D03*
X142205000Y-106599000D03*
X142205000Y-111171000D03*
X148809000Y-111171000D03*
X134793000Y-106599000D03*
X128189000Y-106599000D03*
X128189000Y-111171000D03*
X134793000Y-111171000D03*
X120777000Y-106599000D03*
X114173000Y-106599000D03*
X114173000Y-111171000D03*
X120777000Y-111171000D03*
X162825000Y-92329000D03*
X156221000Y-92329000D03*
X156221000Y-96901000D03*
X162825000Y-96901000D03*
X148809000Y-92329000D03*
X142205000Y-92329000D03*
X142205000Y-96901000D03*
X148809000Y-96901000D03*
X134793000Y-92329000D03*
X128189000Y-92329000D03*
X128189000Y-96901000D03*
X134793000Y-96901000D03*
D16*
X157618000Y-131075000D03*
X158888000Y-131075000D03*
D17*
X160158000Y-131075000D03*
X161428000Y-131075000D03*
D16*
X143602000Y-131075000D03*
X144872000Y-131075000D03*
D17*
X146142000Y-131075000D03*
X147412000Y-131075000D03*
D16*
X129586000Y-131075000D03*
X130856000Y-131075000D03*
D17*
X132126000Y-131075000D03*
X133396000Y-131075000D03*
D16*
X115570000Y-131075000D03*
X116840000Y-131075000D03*
D17*
X118110000Y-131075000D03*
X119380000Y-131075000D03*
D16*
X157618000Y-116805000D03*
X158888000Y-116805000D03*
D17*
X160158000Y-116805000D03*
X161428000Y-116805000D03*
D16*
X143602000Y-116805000D03*
X144872000Y-116805000D03*
D17*
X146142000Y-116805000D03*
X147412000Y-116805000D03*
D16*
X129586000Y-116805000D03*
X130856000Y-116805000D03*
D17*
X132126000Y-116805000D03*
X133396000Y-116805000D03*
D16*
X115570000Y-116805000D03*
X116840000Y-116805000D03*
D17*
X118110000Y-116805000D03*
X119380000Y-116805000D03*
D16*
X157618000Y-102535000D03*
X158888000Y-102535000D03*
D17*
X160158000Y-102535000D03*
X161428000Y-102535000D03*
D16*
X143602000Y-102535000D03*
X144872000Y-102535000D03*
D17*
X146142000Y-102535000D03*
X147412000Y-102535000D03*
D16*
X129586000Y-102535000D03*
X130856000Y-102535000D03*
D17*
X132126000Y-102535000D03*
X133396000Y-102535000D03*
D16*
X115570000Y-102535000D03*
X116840000Y-102535000D03*
D17*
X118110000Y-102535000D03*
X119380000Y-102535000D03*
D16*
X157618000Y-88265000D03*
X158888000Y-88265000D03*
D17*
X160158000Y-88265000D03*
X161428000Y-88265000D03*
D16*
X143602000Y-88265000D03*
X144872000Y-88265000D03*
D17*
X146142000Y-88265000D03*
X147412000Y-88265000D03*
D16*
X129586000Y-88265000D03*
X130856000Y-88265000D03*
D17*
X132126000Y-88265000D03*
X133396000Y-88265000D03*
D18*
X167680000Y-46950000D03*
D19*
X180180000Y-54450000D03*
D18*
X170180000Y-44450000D03*
X170180000Y-51950000D03*
X170180000Y-59450000D03*
X167680000Y-56950000D03*
D19*
X180180000Y-49450000D03*
D14*
X177292000Y-114554000D03*
X170688000Y-114554000D03*
X170688000Y-119126000D03*
X177292000Y-119126000D03*
X177292000Y-120904000D03*
X170688000Y-120904000D03*
X170688000Y-125476000D03*
X177292000Y-125476000D03*
X104394000Y-113538000D03*
X104394000Y-120142000D03*
X108966000Y-120142000D03*
X108966000Y-113538000D03*
X96139000Y-113538000D03*
X96139000Y-120142000D03*
X100711000Y-120142000D03*
X100711000Y-113538000D03*
X104394000Y-103378000D03*
X104394000Y-109982000D03*
X108966000Y-109982000D03*
X108966000Y-103378000D03*
X96139000Y-103378000D03*
X96139000Y-109982000D03*
X100711000Y-109982000D03*
X100711000Y-103378000D03*
X155702000Y-78994000D03*
X149098000Y-78994000D03*
X149098000Y-83566000D03*
X155702000Y-83566000D03*
X141732000Y-78994000D03*
X135128000Y-78994000D03*
X135128000Y-83566000D03*
X141732000Y-83566000D03*
D16*
X115570000Y-88265000D03*
X116840000Y-88265000D03*
D17*
X118110000Y-88265000D03*
X119380000Y-88265000D03*
D18*
X160782000Y-39370000D03*
D19*
X168282000Y-26870000D03*
D18*
X158282000Y-36870000D03*
X165782000Y-36870000D03*
X173282000Y-36870000D03*
X170782000Y-39370000D03*
D19*
X163282000Y-26870000D03*
D14*
X120777000Y-92329000D03*
X114173000Y-92329000D03*
X114173000Y-96901000D03*
X120777000Y-96901000D03*
X127762000Y-78994000D03*
X121158000Y-78994000D03*
X121158000Y-83566000D03*
X127762000Y-83566000D03*
D20*
X164592000Y-52324000D03*
D21*
X164592000Y-49784000D03*
X164592000Y-47244000D03*
X164592000Y-44704000D03*
X156972000Y-44704000D03*
X156972000Y-47244000D03*
X156972000Y-49784000D03*
X156972000Y-52324000D03*
D14*
X171530000Y-102130000D03*
X174030000Y-102130000D03*
X176530000Y-102130000D03*
X176530000Y-87630000D03*
X171530000Y-87630000D03*
D22*
X168330000Y-94630000D03*
X179730000Y-94630000D03*
D14*
X99060000Y-49022000D03*
X101600000Y-49022000D03*
X104140000Y-49022000D03*
X106680000Y-49022000D03*
X109220000Y-49022000D03*
X111760000Y-49022000D03*
X114300000Y-49022000D03*
X116840000Y-49022000D03*
X119380000Y-49022000D03*
X121920000Y-49022000D03*
X124460000Y-49022000D03*
X127000000Y-49022000D03*
X127000000Y-64262000D03*
X124460000Y-64262000D03*
X121920000Y-64262000D03*
X119380000Y-64262000D03*
X116840000Y-64262000D03*
X114300000Y-64262000D03*
X111760000Y-64262000D03*
X109220000Y-64262000D03*
X106680000Y-64262000D03*
X104140000Y-64262000D03*
X101600000Y-64262000D03*
X114300000Y-51562000D03*
X116840000Y-51562000D03*
X119380000Y-51562000D03*
X121920000Y-51562000D03*
X124460000Y-51562000D03*
X124460000Y-61722000D03*
X121920000Y-61722000D03*
X119380000Y-61722000D03*
X116840000Y-61722000D03*
X114300000Y-61722000D03*
X111760000Y-61722000D03*
X109220000Y-61722000D03*
X109220000Y-51562000D03*
X106680000Y-61722000D03*
X104140000Y-61722000D03*
X101600000Y-61722000D03*
X96520000Y-61722000D03*
X127000000Y-61722000D03*
X127000000Y-59182000D03*
X93980000Y-49022000D03*
X127000000Y-54102000D03*
X127000000Y-51562000D03*
X93980000Y-64262000D03*
X96520000Y-64262000D03*
X99060000Y-64262000D03*
X127000000Y-56642000D03*
X96520000Y-49022000D03*
X111760000Y-51562000D03*
D15*
X124714000Y-95738000D03*
X124714000Y-93238000D03*
D23*
X123678000Y-37338000D03*
X121178000Y-37338000D03*
D15*
X173990000Y-82530000D03*
X173990000Y-80030000D03*
X170942000Y-80030000D03*
X170942000Y-82530000D03*
D23*
X160000000Y-66294000D03*
X157500000Y-66294000D03*
D24*
X179262000Y-72898000D03*
X177862000Y-72898000D03*
D25*
X170124000Y-130963000D03*
X170124000Y-131613000D03*
X170124000Y-132263000D03*
X170124000Y-132913000D03*
X170124000Y-133563000D03*
X170124000Y-134213000D03*
X170124000Y-134863000D03*
D26*
X171024000Y-135763000D03*
X171674000Y-135763000D03*
X172324000Y-135763000D03*
X172974000Y-135763000D03*
X173624000Y-135763000D03*
X174274000Y-135763000D03*
X174924000Y-135763000D03*
D25*
X175824000Y-134863000D03*
X175824000Y-134213000D03*
X175824000Y-133563000D03*
X175824000Y-132913000D03*
X175824000Y-132263000D03*
X175824000Y-131613000D03*
X175824000Y-130963000D03*
D26*
X174924000Y-130063000D03*
X174274000Y-130063000D03*
X173624000Y-130063000D03*
X172974000Y-130063000D03*
X172324000Y-130063000D03*
X171674000Y-130063000D03*
X171024000Y-130063000D03*
D27*
X174567750Y-134506750D03*
X174567750Y-133444250D03*
X174567750Y-132381750D03*
X174567750Y-131319250D03*
X173505250Y-134506750D03*
X173505250Y-133444250D03*
X173505250Y-132381750D03*
X173505250Y-131319250D03*
X172442750Y-134506750D03*
X172442750Y-133444250D03*
X172442750Y-132381750D03*
X172442750Y-131319250D03*
X171380250Y-134506750D03*
X171380250Y-133444250D03*
X171380250Y-132381750D03*
X171380250Y-131319250D03*
D25*
X99766000Y-91522000D03*
X99766000Y-92172000D03*
X99766000Y-92822000D03*
X99766000Y-93472000D03*
X99766000Y-94122000D03*
X99766000Y-94772000D03*
X99766000Y-95422000D03*
D26*
X100666000Y-96322000D03*
X101316000Y-96322000D03*
X101966000Y-96322000D03*
X102616000Y-96322000D03*
X103266000Y-96322000D03*
X103916000Y-96322000D03*
X104566000Y-96322000D03*
D25*
X105466000Y-95422000D03*
X105466000Y-94772000D03*
X105466000Y-94122000D03*
X105466000Y-93472000D03*
X105466000Y-92822000D03*
X105466000Y-92172000D03*
X105466000Y-91522000D03*
D26*
X104566000Y-90622000D03*
X103916000Y-90622000D03*
X103266000Y-90622000D03*
X102616000Y-90622000D03*
X101966000Y-90622000D03*
X101316000Y-90622000D03*
X100666000Y-90622000D03*
D27*
X104209750Y-95065750D03*
X104209750Y-94003250D03*
X104209750Y-92940750D03*
X104209750Y-91878250D03*
X103147250Y-95065750D03*
X103147250Y-94003250D03*
X103147250Y-92940750D03*
X103147250Y-91878250D03*
X102084750Y-95065750D03*
X102084750Y-94003250D03*
X102084750Y-92940750D03*
X102084750Y-91878250D03*
X101022250Y-95065750D03*
X101022250Y-94003250D03*
X101022250Y-92940750D03*
X101022250Y-91878250D03*
D28*
X111586000Y-88138000D03*
X108886000Y-88138000D03*
D29*
X170434000Y-32846000D03*
X170434000Y-30146000D03*
D28*
X177212000Y-75438000D03*
X179912000Y-75438000D03*
D29*
X108204000Y-28114000D03*
X108204000Y-30814000D03*
X164084000Y-30146000D03*
X164084000Y-32846000D03*
X167132000Y-30146000D03*
X167132000Y-32846000D03*
D28*
X176356000Y-56642000D03*
X173656000Y-56642000D03*
D29*
X170180000Y-105965000D03*
X170180000Y-108665000D03*
X172720000Y-105965000D03*
X172720000Y-108665000D03*
D15*
X124460000Y-110216000D03*
X124460000Y-107716000D03*
X124460000Y-124440000D03*
X124460000Y-121940000D03*
X124460000Y-136886000D03*
X124460000Y-134386000D03*
D23*
X177058000Y-70358000D03*
X179558000Y-70358000D03*
X157500000Y-63754000D03*
X160000000Y-63754000D03*
X157480000Y-68834000D03*
X159980000Y-68834000D03*
X157480000Y-71374000D03*
X159980000Y-71374000D03*
X157500000Y-76454000D03*
X160000000Y-76454000D03*
X157480000Y-73914000D03*
X159980000Y-73914000D03*
X108478000Y-34036000D03*
X110978000Y-34036000D03*
D15*
X168148000Y-82530000D03*
X168148000Y-80030000D03*
X165100000Y-80030000D03*
X165100000Y-82530000D03*
D23*
X105390000Y-34290000D03*
X102890000Y-34290000D03*
X105390000Y-31242000D03*
X102890000Y-31242000D03*
X176256000Y-53086000D03*
X173756000Y-53086000D03*
D15*
X167640000Y-108565000D03*
X167640000Y-106065000D03*
X180340000Y-108565000D03*
X180340000Y-106065000D03*
D30*
X172974000Y-47560000D03*
X172974000Y-48960000D03*
D31*
X120269000Y-27635200D03*
X120269000Y-30327600D03*
D32*
X112141000Y-28422600D03*
D33*
X112141000Y-37744400D03*
D34*
X116941600Y-41275000D03*
D35*
X116205000Y-29540200D03*
X116205000Y-36550600D03*
D36*
X94310200Y-35941000D03*
X97002600Y-35941000D03*
D37*
X95097600Y-44069000D03*
D34*
X104419400Y-44069000D03*
D33*
X107950000Y-39268400D03*
D35*
X96215200Y-40005000D03*
X103225600Y-40005000D03*
D23*
X159786000Y-80010000D03*
X162286000Y-80010000D03*
D28*
X123778000Y-34290000D03*
X121078000Y-34290000D03*
X162386000Y-82550000D03*
X159686000Y-82550000D03*
X102790000Y-27940000D03*
X105490000Y-27940000D03*
X175768000Y-46736000D03*
X178468000Y-46736000D03*
D29*
X175260000Y-105965000D03*
X175260000Y-108665000D03*
X177800000Y-105965000D03*
X177800000Y-108665000D03*
D38*
X167132000Y-70866000D03*
X167132000Y-71266000D03*
X167132000Y-71666000D03*
X167132000Y-72066000D03*
X167132000Y-72466000D03*
X167132000Y-72866000D03*
X167132000Y-73266000D03*
X167132000Y-73666000D03*
X167132000Y-74066000D03*
X167132000Y-74466000D03*
X167132000Y-74866000D03*
X167132000Y-75266000D03*
D39*
X167932000Y-76066000D03*
X168332000Y-76066000D03*
X168732000Y-76066000D03*
X169132000Y-76066000D03*
X169532000Y-76066000D03*
X169932000Y-76066000D03*
X170332000Y-76066000D03*
X170732000Y-76066000D03*
X171132000Y-76066000D03*
X171532000Y-76066000D03*
X171932000Y-76066000D03*
X172332000Y-76066000D03*
D38*
X173132000Y-75266000D03*
X173132000Y-74866000D03*
X173132000Y-74466000D03*
X173132000Y-74066000D03*
X173132000Y-73666000D03*
X173132000Y-73266000D03*
X173132000Y-72866000D03*
X173132000Y-72466000D03*
X173132000Y-72066000D03*
X173132000Y-71666000D03*
X173132000Y-71266000D03*
X173132000Y-70866000D03*
D39*
X172332000Y-70066000D03*
X171932000Y-70066000D03*
X171532000Y-70066000D03*
X171132000Y-70066000D03*
X170732000Y-70066000D03*
X170332000Y-70066000D03*
X169932000Y-70066000D03*
X169532000Y-70066000D03*
X169132000Y-70066000D03*
X168732000Y-70066000D03*
X168332000Y-70066000D03*
X167932000Y-70066000D03*
D40*
X171800750Y-74734750D03*
X171800750Y-73622250D03*
X171800750Y-72509750D03*
X171800750Y-71397250D03*
X170688250Y-74734750D03*
X170688250Y-73622250D03*
X170688250Y-72509750D03*
X170688250Y-71397250D03*
X169575750Y-74734750D03*
X169575750Y-73622250D03*
X169575750Y-72509750D03*
X169575750Y-71397250D03*
X168463250Y-74734750D03*
X168463250Y-73622250D03*
X168463250Y-72509750D03*
X168463250Y-71397250D03*
D41*
X171621852Y-65064346D03*
X169421852Y-65064346D03*
X171621852Y-66664346D03*
X169421852Y-66664346D03*
D23*
X179304000Y-80010000D03*
X176804000Y-80010000D03*
X176804000Y-82550000D03*
X179304000Y-82550000D03*
D28*
X115650000Y-79375000D03*
X112950000Y-79375000D03*
X115570000Y-83185000D03*
X112870000Y-83185000D03*
D42*
X147955000Y-62865000D03*
X145415000Y-62865000D03*
X145415000Y-65405000D03*
X147955000Y-65405000D03*
X147955000Y-67945000D03*
X145415000Y-67945000D03*
X145415000Y-70485000D03*
X147955000Y-70485000D03*
X147955000Y-73025000D03*
D43*
X145415000Y-73025000D03*
D29*
X123190000Y-73105000D03*
X123190000Y-70405000D03*
X116840000Y-73105000D03*
X116840000Y-70405000D03*
D14*
X145415000Y-43180000D03*
X145415000Y-45720000D03*
X145415000Y-48260000D03*
X145415000Y-50800000D03*
X145415000Y-53340000D03*
X135255000Y-53340000D03*
X135255000Y-43180000D03*
X135255000Y-45720000D03*
X135255000Y-48260000D03*
X135255000Y-50800000D03*
D42*
X137795000Y-62865000D03*
X135255000Y-62865000D03*
X135255000Y-65405000D03*
X137795000Y-65405000D03*
X137795000Y-67945000D03*
X135255000Y-67945000D03*
X135255000Y-70485000D03*
X137795000Y-70485000D03*
X137795000Y-73025000D03*
D43*
X135255000Y-73025000D03*
X128270000Y-27940000D03*
D42*
X130810000Y-27940000D03*
X133350000Y-27940000D03*
X135890000Y-27940000D03*
X138430000Y-27940000D03*
X140970000Y-27940000D03*
X143510000Y-27940000D03*
X146050000Y-27940000D03*
D13*
X170129200Y-73075800D03*
D44*
X167114302Y-68920526D03*
X167716200Y-67373500D03*
X169772390Y-68680383D03*
X131772315Y-56486596D03*
X153924000Y-66802000D03*
X138737336Y-49873979D03*
X167640000Y-59182000D03*
X168568457Y-135108543D03*
X103505000Y-97790000D03*
X98425000Y-95885000D03*
X165735000Y-102235000D03*
X172881642Y-69376630D03*
X164592000Y-74253898D03*
X165608000Y-76200000D03*
X114690050Y-70358000D03*
X162712400Y-72415400D03*
X161620200Y-74256900D03*
X160655000Y-78105000D03*
X164464984Y-78105000D03*
X160020004Y-31496000D03*
X125752332Y-45927508D03*
X128524000Y-70612000D03*
X129793998Y-65884021D03*
X167062026Y-134562974D03*
X101600000Y-98425000D03*
X103505000Y-98590013D03*
X102870000Y-100965000D03*
X164846000Y-70866000D03*
X177292000Y-71628000D03*
X175006000Y-55118000D03*
X170763159Y-77112162D03*
X174498000Y-73914000D03*
X117475000Y-99060000D03*
X168274981Y-130144960D03*
X166912364Y-114392636D03*
X166887158Y-129607430D03*
X167493114Y-132372385D03*
X164599599Y-131394327D03*
X178599642Y-132055673D03*
X165959864Y-113440136D03*
X177180951Y-132081650D03*
X177196846Y-130865855D03*
X169222620Y-124587348D03*
X169456050Y-114280234D03*
X165735000Y-105410000D03*
X173344336Y-127224433D03*
X163041090Y-126924342D03*
X167640000Y-116205000D03*
X172720000Y-128905000D03*
X168100358Y-127553103D03*
X163322000Y-128270000D03*
X116205000Y-85090000D03*
X107950000Y-93979986D03*
X107416252Y-96135031D03*
X106045000Y-90805000D03*
X117475000Y-84455000D03*
X102870000Y-88265000D03*
X102857354Y-89479882D03*
X125476000Y-77216000D03*
X101619188Y-88319980D03*
X100923022Y-89627202D03*
X138430004Y-51308000D03*
X163670495Y-69298010D03*
X164734818Y-72285980D03*
X166370014Y-81280000D03*
X114143864Y-40737864D03*
X108458000Y-41656000D03*
X163576000Y-68072000D03*
X129852797Y-46581274D03*
X165549266Y-72280156D03*
X170141874Y-78159980D03*
X162064700Y-73177400D03*
X138176000Y-52108013D03*
X168910000Y-135890000D03*
X110490000Y-95250010D03*
X113365732Y-77544073D03*
X110236000Y-78359000D03*
X109220000Y-95885000D03*
X168149863Y-136975461D03*
X149243202Y-46782453D03*
X118618000Y-58420000D03*
X126492002Y-71023181D03*
X129581266Y-60483822D03*
X141746091Y-59644690D03*
X128939515Y-44677497D03*
X125981667Y-48276567D03*
X141478000Y-64008000D03*
X169164000Y-77216000D03*
X172720000Y-34036000D03*
X174244000Y-72136000D03*
X177800000Y-77470000D03*
X138720339Y-55275127D03*
X127508002Y-43942000D03*
X141730026Y-63046839D03*
D45*
X168463250Y-71397250D02*
X169575750Y-71397250D01*
X169575750Y-71397250D02*
X170688250Y-72509750D01*
X171621852Y-66664346D02*
X171121852Y-66664346D01*
X173132000Y-75266000D02*
X173692000Y-75266000D01*
X173692000Y-75266000D02*
X176804000Y-78378000D01*
X176804000Y-78378000D02*
X176804000Y-79225000D01*
X176804000Y-79225000D02*
X176804000Y-80010000D01*
D46*
X166370000Y-64536000D02*
X166370000Y-60452000D01*
X166370000Y-60452000D02*
X167640000Y-59182000D01*
D45*
X167716200Y-66007200D02*
X168378998Y-66007200D01*
X168378998Y-66007200D02*
X169321852Y-65064346D01*
X169321852Y-65064346D02*
X169421852Y-65064346D01*
X169521852Y-65064346D02*
X169421852Y-65064346D01*
X169061842Y-65213467D02*
X169167287Y-65318912D01*
X167932000Y-69766000D02*
X167114302Y-68948302D01*
X167716200Y-66007200D02*
X167716200Y-67373500D01*
X166370000Y-64661000D02*
X167716200Y-66007200D01*
X166370000Y-64536000D02*
X166370000Y-64661000D01*
X167932000Y-70066000D02*
X167932000Y-69766000D01*
X167114302Y-68948302D02*
X167114302Y-68920526D01*
X169132000Y-69320773D02*
X169772390Y-68680383D01*
X169132000Y-70066000D02*
X169132000Y-69320773D01*
X167162598Y-84836000D02*
X161544000Y-84836000D01*
X161544000Y-84836000D02*
X155702000Y-78994000D01*
X171530000Y-87630000D02*
X169956598Y-87630000D01*
X169956598Y-87630000D02*
X167162598Y-84836000D01*
X146050000Y-27940000D02*
X146050000Y-42545000D01*
X146050000Y-42545000D02*
X145415000Y-43180000D01*
X138737336Y-49873979D02*
X142240000Y-46371315D01*
X142240000Y-46371315D02*
X142240000Y-46355000D01*
X142240000Y-46355000D02*
X145415000Y-43180000D01*
X131616911Y-56642000D02*
X131772315Y-56486596D01*
X127000000Y-56642000D02*
X131616911Y-56642000D01*
X145415000Y-72026800D02*
X145415000Y-73025000D01*
X144973160Y-71584960D02*
X145415000Y-72026800D01*
X138853454Y-71584960D02*
X144973160Y-71584960D01*
X138531615Y-71906799D02*
X138853454Y-71584960D01*
X137258263Y-71906799D02*
X138531615Y-71906799D01*
X136140062Y-73025000D02*
X137258263Y-71906799D01*
X135255000Y-73025000D02*
X136140062Y-73025000D01*
X154327000Y-66802000D02*
X153924000Y-66802000D01*
X157500000Y-63754000D02*
X157375000Y-63754000D01*
X157375000Y-63754000D02*
X154327000Y-66802000D01*
X131445000Y-31750000D02*
X132715000Y-30480000D01*
X132715000Y-30480000D02*
X143510000Y-30480000D01*
X143510000Y-30480000D02*
X146050000Y-27940000D01*
X142966999Y-134377001D02*
X142205000Y-135139000D01*
X143164999Y-134377001D02*
X142966999Y-134377001D01*
X134793000Y-135139000D02*
X142205000Y-135139000D01*
X146142000Y-131075000D02*
X146142000Y-131400000D01*
X146142000Y-131400000D02*
X143164999Y-134377001D01*
X118110000Y-131022966D02*
X119087967Y-130044999D01*
X118110000Y-131075000D02*
X118110000Y-131022966D01*
X119087967Y-130044999D02*
X131420999Y-130044999D01*
X131420999Y-130044999D02*
X132126000Y-130750000D01*
X132126000Y-130750000D02*
X132126000Y-131075000D01*
X124460000Y-134386000D02*
X127436000Y-134386000D01*
X127436000Y-134386000D02*
X128189000Y-135139000D01*
X96139000Y-120142000D02*
X97181001Y-121184001D01*
X97181001Y-121184001D02*
X103351999Y-121184001D01*
X103351999Y-121184001D02*
X104394000Y-120142000D01*
X104394000Y-120142000D02*
X105882999Y-121630999D01*
X105882999Y-121630999D02*
X113411001Y-121630999D01*
X113411001Y-121630999D02*
X114173000Y-120869000D01*
X114173000Y-120869000D02*
X113130999Y-119826999D01*
X113130999Y-119826999D02*
X113130999Y-107641001D01*
X113130999Y-107641001D02*
X114173000Y-106599000D01*
X113130999Y-134096999D02*
X113130999Y-126450291D01*
X114173000Y-135139000D02*
X113130999Y-134096999D01*
X113130999Y-126450291D02*
X112770989Y-126090282D01*
X112770989Y-126090282D02*
X112770989Y-124791718D01*
X112770989Y-124791718D02*
X112903000Y-124659707D01*
X112903000Y-124659707D02*
X112903000Y-122139000D01*
X112903000Y-122139000D02*
X114173000Y-120869000D01*
X162825000Y-120869000D02*
X170653000Y-120869000D01*
X170653000Y-120869000D02*
X170688000Y-120904000D01*
X148809000Y-120869000D02*
X156221000Y-120869000D01*
X134793000Y-120869000D02*
X142205000Y-120869000D01*
X124460000Y-121940000D02*
X127118000Y-121940000D01*
X127118000Y-121940000D02*
X128189000Y-120869000D01*
X120777000Y-120869000D02*
X121848000Y-121940000D01*
X121848000Y-121940000D02*
X124460000Y-121940000D01*
X134793000Y-106599000D02*
X142205000Y-106599000D01*
X148809000Y-106599000D02*
X156221000Y-106599000D01*
X148809000Y-92329000D02*
X156221000Y-92329000D01*
X142205000Y-92329000D02*
X134793000Y-92329000D01*
X124714000Y-93238000D02*
X127280000Y-93238000D01*
X127280000Y-93238000D02*
X128189000Y-92329000D01*
X120777000Y-92329000D02*
X123805000Y-92329000D01*
X123805000Y-92329000D02*
X123806000Y-92328000D01*
X123806000Y-92328000D02*
X123929000Y-92328000D01*
X123929000Y-92328000D02*
X124714000Y-93113000D01*
X124714000Y-93113000D02*
X124714000Y-93238000D01*
X124460000Y-107716000D02*
X127072000Y-107716000D01*
X127072000Y-107716000D02*
X128189000Y-106599000D01*
X124460000Y-107716000D02*
X121894000Y-107716000D01*
X121894000Y-107716000D02*
X120777000Y-106599000D01*
D46*
X168732000Y-76646000D02*
X168732000Y-76066000D01*
X173756000Y-52281000D02*
X173756000Y-53086000D01*
X173425000Y-51950000D02*
X173756000Y-52281000D01*
X170180000Y-51950000D02*
X173425000Y-51950000D01*
X172064000Y-63606000D02*
X167640000Y-59182000D01*
X173693000Y-63606000D02*
X172064000Y-63606000D01*
X174498000Y-64411000D02*
X173693000Y-63606000D01*
X174498000Y-64536000D02*
X174498000Y-64411000D01*
X167132000Y-74066000D02*
X167132000Y-74466000D01*
X167932000Y-76066000D02*
X168732000Y-76066000D01*
X168332000Y-76066000D02*
X168732000Y-76066000D01*
D45*
X174030000Y-102130000D02*
X175072001Y-101087999D01*
X175072001Y-101087999D02*
X177030161Y-101087999D01*
X177030161Y-101087999D02*
X180340000Y-104397838D01*
X180340000Y-104397838D02*
X180340000Y-106065000D01*
X167640000Y-106065000D02*
X167640000Y-104477838D01*
X167640000Y-104477838D02*
X171029839Y-101087999D01*
X171029839Y-101087999D02*
X172987999Y-101087999D01*
X172987999Y-101087999D02*
X174030000Y-102130000D01*
D47*
X96139000Y-109982000D02*
X96139000Y-113538000D01*
X104394000Y-109982000D02*
X104394000Y-113538000D01*
D46*
X157480000Y-76454000D02*
X157480000Y-73914000D01*
X157480000Y-71374000D02*
X157480000Y-73914000D01*
X157480000Y-68834000D02*
X157480000Y-71374000D01*
X157500000Y-68814000D02*
X157480000Y-68834000D01*
X157500000Y-66294000D02*
X157500000Y-68814000D01*
X157500000Y-63754000D02*
X157500000Y-66294000D01*
D45*
X172974000Y-135763000D02*
X173624000Y-135763000D01*
X174274000Y-135763000D02*
X173624000Y-135763000D01*
X167365010Y-136311990D02*
X167365010Y-137010880D01*
X172974000Y-136423000D02*
X172974000Y-135763000D01*
X167365010Y-137010880D02*
X169419130Y-139065000D01*
X169419130Y-139065000D02*
X170332000Y-139065000D01*
X170332000Y-139065000D02*
X172974000Y-136423000D01*
X103266000Y-96982000D02*
X103439000Y-97155000D01*
X103266000Y-96322000D02*
X103266000Y-96982000D01*
X103916000Y-96637000D02*
X103916000Y-96322000D01*
X103439000Y-97114000D02*
X103916000Y-96637000D01*
X103439000Y-97155000D02*
X103439000Y-97114000D01*
X103439000Y-97724000D02*
X103505000Y-97790000D01*
X103439000Y-97114000D02*
X103439000Y-97724000D01*
X98425000Y-95885000D02*
X98425000Y-95250000D01*
X98903000Y-94772000D02*
X99766000Y-94772000D01*
X98425000Y-95250000D02*
X98903000Y-94772000D01*
X140970001Y-79755999D02*
X141732000Y-78994000D01*
X135889999Y-79755999D02*
X140970001Y-79755999D01*
X135128000Y-78994000D02*
X135889999Y-79755999D01*
X127762000Y-78994000D02*
X121158000Y-78994000D01*
X157480000Y-77216000D02*
X157480000Y-76454000D01*
X155702000Y-78994000D02*
X157480000Y-77216000D01*
X148809000Y-135139000D02*
X156221000Y-135139000D01*
X170688000Y-120904000D02*
X177292000Y-120904000D01*
X162825000Y-92329000D02*
X161782999Y-93371001D01*
X161782999Y-93371001D02*
X161782999Y-98282999D01*
X161782999Y-98282999D02*
X165735000Y-102235000D01*
X169464000Y-134213000D02*
X170124000Y-134213000D01*
X167365010Y-136311990D02*
X168568457Y-135108543D01*
X168568457Y-135108543D02*
X169464000Y-134213000D01*
X176804000Y-80010000D02*
X176804000Y-82550000D01*
X173132000Y-70866000D02*
X173132000Y-69626988D01*
X172332000Y-70066000D02*
X172332000Y-69766000D01*
X172332000Y-69766000D02*
X172721370Y-69376630D01*
X172721370Y-69376630D02*
X172881642Y-69376630D01*
X173132000Y-69626988D02*
X172881642Y-69376630D01*
X176679000Y-82550000D02*
X175409000Y-83820000D01*
X176804000Y-82550000D02*
X176679000Y-82550000D01*
X175409000Y-83820000D02*
X172974000Y-83820000D01*
X171530000Y-85264000D02*
X171530000Y-87630000D01*
X172974000Y-83820000D02*
X171530000Y-85264000D01*
X173816000Y-85344000D02*
X171530000Y-87630000D01*
X179578000Y-85344000D02*
X173816000Y-85344000D01*
X180942001Y-83979999D02*
X179578000Y-85344000D01*
X180942001Y-72527001D02*
X180942001Y-83979999D01*
X179558000Y-71143000D02*
X180942001Y-72527001D01*
X179558000Y-70358000D02*
X179558000Y-71143000D01*
X157500000Y-77239000D02*
X157734000Y-77473000D01*
X157500000Y-76454000D02*
X157500000Y-77239000D01*
X157734000Y-79788000D02*
X158242000Y-80296000D01*
X157734000Y-77473000D02*
X157734000Y-79788000D01*
X158242000Y-80296000D02*
X158242000Y-81534000D01*
X158242000Y-81534000D02*
X158496000Y-81788000D01*
X158776000Y-82550000D02*
X159686000Y-82550000D01*
X158496000Y-82270000D02*
X158776000Y-82550000D01*
X158496000Y-81788000D02*
X158496000Y-82270000D01*
X167132000Y-74066000D02*
X164779898Y-74066000D01*
X164779898Y-74066000D02*
X164592000Y-74253898D01*
X168732000Y-76646000D02*
X166054000Y-76646000D01*
X166054000Y-76646000D02*
X165608000Y-76200000D01*
X169442401Y-77796001D02*
X168885599Y-77796001D01*
X168732000Y-76366000D02*
X168732000Y-76066000D01*
X169932000Y-77306402D02*
X169442401Y-77796001D01*
X168472000Y-77382402D02*
X168472000Y-76626000D01*
X169932000Y-76066000D02*
X169932000Y-77306402D01*
X168885599Y-77796001D02*
X168472000Y-77382402D01*
X168472000Y-76626000D02*
X168732000Y-76366000D01*
X169932000Y-76066000D02*
X169932000Y-77318402D01*
X170564296Y-77724000D02*
X172974000Y-77724000D01*
X169932000Y-77318402D02*
X170193577Y-77579979D01*
X170193577Y-77579979D02*
X170420275Y-77579979D01*
X170420275Y-77579979D02*
X170564296Y-77724000D01*
X172974000Y-77724000D02*
X173132000Y-77566000D01*
X173132000Y-77566000D02*
X173132000Y-75266000D01*
X114737050Y-70405000D02*
X114690050Y-70358000D01*
X116840000Y-70405000D02*
X114737050Y-70405000D01*
X163163000Y-72866000D02*
X162712400Y-72415400D01*
X167132000Y-72866000D02*
X163163000Y-72866000D01*
X163067475Y-74256900D02*
X161620200Y-74256900D01*
X167132000Y-73666000D02*
X163658375Y-73666000D01*
X163658375Y-73666000D02*
X163067475Y-74256900D01*
D46*
X168332000Y-70066000D02*
X168332000Y-69298317D01*
X162805958Y-65368960D02*
X161855040Y-65368960D01*
X161855040Y-65368960D02*
X160930000Y-66294000D01*
X168332000Y-69298317D02*
X167377194Y-68343511D01*
X166969985Y-68076001D02*
X165512999Y-68076001D01*
X167377194Y-68343511D02*
X167237494Y-68343511D01*
X167237494Y-68343511D02*
X166969985Y-68076001D01*
X165512999Y-68076001D02*
X162805958Y-65368960D01*
X160930000Y-66294000D02*
X160000000Y-66294000D01*
D45*
X170049518Y-68099110D02*
X170732000Y-68781592D01*
X170732000Y-68781592D02*
X170732000Y-70066000D01*
X169533391Y-68099110D02*
X170049518Y-68099110D01*
X168732000Y-70066000D02*
X168732000Y-68900501D01*
X168732000Y-68900501D02*
X169533391Y-68099110D01*
X159786000Y-80010000D02*
X158876000Y-80010000D01*
X158876000Y-80010000D02*
X158750000Y-79884000D01*
X158750000Y-79884000D02*
X158750000Y-77579000D01*
X158750000Y-77579000D02*
X159875000Y-76454000D01*
X159875000Y-76454000D02*
X160000000Y-76454000D01*
X159786000Y-80010000D02*
X159786000Y-78974000D01*
X159786000Y-78974000D02*
X160655000Y-78105000D01*
X162286000Y-80010000D02*
X165080000Y-80010000D01*
X165080000Y-80010000D02*
X165100000Y-80030000D01*
X164464984Y-78105000D02*
X162559984Y-80010000D01*
X162559984Y-80010000D02*
X162286000Y-80010000D01*
D46*
X168148000Y-80030000D02*
X168148000Y-79905000D01*
X168148000Y-79905000D02*
X167618000Y-79375000D01*
X167618000Y-79375000D02*
X166560000Y-79375000D01*
X166560000Y-79375000D02*
X165905000Y-80030000D01*
X165905000Y-80030000D02*
X165100000Y-80030000D01*
D45*
X168732000Y-70066000D02*
X168472000Y-70066000D01*
X168472000Y-70066000D02*
X168312001Y-70225999D01*
X156972000Y-52324000D02*
X156616400Y-52324000D01*
X156616400Y-52324000D02*
X155548990Y-51256590D01*
X155548990Y-51256590D02*
X155548990Y-37491010D01*
X155548990Y-37491010D02*
X160020000Y-33020000D01*
X160020000Y-33020000D02*
X160020000Y-31496004D01*
X160020000Y-31496004D02*
X160020004Y-31496000D01*
X161370004Y-30146000D02*
X160020004Y-31496000D01*
X164084000Y-30146000D02*
X161370004Y-30146000D01*
X128213537Y-45759939D02*
X126673999Y-44220401D01*
X126673999Y-44220401D02*
X126673999Y-33981001D01*
X135255000Y-43180000D02*
X132675061Y-45759939D01*
X132675061Y-45759939D02*
X128213537Y-45759939D01*
X126673999Y-33981001D02*
X128905000Y-31750000D01*
X128113213Y-46499959D02*
X127397868Y-46499959D01*
X126825417Y-45927508D02*
X125752332Y-45927508D01*
X128774529Y-47161275D02*
X128113213Y-46499959D01*
X135255000Y-43180000D02*
X131273725Y-47161275D01*
X131273725Y-47161275D02*
X128774529Y-47161275D01*
X127397868Y-46499959D02*
X126825417Y-45927508D01*
X128317000Y-70405000D02*
X128524000Y-70612000D01*
X123190000Y-70405000D02*
X128317000Y-70405000D01*
X168732000Y-70066000D02*
X168332000Y-70066000D01*
X116840000Y-70405000D02*
X116840000Y-70505000D01*
X116840000Y-70505000D02*
X117770001Y-71435001D01*
X117770001Y-71435001D02*
X117770001Y-76444999D01*
X117770001Y-76444999D02*
X115650000Y-78565000D01*
X115650000Y-78565000D02*
X115650000Y-79375000D01*
X135255000Y-70485000D02*
X130654021Y-65884021D01*
X130654021Y-65884021D02*
X129793998Y-65884021D01*
X157716000Y-61595000D02*
X159875000Y-63754000D01*
X153670000Y-68911402D02*
X153670000Y-67406402D01*
X150978201Y-71603201D02*
X153670000Y-68911402D01*
X153670000Y-67406402D02*
X152505442Y-66241844D01*
X145415000Y-70485000D02*
X146533201Y-71603201D01*
X152505442Y-66241844D02*
X152505442Y-64029558D01*
X146533201Y-71603201D02*
X150978201Y-71603201D01*
X154940000Y-61595000D02*
X157716000Y-61595000D01*
X152505442Y-64029558D02*
X154940000Y-61595000D01*
X159875000Y-63754000D02*
X160000000Y-63754000D01*
X116840000Y-70405000D02*
X123190000Y-70405000D01*
X160000000Y-54996400D02*
X160000000Y-63754000D01*
X157327600Y-52324000D02*
X160000000Y-54996400D01*
X156972000Y-52324000D02*
X157327600Y-52324000D01*
X135255000Y-70485000D02*
X136093199Y-69646801D01*
X136093199Y-69646801D02*
X136978261Y-69646801D01*
X136978261Y-69646801D02*
X137258263Y-69366799D01*
X137258263Y-69366799D02*
X144296799Y-69366799D01*
X144296799Y-69366799D02*
X145415000Y-70485000D01*
X116840000Y-87355000D02*
X116840000Y-88265000D01*
X115570000Y-86085000D02*
X116840000Y-87355000D01*
X115570000Y-83185000D02*
X115570000Y-86085000D01*
X124714000Y-95738000D02*
X122643838Y-95738000D01*
X122643838Y-95738000D02*
X119380000Y-92474162D01*
X119380000Y-92474162D02*
X119380000Y-91130000D01*
X119380000Y-91130000D02*
X116840000Y-88590000D01*
X116840000Y-88590000D02*
X116840000Y-88265000D01*
X116840000Y-102482966D02*
X118745000Y-100577966D01*
X118745000Y-100577966D02*
X118745000Y-91839162D01*
X118745000Y-91839162D02*
X116840000Y-89934162D01*
X116840000Y-102535000D02*
X116840000Y-102482966D01*
X116840000Y-89934162D02*
X116840000Y-88265000D01*
X130856000Y-131400000D02*
X131561001Y-132105001D01*
X131561001Y-132105001D02*
X144166999Y-132105001D01*
X144166999Y-132105001D02*
X144872000Y-131400000D01*
X144872000Y-131400000D02*
X144872000Y-131075000D01*
X124460000Y-124440000D02*
X122805838Y-124440000D01*
X122805838Y-124440000D02*
X116840000Y-118474162D01*
X116840000Y-118474162D02*
X116840000Y-116805000D01*
X119804010Y-132105010D02*
X117545010Y-132105010D01*
X117545010Y-132105010D02*
X116840000Y-131400000D01*
X124460000Y-136761000D02*
X119804010Y-132105010D01*
X124460000Y-136886000D02*
X124460000Y-136761000D01*
X158888000Y-117130000D02*
X158888000Y-116805000D01*
X144872000Y-116805000D02*
X144872000Y-117130000D01*
X144872000Y-117130000D02*
X145577001Y-117835001D01*
X145577001Y-117835001D02*
X158182999Y-117835001D01*
X158182999Y-117835001D02*
X158888000Y-117130000D01*
X130856000Y-116805000D02*
X130856000Y-117130000D01*
X130856000Y-117130000D02*
X130150990Y-117835010D01*
X130150990Y-117835010D02*
X117545010Y-117835010D01*
X117545010Y-117835010D02*
X116840000Y-117130000D01*
X116840000Y-117130000D02*
X116840000Y-116805000D01*
X130856000Y-117130000D02*
X131561001Y-117835001D01*
X131561001Y-117835001D02*
X144166999Y-117835001D01*
X144166999Y-117835001D02*
X144872000Y-117130000D01*
X124460000Y-110216000D02*
X123675000Y-110216000D01*
X123675000Y-110216000D02*
X123505162Y-110046162D01*
X123505162Y-110046162D02*
X116840000Y-110046162D01*
X116840000Y-117130000D02*
X116134999Y-117835001D01*
X116134999Y-117835001D02*
X114920999Y-117835001D01*
X114920999Y-117835001D02*
X114864999Y-117779001D01*
X114864999Y-117779001D02*
X114864999Y-112021163D01*
X114864999Y-112021163D02*
X116840000Y-110046162D01*
X116840000Y-110046162D02*
X116840000Y-102535000D01*
X144872000Y-88265000D02*
X144872000Y-87355000D01*
X144872000Y-87355000D02*
X144992010Y-87234990D01*
X144992010Y-87234990D02*
X158182990Y-87234990D01*
X158182990Y-87234990D02*
X158888000Y-87940000D01*
X158888000Y-87940000D02*
X158888000Y-88265000D01*
X130856000Y-88265000D02*
X130856000Y-87940000D01*
X130856000Y-87940000D02*
X131561001Y-87234999D01*
X131561001Y-87234999D02*
X144166999Y-87234999D01*
X144166999Y-87234999D02*
X144872000Y-87940000D01*
X144872000Y-87940000D02*
X144872000Y-88265000D01*
X116840000Y-88265000D02*
X117348000Y-88265000D01*
X117348000Y-88265000D02*
X117404990Y-88208010D01*
X117404990Y-88208010D02*
X117404990Y-87647976D01*
X117404990Y-87647976D02*
X117817976Y-87234990D01*
X117817976Y-87234990D02*
X130150990Y-87234990D01*
X130150990Y-87234990D02*
X130856000Y-87940000D01*
X175260000Y-108665000D02*
X172720000Y-108665000D01*
D46*
X160000000Y-63754000D02*
X160000000Y-66294000D01*
X160000000Y-68814000D02*
X159980000Y-68834000D01*
X159980000Y-73914000D02*
X159980000Y-76454000D01*
X176356000Y-53186000D02*
X176256000Y-53086000D01*
X176356000Y-56642000D02*
X176356000Y-53186000D01*
X159372401Y-53401401D02*
X158295000Y-52324000D01*
X166262603Y-53401401D02*
X159372401Y-53401401D01*
X170443203Y-57582001D02*
X166262603Y-53401401D01*
X176245999Y-57582001D02*
X170443203Y-57582001D01*
X176356000Y-56642000D02*
X176356000Y-57472000D01*
X176356000Y-57472000D02*
X176245999Y-57582001D01*
X158295000Y-52324000D02*
X156972000Y-52324000D01*
X159980000Y-72426178D02*
X159980000Y-73914000D01*
X159980000Y-71374000D02*
X159980000Y-72426178D01*
X159980000Y-68834000D02*
X159980000Y-71374000D01*
X160000000Y-66294000D02*
X160000000Y-68814000D01*
D45*
X115570000Y-79455000D02*
X115650000Y-79375000D01*
X115570000Y-83185000D02*
X115570000Y-79455000D01*
X172720000Y-108665000D02*
X172720000Y-108765000D01*
X172720000Y-108765000D02*
X171910000Y-109575000D01*
X159593010Y-115774990D02*
X158888000Y-116480000D01*
X171910000Y-109575000D02*
X171910000Y-110253402D01*
X171910000Y-110253402D02*
X168580011Y-113583391D01*
X168580011Y-113583391D02*
X168580011Y-116632522D01*
X165842457Y-115774990D02*
X159593010Y-115774990D01*
X167212478Y-117145011D02*
X165842457Y-115774990D01*
X168580011Y-116632522D02*
X168067522Y-117145011D01*
X168067522Y-117145011D02*
X167212478Y-117145011D01*
X158888000Y-116480000D02*
X158888000Y-116805000D01*
X168062000Y-133563000D02*
X170124000Y-133563000D01*
X167062026Y-134562974D02*
X168062000Y-133563000D01*
X104566000Y-97587402D02*
X103863388Y-98290014D01*
X104566000Y-96322000D02*
X104566000Y-97587402D01*
X103863388Y-98290014D02*
X103804999Y-98290014D01*
X103146612Y-98290014D02*
X103205001Y-98290014D01*
X102924999Y-97854275D02*
X102924999Y-98068401D01*
X103804999Y-98290014D02*
X103505000Y-98590013D01*
X102616000Y-96322000D02*
X102616000Y-97545276D01*
X102616000Y-97545276D02*
X102924999Y-97854275D01*
X103205001Y-98290014D02*
X103505000Y-98590013D01*
X102924999Y-98068401D02*
X103146612Y-98290014D01*
X98064990Y-95386608D02*
X97844999Y-95606599D01*
X99766000Y-94122000D02*
X99043869Y-94122000D01*
X99043869Y-94122000D02*
X98064990Y-95100879D01*
X98064990Y-95100879D02*
X98064990Y-95386608D01*
X97844999Y-95606599D02*
X97844999Y-96163401D01*
X97844999Y-96163401D02*
X100106598Y-98425000D01*
X100106598Y-98425000D02*
X101600000Y-98425000D01*
X130856000Y-131400000D02*
X130856000Y-131075000D01*
X130150999Y-132105001D02*
X130856000Y-131400000D01*
X117545001Y-132105001D02*
X130150999Y-132105001D01*
X116840000Y-131400000D02*
X117545001Y-132105001D01*
X116840000Y-131075000D02*
X116840000Y-131400000D01*
X177830000Y-72866000D02*
X177862000Y-72898000D01*
X177862000Y-72948000D02*
X177862000Y-72898000D01*
X177212000Y-73598000D02*
X177862000Y-72948000D01*
X177212000Y-75438000D02*
X177212000Y-73598000D01*
X173132000Y-72866000D02*
X174843445Y-72866000D01*
X174843445Y-72866000D02*
X174993425Y-72716020D01*
X174993425Y-72716020D02*
X175293424Y-72416021D01*
X173132000Y-71266000D02*
X174567667Y-71266000D01*
X174567667Y-71266000D02*
X175293424Y-71991757D01*
X175293424Y-71991757D02*
X175293424Y-72416021D01*
D46*
X161168000Y-75266000D02*
X167132000Y-75266000D01*
X159980000Y-76454000D02*
X161168000Y-75266000D01*
X161847381Y-74866000D02*
X159980000Y-72998619D01*
X167132000Y-74866000D02*
X161847381Y-74866000D01*
X159980000Y-72998619D02*
X159980000Y-72426178D01*
D45*
X159980000Y-71374000D02*
X164338000Y-71374000D01*
X164338000Y-71374000D02*
X164846000Y-70866000D01*
X177862000Y-72848000D02*
X177800000Y-72786000D01*
X177862000Y-72898000D02*
X177862000Y-72848000D01*
X177800000Y-72136000D02*
X177292000Y-71628000D01*
X177800000Y-72786000D02*
X177800000Y-72136000D01*
X175006000Y-54610000D02*
X175006000Y-55118000D01*
X176256000Y-53360000D02*
X175006000Y-54610000D01*
X176256000Y-53086000D02*
X176256000Y-53871000D01*
X176256000Y-53871000D02*
X175009000Y-55118000D01*
X175009000Y-55118000D02*
X175006000Y-55118000D01*
X170732000Y-76066000D02*
X170732000Y-77081003D01*
X170732000Y-77081003D02*
X170763159Y-77112162D01*
X174993425Y-73418575D02*
X174498000Y-73914000D01*
X174993425Y-72716020D02*
X174993425Y-73418575D01*
X116840000Y-102860000D02*
X116840000Y-102535000D01*
X116068000Y-103632000D02*
X116840000Y-102860000D01*
X114987998Y-103632000D02*
X116068000Y-103632000D01*
X112320998Y-100965000D02*
X114987998Y-103632000D01*
X102870000Y-100965000D02*
X112320998Y-100965000D01*
X166762027Y-134862973D02*
X167062026Y-134562974D01*
X171575870Y-139700000D02*
X169545000Y-139700000D01*
X174924000Y-135763000D02*
X174924000Y-136351870D01*
X174924000Y-136351870D02*
X171575870Y-139700000D01*
X169545000Y-139700000D02*
X166762027Y-136917027D01*
X166762027Y-136917027D02*
X166762027Y-134862973D01*
X99766000Y-91522000D02*
X99106000Y-91522000D01*
X100532466Y-99359999D02*
X102398322Y-99359999D01*
X97704980Y-94951758D02*
X97704980Y-95237487D01*
X102398322Y-99359999D02*
X102928357Y-99890034D01*
X99106000Y-91522000D02*
X98705021Y-91922979D01*
X98705021Y-93951718D02*
X97704980Y-94951758D01*
X98705021Y-91922979D02*
X98705021Y-93951718D01*
X97704980Y-95237487D02*
X97484989Y-95457478D01*
X97484989Y-95457478D02*
X97484989Y-96312522D01*
X97484989Y-96312522D02*
X100532466Y-99359999D01*
X102928357Y-99890034D02*
X116644966Y-99890034D01*
X116644966Y-99890034D02*
X117475000Y-99060000D01*
X119380000Y-88265000D02*
X129586000Y-88265000D01*
X169093021Y-130963000D02*
X168574980Y-130444959D01*
X168574980Y-130444959D02*
X168274981Y-130144960D01*
X170124000Y-130963000D02*
X169093021Y-130963000D01*
X167361599Y-116785001D02*
X166912364Y-116335766D01*
X167585001Y-101956599D02*
X167585001Y-102513401D01*
X163586999Y-97662999D02*
X163586999Y-97958597D01*
X162825000Y-96901000D02*
X163586999Y-97662999D01*
X166370000Y-103728402D02*
X166370000Y-112395000D01*
X167585001Y-102513401D02*
X166370000Y-103728402D01*
X166370000Y-112395000D02*
X168220001Y-114245001D01*
X166912364Y-116335766D02*
X166912364Y-114392636D01*
X163586999Y-97958597D02*
X167585001Y-101956599D01*
X168220001Y-114245001D02*
X168220001Y-116483401D01*
X168220001Y-116483401D02*
X167918401Y-116785001D01*
X167918401Y-116785001D02*
X167361599Y-116785001D01*
X170124000Y-131613000D02*
X168892728Y-131613000D01*
X168892728Y-131613000D02*
X166887158Y-129607430D01*
X167602499Y-132263000D02*
X167493114Y-132372385D01*
X170124000Y-132263000D02*
X167602499Y-132263000D01*
X162169970Y-126096030D02*
X162169970Y-128964698D01*
X162825000Y-125441000D02*
X162169970Y-126096030D01*
X162169970Y-128964698D02*
X164599599Y-131394327D01*
X162825000Y-139711000D02*
X162825000Y-137941598D01*
X162825000Y-137941598D02*
X167853598Y-132913000D01*
X167853598Y-132913000D02*
X170124000Y-132913000D01*
X178599642Y-132479937D02*
X178599642Y-132055673D01*
X177516579Y-133563000D02*
X178599642Y-132479937D01*
X175824000Y-133563000D02*
X177516579Y-133563000D01*
X120777000Y-96901000D02*
X125201010Y-101325010D01*
X161540044Y-101325010D02*
X163867001Y-103651967D01*
X163867001Y-103651967D02*
X163867001Y-111347273D01*
X163867001Y-111347273D02*
X165959864Y-113440136D01*
X125201010Y-101325010D02*
X161540044Y-101325010D01*
X176484000Y-132913000D02*
X177180951Y-132216049D01*
X175824000Y-132913000D02*
X176484000Y-132913000D01*
X177180951Y-132216049D02*
X177180951Y-132081650D01*
X176604001Y-131782594D02*
X177196846Y-131189749D01*
X176363002Y-132263000D02*
X176604001Y-132022001D01*
X176604001Y-132022001D02*
X176604001Y-131782594D01*
X177196846Y-131189749D02*
X177196846Y-130865855D01*
X175824000Y-132263000D02*
X176363002Y-132263000D01*
X120731999Y-137916001D02*
X135060607Y-137916001D01*
X168922621Y-124287349D02*
X169222620Y-124587348D01*
X162360999Y-131464035D02*
X162360999Y-130078377D01*
X114173000Y-131357002D02*
X120731999Y-137916001D01*
X114173000Y-125441000D02*
X114173000Y-131357002D01*
X135060607Y-137916001D02*
X136500646Y-136475961D01*
X161719203Y-129436581D02*
X161719203Y-125004635D01*
X162360999Y-130078377D02*
X161719203Y-129436581D01*
X136500646Y-136475961D02*
X157349073Y-136475961D01*
X162436489Y-124287349D02*
X168922621Y-124287349D01*
X161719203Y-125004635D02*
X162436489Y-124287349D01*
X157349073Y-136475961D02*
X162360999Y-131464035D01*
X114173000Y-125441000D02*
X120777000Y-125441000D01*
X143123162Y-140335000D02*
X147890838Y-140335000D01*
X171450000Y-140335000D02*
X179179643Y-132605357D01*
X156721161Y-140753001D02*
X157139162Y-140335000D01*
X179179643Y-131777272D02*
X177688225Y-130285854D01*
X162324839Y-140753001D02*
X163325161Y-140753001D01*
X129107162Y-140335000D02*
X133874838Y-140335000D01*
X120777000Y-139711000D02*
X121819001Y-140753001D01*
X176604001Y-131273453D02*
X176264454Y-131613000D01*
X163743162Y-140335000D02*
X171450000Y-140335000D01*
X155720839Y-140753001D02*
X156721161Y-140753001D01*
X149309161Y-140753001D02*
X149727162Y-140335000D01*
X176918445Y-130285854D02*
X176604001Y-130600298D01*
X155302838Y-140335000D02*
X155720839Y-140753001D01*
X161906838Y-140335000D02*
X162324839Y-140753001D01*
X121819001Y-140753001D02*
X128689161Y-140753001D01*
X142705161Y-140753001D02*
X143123162Y-140335000D01*
X157139162Y-140335000D02*
X161906838Y-140335000D01*
X147890838Y-140335000D02*
X148308839Y-140753001D01*
X135711162Y-140335000D02*
X141286838Y-140335000D01*
X128689161Y-140753001D02*
X129107162Y-140335000D01*
X133874838Y-140335000D02*
X134292839Y-140753001D01*
X176604001Y-130600298D02*
X176604001Y-131273453D01*
X148308839Y-140753001D02*
X149309161Y-140753001D01*
X134292839Y-140753001D02*
X135293161Y-140753001D01*
X179179643Y-132605357D02*
X179179643Y-131777272D01*
X141704839Y-140753001D02*
X142705161Y-140753001D01*
X135293161Y-140753001D02*
X135711162Y-140335000D01*
X141286838Y-140335000D02*
X141704839Y-140753001D01*
X149727162Y-140335000D02*
X155302838Y-140335000D01*
X176264454Y-131613000D02*
X175824000Y-131613000D01*
X163325161Y-140753001D02*
X163743162Y-140335000D01*
X177688225Y-130285854D02*
X176918445Y-130285854D01*
X169645999Y-114053839D02*
X169645999Y-114369184D01*
X177792161Y-121946001D02*
X178334001Y-121404161D01*
X171188161Y-113511999D02*
X170187839Y-113511999D01*
X178334001Y-119626161D02*
X178334001Y-118625839D01*
X169545000Y-114369184D02*
X169456050Y-114280234D01*
X170187839Y-113511999D02*
X169645999Y-114053839D01*
X177800000Y-126510162D02*
X178334001Y-125976161D01*
X175824000Y-130871168D02*
X177800000Y-128895168D01*
X171730001Y-114369184D02*
X171730001Y-114053839D01*
X175824000Y-130963000D02*
X175824000Y-130871168D01*
X178334001Y-125976161D02*
X178334001Y-124975839D01*
X178334001Y-124975839D02*
X177792161Y-124433999D01*
X175329184Y-114369184D02*
X171730001Y-114369184D01*
X177792161Y-116832161D02*
X175329184Y-114369184D01*
X178334001Y-120403839D02*
X177945162Y-120015000D01*
X177800000Y-128895168D02*
X177800000Y-126510162D01*
X171730001Y-114053839D02*
X171188161Y-113511999D01*
X177945162Y-120015000D02*
X178334001Y-119626161D01*
X177792161Y-124433999D02*
X177792161Y-121946001D01*
X169645999Y-114369184D02*
X169545000Y-114369184D01*
X177792161Y-118083999D02*
X177792161Y-116832161D01*
X178334001Y-121404161D02*
X178334001Y-120403839D01*
X178334001Y-118625839D02*
X177792161Y-118083999D01*
X165735000Y-105410000D02*
X165735000Y-104140000D01*
X165735000Y-104140000D02*
X156845000Y-95250000D01*
X136444000Y-95250000D02*
X134793000Y-96901000D01*
X156845000Y-95250000D02*
X136444000Y-95250000D01*
X128189000Y-96901000D02*
X134793000Y-96901000D01*
X174924000Y-130063000D02*
X174924000Y-128804097D01*
X174924000Y-128804097D02*
X173344336Y-127224433D01*
X163795464Y-126169968D02*
X163041090Y-126924342D01*
X174274000Y-128965598D02*
X172998401Y-127689999D01*
X174274000Y-130063000D02*
X174274000Y-128965598D01*
X172998401Y-127689999D02*
X170208923Y-127689999D01*
X170208923Y-127689999D02*
X168688892Y-126169968D01*
X168688892Y-126169968D02*
X163795464Y-126169968D01*
X163247403Y-127486195D02*
X167026752Y-127486195D01*
X167026752Y-127486195D02*
X167982969Y-126529978D01*
X162741999Y-128802401D02*
X162741999Y-127991599D01*
X162741999Y-127991599D02*
X163247403Y-127486195D01*
X172998401Y-128324999D02*
X173624000Y-128950598D01*
X137668029Y-136835971D02*
X158611368Y-136835971D01*
X173624000Y-128950598D02*
X173624000Y-130063000D01*
X163043599Y-129104001D02*
X162741999Y-128802401D01*
X165179600Y-131672728D02*
X165179600Y-131115263D01*
X168539771Y-126529978D02*
X170334792Y-128324999D01*
X134793000Y-139711000D02*
X137668029Y-136835971D01*
X167982969Y-126529978D02*
X168539771Y-126529978D01*
X158611368Y-136835971D02*
X163253357Y-132193981D01*
X170334792Y-128324999D02*
X172998401Y-128324999D01*
X163168338Y-129104001D02*
X163043599Y-129104001D01*
X163253357Y-132193981D02*
X164658347Y-132193981D01*
X165179600Y-131115263D02*
X163168338Y-129104001D01*
X164658347Y-132193981D02*
X165179600Y-131672728D01*
X148809000Y-96901000D02*
X152873000Y-100965000D01*
X152873000Y-100965000D02*
X161925000Y-100965000D01*
X161925000Y-100965000D02*
X165100000Y-104140000D01*
X165100000Y-104140000D02*
X165100000Y-111760000D01*
X167640000Y-114300000D02*
X167640000Y-116205000D01*
X165100000Y-111760000D02*
X167640000Y-114300000D01*
X172974000Y-129159000D02*
X172974000Y-130063000D01*
X172720000Y-128905000D02*
X172974000Y-129159000D01*
X172324000Y-130063000D02*
X172324000Y-129403000D01*
X172324000Y-129403000D02*
X172203999Y-129282999D01*
X171942132Y-129282999D02*
X171509134Y-128850001D01*
X171509134Y-128850001D02*
X169397256Y-128850001D01*
X172203999Y-129282999D02*
X171942132Y-129282999D01*
X169397256Y-128850001D02*
X168100358Y-127553103D01*
X168898864Y-129210011D02*
X167658854Y-127970001D01*
X171674000Y-129523998D02*
X171360013Y-129210011D01*
X171360013Y-129210011D02*
X168898864Y-129210011D01*
X171674000Y-130063000D02*
X171674000Y-129523998D01*
X163621999Y-127970001D02*
X163322000Y-128270000D01*
X167658854Y-127970001D02*
X163621999Y-127970001D01*
X167540759Y-128582357D02*
X165831979Y-128582357D01*
X160969930Y-138536232D02*
X149983768Y-138536232D01*
X165831979Y-133674183D02*
X160969930Y-138536232D01*
X165831979Y-128582357D02*
X165831979Y-133674183D01*
X171024000Y-130063000D02*
X169021402Y-130063000D01*
X169021402Y-130063000D02*
X167540759Y-128582357D01*
X149983768Y-138536232D02*
X148809000Y-139711000D01*
X117475000Y-85090000D02*
X116205000Y-85090000D01*
X121158000Y-83566000D02*
X119222402Y-83566000D01*
X119222402Y-83566000D02*
X117753401Y-85035001D01*
X117753401Y-85035001D02*
X117529999Y-85035001D01*
X117529999Y-85035001D02*
X117475000Y-85090000D01*
X105466000Y-94122000D02*
X107807986Y-94122000D01*
X107807986Y-94122000D02*
X107950000Y-93979986D01*
X121158000Y-83566000D02*
X127762000Y-83566000D01*
D47*
X105466000Y-93472000D02*
X106216000Y-93472000D01*
X106216000Y-93472000D02*
X106333015Y-93354985D01*
X106333015Y-93354985D02*
X108250001Y-93354985D01*
X108250001Y-93354985D02*
X108575001Y-93679985D01*
X108575001Y-93679985D02*
X108575001Y-94976282D01*
X108575001Y-94976282D02*
X107416252Y-96135031D01*
D45*
X100711000Y-109982000D02*
X100711000Y-103378000D01*
D47*
X106670001Y-90504999D02*
X106670001Y-92367999D01*
X95051999Y-114059761D02*
X95051999Y-91778593D01*
X108966000Y-113538000D02*
X106934000Y-115570000D01*
X96562238Y-115570000D02*
X95051999Y-114059761D01*
X95051999Y-91778593D02*
X99190593Y-87639999D01*
X106216000Y-92822000D02*
X105466000Y-92822000D01*
X99190593Y-87639999D02*
X103805001Y-87639999D01*
X106934000Y-115570000D02*
X96562238Y-115570000D01*
X103805001Y-87639999D02*
X106670001Y-90504999D01*
X106670001Y-92367999D02*
X106216000Y-92822000D01*
D45*
X108966000Y-120142000D02*
X108966000Y-113538000D01*
X106045000Y-90805000D02*
X106045000Y-90943000D01*
X106045000Y-90943000D02*
X105466000Y-91522000D01*
X135128000Y-83566000D02*
X134085999Y-82523999D01*
X134085999Y-82523999D02*
X119406001Y-82523999D01*
X119406001Y-82523999D02*
X117475000Y-84455000D01*
X135128000Y-83566000D02*
X141732000Y-83566000D01*
X104566000Y-89961000D02*
X102870000Y-88265000D01*
X104566000Y-90622000D02*
X104566000Y-89961000D01*
X108966000Y-103378000D02*
X108966000Y-109982000D01*
X103916000Y-90622000D02*
X103916000Y-89962000D01*
X103433882Y-89479882D02*
X102857354Y-89479882D01*
X103916000Y-89962000D02*
X103433882Y-89479882D01*
X170688000Y-125476000D02*
X177292000Y-125476000D01*
X149098000Y-83566000D02*
X142748000Y-77216000D01*
X142748000Y-77216000D02*
X125476000Y-77216000D01*
X102277353Y-89758283D02*
X102277353Y-88978145D01*
X102616000Y-90622000D02*
X102616000Y-90096930D01*
X102616000Y-90096930D02*
X102277353Y-89758283D01*
X102277353Y-88978145D02*
X101619188Y-88319980D01*
X149098000Y-83566000D02*
X155702000Y-83566000D01*
D47*
X97226001Y-110053001D02*
X97226001Y-96626304D01*
X101872343Y-89651521D02*
X101872343Y-90528343D01*
X100711000Y-113538000D02*
X97226001Y-110053001D01*
X97079979Y-96480282D02*
X97079979Y-95289718D01*
X97079979Y-95289718D02*
X97226001Y-95143696D01*
X97226001Y-95143696D02*
X97226001Y-91713997D01*
X97226001Y-91713997D02*
X99937797Y-89002201D01*
X97226001Y-96626304D02*
X97079979Y-96480282D01*
X101872343Y-90528343D02*
X101966000Y-90622000D01*
X101223023Y-89002201D02*
X101872343Y-89651521D01*
X99937797Y-89002201D02*
X101223023Y-89002201D01*
D45*
X100981202Y-89627202D02*
X100923022Y-89627202D01*
X101316000Y-90622000D02*
X101316000Y-89962000D01*
X101316000Y-89962000D02*
X100981202Y-89627202D01*
X170688000Y-119126000D02*
X177292000Y-119126000D01*
D46*
X130573982Y-49484001D02*
X136606005Y-49484001D01*
X110326999Y-36689999D02*
X110326999Y-40123870D01*
X108478000Y-34036000D02*
X108478000Y-34841000D01*
X127959950Y-46869969D02*
X130573982Y-49484001D01*
X126892149Y-46517511D02*
X127244605Y-46869969D01*
X115829099Y-45625970D02*
X124577592Y-45625970D01*
X108478000Y-34841000D02*
X110326999Y-36689999D01*
X124577592Y-45625970D02*
X125469131Y-46517509D01*
X125469131Y-46517509D02*
X126892149Y-46517511D01*
X127244605Y-46869969D02*
X127959950Y-46869969D01*
X110326999Y-40123870D02*
X115829099Y-45625970D01*
X136606005Y-49484001D02*
X138430004Y-51308000D01*
X165071283Y-69298010D02*
X163670495Y-69298010D01*
X166552000Y-71266000D02*
X165724010Y-70438010D01*
X165724010Y-70438010D02*
X165724010Y-69950737D01*
X165724010Y-69950737D02*
X165071283Y-69298010D01*
X167132000Y-71266000D02*
X166552000Y-71266000D01*
D45*
X172720000Y-105965000D02*
X171910000Y-105965000D01*
X171910000Y-105965000D02*
X171530000Y-105585000D01*
X171530000Y-105585000D02*
X171530000Y-103207630D01*
X171530000Y-103207630D02*
X171530000Y-102130000D01*
X170180000Y-105965000D02*
X170990000Y-105965000D01*
X170990000Y-105965000D02*
X171530000Y-105425000D01*
X171530000Y-105425000D02*
X171530000Y-103207630D01*
X176530000Y-102130000D02*
X176530000Y-105505000D01*
X176530000Y-105505000D02*
X176990000Y-105965000D01*
X176990000Y-105965000D02*
X177800000Y-105965000D01*
X176530000Y-105505000D02*
X176070000Y-105965000D01*
X176070000Y-105965000D02*
X175260000Y-105965000D01*
X111586000Y-88138000D02*
X115443000Y-88138000D01*
X115443000Y-88138000D02*
X115570000Y-88265000D01*
D46*
X178468000Y-46736000D02*
X178368000Y-46736000D01*
X177047989Y-45415989D02*
X174580596Y-45415989D01*
X178368000Y-46736000D02*
X177047989Y-45415989D01*
X170965203Y-45795999D02*
X169811202Y-46950000D01*
X174580596Y-45415989D02*
X174200587Y-45795999D01*
X174200587Y-45795999D02*
X170965203Y-45795999D01*
X169811202Y-46950000D02*
X167680000Y-46950000D01*
X164084000Y-36068000D02*
X160782000Y-39370000D01*
X164084000Y-32846000D02*
X164084000Y-36068000D01*
X170782000Y-35666000D02*
X170782000Y-39370000D01*
X167962000Y-32846000D02*
X170782000Y-35666000D01*
X167132000Y-32846000D02*
X167962000Y-32846000D01*
D45*
X164896384Y-71700150D02*
X164734818Y-71861716D01*
X165811784Y-71700150D02*
X164896384Y-71700150D01*
X166177634Y-72066000D02*
X165811784Y-71700150D01*
X167132000Y-72066000D02*
X166177634Y-72066000D01*
X164734818Y-71861716D02*
X164734818Y-72285980D01*
D47*
X95097600Y-43903900D02*
X95097600Y-44069000D01*
X103190301Y-35811199D02*
X95097600Y-43903900D01*
X104314999Y-35811199D02*
X103190301Y-35811199D01*
D45*
X167620014Y-82530000D02*
X166370014Y-81280000D01*
X170942000Y-82530000D02*
X167620014Y-82530000D01*
D47*
X114681000Y-41275000D02*
X114143864Y-40737864D01*
X116941600Y-41275000D02*
X114681000Y-41275000D01*
X105490000Y-31142000D02*
X105390000Y-31242000D01*
X105490000Y-27940000D02*
X105490000Y-31142000D01*
X108204000Y-30554000D02*
X108204000Y-30814000D01*
X104314999Y-35811199D02*
X107772200Y-39268400D01*
X104314999Y-33192001D02*
X104314999Y-35811199D01*
X105390000Y-32117000D02*
X104314999Y-33192001D01*
X105390000Y-31242000D02*
X105390000Y-32117000D01*
X104185198Y-35941000D02*
X97002600Y-35941000D01*
X104314999Y-35811199D02*
X104185198Y-35941000D01*
X104419400Y-42621200D02*
X104419400Y-44069000D01*
X107772200Y-39268400D02*
X104419400Y-42621200D01*
X107950000Y-39268400D02*
X107772200Y-39268400D01*
X116941600Y-39326400D02*
X116941600Y-41275000D01*
X121078000Y-35190000D02*
X116941600Y-39326400D01*
X121078000Y-34290000D02*
X121078000Y-35190000D01*
X95097600Y-62839600D02*
X96520000Y-64262000D01*
X95097600Y-44069000D02*
X95097600Y-62839600D01*
X107950000Y-41148000D02*
X108458000Y-41656000D01*
X107950000Y-39268400D02*
X107950000Y-41148000D01*
D46*
X165100000Y-82530000D02*
X168148000Y-82530000D01*
X170942000Y-82530000D02*
X168148000Y-82530000D01*
X173736000Y-82530000D02*
X170942000Y-82530000D01*
D47*
X105590000Y-27940000D02*
X108204000Y-30554000D01*
X105490000Y-27940000D02*
X105590000Y-27940000D01*
D45*
X165080000Y-82550000D02*
X165100000Y-82530000D01*
X162386000Y-82550000D02*
X165080000Y-82550000D01*
X133396000Y-88265000D02*
X143602000Y-88265000D01*
X147412000Y-88265000D02*
X157618000Y-88265000D01*
X119380000Y-116805000D02*
X129586000Y-116805000D01*
X133396000Y-116805000D02*
X143602000Y-116805000D01*
X147412000Y-116805000D02*
X157618000Y-116805000D01*
X156204162Y-127000000D02*
X119320000Y-127000000D01*
X119320000Y-127000000D02*
X115570000Y-130750000D01*
X115570000Y-130750000D02*
X115570000Y-131075000D01*
X161428000Y-116805000D02*
X161428000Y-121776162D01*
X161428000Y-121776162D02*
X156204162Y-127000000D01*
X119380000Y-131075000D02*
X129586000Y-131075000D01*
X133396000Y-131075000D02*
X143602000Y-131075000D01*
X147412000Y-131075000D02*
X157618000Y-131075000D01*
D46*
X179262000Y-74788000D02*
X179912000Y-75438000D01*
X179262000Y-72898000D02*
X179262000Y-74788000D01*
D45*
X171932000Y-69506000D02*
X172858000Y-68580000D01*
X171932000Y-70066000D02*
X171932000Y-69506000D01*
X176148000Y-70358000D02*
X177058000Y-70358000D01*
X174370000Y-68580000D02*
X176148000Y-70358000D01*
X172858000Y-68580000D02*
X174370000Y-68580000D01*
X177183000Y-70358000D02*
X177058000Y-70358000D01*
X179262000Y-72437000D02*
X177183000Y-70358000D01*
X179262000Y-72898000D02*
X179262000Y-72437000D01*
D47*
X108512600Y-28422600D02*
X108204000Y-28114000D01*
X112141000Y-28422600D02*
X108512600Y-28422600D01*
X110978000Y-30988000D02*
X110978000Y-34036000D01*
X108204000Y-28214000D02*
X110978000Y-30988000D01*
X108204000Y-28114000D02*
X108204000Y-28214000D01*
D46*
X122748000Y-44119675D02*
X123811648Y-45183323D01*
X127551131Y-46129949D02*
X129401472Y-46129949D01*
X126604507Y-45183323D02*
X127551131Y-46129949D01*
X123678000Y-37338000D02*
X123678000Y-38143000D01*
X123678000Y-38143000D02*
X122748000Y-39073000D01*
X122748000Y-39073000D02*
X122748000Y-44119675D01*
X123811648Y-45183323D02*
X126604507Y-45183323D01*
X129401472Y-46129949D02*
X129852797Y-46581274D01*
X167132000Y-70866000D02*
X167132000Y-70586000D01*
X167132000Y-70586000D02*
X164618000Y-68072000D01*
X164618000Y-68072000D02*
X163576000Y-68072000D01*
D47*
X123778000Y-30877500D02*
X123778000Y-34290000D01*
X120535700Y-27635200D02*
X123778000Y-30877500D01*
X120269000Y-27635200D02*
X120535700Y-27635200D01*
X121178000Y-36790000D02*
X121178000Y-37338000D01*
X123678000Y-34290000D02*
X121178000Y-36790000D01*
X123778000Y-34290000D02*
X123678000Y-34290000D01*
D46*
X174498000Y-66911000D02*
X174498000Y-67036000D01*
X172651346Y-65064346D02*
X174498000Y-66911000D01*
X171621852Y-65064346D02*
X172651346Y-65064346D01*
X172611853Y-67910874D02*
X171532000Y-68990727D01*
X172611853Y-65174347D02*
X172611853Y-67910874D01*
X172501852Y-65064346D02*
X172611853Y-65174347D01*
X171532000Y-68990727D02*
X171532000Y-70066000D01*
X171621852Y-65064346D02*
X172501852Y-65064346D01*
X167964399Y-67963501D02*
X168319999Y-68319101D01*
X166467398Y-67036000D02*
X167394899Y-67963501D01*
X166370000Y-67036000D02*
X166467398Y-67036000D01*
X167394899Y-67963501D02*
X167964399Y-67963501D01*
X171132000Y-70066000D02*
X171132000Y-68528700D01*
X171132000Y-68528700D02*
X170332400Y-67729100D01*
X170332400Y-67729100D02*
X170014900Y-67729100D01*
X170014900Y-67729100D02*
X169730146Y-67444346D01*
D45*
X168319999Y-68319101D02*
X168527097Y-68319101D01*
X168527097Y-68319101D02*
X169421852Y-67424346D01*
X169421852Y-67424346D02*
X169421852Y-66664346D01*
X169421852Y-67424346D02*
X169441852Y-67444346D01*
X169441852Y-67444346D02*
X169730146Y-67444346D01*
X167132000Y-72466000D02*
X165735110Y-72466000D01*
X165735110Y-72466000D02*
X165549266Y-72280156D01*
D46*
X170942000Y-80030000D02*
X173736000Y-80030000D01*
D45*
X170942000Y-78960106D02*
X170141874Y-78159980D01*
X170942000Y-80030000D02*
X170942000Y-78960106D01*
D46*
X163209403Y-73477399D02*
X162364699Y-73477399D01*
X167132000Y-73266000D02*
X163420802Y-73266000D01*
X162364699Y-73477399D02*
X162064700Y-73177400D01*
X163420802Y-73266000D02*
X163209403Y-73477399D01*
X137751736Y-52108013D02*
X138176000Y-52108013D01*
X105390000Y-34290000D02*
X106320000Y-34290000D01*
X132686676Y-49864011D02*
X134750654Y-51927989D01*
X130416577Y-49864011D02*
X132686676Y-49864011D01*
X127802545Y-47249979D02*
X130416577Y-49864011D01*
X127087200Y-47249979D02*
X127802545Y-47249979D01*
X134750654Y-51927989D02*
X137571712Y-51927989D01*
X126734807Y-46897583D02*
X127087200Y-47249979D01*
X125311726Y-46897519D02*
X126734744Y-46897520D01*
X126734744Y-46897520D02*
X126734807Y-46897583D01*
X124420187Y-46005980D02*
X125311726Y-46897519D01*
X112667363Y-46005980D02*
X124420187Y-46005980D01*
X109764001Y-37734001D02*
X109764001Y-43102618D01*
X106320000Y-34290000D02*
X109764001Y-37734001D01*
X109764001Y-43102618D02*
X112667363Y-46005980D01*
X137571712Y-51927989D02*
X137751736Y-52108013D01*
D47*
X102790000Y-27940000D02*
X102790000Y-28840000D01*
X94310200Y-35674300D02*
X94310200Y-35941000D01*
X95948500Y-34036000D02*
X94310200Y-35674300D01*
X102790000Y-31142000D02*
X102890000Y-31242000D01*
X102790000Y-27940000D02*
X102790000Y-31142000D01*
X102890000Y-31242000D02*
X102890000Y-34290000D01*
X102790000Y-28840000D02*
X97594000Y-34036000D01*
X97594000Y-34036000D02*
X95948500Y-34036000D01*
D45*
X170180000Y-108665000D02*
X167740000Y-108665000D01*
X167740000Y-108665000D02*
X167640000Y-108565000D01*
X155192870Y-81535131D02*
X153416000Y-81535131D01*
X121847999Y-69269999D02*
X116840000Y-64262000D01*
X131644001Y-70469669D02*
X130444331Y-69269999D01*
X147500869Y-75619999D02*
X133628401Y-75619999D01*
X167640000Y-108440000D02*
X166730010Y-107530010D01*
X166730010Y-103877523D02*
X167945011Y-102662522D01*
X167945011Y-101807478D02*
X164587021Y-98449488D01*
X164587021Y-88257759D02*
X161885282Y-85556020D01*
X164587021Y-98449488D02*
X164587021Y-88257759D01*
X161885282Y-85556020D02*
X159213758Y-85556020D01*
X159213758Y-85556020D02*
X155192870Y-81535131D01*
X153416000Y-81535131D02*
X147500869Y-75619999D01*
X166730010Y-107530010D02*
X166730010Y-103877523D01*
X133628401Y-75619999D02*
X131644001Y-73635599D01*
X131644001Y-73635599D02*
X131644001Y-70469669D01*
X167945011Y-102662522D02*
X167945011Y-101807478D01*
X130444331Y-69269999D02*
X121847999Y-69269999D01*
X167640000Y-108565000D02*
X167640000Y-108440000D01*
X177800000Y-108665000D02*
X180240000Y-108665000D01*
X180240000Y-108665000D02*
X180340000Y-108565000D01*
X124027989Y-68909989D02*
X119380000Y-64262000D01*
X130593452Y-68909989D02*
X124027989Y-68909989D01*
X132004011Y-73330011D02*
X132004011Y-70320548D01*
X153565121Y-81175121D02*
X147649989Y-75259989D01*
X155341990Y-81175121D02*
X153565121Y-81175121D01*
X159362879Y-85196010D02*
X155341990Y-81175121D01*
X133933989Y-75259989D02*
X132004011Y-73330011D01*
X162600012Y-85196010D02*
X159362879Y-85196010D01*
X181610000Y-104205998D02*
X162600012Y-85196010D01*
X181610000Y-107170000D02*
X181610000Y-104205998D01*
X180340000Y-108565000D02*
X180340000Y-108440000D01*
X147649989Y-75259989D02*
X133933989Y-75259989D01*
X180340000Y-108440000D02*
X181610000Y-107170000D01*
X132004011Y-70320548D02*
X130593452Y-68909989D01*
D46*
X165915000Y-47244000D02*
X164592000Y-47244000D01*
X167061001Y-48390001D02*
X165915000Y-47244000D01*
X171613999Y-48390001D02*
X167061001Y-48390001D01*
X172444000Y-47560000D02*
X171613999Y-48390001D01*
X172974000Y-47560000D02*
X172444000Y-47560000D01*
X177017403Y-57962011D02*
X177396001Y-57583413D01*
X168692011Y-57962011D02*
X177017403Y-57962011D01*
X174788001Y-45795999D02*
X173024000Y-47560000D01*
X167680000Y-56950000D02*
X168692011Y-57962011D01*
X177396001Y-57583413D02*
X177396001Y-46441999D01*
X177396001Y-46441999D02*
X176750001Y-45795999D01*
X176750001Y-45795999D02*
X174788001Y-45795999D01*
X173024000Y-47560000D02*
X172974000Y-47560000D01*
X172974000Y-49440000D02*
X172974000Y-48960000D01*
X172630000Y-49784000D02*
X172974000Y-49440000D01*
X164592000Y-49784000D02*
X172630000Y-49784000D01*
X175768000Y-47566000D02*
X175768000Y-46736000D01*
X174374000Y-48960000D02*
X175768000Y-47566000D01*
X172974000Y-48960000D02*
X174374000Y-48960000D01*
D45*
X111760000Y-80728782D02*
X111782121Y-80750903D01*
X113390010Y-69700879D02*
X113390010Y-76699523D01*
X111760000Y-68070869D02*
X113390010Y-69700879D01*
X111760000Y-64262000D02*
X111760000Y-68070869D01*
X113390010Y-76699523D02*
X111760000Y-78329533D01*
X111760000Y-78329533D02*
X111760000Y-80728782D01*
X110387799Y-86335331D02*
X110387799Y-95226332D01*
X111993009Y-80961791D02*
X111993009Y-84730121D01*
X111993009Y-84730121D02*
X110387799Y-86335331D01*
X111782121Y-80750903D02*
X111993009Y-80961791D01*
X112870000Y-82375000D02*
X112870000Y-83185000D01*
X111782121Y-80750903D02*
X112870000Y-81838782D01*
X112870000Y-81838782D02*
X112870000Y-82375000D01*
X171024000Y-135763000D02*
X169037000Y-135763000D01*
X169037000Y-135763000D02*
X168910000Y-135890000D01*
X110387799Y-95226332D02*
X110411477Y-95250010D01*
X110411477Y-95250010D02*
X110490000Y-95250010D01*
X110387799Y-95226332D02*
X110387799Y-95575603D01*
X101528999Y-97844999D02*
X100666000Y-96982000D01*
X103077478Y-99530024D02*
X102204979Y-98657525D01*
X104592516Y-98870030D02*
X103932522Y-99530024D01*
X109274999Y-96465001D02*
X106869970Y-98870030D01*
X103932522Y-99530024D02*
X103077478Y-99530024D01*
X110387799Y-95575603D02*
X109498401Y-96465001D01*
X102204979Y-98657525D02*
X102204979Y-98171577D01*
X102204979Y-98171577D02*
X101878401Y-97844999D01*
X106869970Y-98870030D02*
X104592516Y-98870030D01*
X101878401Y-97844999D02*
X101528999Y-97844999D01*
X100666000Y-96982000D02*
X100666000Y-96322000D01*
X109498401Y-96465001D02*
X109274999Y-96465001D01*
X109220000Y-95885000D02*
X109220000Y-90376002D01*
X109220000Y-90376002D02*
X107445960Y-88601962D01*
X107445960Y-88601962D02*
X107445960Y-81530040D01*
X107445960Y-81530040D02*
X109936001Y-79039999D01*
X109936001Y-79039999D02*
X109936001Y-78658999D01*
X109936001Y-78658999D02*
X110236000Y-78359000D01*
X112950000Y-79375000D02*
X112950000Y-77959805D01*
X113496020Y-65065980D02*
X113496020Y-69297758D01*
X113665731Y-77244074D02*
X113365732Y-77544073D01*
X113065733Y-77844072D02*
X113365732Y-77544073D01*
X113750020Y-69551758D02*
X113750020Y-77159785D01*
X113496020Y-69297758D02*
X113750020Y-69551758D01*
X114300000Y-64262000D02*
X113496020Y-65065980D01*
X113750020Y-77159785D02*
X113665731Y-77244074D01*
X112950000Y-77959805D02*
X113065733Y-77844072D01*
X171674000Y-135763000D02*
X171674000Y-136423000D01*
X171674000Y-136423000D02*
X171121539Y-136975461D01*
X171121539Y-136975461D02*
X168149863Y-136975461D01*
X103783401Y-99170014D02*
X105163415Y-97790000D01*
X101316000Y-96773467D02*
X102564989Y-98022456D01*
X105163415Y-97790000D02*
X107315000Y-97790000D01*
X102564989Y-98508404D02*
X103226599Y-99170014D01*
X101316000Y-96322000D02*
X101316000Y-96773467D01*
X102564989Y-98022456D02*
X102564989Y-98508404D01*
X103226599Y-99170014D02*
X103783401Y-99170014D01*
X107315000Y-97790000D02*
X109220000Y-95885000D01*
X138140334Y-54683172D02*
X138140334Y-55614070D01*
X138140334Y-55614070D02*
X138448243Y-55921980D01*
X144882129Y-49302001D02*
X146723654Y-49302001D01*
X138893757Y-55921980D02*
X140640011Y-54175729D01*
X140640011Y-53544118D02*
X144882129Y-49302001D01*
X140640011Y-54175729D02*
X140640011Y-53544118D01*
X132533413Y-50234021D02*
X134597391Y-52297999D01*
X134597391Y-52297999D02*
X135755161Y-52297999D01*
X135755161Y-52297999D02*
X138140334Y-54683172D01*
X126581480Y-47267529D02*
X126933937Y-47619989D01*
X124266924Y-46375990D02*
X125158463Y-47267529D01*
X125158463Y-47267529D02*
X126581480Y-47267529D01*
X99166010Y-46375990D02*
X124266924Y-46375990D01*
X126933937Y-47619989D02*
X127649282Y-47619989D01*
X127649282Y-47619989D02*
X130263314Y-50234021D01*
X130263314Y-50234021D02*
X132533413Y-50234021D01*
X96520000Y-49022000D02*
X99166010Y-46375990D01*
X138448243Y-55921980D02*
X138893757Y-55921980D01*
X146723654Y-49302001D02*
X149243202Y-46782453D01*
D46*
X172726000Y-56642000D02*
X173656000Y-56642000D01*
X167330599Y-51246599D02*
X172726000Y-56642000D01*
X161330199Y-51246599D02*
X167330599Y-51246599D01*
X157327600Y-47244000D02*
X161330199Y-51246599D01*
X156972000Y-47244000D02*
X157327600Y-47244000D01*
D45*
X115426598Y-73105000D02*
X116030000Y-73105000D01*
X116030000Y-73105000D02*
X116840000Y-73105000D01*
X113856030Y-66248132D02*
X113856030Y-69148637D01*
X114110030Y-71788432D02*
X115426598Y-73105000D01*
X116339839Y-60679999D02*
X115797999Y-61221839D01*
X120877999Y-60679999D02*
X116339839Y-60679999D01*
X115797999Y-61221839D02*
X115797999Y-64306163D01*
X114110030Y-69402637D02*
X114110030Y-71788432D01*
X115797999Y-64306163D02*
X113856030Y-66248132D01*
X121920000Y-61722000D02*
X120877999Y-60679999D01*
X113856030Y-69148637D02*
X114110030Y-69402637D01*
X121158000Y-58420000D02*
X118618000Y-58420000D01*
X124460000Y-61722000D02*
X121158000Y-58420000D01*
X120877999Y-64762161D02*
X120877999Y-63305841D01*
X133795795Y-71603201D02*
X130742573Y-68549979D01*
X130742573Y-68549979D02*
X124665817Y-68549979D01*
X136676799Y-71603201D02*
X133795795Y-71603201D01*
X120877999Y-63305841D02*
X121419839Y-62764001D01*
X121419839Y-62764001D02*
X123417999Y-62764001D01*
X137795000Y-70485000D02*
X136676799Y-71603201D01*
X124665817Y-68549979D02*
X120877999Y-64762161D01*
X123417999Y-62764001D02*
X124460000Y-61722000D01*
X123190000Y-73105000D02*
X124410183Y-73105000D01*
X124410183Y-73105000D02*
X126492002Y-71023181D01*
X129156172Y-54716010D02*
X127500161Y-53059999D01*
X118337999Y-53059999D02*
X116840000Y-51562000D01*
X127500161Y-53059999D02*
X118337999Y-53059999D01*
X132946880Y-54716010D02*
X129156172Y-54716010D01*
X137348840Y-58355970D02*
X136586839Y-58355970D01*
X141099678Y-62106809D02*
X137348840Y-58355970D01*
X142369679Y-62106809D02*
X141099678Y-62106809D01*
X144450011Y-64187141D02*
X142369679Y-62106809D01*
X146737141Y-64187141D02*
X144450011Y-64187141D01*
X147955000Y-65405000D02*
X146737141Y-64187141D01*
X136586839Y-58355970D02*
X132946880Y-54716010D01*
X142220558Y-62466819D02*
X140950559Y-62466819D01*
X136437718Y-58715980D02*
X132865742Y-55144001D01*
X140950559Y-62466819D02*
X137199721Y-58715980D01*
X137199721Y-58715980D02*
X136437718Y-58715980D01*
X144090001Y-65858001D02*
X144090001Y-64336262D01*
X124267769Y-54166030D02*
X116904030Y-54166030D01*
X144090001Y-64336262D02*
X142220558Y-62466819D01*
X144755201Y-66523201D02*
X144090001Y-65858001D01*
X146533201Y-66523201D02*
X144755201Y-66523201D01*
X147955000Y-67945000D02*
X146533201Y-66523201D01*
X125245740Y-55144001D02*
X124267769Y-54166030D01*
X116904030Y-54166030D02*
X114300000Y-51562000D01*
X132865742Y-55144001D02*
X125245740Y-55144001D01*
X104140000Y-64262000D02*
X105637999Y-62764001D01*
X105637999Y-62764001D02*
X105637999Y-61221839D01*
X105637999Y-61221839D02*
X109201838Y-57658000D01*
X109201838Y-57658000D02*
X122270402Y-57658000D01*
X122270402Y-57658000D02*
X125096224Y-60483822D01*
X125096224Y-60483822D02*
X129581266Y-60483822D01*
X121920000Y-64262000D02*
X122962001Y-65304001D01*
X122962001Y-65304001D02*
X132053999Y-65304001D01*
X132053999Y-65304001D02*
X133071201Y-64286799D01*
X133071201Y-64286799D02*
X136373201Y-64286799D01*
X136373201Y-64286799D02*
X137795000Y-62865000D01*
X145415000Y-53340000D02*
X152145432Y-60070432D01*
X152145432Y-65409506D02*
X148491737Y-69063201D01*
X152145432Y-60070432D02*
X152145432Y-65409506D01*
X146180938Y-68834000D02*
X145951737Y-69063201D01*
X148491737Y-69063201D02*
X147418263Y-69063201D01*
X147418263Y-69063201D02*
X147337052Y-68981990D01*
X147337052Y-68981990D02*
X147170879Y-68981990D01*
X147170879Y-68981990D02*
X147022889Y-68834000D01*
X147022889Y-68834000D02*
X146180938Y-68834000D01*
X145951737Y-69063201D02*
X144878263Y-69063201D01*
X138913201Y-62328263D02*
X138331737Y-61746799D01*
X144878263Y-69063201D02*
X144649062Y-68834000D01*
X144649062Y-68834000D02*
X144273131Y-68834000D01*
X144273131Y-68834000D02*
X138913201Y-63474070D01*
X138913201Y-63474070D02*
X138913201Y-62328263D01*
X138331737Y-61746799D02*
X136373201Y-61746799D01*
X136373201Y-61746799D02*
X135255000Y-62865000D01*
X131468250Y-52979990D02*
X133852989Y-52979990D01*
X139192000Y-56642000D02*
X145034000Y-50800000D01*
X128912271Y-50424011D02*
X131468250Y-52979990D01*
X133852989Y-52979990D02*
X133852989Y-53989282D01*
X124460000Y-49022000D02*
X125862011Y-50424011D01*
X134605718Y-54742011D02*
X136250013Y-54742011D01*
X136250013Y-54742011D02*
X138150002Y-56642000D01*
X125862011Y-50424011D02*
X128912271Y-50424011D01*
X133852989Y-53989282D02*
X134605718Y-54742011D01*
X138150002Y-56642000D02*
X139192000Y-56642000D01*
X145034000Y-50800000D02*
X145415000Y-50800000D01*
X141746091Y-59644690D02*
X141746091Y-55357909D01*
X141746091Y-55357909D02*
X145415000Y-51689000D01*
X145415000Y-51689000D02*
X145415000Y-50800000D01*
X139065000Y-31750000D02*
X139065000Y-34552012D01*
X139065000Y-34552012D02*
X128939515Y-44677497D01*
X125268385Y-47987549D02*
X125557403Y-48276567D01*
X124832698Y-47960026D02*
X124860221Y-47987549D01*
X125557403Y-48276567D02*
X125981667Y-48276567D01*
X111760000Y-49022000D02*
X112821974Y-47960026D01*
X124860221Y-47987549D02*
X125268385Y-47987549D01*
X112821974Y-47960026D02*
X124832698Y-47960026D01*
X141178001Y-63708001D02*
X141478000Y-64008000D01*
X141173481Y-63708001D02*
X141178001Y-63708001D01*
X136901480Y-59436000D02*
X141173481Y-63708001D01*
X136139476Y-59436000D02*
X136901480Y-59436000D01*
X134387477Y-57684001D02*
X136139476Y-59436000D01*
X126499839Y-57684001D02*
X134387477Y-57684001D01*
X124399858Y-55584020D02*
X126499839Y-57684001D01*
X104140000Y-49022000D02*
X110702020Y-55584020D01*
X110702020Y-55584020D02*
X124399858Y-55584020D01*
X108886000Y-80694402D02*
X108886000Y-87328000D01*
X108886000Y-87328000D02*
X108886000Y-88138000D01*
X113030000Y-76550402D02*
X108886000Y-80694402D01*
X106680000Y-64262000D02*
X113030000Y-70612000D01*
X113030000Y-70612000D02*
X113030000Y-76550402D01*
X169132000Y-76066000D02*
X169132000Y-77184000D01*
X169132000Y-77184000D02*
X169164000Y-77216000D01*
X170434000Y-32946000D02*
X170434000Y-32846000D01*
X171524000Y-34036000D02*
X170434000Y-32946000D01*
X172720000Y-34036000D02*
X171524000Y-34036000D01*
X111022870Y-47979999D02*
X100102001Y-47979999D01*
X134212999Y-53840161D02*
X134212999Y-52677868D01*
X138299122Y-56281990D02*
X136399134Y-54382001D01*
X136399134Y-54382001D02*
X134754839Y-54382001D01*
X126432359Y-47627539D02*
X125009342Y-47627539D01*
X124117803Y-46736000D02*
X112266869Y-46736000D01*
X112266869Y-46736000D02*
X111022870Y-47979999D01*
X141000021Y-53693239D02*
X141000021Y-54324849D01*
X132129162Y-50594031D02*
X130114193Y-50594031D01*
X167132000Y-30146000D02*
X166322000Y-30146000D01*
X166322000Y-30146000D02*
X165291999Y-29115999D01*
X165291999Y-29115999D02*
X161384001Y-29115999D01*
X127500161Y-47979999D02*
X126784816Y-47979999D01*
X161384001Y-29115999D02*
X150185011Y-40314989D01*
X144989738Y-49703522D02*
X141000021Y-53693239D01*
X150185011Y-40314989D02*
X150185011Y-47426464D01*
X150185011Y-47426464D02*
X147907953Y-49703522D01*
X141000021Y-54324849D02*
X139042878Y-56281990D01*
X147907953Y-49703522D02*
X144989738Y-49703522D01*
X139042878Y-56281990D02*
X138299122Y-56281990D01*
X134754839Y-54382001D02*
X134212999Y-53840161D01*
X134212999Y-52677868D02*
X132129162Y-50594031D01*
X130114193Y-50594031D02*
X127500161Y-47979999D01*
X126784816Y-47979999D02*
X126432359Y-47627539D01*
X125009342Y-47627539D02*
X124117803Y-46736000D01*
X100102001Y-47979999D02*
X99060000Y-49022000D01*
X170434000Y-30146000D02*
X167132000Y-30146000D01*
X137497960Y-57995960D02*
X141248799Y-61746799D01*
X127649282Y-52699989D02*
X129305293Y-54356000D01*
X136735960Y-57995960D02*
X137497960Y-57995960D01*
X119380000Y-51562000D02*
X120517989Y-52699989D01*
X120517989Y-52699989D02*
X127649282Y-52699989D01*
X141248799Y-61746799D02*
X146836799Y-61746799D01*
X146836799Y-61746799D02*
X147955000Y-62865000D01*
X129305293Y-54356000D02*
X133096001Y-54356000D01*
X133096001Y-54356000D02*
X136735960Y-57995960D01*
X179304000Y-82550000D02*
X179304000Y-80010000D01*
X173774000Y-71666000D02*
X174244000Y-72136000D01*
X173132000Y-71666000D02*
X173774000Y-71666000D01*
X179179000Y-80010000D02*
X179304000Y-80010000D01*
X177800000Y-78631000D02*
X179179000Y-80010000D01*
X177800000Y-77470000D02*
X177800000Y-78631000D01*
X145415000Y-48260000D02*
X138720339Y-54954661D01*
X138720339Y-54954661D02*
X138720339Y-55275127D01*
X127508002Y-44366264D02*
X127508002Y-43942000D01*
X144145000Y-31750000D02*
X130637502Y-45257498D01*
X130637502Y-45257498D02*
X128399236Y-45257498D01*
X128399236Y-45257498D02*
X127508002Y-44366264D01*
X108177999Y-50519999D02*
X109955999Y-50519999D01*
X125096619Y-55504011D02*
X132716621Y-55504011D01*
X132716621Y-55504011D02*
X133074935Y-55862325D01*
X110717999Y-51281999D02*
X110717999Y-52062161D01*
X113265838Y-54610000D02*
X124202608Y-54610000D01*
X133074935Y-55862325D02*
X136288597Y-59075990D01*
X106680000Y-49022000D02*
X108177999Y-50519999D01*
X109955999Y-50519999D02*
X110717999Y-51281999D01*
X110717999Y-52062161D02*
X113265838Y-54610000D01*
X124202608Y-54610000D02*
X125096619Y-55504011D01*
X137050600Y-59075990D02*
X141021449Y-63046839D01*
X141021449Y-63046839D02*
X141730026Y-63046839D01*
X136288597Y-59075990D02*
X137050600Y-59075990D01*
X155956000Y-114046000D02*
X118004000Y-114046000D01*
X118004000Y-114046000D02*
X115570000Y-116480000D01*
X115570000Y-116480000D02*
X115570000Y-116805000D01*
X161428000Y-108574000D02*
X155956000Y-114046000D01*
X161428000Y-102535000D02*
X161428000Y-108574000D01*
D48*
G36*
X169568852Y-65191346D02*
X169548852Y-65191346D01*
X169548852Y-65211346D01*
X169294852Y-65211346D01*
X169294852Y-65191346D01*
X169274852Y-65191346D01*
X169274852Y-64937346D01*
X169294852Y-64937346D01*
X169294852Y-64917346D01*
X169548852Y-64917346D01*
X169548852Y-64937346D01*
X169568852Y-64937346D01*
X169568852Y-65191346D01*
X169568852Y-65191346D01*
G37*
X169568852Y-65191346D02*
X169548852Y-65191346D01*
X169548852Y-65211346D01*
X169294852Y-65211346D01*
X169294852Y-65191346D01*
X169274852Y-65191346D01*
X169274852Y-64937346D01*
X169294852Y-64937346D01*
X169294852Y-64917346D01*
X169548852Y-64917346D01*
X169548852Y-64937346D01*
X169568852Y-64937346D01*
X169568852Y-65191346D01*
M02*
