M48
;DRILL file {KiCad (2015-06-12 BZR 5734)-product} date Saturday, June 20, 2015 'PMt' 05:40:16 PM
;FORMAT={2:4/ absolute / inch / suppress leading zeros}
FMAT,2
INCH,TZ
T1C0.013
T2C0.016
T3C0.028
T4C0.030
T5C0.032
T6C0.040
T7C0.051
T8C0.070
T9C0.102
T10C0.109
%
G90
G05
M72
T1
X40400Y-36800
X66980Y-28770
X68095Y-52330
T2
X38750Y-37750
X39733Y-35286
X40000Y-38750
X40008Y-34772
X40495Y-35228
X40500Y-34750
X40500Y-39750
X40750Y-38500
X40750Y-38815
X41750Y-35750
X42290Y-37848
X42500Y-37000
X42700Y-16400
X43000Y-37750
X43400Y-30850
X43500Y-37500
X44632Y-30529
X44939Y-16039
X45154Y-27700
X45750Y-33500
X46250Y-33250
X46250Y-39000
X46700Y-23000
X49400Y-30400
X49509Y-18082
X49599Y-19007
X49800Y-27962
X50200Y-17300
X50600Y-27800
X50764Y-17590
X51016Y-23813
X51100Y-25939
X51123Y-18339
X51879Y-22239
X54400Y-20515
X54500Y-20200
X54614Y-21762
X54621Y-19635
X55700Y-25200
X55799Y-24822
X55806Y-23482
X58757Y-18418
X60600Y-26300
X63000Y-12400
X63250Y-30750
X63630Y-29235
X63805Y-28810
X64060Y-28510
X64189Y-49970
X64300Y-50500
X64400Y-26800
X64437Y-27283
X64750Y-30750
X64800Y-29234
X64803Y-51730
X64856Y-28459
X64900Y-27900
X65177Y-28457
X65200Y-30000
X65250Y-40250
X65250Y-41500
X65339Y-44661
X65500Y-32000
X65704Y-51027
X65714Y-45036
X65772Y-52978
X65793Y-27134
X65942Y-52115
X66000Y-23300
X66000Y-45750
X66030Y-26525
X66181Y-50218
X66201Y-53927
X66250Y-51238
X66366Y-53192
X66500Y-53500
X66600Y-30400
X66623Y-49050
X66715Y-44992
X66840Y-27040
X66985Y-30772
X67230Y-30359
X68000Y-13400
X68000Y-50750
X68064Y-27314
X68246Y-50088
X68600Y-28400
X68700Y-29100
X68900Y-21700
X69756Y-52001
X69763Y-51522
X69800Y-28200
X70000Y-30500
X70315Y-51990
T3
X45500Y-34750
X45500Y-40368
X45500Y-45986
X45500Y-51604
X46000Y-34750
X46000Y-40368
X46000Y-45986
X46000Y-51604
X46500Y-34750
X46500Y-40368
X46500Y-45986
X46500Y-51604
X47000Y-34750
X47000Y-40368
X47000Y-45986
X47000Y-51604
X51018Y-34750
X51018Y-40368
X51018Y-45986
X51018Y-51604
X51518Y-34750
X51518Y-40368
X51518Y-45986
X51518Y-51604
X52018Y-34750
X52018Y-40368
X52018Y-45986
X52018Y-51604
X52518Y-34750
X52518Y-40368
X52518Y-45986
X52518Y-51604
X56536Y-34750
X56536Y-40368
X56536Y-45986
X56536Y-51604
X57036Y-34750
X57036Y-40368
X57036Y-45986
X57036Y-51604
X57536Y-34750
X57536Y-40368
X57536Y-45986
X57536Y-51604
X58036Y-34750
X58036Y-40368
X58036Y-45986
X58036Y-51604
X62054Y-34750
X62054Y-40368
X62054Y-45986
X62054Y-51604
X62554Y-34750
X62554Y-40368
X62554Y-45986
X62554Y-51604
X63054Y-34750
X63054Y-40368
X63054Y-45986
X63054Y-51604
X63554Y-34750
X63554Y-40368
X63554Y-45986
X63554Y-51604
T4
X37000Y-19300
X37000Y-25300
X37850Y-40700
X37850Y-43300
X37850Y-44700
X37850Y-47300
X38000Y-19300
X38000Y-24300
X38000Y-25300
X39000Y-19300
X39000Y-25300
X39650Y-40700
X39650Y-43300
X39650Y-44700
X39650Y-47300
X40000Y-19300
X40000Y-24300
X40000Y-25300
X41000Y-19300
X41000Y-24300
X41000Y-25300
X41100Y-40700
X41100Y-43300
X41100Y-44700
X41100Y-47300
X42000Y-19300
X42000Y-24300
X42000Y-25300
X42900Y-40700
X42900Y-43300
X42900Y-44700
X42900Y-47300
X43000Y-19300
X43000Y-20300
X43000Y-24300
X43000Y-25300
X44000Y-19300
X44000Y-20300
X44000Y-24300
X44000Y-25300
X44950Y-36350
X44950Y-38150
X44950Y-41968
X44950Y-43768
X44950Y-47586
X44950Y-49386
X44950Y-53204
X44950Y-55004
X45000Y-19300
X45000Y-20300
X45000Y-24300
X45000Y-25300
X46000Y-19300
X46000Y-20300
X46000Y-24300
X46000Y-25300
X47000Y-19300
X47000Y-20300
X47000Y-24300
X47000Y-25300
X47550Y-36350
X47550Y-38150
X47550Y-41968
X47550Y-43768
X47550Y-47586
X47550Y-49386
X47550Y-53204
X47550Y-55004
X47700Y-31100
X47700Y-32900
X48000Y-19300
X48000Y-20300
X48000Y-24300
X48000Y-25300
X49000Y-19300
X49000Y-20300
X49000Y-24300
X49000Y-25300
X50000Y-19300
X50000Y-20300
X50000Y-21300
X50000Y-22300
X50000Y-23300
X50000Y-24300
X50000Y-25300
X50300Y-31100
X50300Y-32900
X50468Y-36350
X50468Y-38150
X50468Y-41968
X50468Y-43768
X50468Y-47586
X50468Y-49386
X50468Y-53204
X50468Y-55004
X50750Y-12500
X51750Y-12500
X52750Y-12500
X53068Y-36350
X53068Y-38150
X53068Y-41968
X53068Y-43768
X53068Y-47586
X53068Y-49386
X53068Y-53204
X53068Y-55004
X53200Y-31100
X53200Y-32900
X53250Y-17000
X53250Y-18000
X53250Y-19000
X53250Y-20000
X53250Y-21000
X53750Y-12500
X54750Y-12500
X55750Y-12500
X55800Y-31100
X55800Y-32900
X55986Y-36350
X55986Y-38150
X55986Y-41968
X55986Y-43768
X55986Y-47586
X55986Y-49386
X55986Y-53204
X55986Y-55004
X56750Y-12500
X57250Y-17000
X57250Y-18000
X57250Y-19000
X57250Y-20000
X57250Y-21000
X58586Y-36350
X58586Y-38150
X58586Y-41968
X58586Y-43768
X58586Y-47586
X58586Y-49386
X58586Y-53204
X58586Y-55004
X58700Y-31100
X58700Y-32900
X61300Y-31100
X61300Y-32900
X61504Y-36350
X61504Y-38150
X61504Y-41968
X61504Y-43768
X61504Y-47586
X61504Y-49386
X61504Y-53204
X61504Y-55004
X64104Y-36350
X64104Y-38150
X64104Y-41968
X64104Y-43768
X64104Y-47586
X64104Y-49386
X64104Y-53204
X64104Y-55004
X67200Y-45100
X67200Y-46900
X67200Y-47600
X67200Y-49400
X69800Y-45100
X69800Y-46900
X69800Y-47600
X69800Y-49400
T5
X61800Y-17600
X61800Y-18600
X61800Y-19600
X61800Y-20600
X64800Y-17600
X64800Y-18600
X64800Y-19600
X64800Y-20600
T6
X50500Y-11000
X51500Y-11000
X52500Y-11000
X53250Y-24750
X53250Y-25750
X53250Y-26750
X53250Y-27750
X53250Y-28750
X53500Y-11000
X54250Y-24750
X54250Y-25750
X54250Y-26750
X54250Y-27750
X54250Y-28750
X54500Y-11000
X55500Y-11000
X56500Y-11000
X57250Y-24750
X57250Y-25750
X57250Y-26750
X57250Y-27750
X57250Y-28750
X57500Y-11000
X58250Y-24750
X58250Y-25750
X58250Y-26750
X58250Y-27750
X58250Y-28750
X67531Y-34500
X67531Y-40209
X68516Y-40209
X69500Y-34500
X69500Y-40209
T7
X62316Y-14516
X63300Y-15500
X64284Y-10579
X65269Y-14516
X66016Y-18484
X66016Y-22421
X66253Y-10579
X67000Y-17500
X67000Y-20453
X67000Y-23406
X67237Y-15500
X68221Y-14516
X70937Y-19469
X70937Y-21437
T8
X37880Y-15750
X40640Y-15750
X45750Y-11630
X45750Y-14390
T9
X66272Y-37256
X70760Y-37256
T10
X37250Y-11000
X37250Y-54500
X70750Y-11000
X70750Y-54500
T0
M30
