G04 #@! TF.FileFunction,Legend,Bot*
%FSLAX46Y46*%
G04 Gerber Fmt 4.6, Leading zero omitted, Abs format (unit mm)*
G04 Created by KiCad (PCBNEW (2015-10-14 BZR 6269)-product) date Tuesday, October 20, 2015 'PMt' 02:20:26 PM*
%MOMM*%
G01*
G04 APERTURE LIST*
%ADD10C,0.100000*%
%ADD11C,0.300000*%
%ADD12C,0.127000*%
%ADD13C,0.150000*%
%ADD14C,0.070000*%
%ADD15R,2.500000X1.000000*%
%ADD16C,1.524000*%
%ADD17R,3.200000X3.200000*%
%ADD18R,2.286000X1.574800*%
%ADD19O,2.286000X1.574800*%
%ADD20C,1.676400*%
%ADD21R,1.676400X1.676400*%
%ADD22C,3.000000*%
%ADD23R,2.032000X1.727200*%
%ADD24O,2.032000X1.727200*%
%ADD25R,1.250000X3.000000*%
%ADD26R,3.000000X1.250000*%
%ADD27R,1.727200X1.727200*%
%ADD28O,1.727200X1.727200*%
G04 APERTURE END LIST*
D10*
D11*
X80923573Y-161794571D02*
X80066430Y-161794571D01*
X80495002Y-161794571D02*
X80495002Y-160294571D01*
X80352145Y-160508857D01*
X80209287Y-160651714D01*
X80066430Y-160723143D01*
X82352144Y-161794571D02*
X81495001Y-161794571D01*
X81923573Y-161794571D02*
X81923573Y-160294571D01*
X81780716Y-160508857D01*
X81637858Y-160651714D01*
X81495001Y-160723143D01*
X83637858Y-160294571D02*
X83352144Y-160294571D01*
X83209287Y-160366000D01*
X83137858Y-160437429D01*
X82995001Y-160651714D01*
X82923572Y-160937429D01*
X82923572Y-161508857D01*
X82995001Y-161651714D01*
X83066429Y-161723143D01*
X83209287Y-161794571D01*
X83495001Y-161794571D01*
X83637858Y-161723143D01*
X83709287Y-161651714D01*
X83780715Y-161508857D01*
X83780715Y-161151714D01*
X83709287Y-161008857D01*
X83637858Y-160937429D01*
X83495001Y-160866000D01*
X83209287Y-160866000D01*
X83066429Y-160937429D01*
X82995001Y-161008857D01*
X82923572Y-161151714D01*
X84423572Y-161651714D02*
X84495000Y-161723143D01*
X84423572Y-161794571D01*
X84352143Y-161723143D01*
X84423572Y-161651714D01*
X84423572Y-161794571D01*
X85352144Y-160937429D02*
X85209286Y-160866000D01*
X85137858Y-160794571D01*
X85066429Y-160651714D01*
X85066429Y-160580286D01*
X85137858Y-160437429D01*
X85209286Y-160366000D01*
X85352144Y-160294571D01*
X85637858Y-160294571D01*
X85780715Y-160366000D01*
X85852144Y-160437429D01*
X85923572Y-160580286D01*
X85923572Y-160651714D01*
X85852144Y-160794571D01*
X85780715Y-160866000D01*
X85637858Y-160937429D01*
X85352144Y-160937429D01*
X85209286Y-161008857D01*
X85137858Y-161080286D01*
X85066429Y-161223143D01*
X85066429Y-161508857D01*
X85137858Y-161651714D01*
X85209286Y-161723143D01*
X85352144Y-161794571D01*
X85637858Y-161794571D01*
X85780715Y-161723143D01*
X85852144Y-161651714D01*
X85923572Y-161508857D01*
X85923572Y-161223143D01*
X85852144Y-161080286D01*
X85780715Y-161008857D01*
X85637858Y-160937429D01*
X87209286Y-160794571D02*
X87209286Y-161794571D01*
X86852143Y-160223143D02*
X86495000Y-161294571D01*
X87423572Y-161294571D01*
X88280714Y-160294571D02*
X88423571Y-160294571D01*
X88566428Y-160366000D01*
X88637857Y-160437429D01*
X88709286Y-160580286D01*
X88780714Y-160866000D01*
X88780714Y-161223143D01*
X88709286Y-161508857D01*
X88637857Y-161651714D01*
X88566428Y-161723143D01*
X88423571Y-161794571D01*
X88280714Y-161794571D01*
X88137857Y-161723143D01*
X88066428Y-161651714D01*
X87995000Y-161508857D01*
X87923571Y-161223143D01*
X87923571Y-160866000D01*
X87995000Y-160580286D01*
X88066428Y-160437429D01*
X88137857Y-160366000D01*
X88280714Y-160294571D01*
X90566428Y-161794571D02*
X90566428Y-160794571D01*
X90566428Y-160937429D02*
X90637856Y-160866000D01*
X90780714Y-160794571D01*
X90994999Y-160794571D01*
X91137856Y-160866000D01*
X91209285Y-161008857D01*
X91209285Y-161794571D01*
X91209285Y-161008857D02*
X91280714Y-160866000D01*
X91423571Y-160794571D01*
X91637856Y-160794571D01*
X91780714Y-160866000D01*
X91852142Y-161008857D01*
X91852142Y-161794571D01*
X92566428Y-161794571D02*
X92566428Y-160794571D01*
X92566428Y-160937429D02*
X92637856Y-160866000D01*
X92780714Y-160794571D01*
X92994999Y-160794571D01*
X93137856Y-160866000D01*
X93209285Y-161008857D01*
X93209285Y-161794571D01*
X93209285Y-161008857D02*
X93280714Y-160866000D01*
X93423571Y-160794571D01*
X93637856Y-160794571D01*
X93780714Y-160866000D01*
X93852142Y-161008857D01*
X93852142Y-161794571D01*
X28575000Y-159766000D02*
X145415000Y-159766000D01*
X28575000Y-153670000D02*
X28575000Y-162466000D01*
X145415000Y-153670000D02*
X145415000Y-162466000D01*
X145415000Y-159766000D02*
X144288496Y-160352421D01*
X145415000Y-159766000D02*
X144288496Y-159179579D01*
X28575000Y-159766000D02*
X29701504Y-160352421D01*
X28575000Y-159766000D02*
X29701504Y-159179579D01*
X121590228Y-61040734D02*
X121518999Y-60969105D01*
X121447970Y-60826049D01*
X121448968Y-60468908D01*
X121520796Y-60326251D01*
X121592425Y-60255022D01*
X121735481Y-60183994D01*
X121878337Y-60184393D01*
X122092423Y-60256420D01*
X122947165Y-61115955D01*
X122949761Y-60187388D01*
X121451165Y-59683197D02*
X121453760Y-58754629D01*
X122023789Y-59256225D01*
X122024388Y-59041940D01*
X122096216Y-58899283D01*
X122167844Y-58828054D01*
X122310900Y-58757025D01*
X122668042Y-58758024D01*
X122810698Y-58829851D01*
X122881927Y-58901479D01*
X122952956Y-59044535D01*
X122951758Y-59473106D01*
X122879931Y-59615763D01*
X122808302Y-59686991D01*
X122812695Y-58115569D02*
X122884323Y-58044341D01*
X122955551Y-58115968D01*
X122883924Y-58187197D01*
X122812695Y-58115569D01*
X122955551Y-58115968D01*
X122959745Y-56615974D02*
X122957349Y-57473114D01*
X122958547Y-57044543D02*
X121458552Y-57040350D01*
X121672438Y-57183806D01*
X121814895Y-57327062D01*
X121885925Y-57470118D01*
X122963738Y-55187408D02*
X122961342Y-56044548D01*
X122962540Y-55615978D02*
X121462546Y-55611785D01*
X121676432Y-55755240D01*
X121818889Y-55898497D01*
X121889918Y-56041553D01*
X121967336Y-53898904D02*
X122967332Y-53901700D01*
X121394912Y-54254448D02*
X122465337Y-54614585D01*
X122467933Y-53686017D01*
X122972723Y-51973136D02*
X121972727Y-51970341D01*
X122115585Y-51970740D02*
X122044355Y-51899113D01*
X121973326Y-51756055D01*
X121973925Y-51541771D01*
X122045753Y-51399115D01*
X122188809Y-51328085D01*
X122974520Y-51330282D01*
X122188809Y-51328085D02*
X122046153Y-51256257D01*
X121975123Y-51113201D01*
X121975722Y-50898917D01*
X122047550Y-50756259D01*
X122190606Y-50685231D01*
X122976317Y-50687427D01*
X122978314Y-49973144D02*
X121978318Y-49970348D01*
X122121175Y-49970748D02*
X122049946Y-49899120D01*
X121978917Y-49756063D01*
X121979516Y-49541779D01*
X122051344Y-49399122D01*
X122194400Y-49328093D01*
X122980111Y-49330289D01*
X122194400Y-49328093D02*
X122051743Y-49256265D01*
X121980714Y-49113209D01*
X121981313Y-48898925D01*
X122053141Y-48756267D01*
X122196197Y-48685238D01*
X122981908Y-48687435D01*
X120968480Y-43275144D02*
X120903867Y-66389144D01*
X86932613Y-43180000D02*
X123668469Y-43267596D01*
X86868000Y-66294000D02*
X123603856Y-66381596D01*
X120903867Y-66389144D02*
X120320598Y-65261005D01*
X120903867Y-66389144D02*
X121493434Y-65264284D01*
X120968480Y-43275144D02*
X120378913Y-44400004D01*
X120968480Y-43275144D02*
X121551749Y-44403283D01*
D12*
X-16510000Y-143129000D02*
X-15875000Y-143764000D01*
X-12065000Y-143764000D02*
X-11430000Y-143129000D01*
X-11430000Y-143129000D02*
X-11430000Y-141859000D01*
X-11430000Y-141859000D02*
X-12065000Y-141224000D01*
X-12065000Y-141224000D02*
X-15875000Y-141224000D01*
X-15875000Y-141224000D02*
X-16510000Y-141859000D01*
X-16510000Y-141859000D02*
X-16510000Y-143129000D01*
X-16510000Y-144399000D02*
X-16510000Y-145669000D01*
X-15875000Y-143764000D02*
X-16510000Y-144399000D01*
X-12065000Y-143764000D02*
X-15875000Y-143764000D01*
X-11430000Y-144399000D02*
X-12065000Y-143764000D01*
X-11430000Y-145669000D02*
X-11430000Y-144399000D01*
X-12065000Y-146304000D02*
X-11430000Y-145669000D01*
X-16510000Y-145669000D02*
X-15875000Y-146304000D01*
X-16510000Y-148209000D02*
X-15875000Y-148844000D01*
X-12065000Y-148844000D02*
X-11430000Y-148209000D01*
X-11430000Y-148209000D02*
X-11430000Y-146939000D01*
X-11430000Y-146939000D02*
X-12065000Y-146304000D01*
X-12065000Y-146304000D02*
X-15875000Y-146304000D01*
X-15875000Y-146304000D02*
X-16510000Y-146939000D01*
X-16510000Y-146939000D02*
X-16510000Y-148209000D01*
X-16510000Y-149479000D02*
X-16510000Y-150749000D01*
X-15875000Y-148844000D02*
X-16510000Y-149479000D01*
X-12065000Y-148844000D02*
X-15875000Y-148844000D01*
X-11430000Y-149479000D02*
X-12065000Y-148844000D01*
X-11430000Y-150749000D02*
X-11430000Y-149479000D01*
X-12065000Y-151384000D02*
X-11430000Y-150749000D01*
X-16510000Y-150749000D02*
X-15875000Y-151384000D01*
X-16510000Y-153289000D02*
X-15875000Y-153924000D01*
X-15875000Y-153924000D02*
X-12065000Y-153924000D01*
X-12065000Y-153924000D02*
X-11430000Y-153289000D01*
X-11430000Y-153289000D02*
X-11430000Y-152019000D01*
X-11430000Y-152019000D02*
X-12065000Y-151384000D01*
X-12065000Y-151384000D02*
X-15875000Y-151384000D01*
X-15875000Y-151384000D02*
X-16510000Y-152019000D01*
X-16510000Y-152019000D02*
X-16510000Y-153289000D01*
X-17145000Y-153289000D02*
X-17145000Y-152019000D01*
D10*
X-2794000Y13335000D02*
X-15494000Y13335000D01*
X-15494000Y13335000D02*
X-15494000Y635000D01*
X-15494000Y635000D02*
X-2794000Y635000D01*
X-2794000Y635000D02*
X-2794000Y13335000D01*
D13*
X-228473000Y-136525000D02*
X-228473000Y-131445000D01*
X-228473000Y-131445000D02*
X-225933000Y-131445000D01*
X-225933000Y-131445000D02*
X-225933000Y-136525000D01*
X-225653000Y-139345000D02*
X-225653000Y-137795000D01*
X-225933000Y-136525000D02*
X-228473000Y-136525000D01*
X-228753000Y-137795000D02*
X-228753000Y-139345000D01*
X-228753000Y-139345000D02*
X-225653000Y-139345000D01*
X-213865953Y-136864001D02*
X-213865953Y-131784001D01*
X-213865953Y-131784001D02*
X-211325953Y-131784001D01*
X-211325953Y-131784001D02*
X-211325953Y-136864001D01*
X-211045953Y-139684001D02*
X-211045953Y-138134001D01*
X-211325953Y-136864001D02*
X-213865953Y-136864001D01*
X-214145953Y-138134001D02*
X-214145953Y-139684001D01*
X-214145953Y-139684001D02*
X-211045953Y-139684001D01*
D14*
X-16893410Y-146887453D02*
X-17393410Y-146887453D01*
X-17393410Y-147077929D01*
X-17369600Y-147125548D01*
X-17345790Y-147149357D01*
X-17298171Y-147173167D01*
X-17226743Y-147173167D01*
X-17179124Y-147149357D01*
X-17155314Y-147125548D01*
X-17131505Y-147077929D01*
X-17131505Y-146887453D01*
X-16893410Y-147649357D02*
X-16893410Y-147363643D01*
X-16893410Y-147506500D02*
X-17393410Y-147506500D01*
X-17321981Y-147458881D01*
X-17274362Y-147411262D01*
X-17250552Y-147363643D01*
X-10819629Y-145028696D02*
X-10795819Y-145004886D01*
X-10772010Y-144933458D01*
X-10772010Y-144885839D01*
X-10795819Y-144814410D01*
X-10843438Y-144766791D01*
X-10891057Y-144742982D01*
X-10986295Y-144719172D01*
X-11057724Y-144719172D01*
X-11152962Y-144742982D01*
X-11200581Y-144766791D01*
X-11248200Y-144814410D01*
X-11272010Y-144885839D01*
X-11272010Y-144933458D01*
X-11248200Y-145004886D01*
X-11224390Y-145028696D01*
X-11272010Y-145338220D02*
X-11272010Y-145433458D01*
X-11248200Y-145481077D01*
X-11200581Y-145528696D01*
X-11105343Y-145552505D01*
X-10938676Y-145552505D01*
X-10843438Y-145528696D01*
X-10795819Y-145481077D01*
X-10772010Y-145433458D01*
X-10772010Y-145338220D01*
X-10795819Y-145290601D01*
X-10843438Y-145242982D01*
X-10938676Y-145219172D01*
X-11105343Y-145219172D01*
X-11200581Y-145242982D01*
X-11248200Y-145290601D01*
X-11272010Y-145338220D01*
X-10772010Y-145766792D02*
X-11272010Y-145766792D01*
X-10772010Y-146052506D01*
X-11272010Y-146052506D01*
X-10772010Y-146290602D02*
X-11272010Y-146290602D01*
X-10772010Y-146576316D01*
X-11272010Y-146576316D01*
X-10724390Y-146695364D02*
X-10724390Y-147076316D01*
X-11272010Y-147290602D02*
X-11272010Y-147338221D01*
X-11248200Y-147385840D01*
X-11224390Y-147409649D01*
X-11176771Y-147433459D01*
X-11081533Y-147457268D01*
X-10962486Y-147457268D01*
X-10867248Y-147433459D01*
X-10819629Y-147409649D01*
X-10795819Y-147385840D01*
X-10772010Y-147338221D01*
X-10772010Y-147290602D01*
X-10795819Y-147242983D01*
X-10819629Y-147219173D01*
X-10867248Y-147195364D01*
X-10962486Y-147171554D01*
X-11081533Y-147171554D01*
X-11176771Y-147195364D01*
X-11224390Y-147219173D01*
X-11248200Y-147242983D01*
X-11272010Y-147290602D01*
X-11224390Y-147647744D02*
X-11248200Y-147671554D01*
X-11272010Y-147719173D01*
X-11272010Y-147838220D01*
X-11248200Y-147885839D01*
X-11224390Y-147909649D01*
X-11176771Y-147933458D01*
X-11129152Y-147933458D01*
X-11057724Y-147909649D01*
X-10772010Y-147623935D01*
X-10772010Y-147933458D01*
X-11272010Y-148100125D02*
X-10772010Y-148433458D01*
X-11272010Y-148433458D02*
X-10772010Y-148100125D01*
X-11272010Y-148719172D02*
X-11272010Y-148766791D01*
X-11248200Y-148814410D01*
X-11224390Y-148838219D01*
X-11176771Y-148862029D01*
X-11081533Y-148885838D01*
X-10962486Y-148885838D01*
X-10867248Y-148862029D01*
X-10819629Y-148838219D01*
X-10795819Y-148814410D01*
X-10772010Y-148766791D01*
X-10772010Y-148719172D01*
X-10795819Y-148671553D01*
X-10819629Y-148647743D01*
X-10867248Y-148623934D01*
X-10962486Y-148600124D01*
X-11081533Y-148600124D01*
X-11176771Y-148623934D01*
X-11224390Y-148647743D01*
X-11248200Y-148671553D01*
X-11272010Y-148719172D01*
X-11272010Y-149338219D02*
X-11272010Y-149100124D01*
X-11033914Y-149076314D01*
X-11057724Y-149100124D01*
X-11081533Y-149147743D01*
X-11081533Y-149266790D01*
X-11057724Y-149314409D01*
X-11033914Y-149338219D01*
X-10986295Y-149362028D01*
X-10867248Y-149362028D01*
X-10819629Y-149338219D01*
X-10795819Y-149314409D01*
X-10772010Y-149266790D01*
X-10772010Y-149147743D01*
X-10795819Y-149100124D01*
X-10819629Y-149076314D01*
D13*
X-8382095Y2452619D02*
X-8382095Y1643095D01*
X-8429714Y1547857D01*
X-8477333Y1500238D01*
X-8572571Y1452619D01*
X-8763048Y1452619D01*
X-8858286Y1500238D01*
X-8905905Y1547857D01*
X-8953524Y1643095D01*
X-8953524Y2452619D01*
X-9858286Y2119286D02*
X-9858286Y1452619D01*
X-9620190Y2500238D02*
X-9382095Y1785952D01*
X-10001143Y1785952D01*
X-224274429Y-143347381D02*
X-224274429Y-142347381D01*
X-224607763Y-143061667D01*
X-224941096Y-142347381D01*
X-224941096Y-143347381D01*
X-225417286Y-143347381D02*
X-225417286Y-142347381D01*
X-225893476Y-143347381D02*
X-225893476Y-142347381D01*
X-226131571Y-142347381D01*
X-226274429Y-142395000D01*
X-226369667Y-142490238D01*
X-226417286Y-142585476D01*
X-226464905Y-142775952D01*
X-226464905Y-142918810D01*
X-226417286Y-143109286D01*
X-226369667Y-143204524D01*
X-226274429Y-143299762D01*
X-226131571Y-143347381D01*
X-225893476Y-143347381D01*
X-226893476Y-143347381D02*
X-226893476Y-142347381D01*
X-227131571Y-143442619D02*
X-227893476Y-143442619D01*
X-228131571Y-143347381D02*
X-228131571Y-142347381D01*
X-228607761Y-143347381D02*
X-228607761Y-142347381D01*
X-229179190Y-143347381D01*
X-229179190Y-142347381D01*
X-230179190Y-143347381D02*
X-229607761Y-143347381D01*
X-229893475Y-143347381D02*
X-229893475Y-142347381D01*
X-229798237Y-142490238D01*
X-229702999Y-142585476D01*
X-229607761Y-142633095D01*
X-209000715Y-143686382D02*
X-209000715Y-142686382D01*
X-209334049Y-143400668D01*
X-209667382Y-142686382D01*
X-209667382Y-143686382D01*
X-210143572Y-143686382D02*
X-210143572Y-142686382D01*
X-210619762Y-143686382D02*
X-210619762Y-142686382D01*
X-210857857Y-142686382D01*
X-211000715Y-142734001D01*
X-211095953Y-142829239D01*
X-211143572Y-142924477D01*
X-211191191Y-143114953D01*
X-211191191Y-143257811D01*
X-211143572Y-143448287D01*
X-211095953Y-143543525D01*
X-211000715Y-143638763D01*
X-210857857Y-143686382D01*
X-210619762Y-143686382D01*
X-211619762Y-143686382D02*
X-211619762Y-142686382D01*
X-211857857Y-143781620D02*
X-212619762Y-143781620D01*
X-213048333Y-142686382D02*
X-213238810Y-142686382D01*
X-213334048Y-142734001D01*
X-213429286Y-142829239D01*
X-213476905Y-143019715D01*
X-213476905Y-143353049D01*
X-213429286Y-143543525D01*
X-213334048Y-143638763D01*
X-213238810Y-143686382D01*
X-213048333Y-143686382D01*
X-212953095Y-143638763D01*
X-212857857Y-143543525D01*
X-212810238Y-143353049D01*
X-212810238Y-143019715D01*
X-212857857Y-142829239D01*
X-212953095Y-142734001D01*
X-213048333Y-142686382D01*
X-213905476Y-142686382D02*
X-213905476Y-143495906D01*
X-213953095Y-143591144D01*
X-214000714Y-143638763D01*
X-214095952Y-143686382D01*
X-214286429Y-143686382D01*
X-214381667Y-143638763D01*
X-214429286Y-143591144D01*
X-214476905Y-143495906D01*
X-214476905Y-142686382D01*
X-214810238Y-142686382D02*
X-215381667Y-142686382D01*
X-215095952Y-143686382D02*
X-215095952Y-142686382D01*
X-216238810Y-143686382D02*
X-215667381Y-143686382D01*
X-215953095Y-143686382D02*
X-215953095Y-142686382D01*
X-215857857Y-142829239D01*
X-215762619Y-142924477D01*
X-215667381Y-142972096D01*
%LPC*%
D11*
X258154285Y-160633049D02*
X258154285Y-159133049D01*
X257582857Y-159133049D01*
X257439999Y-159204478D01*
X257368571Y-159275907D01*
X257297142Y-159418764D01*
X257297142Y-159633049D01*
X257368571Y-159775907D01*
X257439999Y-159847335D01*
X257582857Y-159918764D01*
X258154285Y-159918764D01*
X255797142Y-160633049D02*
X256297142Y-159918764D01*
X256654285Y-160633049D02*
X256654285Y-159133049D01*
X256082857Y-159133049D01*
X255939999Y-159204478D01*
X255868571Y-159275907D01*
X255797142Y-159418764D01*
X255797142Y-159633049D01*
X255868571Y-159775907D01*
X255939999Y-159847335D01*
X256082857Y-159918764D01*
X256654285Y-159918764D01*
X254868571Y-159133049D02*
X254582857Y-159133049D01*
X254439999Y-159204478D01*
X254297142Y-159347335D01*
X254225714Y-159633049D01*
X254225714Y-160133049D01*
X254297142Y-160418764D01*
X254439999Y-160561621D01*
X254582857Y-160633049D01*
X254868571Y-160633049D01*
X255011428Y-160561621D01*
X255154285Y-160418764D01*
X255225714Y-160133049D01*
X255225714Y-159633049D01*
X255154285Y-159347335D01*
X255011428Y-159204478D01*
X254868571Y-159133049D01*
X253797142Y-159133049D02*
X252939999Y-159133049D01*
X253368570Y-160633049D02*
X253368570Y-159133049D01*
X252154285Y-159133049D02*
X251868571Y-159133049D01*
X251725713Y-159204478D01*
X251582856Y-159347335D01*
X251511428Y-159633049D01*
X251511428Y-160133049D01*
X251582856Y-160418764D01*
X251725713Y-160561621D01*
X251868571Y-160633049D01*
X252154285Y-160633049D01*
X252297142Y-160561621D01*
X252439999Y-160418764D01*
X252511428Y-160133049D01*
X252511428Y-159633049D01*
X252439999Y-159347335D01*
X252297142Y-159204478D01*
X252154285Y-159133049D01*
X251082856Y-159133049D02*
X250225713Y-159133049D01*
X250654284Y-160633049D02*
X250654284Y-159133049D01*
X249439999Y-159918764D02*
X249439999Y-160633049D01*
X249939999Y-159133049D02*
X249439999Y-159918764D01*
X248939999Y-159133049D01*
X248439999Y-160633049D02*
X248439999Y-159133049D01*
X247868571Y-159133049D01*
X247725713Y-159204478D01*
X247654285Y-159275907D01*
X247582856Y-159418764D01*
X247582856Y-159633049D01*
X247654285Y-159775907D01*
X247725713Y-159847335D01*
X247868571Y-159918764D01*
X248439999Y-159918764D01*
X246939999Y-159847335D02*
X246439999Y-159847335D01*
X246225713Y-160633049D02*
X246939999Y-160633049D01*
X246939999Y-159133049D01*
X246225713Y-159133049D01*
X244511428Y-159633049D02*
X243439999Y-159633049D01*
X244082856Y-158990192D02*
X244511428Y-160918764D01*
X243582856Y-160275907D02*
X244654285Y-160275907D01*
X244011428Y-160918764D02*
X243582856Y-158990192D01*
X242297142Y-159133049D02*
X242582856Y-159133049D01*
X242725713Y-159204478D01*
X242797142Y-159275907D01*
X242939999Y-159490192D01*
X243011428Y-159775907D01*
X243011428Y-160347335D01*
X242939999Y-160490192D01*
X242868571Y-160561621D01*
X242725713Y-160633049D01*
X242439999Y-160633049D01*
X242297142Y-160561621D01*
X242225713Y-160490192D01*
X242154285Y-160347335D01*
X242154285Y-159990192D01*
X242225713Y-159847335D01*
X242297142Y-159775907D01*
X242439999Y-159704478D01*
X242725713Y-159704478D01*
X242868571Y-159775907D01*
X242939999Y-159847335D01*
X243011428Y-159990192D01*
X258047142Y-161533049D02*
X257761428Y-161533049D01*
X257618570Y-161604478D01*
X257475713Y-161747335D01*
X257404285Y-162033049D01*
X257404285Y-162533049D01*
X257475713Y-162818764D01*
X257618570Y-162961621D01*
X257761428Y-163033049D01*
X258047142Y-163033049D01*
X258189999Y-162961621D01*
X258332856Y-162818764D01*
X258404285Y-162533049D01*
X258404285Y-162033049D01*
X258332856Y-161747335D01*
X258189999Y-161604478D01*
X258047142Y-161533049D01*
X255904284Y-162890192D02*
X255975713Y-162961621D01*
X256189999Y-163033049D01*
X256332856Y-163033049D01*
X256547141Y-162961621D01*
X256689999Y-162818764D01*
X256761427Y-162675907D01*
X256832856Y-162390192D01*
X256832856Y-162175907D01*
X256761427Y-161890192D01*
X256689999Y-161747335D01*
X256547141Y-161604478D01*
X256332856Y-161533049D01*
X256189999Y-161533049D01*
X255975713Y-161604478D01*
X255904284Y-161675907D01*
X255475713Y-161533049D02*
X254618570Y-161533049D01*
X255047141Y-163033049D02*
X255047141Y-161533049D01*
X253832856Y-161533049D02*
X253547142Y-161533049D01*
X253404284Y-161604478D01*
X253261427Y-161747335D01*
X253189999Y-162033049D01*
X253189999Y-162533049D01*
X253261427Y-162818764D01*
X253404284Y-162961621D01*
X253547142Y-163033049D01*
X253832856Y-163033049D01*
X253975713Y-162961621D01*
X254118570Y-162818764D01*
X254189999Y-162533049D01*
X254189999Y-162033049D01*
X254118570Y-161747335D01*
X253975713Y-161604478D01*
X253832856Y-161533049D01*
X252047141Y-162247335D02*
X251832855Y-162318764D01*
X251761427Y-162390192D01*
X251689998Y-162533049D01*
X251689998Y-162747335D01*
X251761427Y-162890192D01*
X251832855Y-162961621D01*
X251975713Y-163033049D01*
X252547141Y-163033049D01*
X252547141Y-161533049D01*
X252047141Y-161533049D01*
X251904284Y-161604478D01*
X251832855Y-161675907D01*
X251761427Y-161818764D01*
X251761427Y-161961621D01*
X251832855Y-162104478D01*
X251904284Y-162175907D01*
X252047141Y-162247335D01*
X252547141Y-162247335D01*
X251047141Y-162247335D02*
X250547141Y-162247335D01*
X250332855Y-163033049D02*
X251047141Y-163033049D01*
X251047141Y-161533049D01*
X250332855Y-161533049D01*
X248832855Y-163033049D02*
X249332855Y-162318764D01*
X249689998Y-163033049D02*
X249689998Y-161533049D01*
X249118570Y-161533049D01*
X248975712Y-161604478D01*
X248904284Y-161675907D01*
X248832855Y-161818764D01*
X248832855Y-162033049D01*
X248904284Y-162175907D01*
X248975712Y-162247335D01*
X249118570Y-162318764D01*
X249689998Y-162318764D01*
X247118570Y-161675907D02*
X247047141Y-161604478D01*
X246904284Y-161533049D01*
X246547141Y-161533049D01*
X246404284Y-161604478D01*
X246332855Y-161675907D01*
X246261427Y-161818764D01*
X246261427Y-161961621D01*
X246332855Y-162175907D01*
X247189998Y-163033049D01*
X246261427Y-163033049D01*
X245332856Y-161533049D02*
X245189999Y-161533049D01*
X245047142Y-161604478D01*
X244975713Y-161675907D01*
X244904284Y-161818764D01*
X244832856Y-162104478D01*
X244832856Y-162461621D01*
X244904284Y-162747335D01*
X244975713Y-162890192D01*
X245047142Y-162961621D01*
X245189999Y-163033049D01*
X245332856Y-163033049D01*
X245475713Y-162961621D01*
X245547142Y-162890192D01*
X245618570Y-162747335D01*
X245689999Y-162461621D01*
X245689999Y-162104478D01*
X245618570Y-161818764D01*
X245547142Y-161675907D01*
X245475713Y-161604478D01*
X245332856Y-161533049D01*
X243404285Y-163033049D02*
X244261428Y-163033049D01*
X243832856Y-163033049D02*
X243832856Y-161533049D01*
X243975713Y-161747335D01*
X244118571Y-161890192D01*
X244261428Y-161961621D01*
X242047142Y-161533049D02*
X242761428Y-161533049D01*
X242832857Y-162247335D01*
X242761428Y-162175907D01*
X242618571Y-162104478D01*
X242261428Y-162104478D01*
X242118571Y-162175907D01*
X242047142Y-162247335D01*
X241975714Y-162390192D01*
X241975714Y-162747335D01*
X242047142Y-162890192D01*
X242118571Y-162961621D01*
X242261428Y-163033049D01*
X242618571Y-163033049D01*
X242761428Y-162961621D01*
X242832857Y-162890192D01*
X280894999Y-159133049D02*
X279894999Y-159133049D01*
X280894999Y-160633049D01*
X279894999Y-160633049D01*
X279323571Y-159847335D02*
X278823571Y-159847335D01*
X278609285Y-160633049D02*
X279323571Y-160633049D01*
X279323571Y-159133049D01*
X278609285Y-159133049D01*
X278180714Y-159133049D02*
X277323571Y-159133049D01*
X277752142Y-160633049D02*
X277752142Y-159133049D01*
X276895000Y-160204478D02*
X276180714Y-160204478D01*
X277037857Y-160633049D02*
X276537857Y-159133049D01*
X276037857Y-160633049D01*
X275252143Y-159133049D02*
X274966429Y-159133049D01*
X274823571Y-159204478D01*
X274680714Y-159347335D01*
X274609286Y-159633049D01*
X274609286Y-160133049D01*
X274680714Y-160418764D01*
X274823571Y-160561621D01*
X274966429Y-160633049D01*
X275252143Y-160633049D01*
X275395000Y-160561621D01*
X275537857Y-160418764D01*
X275609286Y-160133049D01*
X275609286Y-159633049D01*
X275537857Y-159347335D01*
X275395000Y-159204478D01*
X275252143Y-159133049D01*
X273966428Y-160633049D02*
X273966428Y-159133049D01*
X273966428Y-159847335D02*
X273109285Y-159847335D01*
X273109285Y-160633049D02*
X273109285Y-159133049D01*
X272394999Y-160633049D02*
X272394999Y-159133049D01*
X271894999Y-160204478D01*
X271394999Y-159133049D01*
X271394999Y-160633049D01*
X269609285Y-160204478D02*
X268894999Y-160204478D01*
X269752142Y-160633049D02*
X269252142Y-159133049D01*
X268752142Y-160633049D01*
X267752142Y-159847335D02*
X268252142Y-159847335D01*
X268252142Y-160633049D02*
X268252142Y-159133049D01*
X267537856Y-159133049D01*
X267109285Y-159133049D02*
X266109285Y-160633049D01*
X266109285Y-159133049D02*
X267109285Y-160633049D01*
X265537857Y-160061621D02*
X264395000Y-160061621D01*
X263395000Y-159133049D02*
X263252143Y-159133049D01*
X263109286Y-159204478D01*
X263037857Y-159275907D01*
X262966428Y-159418764D01*
X262895000Y-159704478D01*
X262895000Y-160061621D01*
X262966428Y-160347335D01*
X263037857Y-160490192D01*
X263109286Y-160561621D01*
X263252143Y-160633049D01*
X263395000Y-160633049D01*
X263537857Y-160561621D01*
X263609286Y-160490192D01*
X263680714Y-160347335D01*
X263752143Y-160061621D01*
X263752143Y-159704478D01*
X263680714Y-159418764D01*
X263609286Y-159275907D01*
X263537857Y-159204478D01*
X263395000Y-159133049D01*
X261466429Y-160633049D02*
X262323572Y-160633049D01*
X261895000Y-160633049D02*
X261895000Y-159133049D01*
X262037857Y-159347335D01*
X262180715Y-159490192D01*
X262323572Y-159561621D01*
X279145000Y-161533049D02*
X278287857Y-161533049D01*
X278716428Y-163033049D02*
X278716428Y-161533049D01*
X277787857Y-162247335D02*
X277287857Y-162247335D01*
X277073571Y-163033049D02*
X277787857Y-163033049D01*
X277787857Y-161533049D01*
X277073571Y-161533049D01*
X276430714Y-163033049D02*
X276430714Y-161533049D01*
X275573571Y-163033049D01*
X275573571Y-161533049D01*
X274859285Y-163033049D02*
X274859285Y-161533049D01*
X274002142Y-163033049D02*
X274644999Y-162175907D01*
X274002142Y-161533049D02*
X274859285Y-162390192D01*
X273430714Y-162604478D02*
X272716428Y-162604478D01*
X273573571Y-163033049D02*
X273073571Y-161533049D01*
X272573571Y-163033049D01*
X272073571Y-163033049D02*
X272073571Y-161533049D01*
X270216428Y-163033049D02*
X270216428Y-161533049D01*
X269359285Y-163033049D02*
X270002142Y-162175907D01*
X269359285Y-161533049D02*
X270216428Y-162390192D01*
X268787857Y-162604478D02*
X268073571Y-162604478D01*
X268930714Y-163033049D02*
X268430714Y-161533049D01*
X267930714Y-163033049D01*
X266573571Y-163033049D02*
X267073571Y-162318764D01*
X267430714Y-163033049D02*
X267430714Y-161533049D01*
X266859286Y-161533049D01*
X266716428Y-161604478D01*
X266645000Y-161675907D01*
X266573571Y-161818764D01*
X266573571Y-162033049D01*
X266645000Y-162175907D01*
X266716428Y-162247335D01*
X266859286Y-162318764D01*
X267430714Y-162318764D01*
X265930714Y-163033049D02*
X265930714Y-161533049D01*
X264930714Y-162318764D02*
X264930714Y-163033049D01*
X265430714Y-161533049D02*
X264930714Y-162318764D01*
X264430714Y-161533049D01*
X264002143Y-162604478D02*
X263287857Y-162604478D01*
X264145000Y-163033049D02*
X263645000Y-161533049D01*
X263145000Y-163033049D01*
D15*
X126746000Y-130970000D03*
X126746000Y-139270000D03*
X126746000Y-142370000D03*
D16*
X134295927Y-60052305D03*
X134295927Y-62552305D03*
X134295927Y-65052305D03*
X148795927Y-65052305D03*
X148795927Y-60052305D03*
D17*
X141795927Y-56852305D03*
X141795927Y-68252305D03*
D18*
X-187833000Y-78359000D03*
D19*
X-187833000Y-75819000D03*
X-187833000Y-73279000D03*
X-187833000Y-70739000D03*
X-195453000Y-70739000D03*
X-195453000Y-73279000D03*
X-195453000Y-75819000D03*
X-195453000Y-78359000D03*
D20*
X-12700000Y-142494000D03*
X-15240000Y-142494000D03*
X-15240000Y-145034000D03*
X-12700000Y-145034000D03*
X-12700000Y-147574000D03*
X-15240000Y-147574000D03*
X-15240000Y-150114000D03*
X-12700000Y-150114000D03*
X-12700000Y-152654000D03*
D21*
X-15240000Y-152654000D03*
D16*
X-4064000Y12065000D03*
X-4064000Y9525000D03*
X-4064000Y6985000D03*
X-4064000Y4445000D03*
X-4064000Y1905000D03*
X-14224000Y1905000D03*
X-14224000Y12065000D03*
X-14224000Y9525000D03*
X-14224000Y6985000D03*
X-14224000Y4445000D03*
D22*
X-233426000Y-59309000D03*
X-204216000Y-59309000D03*
D16*
X-227711000Y-30099000D03*
X-225171000Y-30099000D03*
X-209931000Y-30099000D03*
X-212471000Y-30099000D03*
X-215011000Y-30099000D03*
X-217551000Y-30099000D03*
X-220091000Y-30099000D03*
X-222631000Y-30099000D03*
D22*
X-233426000Y-30099000D03*
X-233426000Y-30099000D03*
D16*
X-222631000Y-30099000D03*
X-220091000Y-30099000D03*
X-217551000Y-30099000D03*
X-215011000Y-30099000D03*
X-212471000Y-30099000D03*
X-209931000Y-30099000D03*
X-225171000Y-30099000D03*
X-227711000Y-30099000D03*
D22*
X-204216000Y-30099000D03*
D16*
X124146144Y-48063638D03*
X124146144Y-50563638D03*
X124146144Y-53063638D03*
X138646144Y-53063638D03*
X138646144Y-48063638D03*
D17*
X131646144Y-44863638D03*
X131646144Y-56263638D03*
D15*
X106411888Y-152494000D03*
X106411888Y-144194000D03*
X106411888Y-141094000D03*
X68763444Y-152494000D03*
X68763444Y-144194000D03*
X68763444Y-141094000D03*
X96999777Y-152494000D03*
X96999777Y-144194000D03*
X96999777Y-141094000D03*
X78175555Y-152494000D03*
X78175555Y-144194000D03*
X78175555Y-141094000D03*
X70146328Y-130970000D03*
X70146328Y-139270000D03*
X70146328Y-142370000D03*
X79586660Y-130970000D03*
X79586660Y-139270000D03*
X79586660Y-142370000D03*
X98467324Y-130970000D03*
X98467324Y-139270000D03*
X98467324Y-142370000D03*
D23*
X-227203000Y-137795000D03*
D24*
X-227203000Y-135255000D03*
X-227203000Y-132715000D03*
D23*
X-212595953Y-138134001D03*
D24*
X-212595953Y-135594001D03*
X-212595953Y-133054001D03*
D15*
X107907656Y-130970000D03*
X107907656Y-139270000D03*
X107907656Y-142370000D03*
D16*
X30734000Y-63881000D03*
X33274000Y-63881000D03*
X35814000Y-63881000D03*
X38354000Y-63881000D03*
X40894000Y-63881000D03*
X43434000Y-63881000D03*
X45974000Y-63881000D03*
X48514000Y-63881000D03*
X51054000Y-63881000D03*
X53594000Y-63881000D03*
X56134000Y-63881000D03*
X58674000Y-63881000D03*
X58674000Y-48641000D03*
X56134000Y-48641000D03*
X53594000Y-48641000D03*
X51054000Y-48641000D03*
X48514000Y-48641000D03*
X45974000Y-48641000D03*
X43434000Y-48641000D03*
X40894000Y-48641000D03*
X38354000Y-48641000D03*
X35814000Y-48641000D03*
X33274000Y-48641000D03*
X56134000Y-51181000D03*
X53594000Y-51181000D03*
X58674000Y-51181000D03*
X58674000Y-53721000D03*
X25654000Y-63881000D03*
X58674000Y-58801000D03*
X58674000Y-61341000D03*
X25654000Y-48641000D03*
X28194000Y-48641000D03*
X30734000Y-48641000D03*
X58674000Y-56261000D03*
X28194000Y-63881000D03*
D25*
X128468000Y-146674000D03*
D26*
X124068000Y-151974000D03*
X124068000Y-144274000D03*
D27*
X78105000Y-52324000D03*
D28*
X78105000Y-49784000D03*
X80645000Y-52324000D03*
X80645000Y-49784000D03*
X83185000Y-52324000D03*
X83185000Y-49784000D03*
X85725000Y-52324000D03*
X85725000Y-49784000D03*
X88265000Y-52324000D03*
X88265000Y-49784000D03*
X90805000Y-52324000D03*
X90805000Y-49784000D03*
X93345000Y-52324000D03*
X93345000Y-49784000D03*
X95885000Y-52324000D03*
X95885000Y-49784000D03*
D15*
X31115000Y-152494000D03*
X31115000Y-144194000D03*
X31115000Y-141094000D03*
X32385000Y-130970000D03*
X32385000Y-139270000D03*
X32385000Y-142370000D03*
X41825332Y-130970000D03*
X41825332Y-139270000D03*
X41825332Y-142370000D03*
X40527111Y-152494000D03*
X40527111Y-144194000D03*
X40527111Y-141094000D03*
X51265664Y-130970000D03*
X51265664Y-139270000D03*
X51265664Y-142370000D03*
X60705996Y-130970000D03*
X60705996Y-139270000D03*
X60705996Y-142370000D03*
X49939222Y-152494000D03*
X49939222Y-144194000D03*
X49939222Y-141094000D03*
X59351333Y-152494000D03*
X59351333Y-144194000D03*
X59351333Y-141094000D03*
X89026992Y-130970000D03*
X89026992Y-139270000D03*
X89026992Y-142370000D03*
X87587666Y-152494000D03*
X87587666Y-144194000D03*
X87587666Y-141094000D03*
X117347988Y-130970000D03*
X117347988Y-139270000D03*
X117347988Y-142370000D03*
X115823999Y-152494000D03*
X115823999Y-144194000D03*
X115823999Y-141094000D03*
D16*
X-17208500Y-22115001D03*
X-23812500Y-22115001D03*
X-23812500Y-26687001D03*
X-17208500Y-26687001D03*
X-17208500Y-22115001D03*
X-23812500Y-22115001D03*
X-23812500Y-26687001D03*
X-17208500Y-26687001D03*
X-17208500Y-22115001D03*
X-23812500Y-22115001D03*
X-23812500Y-26687001D03*
X-17208500Y-26687001D03*
X-17208500Y-22115001D03*
X-23812500Y-22115001D03*
X-23812500Y-26687001D03*
X-17208500Y-26687001D03*
X-17208500Y-22115001D03*
X-23812500Y-22115001D03*
X-23812500Y-26687001D03*
X-17208500Y-26687001D03*
X-17208500Y-22115001D03*
X-23812500Y-22115001D03*
X-23812500Y-26687001D03*
X-17208500Y-26687001D03*
X-17208500Y-22115001D03*
X-23812500Y-22115001D03*
X-23812500Y-26687001D03*
X-17208500Y-26687001D03*
X-17208500Y-22115001D03*
X-23812500Y-22115001D03*
X-23812500Y-26687001D03*
X-17208500Y-26687001D03*
X-17208500Y-22115001D03*
X-23812500Y-22115001D03*
X-23812500Y-26687001D03*
X-17208500Y-26687001D03*
X-17208500Y-22115001D03*
X-23812500Y-22115001D03*
X-23812500Y-26687001D03*
X-17208500Y-26687001D03*
X-17208500Y-22115001D03*
X-23812500Y-22115001D03*
X-23812500Y-26687001D03*
X-17208500Y-26687001D03*
X-17208500Y-22115001D03*
X-23812500Y-22115001D03*
X-23812500Y-26687001D03*
X-17208500Y-26687001D03*
X-17208500Y-22115001D03*
X-23812500Y-22115001D03*
X-23812500Y-26687001D03*
X-17208500Y-26687001D03*
X-17208500Y-22115001D03*
X-23812500Y-22115001D03*
X-23812500Y-26687001D03*
X-17208500Y-26687001D03*
X-17208500Y-22115001D03*
X-23812500Y-22115001D03*
X-23812500Y-26687001D03*
X-17208500Y-26687001D03*
X-17208500Y-22115001D03*
X-23812500Y-22115001D03*
X-23812500Y-26687001D03*
X-17208500Y-26687001D03*
X-17208500Y-22115001D03*
X-23812500Y-22115001D03*
X-23812500Y-26687001D03*
X-17208500Y-26687001D03*
X-17208500Y-22115001D03*
X-23812500Y-22115001D03*
X-23812500Y-26687001D03*
X-17208500Y-26687001D03*
X-17208500Y-22115001D03*
X-23812500Y-22115001D03*
X-23812500Y-26687001D03*
X-17208500Y-26687001D03*
X-17208500Y-22115001D03*
X-23812500Y-22115001D03*
X-23812500Y-26687001D03*
X-17208500Y-26687001D03*
X-17208500Y-22115001D03*
X-23812500Y-22115001D03*
X-23812500Y-26687001D03*
X-17208500Y-26687001D03*
X-17208500Y-22115001D03*
X-23812500Y-22115001D03*
X-23812500Y-26687001D03*
X-17208500Y-26687001D03*
X-17208500Y-22115001D03*
X-23812500Y-22115001D03*
X-23812500Y-26687001D03*
X-17208500Y-26687001D03*
X-17208500Y-22115001D03*
X-23812500Y-22115001D03*
X-23812500Y-26687001D03*
X-17208500Y-26687001D03*
X-17208500Y-22115001D03*
X-23812500Y-22115001D03*
X-23812500Y-26687001D03*
X-17208500Y-26687001D03*
M02*
